<svg width="40" height="40" viewBox="0 0 40 40" fill="none" xmlns="http://www.w3.org/2000/svg">
<path d="M35.7263 7.08517C35.6409 6.60728 35.5494 6.12183 35.4518 5.63033C35.3921 5.33316 35.1373 5.10177 34.828 5.08816C34.8257 5.08816 34.8235 5.08816 34.8212 5.08816C33.4601 5.03523 32.3576 3.94939 32.3115 2.61554C32.3115 2.60873 32.3115 2.60268 32.3108 2.59588C32.2956 2.33122 32.1164 2.10211 31.8624 2.01061C31.5871 1.91156 31.3096 1.81553 31.0313 1.72403C28.5753 0.912678 26.0022 0.369003 23.3193 0.133839C22.3174 0.0461254 21.2996 0 20.2675 0C19.2353 0 18.1903 0.0468816 17.1748 0.13762C14.5063 0.375053 11.9468 0.917215 9.50362 1.72403C9.2246 1.81628 8.94785 1.91156 8.67261 2.01061C8.41854 2.10211 8.23933 2.33122 8.22421 2.59588C8.22421 2.60268 8.22421 2.60873 8.22345 2.61554C8.17733 3.94939 7.07485 5.03523 5.71377 5.08741C5.71151 5.08741 5.70924 5.08741 5.70773 5.08741C5.39846 5.10177 5.14363 5.3324 5.08465 5.62957C4.98635 6.12107 4.89486 6.60652 4.80941 7.08517C4.28691 10.0175 4.0094 12.6679 4.00033 14.5242C3.99201 16.3148 4.14173 18.0774 4.44646 19.7939C4.62189 20.7821 4.84798 21.7553 5.12624 22.7088C5.15044 22.7913 5.1769 22.8722 5.2011 22.9546C5.45063 23.7788 5.73722 24.5901 6.06236 25.3841C6.69602 26.9282 7.47032 28.4102 8.37922 29.8091C9.7781 31.9634 11.5021 33.94 13.5067 35.6837C15.1907 37.1536 17.4077 38.7476 19.5219 39.8214C19.99 40.0596 20.5457 40.0596 21.0138 39.8214C23.1273 38.7476 25.3451 37.1536 27.029 35.6837C29.0336 33.94 30.7576 31.9634 32.1565 29.8091C33.0677 28.4065 33.8435 26.9214 34.4779 25.3728C34.8015 24.5826 35.0866 23.7758 35.3346 22.9553C35.3596 22.8737 35.386 22.792 35.4095 22.7096C35.6893 21.7515 35.9161 20.7738 36.0923 19.7818C36.3955 18.0691 36.5445 16.311 36.5361 14.525C36.5271 12.6679 36.2496 10.0175 35.7271 7.08517H35.7263Z" fill="white"/>
<path d="M34.9619 14.8298C34.9354 13.1655 34.6859 10.8577 34.233 8.31554C34.1558 7.88378 34.0734 7.44521 33.9849 7.00135C33.9313 6.73291 33.7006 6.52421 33.4216 6.51136C33.4193 6.51136 33.4178 6.51136 33.4156 6.51136C32.1861 6.46372 31.1902 5.48299 31.1486 4.27768C31.1486 4.27163 31.1486 4.26558 31.1479 4.25953C31.1342 4.02059 30.9724 3.8134 30.7426 3.73098C30.4938 3.64175 30.2435 3.5548 29.9917 3.47162C27.7731 2.73891 25.448 2.2474 23.0237 2.03493C22.1186 1.95553 21.1991 1.91394 20.2668 1.91394C19.3345 1.91394 18.39 1.95629 17.4728 2.03795C15.0622 2.2527 12.7491 2.74193 10.5419 3.47162C10.2901 3.5548 10.0398 3.641 9.79103 3.73098C9.56191 3.8134 9.39934 4.02059 9.38573 4.25953C9.38573 4.26558 9.38573 4.27163 9.38497 4.27768C9.34338 5.48223 8.34753 6.46372 7.11802 6.51136C7.11575 6.51136 7.11424 6.51136 7.11197 6.51136C6.83295 6.52421 6.60232 6.73291 6.54864 7.00135C6.46017 7.44521 6.37699 7.88378 6.29986 8.3163C5.84617 10.863 5.59739 13.1738 5.57093 14.8396C5.57017 14.9062 5.56942 14.9727 5.56866 15.037C5.5611 16.6544 5.69645 18.2469 5.97169 19.7978C6.13048 20.6908 6.33464 21.5694 6.58644 22.4314C6.59249 22.4519 6.5993 22.4723 6.60535 22.4934C6.60232 22.4942 6.59854 22.495 6.59552 22.4965C6.61442 22.5607 6.63484 22.6243 6.6545 22.6878C6.87983 23.4326 7.13844 24.1653 7.43258 24.8829C8.00499 26.278 8.70519 27.6164 9.52562 28.8807C9.79632 29.2973 10.0806 29.7056 10.3778 30.1072C10.3778 30.1072 10.3786 30.1087 10.3793 30.1094C11.4697 31.5824 12.7355 32.9503 14.1586 34.1881C14.216 34.238 14.275 34.2879 14.3332 34.3386C14.3332 34.3386 14.334 34.3394 14.3348 34.3401C15.4803 35.3231 16.8739 36.353 18.2879 37.2014C18.2879 37.2014 18.2887 37.2014 18.2894 37.2022C18.7242 37.463 19.1605 37.7073 19.5923 37.9266C20.015 38.1413 20.5171 38.1413 20.9405 37.9266C21.3723 37.7073 21.8086 37.463 22.2434 37.2022C22.2434 37.2022 22.2441 37.2022 22.2449 37.2014C23.6597 36.353 25.0525 35.3231 26.1981 34.3401C26.1981 34.3401 26.1988 34.3394 26.1996 34.3386C26.2578 34.2887 26.3168 34.238 26.3742 34.1881C27.7973 32.9503 29.0624 31.5824 30.1528 30.1094C30.1528 30.1094 30.1535 30.1079 30.1543 30.1072C30.4514 29.7056 30.7357 29.2973 31.0065 28.8807C31.8291 27.6134 32.5309 26.2712 33.104 24.8723C33.3967 24.1585 33.6537 23.4296 33.8776 22.6878C33.8972 22.6235 33.9169 22.56 33.9366 22.4957C33.9335 22.495 33.9297 22.4942 33.9267 22.4927C33.9328 22.4723 33.9396 22.4519 33.9456 22.4307C34.1982 21.5649 34.4031 20.6825 34.5619 19.7857C34.8356 18.2386 34.9702 16.6499 34.9626 15.0362C34.9626 14.9682 34.9611 14.8986 34.9604 14.8283L34.9619 14.8298Z" fill="white"/>
<mask id="mask0_5005_2596" style="mask-type:luminance" maskUnits="userSpaceOnUse" x="5" y="1" width="30" height="38">
<path d="M34.9619 14.8298C34.9354 13.1655 34.6859 10.8577 34.233 8.31554C34.1558 7.88378 34.0734 7.44521 33.9849 7.00135C33.9313 6.73291 33.7006 6.52421 33.4216 6.51136C33.4193 6.51136 33.4178 6.51136 33.4156 6.51136C32.1861 6.46372 31.1902 5.48299 31.1486 4.27768C31.1486 4.27163 31.1486 4.26558 31.1479 4.25953C31.1342 4.02059 30.9724 3.8134 30.7426 3.73098C30.4938 3.64175 30.2435 3.5548 29.9917 3.47162C27.7731 2.73891 25.448 2.2474 23.0237 2.03493C22.1186 1.95553 21.1991 1.91394 20.2668 1.91394C19.3345 1.91394 18.39 1.95629 17.4728 2.03795C15.0622 2.2527 12.7491 2.74193 10.5419 3.47162C10.2901 3.5548 10.0398 3.641 9.79103 3.73098C9.56191 3.8134 9.39934 4.02059 9.38573 4.25953C9.38573 4.26558 9.38573 4.27163 9.38497 4.27768C9.34338 5.48223 8.34753 6.46372 7.11802 6.51136C7.11575 6.51136 7.11424 6.51136 7.11197 6.51136C6.83295 6.52421 6.60232 6.73291 6.54864 7.00135C6.46017 7.44521 6.37699 7.88378 6.29986 8.3163C5.84617 10.863 5.59739 13.1738 5.57093 14.8396C5.57017 14.9062 5.56942 14.9727 5.56866 15.037C5.5611 16.6544 5.69645 18.2469 5.97169 19.7978C6.13048 20.6908 6.33464 21.5694 6.58644 22.4314C6.59249 22.4519 6.5993 22.4723 6.60535 22.4934C6.60232 22.4942 6.59854 22.495 6.59552 22.4965C6.61442 22.5607 6.63484 22.6243 6.6545 22.6878C6.87983 23.4326 7.13844 24.1653 7.43258 24.8829C8.00499 26.278 8.70519 27.6164 9.52562 28.8807C9.79632 29.2973 10.0806 29.7056 10.3778 30.1072C10.3778 30.1072 10.3786 30.1087 10.3793 30.1094C11.4697 31.5824 12.7355 32.9503 14.1586 34.1881C14.216 34.238 14.275 34.2879 14.3332 34.3386C14.3332 34.3386 14.334 34.3394 14.3348 34.3401C15.4803 35.3231 16.8739 36.353 18.2879 37.2014C18.2879 37.2014 18.2887 37.2014 18.2894 37.2022C18.7242 37.463 19.1605 37.7073 19.5923 37.9266C20.015 38.1413 20.5171 38.1413 20.9405 37.9266C21.3723 37.7073 21.8086 37.463 22.2434 37.2022C22.2434 37.2022 22.2441 37.2022 22.2449 37.2014C23.6597 36.353 25.0525 35.3231 26.1981 34.3401C26.1981 34.3401 26.1988 34.3394 26.1996 34.3386C26.2578 34.2887 26.3168 34.238 26.3742 34.1881C27.7973 32.9503 29.0624 31.5824 30.1528 30.1094C30.1528 30.1094 30.1535 30.1079 30.1543 30.1072C30.4514 29.7056 30.7357 29.2973 31.0065 28.8807C31.8291 27.6134 32.5309 26.2712 33.104 24.8723C33.3967 24.1585 33.6537 23.4296 33.8776 22.6878C33.8972 22.6235 33.9169 22.56 33.9366 22.4957C33.9335 22.495 33.9297 22.4942 33.9267 22.4927C33.9328 22.4723 33.9396 22.4519 33.9456 22.4307C34.1982 21.5649 34.4031 20.6825 34.5619 19.7857C34.8356 18.2386 34.9702 16.6499 34.9626 15.0362C34.9626 14.9682 34.9611 14.8986 34.9604 14.8283L34.9619 14.8298Z" fill="white"/>
</mask>
<g mask="url(#mask0_5005_2596)">
<path d="M38.5218 17.1844C37.6983 16.7488 36.8053 16.3428 35.8503 15.97C35.7868 15.945 35.7286 15.9072 35.6802 15.8588L34.9951 15.1662C34.9399 15.1103 34.8718 15.0679 34.7962 15.0445L33.9327 14.7662C33.724 14.6989 33.4964 14.7231 33.3074 14.8327C33.1198 14.9416 32.9005 14.9832 32.6918 14.925C31.9969 14.7314 31.2793 14.5537 30.5421 14.3934C30.4703 14.3601 30.4015 14.3276 30.3296 14.2944L29.4169 13.5866C29.367 13.5458 29.3065 13.5185 29.243 13.5072L28.2358 13.3348C27.9984 13.2955 27.7557 13.3598 27.5697 13.5125L27.4933 13.5753C27.3163 13.7204 27.0872 13.7847 26.8604 13.7545C25.6543 13.5957 24.4097 13.4792 23.1356 13.4082C22.9821 13.3998 22.8346 13.3484 22.7098 13.2584C22.5692 13.1579 22.3923 13.0308 22.2924 12.9605C22.2425 12.925 22.1836 12.9061 22.1223 12.9061H21.7503L21.748 12.7639L21.6716 7.72792C21.6716 7.72792 21.6709 7.72187 21.6701 7.71884L21.3488 6.55739C21.3405 6.52639 21.2974 6.52412 21.2853 6.55437L21.1824 6.81524C21.1703 6.84624 21.1257 6.84246 21.1181 6.8107L20.4875 4.06057C20.4875 4.06057 20.4875 4.05528 20.4868 4.05225V3.78155C20.4868 3.76264 20.4716 3.74752 20.4527 3.74752H20.3363C20.3196 3.74752 20.306 3.73542 20.303 3.71954L20.269 3.53353C20.2644 3.51009 20.2856 3.48967 20.3091 3.49345C20.3643 3.50253 20.4187 3.5048 20.4724 3.50404C20.5019 3.50404 20.5306 3.50253 20.5593 3.4995C20.6705 3.48967 20.7794 3.4685 20.8905 3.45943C20.9026 3.45867 20.9147 3.45791 20.9276 3.45791C20.942 3.45716 20.9571 3.45565 20.9714 3.45565C21.0395 3.45413 21.1083 3.45943 21.1794 3.47606C21.2013 3.48136 21.2225 3.46548 21.2225 3.44279V2.92331C21.2225 2.90743 21.2119 2.89307 21.1968 2.88929C21.1197 2.86963 21.0456 2.86358 20.9722 2.86509C20.945 2.86509 20.9178 2.8666 20.8913 2.86887C20.7801 2.87794 20.6713 2.89836 20.5601 2.90819C20.551 2.90895 20.5412 2.90895 20.5321 2.9097C20.5049 2.91197 20.4769 2.91348 20.4497 2.91348C20.3915 2.91348 20.3317 2.90895 20.2705 2.89609C20.2486 2.89155 20.2281 2.90668 20.2281 2.92936V3.30063L20.2251 3.36264L20.1601 3.71954C20.1571 3.73542 20.1427 3.74752 20.1268 3.74752H20.0104C19.9915 3.74752 19.9763 3.76264 19.9763 3.78155V4.05301C19.9763 4.05301 19.9763 4.05754 19.9756 4.06057L19.345 6.80919C19.3374 6.84171 19.292 6.84549 19.2799 6.81373L19.1779 6.55437C19.1658 6.52412 19.1227 6.52639 19.1143 6.55739L18.793 7.71884C18.793 7.71884 18.7922 7.72414 18.7915 7.72716L18.7143 12.7639L18.7121 12.9061H18.34C18.2788 12.9061 18.2198 12.925 18.1699 12.9605C18.0708 13.0316 17.8931 13.1579 17.7525 13.2584C17.6277 13.3477 17.4795 13.3998 17.3268 13.4082C16.0527 13.4785 14.808 13.5957 13.602 13.7545C13.3751 13.7847 13.146 13.7204 12.9691 13.5753L12.8927 13.5125C12.7067 13.3605 12.464 13.2955 12.2265 13.3348L11.2193 13.5072C11.1558 13.5178 11.0953 13.5458 11.0454 13.5866L10.1327 14.2944C10.0609 14.3276 9.99208 14.3601 9.92025 14.3934C9.183 14.5545 8.46541 14.7322 7.7705 14.925C7.5618 14.9832 7.34252 14.9416 7.15499 14.8327C6.96595 14.7231 6.73835 14.6989 6.52965 14.7662L5.66613 15.0445C5.59127 15.0687 5.52321 15.1103 5.46726 15.1662L4.78218 15.8588C4.73379 15.9072 4.67556 15.9458 4.61205 15.97C3.65702 16.3428 2.764 16.7488 1.94055 17.1844V39.8047H38.521V17.1844H38.5218Z" fill="#1B365D"/>
<path d="M14.1993 34.0959C14.256 34.145 14.315 34.1949 14.3725 34.2448V20.9471C13.0356 21.1029 11.7252 21.31 10.445 21.5664V30.0444C11.5278 31.5075 12.7853 32.8663 14.1986 34.0959H14.1993Z" fill="white"/>
<path d="M18.3013 37.0886V20.6445C16.9705 20.6952 15.6608 20.7973 14.3738 20.947V34.2462C15.5119 35.2224 16.8956 36.2463 18.3013 37.0886Z" fill="#E4002B"/>
<path d="M14.3746 34.2463V20.9471C14.3746 20.9471 14.3738 20.9471 14.373 20.9471V34.2448C14.373 34.2448 14.3738 34.2456 14.3746 34.2463Z" fill="#D82628"/>
<path d="M7.51876 24.8533C8.08739 26.2394 8.78229 27.5687 9.59818 28.8246C9.86662 29.2383 10.1494 29.6443 10.4443 30.0428V21.5671C9.15961 21.8249 7.90515 22.1304 6.68774 22.4828C6.70665 22.5463 6.72706 22.6098 6.74597 22.6733C6.96979 23.4136 7.22688 24.141 7.51876 24.8533Z" fill="#E4002B"/>
<path d="M10.4457 30.0443V21.5663H10.4442V30.042C10.4442 30.042 10.445 30.0435 10.4457 30.0443Z" fill="#D82628"/>
<path d="M19.5975 37.8092C20.0172 38.0225 20.5162 38.0225 20.9367 37.8092C21.3654 37.5915 21.7987 37.3488 22.2304 37.0894V20.6438C21.5802 20.6188 20.9261 20.6052 20.2667 20.6052C19.6073 20.6052 18.9533 20.6188 18.303 20.6438V37.0894C18.7347 37.348 19.168 37.5907 19.5975 37.8092Z" fill="white"/>
<path d="M18.303 37.0895V20.6439C18.303 20.6439 18.3023 20.6439 18.3015 20.6439V37.0879H18.303V37.0895Z" fill="white"/>
<path d="M26.1587 34.2463V20.9463C24.8725 20.7966 23.5621 20.6945 22.2313 20.6439V37.0879C23.6362 36.2456 25.0207 35.2218 26.1587 34.2456V34.2463Z" fill="#E4002B"/>
<path d="M22.232 37.0886V20.6445C22.232 20.6445 22.2312 20.6445 22.2305 20.6445V37.0901H22.232V37.0886Z" fill="#D82628"/>
<path d="M26.334 34.0959C27.7473 32.8663 29.0047 31.5075 30.0876 30.0444V21.5664C28.8081 21.31 27.497 21.1029 26.1601 20.9471V34.2456C26.2183 34.1957 26.2765 34.1458 26.3333 34.0966L26.334 34.0959Z" fill="white"/>
<path d="M26.1608 34.2448V20.9463C26.1608 20.9463 26.1601 20.9463 26.1593 20.9463V34.2463C26.1593 34.2463 26.1601 34.2455 26.1608 34.2448Z" fill="white"/>
<path d="M30.0891 30.0421C30.384 29.6436 30.6668 29.2375 30.936 28.8239C31.7534 27.5649 32.4498 26.2318 33.0192 24.8427C33.3096 24.1335 33.5652 23.4091 33.7882 22.6733C33.8071 22.6098 33.8275 22.5463 33.8464 22.4828C32.6283 22.1304 31.3746 21.8242 30.0899 21.5671V30.0428L30.0891 30.0421Z" fill="#E4002B"/>
<path d="M30.0892 30.042V21.5663C30.0892 21.5663 30.0884 21.5663 30.0876 21.5663V30.0443C30.0876 30.0443 30.0884 30.0428 30.0892 30.042Z" fill="#D82628"/>
<path d="M20.2879 16.7428C19.1446 16.7428 17.9877 16.7836 16.8285 16.8653C15.4773 17.0059 14.1691 17.1526 12.954 17.2971C10.4322 17.685 7.95427 18.2808 5.62985 19.1058V19.1111C5.62985 19.1111 5.21472 19.6646 7.24122 24.7316C11.3887 23.4816 16.0981 23.0174 20.2887 23.0174C24.4793 23.0174 29.1584 23.4779 33.2945 24.718C33.7898 23.4635 34.5709 21.2714 34.9407 19.1035C30.3697 17.4838 25.2059 16.7436 20.2879 16.7436V16.7428Z" fill="#1B365D"/>
</g>
<path d="M35.0588 7.64324C34.9771 7.18577 34.8894 6.72149 34.7956 6.25116C34.7389 5.96685 34.4947 5.7453 34.199 5.73244C34.1967 5.73244 34.1945 5.73244 34.193 5.73244C32.8909 5.68178 31.836 4.64282 31.7914 3.36719C31.7914 3.36114 31.7914 3.35434 31.7907 3.34829C31.7763 3.09497 31.6046 2.87569 31.3619 2.78873C31.098 2.69421 30.8334 2.60272 30.5664 2.51425C28.2171 1.73768 25.7543 1.2182 23.1871 0.992109C22.2283 0.908176 21.2552 0.864319 20.2669 0.864319C19.2786 0.864319 18.2789 0.909688 17.3073 0.99589C14.7537 1.22349 12.3046 1.74146 9.96728 2.51425C9.70036 2.60272 9.4357 2.69421 9.17181 2.78873C8.92908 2.87569 8.75743 3.09573 8.74307 3.34829C8.74307 3.35434 8.74307 3.36114 8.74231 3.36719C8.69845 4.64282 7.64286 5.68178 6.34076 5.73244C6.33849 5.73244 6.33698 5.73244 6.33471 5.73244C6.03906 5.74605 5.79482 5.96685 5.73811 6.25116C5.64434 6.72149 5.55663 7.18577 5.47497 7.644C4.97515 10.4493 4.70974 12.9855 4.70066 14.7617C4.6931 16.4744 4.83602 18.1614 5.12789 19.8037C5.29576 20.7489 5.51202 21.6805 5.77894 22.5932C5.80162 22.6718 5.82733 22.7497 5.85077 22.8283C6.08896 23.617 6.36345 24.3936 6.67498 25.1528C7.28142 26.6303 8.02245 28.0481 8.89203 29.3865C10.2304 31.4477 11.8804 33.3389 13.7987 35.007C15.4101 36.4134 17.5318 37.9386 19.5538 38.9662C20.0015 39.1938 20.5338 39.1938 20.9814 38.9662C23.0034 37.9386 25.1252 36.4134 26.7365 35.007C28.6549 33.3389 30.3041 31.4477 31.6432 29.3865C32.5151 28.0443 33.2576 26.6227 33.8648 25.1414C34.1741 24.3853 34.447 23.6132 34.6845 22.8283C34.7079 22.7497 34.7336 22.6718 34.7563 22.5932C35.024 21.6767 35.241 20.7414 35.4096 19.7916C35.7 18.153 35.8421 16.4706 35.8338 14.7617C35.8247 12.9847 35.5593 10.4486 35.0595 7.64249L35.0588 7.64324ZM34.8977 15.2335C34.8954 16.5144 34.8032 17.7787 34.6225 19.0188C34.5846 19.2759 34.5453 19.5323 34.5 19.7871C34.3419 20.6793 34.1378 21.5588 33.886 22.4208C33.8799 22.4412 33.8731 22.4616 33.8671 22.482C33.8701 22.4828 33.8739 22.4835 33.8769 22.485C33.858 22.5486 33.8376 22.6121 33.8187 22.6756C33.6153 23.3486 33.3824 24.0117 33.1222 24.6628C33.0973 24.7255 33.0739 24.7883 33.0481 24.8503C32.478 26.2431 31.7793 27.5793 30.9604 28.8405C30.6912 29.2549 30.4076 29.6617 30.112 30.0617C30.112 30.0617 30.1112 30.0632 30.1105 30.064C29.0246 31.5302 27.7649 32.892 26.3486 34.1245C26.2919 34.1744 26.2329 34.2243 26.1747 34.2742C26.1747 34.2742 26.1739 34.275 26.1732 34.2758C25.0329 35.2542 23.6454 36.2796 22.2374 37.1242H22.2359C21.8034 37.3843 21.3686 37.6278 20.9391 37.8463C20.5179 38.0603 20.0181 38.0603 19.5969 37.8463C19.1674 37.6278 18.7326 37.3851 18.3001 37.125C18.3001 37.125 18.2993 37.1249 18.2986 37.1242C16.8906 36.2796 15.5031 35.2542 14.3628 34.2758L14.3613 34.2742C14.3031 34.2243 14.2441 34.1744 14.1874 34.1245C12.7711 32.8928 11.5106 31.5309 10.4255 30.064C10.4255 30.064 10.4248 30.0625 10.424 30.0617C10.1283 29.6625 9.84478 29.2556 9.57559 28.8405C8.75819 27.5823 8.06177 26.2499 7.49163 24.8609C7.46668 24.7989 7.44248 24.7369 7.41828 24.6749C7.15665 24.02 6.92225 23.3531 6.71733 22.6756C6.69842 22.6121 6.67801 22.5486 6.6591 22.485C6.66213 22.4843 6.66515 22.4835 6.66893 22.482C6.66288 22.4616 6.65608 22.4412 6.65003 22.4208C6.39974 21.5625 6.19634 20.6877 6.0383 19.7984C5.99293 19.5444 5.95361 19.2888 5.9158 19.0324C5.7313 17.7719 5.63754 16.4865 5.63754 15.1836C5.63754 15.142 5.63678 15.1004 5.63678 15.0589C5.63678 14.9946 5.63754 14.9288 5.63905 14.8622C5.66476 13.2048 5.91278 10.9038 6.3642 8.3684C6.44057 7.93814 6.523 7.50109 6.61147 7.05949C6.66515 6.79181 6.89427 6.58387 7.17178 6.57177C7.17329 6.57177 7.17556 6.57177 7.17783 6.57177C8.40204 6.52414 9.39336 5.54794 9.43495 4.34868C9.43495 4.34263 9.43495 4.33658 9.4357 4.33053C9.44931 4.09234 9.61037 3.88667 9.83873 3.80425C10.0868 3.71502 10.3355 3.62882 10.5866 3.5464C12.784 2.82049 15.0864 2.33277 17.4865 2.11954C18.3999 2.03787 19.327 1.99628 20.2684 1.99628C21.2098 1.99628 22.1119 2.03711 23.0132 2.11651C25.4269 2.32823 27.7414 2.81747 29.9494 3.54715C30.1997 3.63033 30.4492 3.71578 30.6973 3.805C30.9256 3.88742 31.0874 4.0931 31.1003 4.33129C31.1003 4.33734 31.1003 4.34339 31.101 4.34868C31.1426 5.54794 32.1339 6.52489 33.3582 6.57253C33.3604 6.57253 33.3619 6.57253 33.3642 6.57253C33.6425 6.58538 33.8716 6.79333 33.9253 7.06025C34.0138 7.50184 34.0962 7.93814 34.1725 8.3684C34.6232 10.8992 34.8712 13.1957 34.8977 14.8532C34.8992 14.9227 34.9 14.9923 34.9 15.0596C34.9 15.1178 34.8992 15.1761 34.8992 15.2343L34.8977 15.2335Z" fill="#1B365D"/>
<path d="M8.83603 22.6642C8.62279 22.5167 8.51617 22.2581 8.51617 21.8876V19.911C8.51617 19.5534 8.62279 19.2539 8.83603 19.015C9.04926 18.776 9.36156 18.6036 9.77366 18.5031C10.1865 18.4033 10.5011 18.4237 10.7158 18.5583C10.9313 18.6929 11.0387 18.9401 11.0387 19.2978V21.2744C11.0387 21.6479 10.9313 21.9587 10.7158 22.209C10.5003 22.4593 10.1858 22.6309 9.77366 22.7315C9.3608 22.8313 9.04851 22.8109 8.83603 22.6634V22.6642ZM9.95816 21.8279C9.98992 21.7561 10.0058 21.6623 10.0058 21.5458V19.5163C10.0058 19.4263 9.99068 19.356 9.96119 19.3069C9.9317 19.2577 9.87045 19.2441 9.77971 19.266C9.60882 19.3076 9.52413 19.4339 9.52413 19.6426V21.6676C9.52413 21.7871 9.54152 21.8725 9.57782 21.9247C9.61335 21.9769 9.67914 21.9912 9.77442 21.9685C9.86591 21.9466 9.92716 21.8997 9.95892 21.8271L9.95816 21.8279Z" fill="white"/>
<path d="M12.9576 22.0434C12.9576 20.9258 12.9576 19.8075 12.9576 18.6899C12.7119 18.7307 12.5886 18.7519 12.3436 18.7965V17.9995C13.248 17.8362 13.7024 17.7659 14.6128 17.6494V18.4464C14.3656 18.4782 14.2423 18.4948 13.9958 18.5296C13.9958 19.6472 13.9958 20.7655 13.9958 21.8831C13.5799 21.9421 13.372 21.9739 12.9576 22.0434Z" fill="white"/>
<path d="M16.6576 21.5867C16.6576 20.4691 16.6576 19.3508 16.6576 18.2332C16.4096 18.2536 16.2856 18.2642 16.0376 18.2876V17.4906C16.951 17.4037 17.4085 17.3719 18.325 17.3326V18.1296C18.0762 18.1402 17.9522 18.147 17.7042 18.1606C17.7042 19.2782 17.7042 20.3965 17.7042 21.5141C17.2853 21.5383 17.0758 21.5527 16.6576 21.5867Z" fill="white"/>
<path d="M19.7088 21.4446C19.8774 20.0601 20.046 18.6748 20.2147 17.2903C20.9239 17.2903 21.2793 17.2963 21.9886 17.3236C22.155 18.7149 22.3221 20.1054 22.4884 21.4968C22.0914 21.4771 21.8926 21.4695 21.4956 21.4582C21.4661 21.189 21.4517 21.0537 21.4222 20.7845C21.1689 20.7777 21.0419 20.7754 20.7886 20.7724C20.7644 21.0408 20.7523 21.1746 20.7273 21.4431C20.3198 21.4385 20.1164 21.4393 19.7096 21.4438L19.7088 21.4446ZM20.8672 20.1115C21.0578 20.1138 21.1523 20.116 21.3429 20.1206C21.2506 19.2737 21.2037 18.8502 21.1115 18.0041C21.0918 18.0041 21.082 18.0041 21.0623 18.0033C20.9844 18.8464 20.9451 19.2684 20.8672 20.1123V20.1115Z" fill="white"/>
<path d="M24.3825 21.6321C24.1965 20.2325 24.0097 18.8328 23.8237 17.4324C24.232 17.4649 24.4362 17.4839 24.8445 17.5262C24.9609 18.5856 25.0192 19.1156 25.1356 20.1765C25.252 19.1413 25.3103 18.6241 25.4267 17.5905C25.8146 17.6358 26.0082 17.6608 26.3954 17.7145C26.5065 18.7776 26.5625 19.3092 26.6736 20.3731C26.7848 19.3417 26.84 18.826 26.9511 17.7954C27.3617 17.8574 27.5666 17.8914 27.9757 17.9633C27.7867 19.3153 27.5984 20.6665 27.4094 22.0185C26.9126 21.9376 26.6638 21.9006 26.1647 21.834C26.0604 21.0196 26.009 20.6128 25.9046 19.7992C25.8056 20.5871 25.7556 20.9811 25.6566 21.769C25.1477 21.707 24.8929 21.6798 24.3825 21.6321Z" fill="white"/>
<path d="M29.2932 22.3664C29.4587 21.0181 29.6243 19.6699 29.7899 18.3209C30.4856 18.4737 30.8319 18.5568 31.5223 18.7376C31.6841 20.1644 31.8459 21.5913 32.0077 23.0189C31.6221 22.9131 31.4293 22.8624 31.0414 22.7656C31.0126 22.4896 30.9983 22.352 30.9703 22.076C30.723 22.0147 30.599 21.9845 30.351 21.927C30.3268 22.1902 30.3155 22.3217 30.2913 22.5849C29.8928 22.4926 29.6932 22.4488 29.2932 22.3656V22.3664ZM30.4281 21.2835C30.6142 21.3274 30.7072 21.3493 30.8924 21.3954C30.8024 20.5281 30.7571 20.0949 30.6663 19.2283C30.6474 19.2238 30.6376 19.2215 30.6187 19.217C30.5423 20.0434 30.5045 20.4571 30.4281 21.2835Z" fill="white"/>
<path d="M11.2632 17.0596C11.3426 16.3503 11.3827 15.9957 11.4629 15.2872C11.7426 15.2388 11.8825 15.2154 12.1631 15.17C12.2417 15.852 12.2818 16.1938 12.3604 16.8759C12.2031 16.9001 12.1245 16.9129 11.968 16.9386C11.9566 16.8282 11.9506 16.773 11.9392 16.6626C11.8394 16.6793 11.7888 16.6876 11.689 16.7042C11.6791 16.8184 11.6746 16.8751 11.6648 16.9893C11.5045 17.0165 11.4235 17.0309 11.2632 17.0589V17.0596ZM11.72 16.4222C11.7948 16.4093 11.8326 16.4033 11.9075 16.3912C11.8712 16.0433 11.8523 15.8702 11.816 15.5224C11.8084 15.5239 11.8047 15.5246 11.7971 15.5254C11.7661 15.8838 11.751 16.0638 11.72 16.4222Z" fill="white"/>
<path d="M14.1132 16.634V15.2306C14.0141 15.2427 13.965 15.2487 13.8667 15.2608V14.9273C14.2304 14.882 14.4126 14.8608 14.7764 14.8215C14.7764 14.9553 14.7764 15.0219 14.7764 15.1549C14.6773 15.1655 14.6281 15.1708 14.5291 15.1822C14.5291 15.744 14.5291 16.0245 14.5291 16.5856C14.3627 16.6045 14.2796 16.6143 14.1132 16.634Z" fill="white"/>
<path d="M16.3476 16.4139C16.3476 15.719 16.3476 15.3711 16.3476 14.6762C16.5147 14.6634 16.5979 14.6573 16.765 14.646C16.765 15.2229 16.765 15.511 16.765 16.088C16.9366 16.0759 17.0228 16.0706 17.1952 16.0608V16.3557C16.8557 16.3761 16.6864 16.3874 16.3476 16.4131V16.4139Z" fill="white"/>
<path d="M18.7712 16.2861C18.7712 15.5912 18.7712 15.2433 18.7712 14.5484C19.1062 14.5386 19.2733 14.5356 19.6082 14.531V14.8668C19.4434 14.869 19.3617 14.8705 19.1969 14.8736V15.2116C19.3549 15.2085 19.4336 15.207 19.5909 15.2048C19.5909 15.3356 19.5909 15.4014 19.5909 15.5322C19.4328 15.5344 19.3542 15.5352 19.1969 15.539V15.9375C19.3723 15.9337 19.4593 15.9322 19.6347 15.9299V16.2679C19.2891 16.2725 19.1167 16.2755 18.7712 16.2861ZM19.0434 14.3571V14.2233C19.2695 14.165 19.3822 14.1371 19.6082 14.0811V14.2898C19.3822 14.3155 19.2695 14.3284 19.0434 14.3564V14.3571Z" fill="white"/>
<path d="M21.4137 16.2778V14.8744C21.3147 14.8721 21.2648 14.8714 21.1657 14.8691V14.5356C21.5317 14.5424 21.7147 14.547 22.0807 14.5598V14.8933C21.9816 14.8895 21.9317 14.888 21.8326 14.885V16.2884C21.6655 16.2831 21.5816 16.2808 21.4145 16.2771L21.4137 16.2778Z" fill="white"/>
<path d="M23.636 16.3753V14.6377C23.797 14.6483 23.878 14.6536 24.039 14.6657V16.4033C23.878 16.3912 23.797 16.3859 23.636 16.3753Z" fill="white"/>
<path d="M25.7822 16.4593C25.6907 16.3701 25.6453 16.2559 25.6453 16.1168V15.316C25.6453 15.1436 25.6862 15.0173 25.7686 14.9387C25.851 14.86 25.9803 14.8305 26.1557 14.8502C26.3092 14.8676 26.4325 14.9183 26.5262 14.9992C26.62 15.0808 26.6669 15.1882 26.6669 15.3198V15.6192C26.5013 15.598 26.4189 15.5882 26.2533 15.5685V15.3115C26.2533 15.2615 26.2457 15.226 26.2313 15.2056C26.217 15.1852 26.192 15.1723 26.1565 15.1685C26.1194 15.164 26.0937 15.1723 26.0801 15.192C26.0665 15.2116 26.0597 15.2426 26.0597 15.285C26.0597 15.6336 26.0597 15.8082 26.0597 16.1568C26.0597 16.203 26.068 16.237 26.0839 16.2597C26.0998 16.2824 26.124 16.296 26.1565 16.299C26.2208 16.3066 26.2533 16.2665 26.2533 16.1788V15.865C26.4204 15.8846 26.5043 15.8952 26.6714 15.9156V16.243C26.6714 16.5342 26.4968 16.6567 26.1467 16.6166C25.9947 16.5992 25.8737 16.5463 25.7822 16.4563V16.4593Z" fill="white"/>
<path d="M28.3699 16.7966C28.2829 16.6967 28.2398 16.5697 28.2398 16.4147V15.5875C28.2398 15.4378 28.2829 15.3319 28.3699 15.2691C28.4568 15.2071 28.5831 15.189 28.7502 15.217C28.9173 15.2449 29.0436 15.3054 29.1298 15.3962C29.216 15.4877 29.2599 15.6079 29.2599 15.7576V16.5848C29.2599 16.7414 29.2168 16.854 29.1298 16.9236C29.0436 16.9932 28.9166 17.0136 28.7502 16.9856C28.5831 16.9576 28.4568 16.8941 28.3699 16.795V16.7966ZM28.8251 16.64C28.8379 16.6151 28.844 16.5788 28.844 16.5304V15.6812C28.844 15.6434 28.8379 15.6117 28.8258 15.586C28.8137 15.5602 28.7895 15.5444 28.7525 15.5383C28.6837 15.527 28.6489 15.5648 28.6489 15.6525V16.5001C28.6489 16.5501 28.6564 16.5886 28.6708 16.6174C28.6852 16.6453 28.7116 16.6627 28.7502 16.6688C28.7873 16.6748 28.8122 16.6657 28.8251 16.6408V16.64Z" fill="white"/>
<path d="M20.8936 36.0935L21.472 35.6149L21.3518 35.5574C21.2989 35.5377 21.314 35.5082 21.3329 35.4349L21.4214 35.1082L21.0849 35.1801C21.0516 35.1846 21.0304 35.1634 21.0251 35.143L20.982 34.9895L20.7166 35.2927C20.6788 35.3411 20.6017 35.3411 20.6259 35.2292L20.7401 34.6152L20.5873 34.6961C20.5442 34.7203 20.5019 34.7241 20.4769 34.6803L20.2667 34.281L20.0557 34.6803C20.0315 34.7241 19.9892 34.7203 19.9461 34.6961L19.7934 34.6152L19.9075 35.2292C19.9317 35.3411 19.8546 35.3411 19.8168 35.2927L19.5514 34.9895L19.5075 35.143C19.503 35.1634 19.4803 35.1846 19.4486 35.1801L19.1121 35.1082L19.2005 35.4349C19.2187 35.5075 19.2338 35.5377 19.1816 35.5574L19.0614 35.6149L19.6399 36.0935C19.6633 36.1117 19.6746 36.1442 19.6663 36.1737L19.6164 36.343C19.816 36.3204 19.9945 36.2848 20.1934 36.2629C20.2108 36.2614 20.2402 36.2901 20.2402 36.3113L20.2138 36.9306H20.3098L20.2954 36.3128C20.2947 36.2916 20.3219 36.2614 20.3393 36.2629C20.5389 36.2848 20.7174 36.3204 20.9162 36.343L20.8656 36.1737C20.858 36.1449 20.8694 36.1117 20.8928 36.0935H20.8936Z" fill="#E4002B"/>
</svg>
