<svg width="40" height="40" viewBox="0 0 40 40" fill="none" xmlns="http://www.w3.org/2000/svg">
<path d="M4.25415 0.620728V23.773C4.25415 32.4218 11.1382 39.4333 19.6311 39.4333C28.124 39.4333 35.008 32.4225 35.008 23.773V0.620728H4.25415Z" fill="white"/>
<path d="M16.587 29.4191C16.6867 29.1749 16.817 28.9436 16.9394 28.6923C15.3341 30.0869 15.411 32.8312 16.7892 34.102C16.8461 33.8827 16.8846 33.6663 16.9586 33.4634C17.059 33.1872 17.0085 32.9594 16.8604 32.7074C16.2467 31.6594 16.1222 30.5589 16.587 29.4184V29.4191Z" fill="#BA0C2F"/>
<path d="M19.3214 28.0814V27.5383C18.6921 27.6016 18.1247 27.7867 17.5887 28.1306C17.7019 28.2502 18.9541 28.1989 19.3214 28.0814Z" fill="#BA0C2F"/>
<path d="M6.81207 10.996V23.7959C11.0799 19.5394 15.3491 15.2802 19.6454 10.996H6.81207Z" fill="#BA0C2F"/>
<path d="M17.3566 34.6714C17.9645 35.1021 18.6059 35.3563 19.3477 35.4139V33.2612H17.7047C17.5801 33.7659 17.4676 34.2208 17.3566 34.6721V34.6714Z" fill="#BA0C2F"/>
<path d="M20.0505 33.2748V35.4183C20.8008 35.3364 21.4686 35.0944 22.0559 34.6366C21.9406 34.1817 21.8302 33.746 21.7113 33.274H20.0512L20.0505 33.2748Z" fill="#BA0C2F"/>
<path d="M13.0967 5.56702C12.9749 5.88808 12.8532 6.20986 12.7258 6.54659H13.5373C13.4014 6.20488 13.2754 5.88737 13.1493 5.57058C13.1315 5.56915 13.1138 5.56844 13.096 5.56702H13.0967Z" fill="#BA0C2F"/>
<path d="M19.7499 6.54376H20.5665C20.4298 6.20205 20.3031 5.88312 20.1543 5.5108C20.0084 5.88455 19.8816 6.20704 19.7499 6.54376Z" fill="#BA0C2F"/>
<path d="M32.4503 2.82196H6.81915V9.6227H32.4503V2.82196ZM11.0421 7.97893H10.5352C10.5281 7.91202 10.5203 7.84439 10.5089 7.73974C10.0597 8.04443 9.58131 8.17328 9.06162 8.05582C8.53625 7.93693 8.14969 7.618 7.87561 7.16452C7.45274 6.46544 7.56807 5.56062 8.13687 4.95124C8.61384 4.44081 9.47808 4.07205 10.5096 4.7156C10.5182 4.62804 10.5253 4.55899 10.5338 4.47712H11.0364V5.59195H10.4391C9.83332 4.97117 9.13139 4.91351 8.62025 5.44743C8.1682 5.92084 8.19667 6.61992 8.6772 7.07554C9.0659 7.44288 9.85824 7.6059 10.4299 6.87549H11.0414V7.97893H11.0421ZM14.1253 7.97964C14.0264 7.74686 13.9281 7.51407 13.8256 7.27273H12.451C12.3563 7.49983 12.2559 7.73831 12.1555 7.97893H11.3041C11.8152 6.78793 12.3143 5.62327 12.8098 4.46858H13.4754C13.9801 5.62469 14.4884 6.78936 15.0074 7.97964H14.1253ZM16.3066 7.9711C15.846 6.82281 15.3804 5.66314 14.9063 4.48139H15.8011C16.0802 5.21251 16.6732 6.7559 16.6732 6.7559C16.6732 6.7559 17.2726 5.22746 17.5659 4.47498H18.4038C17.9183 5.65032 17.4399 6.80929 16.9601 7.9711H16.3059H16.3066ZM21.156 7.97537C21.0549 7.74045 20.9524 7.50196 20.8492 7.26348H19.4873C19.3891 7.4984 19.2901 7.73618 19.1898 7.97609H18.3277C18.8395 6.7922 19.3421 5.6311 19.8433 4.47285H20.5103C21.0136 5.62683 21.5219 6.7922 22.0381 7.97537H21.1553H21.156ZM24.8408 7.97253H22.651V4.47997H23.3971V7.2649H24.8408V7.97253ZM27.3702 7.97537C27.1359 7.53542 26.8946 7.08266 26.6462 6.61636H26.2802V7.96612H25.4893V4.48424C25.5477 4.47569 26.6732 4.47213 27.1879 4.49776C27.9717 4.53692 28.4031 5.2182 28.1241 5.95288C28.0201 6.22696 27.8984 6.33374 27.4513 6.5288C27.7361 7.00506 28.0194 7.47847 28.3163 7.97609H27.3702V7.97537ZM31.5889 4.68997C31.287 5.15057 30.6762 6.06607 30.6762 6.06607L30.4192 6.53806L30.4043 6.99153L30.4085 7.96897H29.5955L29.5998 6.99153L29.5984 6.53806L29.3272 6.06607C29.3272 6.06607 28.7164 5.15057 28.4145 4.68997C28.3739 4.62804 28.2849 4.47285 28.2849 4.47285H29.2631C29.493 4.87222 29.7351 5.29081 30.0013 5.75284C30.2676 5.29081 30.5096 4.87222 30.7396 4.47285H31.7177C31.6643 4.56183 31.6287 4.62733 31.5881 4.68997H31.5889Z" fill="#BA0C2F"/>
<path d="M26.9744 5.14631C26.7579 5.1335 26.5394 5.14346 26.2988 5.14346V5.90306C26.5365 5.90306 26.7615 5.91373 26.9843 5.90021C27.2306 5.88526 27.3581 5.74715 27.3566 5.53002C27.3552 5.29581 27.2313 5.16126 26.9736 5.14631H26.9744Z" fill="#BA0C2F"/>
<path d="M19.9174 11.0393C24.0841 15.2886 28.2508 19.5379 32.4175 23.7873C32.4318 23.7752 32.446 23.763 32.4603 23.7509V10.9916H19.948C19.938 11.0073 19.9273 11.0237 19.9174 11.0393Z" fill="#BA0C2F"/>
<path d="M10.1409 32.9565C15.2836 38.9023 24.7924 38.2929 29.1264 32.9387C26.0012 29.7523 22.8753 26.5644 19.7849 23.4136C16.565 26.5993 13.3558 29.7751 10.1409 32.9565ZM24.3233 31.4865C24.3169 34.0536 22.2438 36.1131 19.6746 36.1053C17.1046 36.0981 15.0451 34.0244 15.0572 31.4559C15.0693 28.8781 17.1438 26.8349 19.7365 26.847C22.273 26.8591 24.3297 28.9393 24.3233 31.4858V31.4865Z" fill="#BA0C2F"/>
<path d="M21.8714 14.9178C21.173 14.208 20.4305 13.5417 19.7193 12.8661C19.557 13.0177 19.3349 13.2142 19.1256 13.4235C15.1184 17.4308 11.1139 21.4409 7.10383 25.4453C6.92229 25.6261 6.85751 25.7927 6.89453 26.0575C7.18285 28.1541 7.94244 30.0605 9.15907 31.7883C9.19751 31.8424 9.2445 31.8901 9.31711 31.9748C12.8111 28.4787 16.2851 25.0025 19.7677 21.5178C23.1713 24.9875 26.5792 28.463 29.9884 31.9385C30.0133 31.9186 30.034 31.9086 30.0454 31.8922C31.336 30.0975 32.1263 28.1064 32.401 25.9109C32.4238 25.7286 32.3541 25.6048 32.2323 25.4809C28.7789 21.9598 25.3312 18.4317 21.8721 14.9163L21.8714 14.9178Z" fill="#BA0C2F"/>
<path d="M22.3747 33.0412C22.4444 33.3879 22.5299 33.7317 22.6231 34.1304C23.4318 33.1722 23.765 32.1328 23.6048 30.9575C23.4845 30.0733 23.1108 29.3023 22.4786 28.6716C22.4615 28.6801 22.4444 28.6887 22.4273 28.6972C22.4387 28.72 22.448 28.7435 22.4608 28.7648C23.2845 30.1288 23.2574 31.49 22.4501 32.8497C22.4152 32.9088 22.3626 32.9842 22.374 33.0405L22.3747 33.0412Z" fill="#BA0C2F"/>
<path d="M4 0V24.3461C4 33.1715 11.0186 40 19.6845 40C28.3504 40 35.3804 33.1715 35.3804 24.3461V0H4ZM26.1385 37.01C23.8348 38.1562 21.4009 38.6702 18.8217 38.5228C13.2504 38.2039 8.29273 34.5341 6.38272 29.2895C5.79967 27.6885 5.50566 26.0383 5.50637 24.3326C5.50922 16.8121 5.5078 9.29238 5.5078 1.77191V1.50708H33.8726C33.8726 1.5918 33.8726 1.66085 33.8726 1.73062C33.8711 9.27173 33.8505 16.8136 33.8747 24.3547C33.8946 30.5944 29.9927 35.0929 26.1385 37.01Z" fill="#BA0C2F"/>
<path d="M22.0102 31.0949C22.001 31.3156 21.8764 31.4594 21.6878 31.4673C21.5041 31.4751 21.3638 31.3334 21.346 31.1113C21.3368 30.9931 21.3446 30.8735 21.3446 30.7361C21.1204 30.7069 20.9153 30.6806 20.6847 30.6514C20.689 30.939 20.7395 31.2822 20.3537 31.2786C19.9365 31.2743 20.029 30.9006 20.002 30.6237H19.3819C19.3356 31.1497 19.2588 31.3028 19.0253 31.2857C18.6323 31.2565 18.7006 30.9326 18.6743 30.6507C18.5063 30.6728 18.3504 30.6934 18.1923 30.7148C18.1781 30.8913 18.1795 31.0544 18.1489 31.211C18.1147 31.3861 17.9838 31.4772 17.8086 31.463C17.6335 31.4495 17.5281 31.3384 17.5054 31.1619C17.4933 31.0657 17.4947 30.9682 17.489 30.8479C17.3167 30.8935 17.1637 30.9333 16.9971 30.9775C17.0376 31.5555 17.222 32.0652 17.5367 32.5273C17.573 32.5799 17.6826 32.6049 17.7588 32.6049C19.0359 32.6091 20.3138 32.6098 21.5909 32.6049C21.6749 32.6049 21.796 32.5799 21.8358 32.523C22.1526 32.0631 22.3441 31.5562 22.369 30.9803C22.2487 30.9483 22.1434 30.9198 22.0202 30.8871C22.0159 30.9732 22.0117 31.0344 22.0095 31.0964L22.0102 31.0949Z" fill="#BA0C2F"/>
<path d="M21.6201 28.9307C20.4889 28.777 19.3541 28.7421 18.2187 28.8773C17.4534 28.9685 17.6698 28.8332 17.2946 29.5173C17.1772 29.7316 17.1145 29.9765 17.007 30.2598C17.2206 30.2086 17.3544 30.1766 17.4897 30.1445C17.5182 29.8882 17.4292 29.5814 17.8001 29.5287C18.0186 29.4974 18.1062 29.6085 18.2123 30.0157C18.287 30.0071 18.3632 30.0014 18.4394 29.99C18.5198 29.9779 18.6002 29.9601 18.6743 29.9466C18.7106 29.4732 18.769 29.3614 18.9939 29.3529C19.0672 29.35 19.1804 29.3614 19.2082 29.407C19.2979 29.5544 19.3556 29.7209 19.4317 29.8939H20.0013C20.0312 29.4789 20.1123 29.3522 20.343 29.3486C20.5871 29.3444 20.6619 29.4668 20.6989 29.9609C20.9046 29.9879 21.1047 30.0142 21.314 30.042C21.3289 29.9544 21.3396 29.8861 21.3524 29.8185C21.3916 29.6156 21.5112 29.5159 21.702 29.5273C21.8864 29.5387 21.9981 29.659 22.0074 29.864C22.0116 29.9673 22.0081 30.0712 22.0081 30.1801C22.1199 30.2057 22.206 30.225 22.3227 30.252C22.248 29.7708 22.0608 29.3686 21.7881 29.0041C21.7561 28.9614 21.6792 28.9407 21.6194 28.9329L21.6201 28.9307Z" fill="#BA0C2F"/>
<path d="M21.8181 28.1448C21.24 27.7888 20.6826 27.5924 20.0583 27.5439V28.1035C20.5887 28.1526 21.1012 28.2032 21.6138 28.2437C21.665 28.248 21.7213 28.1932 21.8174 28.1455L21.8181 28.1448Z" fill="#BA0C2F"/>
</svg>
