<?xml version="1.0" encoding="utf-8"?>
<!-- Generator: Adobe Illustrator 25.4.1, SVG Export Plug-In . SVG Version: 6.00 Build 0)  -->
<svg version="1.1" id="ffc" xmlns="http://www.w3.org/2000/svg" xmlns:xlink="http://www.w3.org/1999/xlink" x="0px" y="0px"
	 viewBox="0 0 1080 1080" style="enable-background:new 0 0 1080 1080;" xml:space="preserve">
<style type="text/css">
	.st0{fill:#FFFFFF;}
	.st1{fill:#E04403;}
	.st2{fill:#54565A;}
</style>
<g>
	<path class="st0" d="M529.2,280c-79.1,15-204.5,21.9-274,6.3l137.2,118.1l4.5,543.3c17-52.3,61-127.4,130.8-171.4l3-137l85.9-38.9
		l-0.2-113.3l-87.2,37.1L529.2,280z"/>
	<path class="st0" d="M824.8,127.1L778,161.3c-35.7,28.7-106.4,73.5-140.5,86.2l-14.7,5.5v514c-59,29.2-146.5,118.7-174.6,204.1
		l-25.7,78l62.4-54.3c74.9-69,161.3-90.2,238.5-102.9c12.4-2,24.6-3.8,34.9-5.3l19.3-2.8l-6.1-579.3L824.8,127.1z"/>
	<g>
		<polygon class="st1" points="607.2,214.2 593.3,172.1 672.7,70.3 655.2,172.6 		"/>
		<path class="st0" d="M606.1,220.8l-18.2-51.7l93.4-118l-19,124.1L606.1,220.8z"/>
	</g>
	<path class="st0" d="M577.6,296.8l-42.9-48.6L560,99.8l50.3,140.4L577.6,296.8z"/>
	<polygon class="st0" points="586.4,164.6 566.6,108.5 639.5,31 619.8,123.6 	"/>
	<path class="st2" d="M515,292c-73.1,13.9-172.3,18.8-236.6,4.4l126.9,100.8l-0.1,508C421,856.9,450.5,802.9,515,762.2l0-135.1
		l92.1-45.8l-0.2-85.1l-91.9,40L515,292z"/>
	<path class="st2" d="M633.2,261.1v513.3C583.4,790.5,491.3,881.5,462,970.5c79-72.8,164.7-95.3,245.6-108.5
		c11.9-1.9,23.7-3.7,35.3-5.4v-47.3V298.2L780,171.3C745,199.4,671.2,247,633.2,261.1z"/>
	<g id="Sparks_7_">
		<polygon class="st1" points="607.2,214.2 593.3,172.1 672.7,70.3 655.2,172.6 		"/>
		<polygon class="st1" points="575,288.6 539.9,246.4 559.7,118.8 601.9,241.6 		"/>
		<polygon class="st1" points="587.4,157.3 571.3,109.7 632.4,40.9 615.3,121.6 		"/>
	</g>
</g>
</svg>
