<svg width="40" height="40" viewBox="0 0 40 40" fill="none" xmlns="http://www.w3.org/2000/svg">
<g clip-path="url(#clip0_5005_2791)">
<path d="M33.1616 25.4518L38.613 20L33.1616 14.5482V6.83852H25.4514L20 1.38672L14.5482 6.83852H6.83852V14.5482L1.38672 20L6.83852 25.4518V33.1616H14.5482L20 38.6134L25.4514 33.1616H33.1616V25.4518Z" fill="white"/>
<path d="M20 1.38668L25.4518 6.83848H33.1615V14.5482L38.6133 20L33.1615 25.4518V33.1615H25.4518L20 38.6133L14.5482 33.1615H6.83848V25.4518L1.38668 20L6.83848 14.5482V6.83848H14.5482L20 1.38668ZM20 0L19.3065 0.693537L14.1422 5.8578H5.8578V14.1422L0.693537 19.3065L0 20L0.693537 20.6935L5.8578 25.8578V34.1422H14.1422L19.3065 39.3065L20 40L20.6935 39.3065L25.8578 34.1422H34.1422V25.8578L39.3065 20.6935L40 20L39.3065 19.3065L34.1422 14.1422V5.8578H25.8578L20.6935 0.693537L20 0Z" fill="#002856"/>
<path d="M20.0122 34.0355C20.0079 34.0347 20.0036 34.0343 19.9993 34.0343C19.9785 34.0343 19.9593 34.0437 19.9459 34.0594C19.9326 34.0755 19.9271 34.0959 19.9302 34.1171C19.935 34.1461 19.9585 34.1696 19.9875 34.1743C19.9918 34.1751 19.9961 34.1755 20.0005 34.1755C20.0213 34.1755 20.0405 34.1661 20.0538 34.1504C20.0671 34.1343 20.0726 34.1139 20.0695 34.0927C20.0648 34.0637 20.0413 34.0402 20.0122 34.0355Z" fill="#3CB4E5"/>
<path d="M20 33.1783L18.2336 35.0055L20 36.7719L21.7661 35.0059L20 33.1787V33.1783ZM20.8521 35.397C20.7132 35.7344 20.4472 36.0027 20.1738 36.0815C20.1534 36.0874 20.1362 36.1031 20.1283 36.1231C20.1099 36.1694 20.0687 36.2471 20.0024 36.2479H20.0016C19.9349 36.2479 19.8933 36.1706 19.8745 36.1247C19.8659 36.1039 19.8482 36.0878 19.8274 36.0819C19.5532 36.0031 19.2928 35.7415 19.148 35.399L19.0504 35.1397C19.0445 35.1236 19.0464 35.1056 19.0562 35.0918C19.066 35.0777 19.0817 35.0691 19.099 35.0691C19.1076 35.0691 19.1163 35.0711 19.1241 35.0754L19.4509 35.2503C19.4689 35.2601 19.4795 35.2794 19.4783 35.2998C19.4771 35.3201 19.4638 35.3378 19.445 35.3453L19.3693 35.3743C19.4575 35.5504 19.5925 35.6842 19.7525 35.7532C19.7659 35.7591 19.78 35.7618 19.7941 35.7618C19.849 35.7615 19.8941 35.716 19.8941 35.661V34.6917H19.494C19.4666 34.7188 19.4301 34.7345 19.3908 34.7349C19.3402 34.7349 19.294 34.7106 19.2661 34.6698C19.2379 34.6282 19.2324 34.5764 19.2516 34.5278C19.2661 34.4909 19.2959 34.4615 19.3332 34.4473C19.3512 34.4407 19.3693 34.4371 19.3877 34.4368C19.4281 34.4364 19.4658 34.4521 19.494 34.4799H19.8337C19.8675 34.4799 19.8945 34.4524 19.8945 34.4191V34.3465C19.7992 34.3049 19.7372 34.2116 19.7372 34.1057C19.7372 33.9621 19.8541 33.844 19.9977 33.8429C20.0083 33.8429 20.0193 33.8432 20.0302 33.8444C20.1538 33.8582 20.2511 33.9582 20.2621 34.0817C20.2723 34.1947 20.2076 34.3014 20.106 34.3465V34.4195C20.106 34.4356 20.1122 34.4509 20.1236 34.4626C20.135 34.474 20.1503 34.4803 20.1668 34.4803H20.5065C20.5339 34.4532 20.5704 34.4375 20.6096 34.4371C20.6289 34.4371 20.6485 34.4403 20.6673 34.4477C20.7046 34.4619 20.7344 34.4913 20.7489 34.5282C20.7677 34.5764 20.7626 34.6282 20.7348 34.6698C20.7073 34.7106 20.6618 34.7349 20.6128 34.7353C20.5716 34.7353 20.5343 34.7196 20.5065 34.6921H20.106V35.6661C20.106 35.6936 20.1165 35.7191 20.1358 35.7383C20.155 35.7571 20.1809 35.7681 20.2072 35.7677C20.2193 35.7677 20.2311 35.7654 20.2425 35.7607C20.4064 35.6952 20.5437 35.5587 20.6316 35.3751L20.5559 35.346C20.5371 35.339 20.5237 35.3209 20.5226 35.3005C20.5214 35.2801 20.532 35.2609 20.55 35.2511L20.8768 35.0765C20.8842 35.0726 20.8925 35.0703 20.9007 35.0703C20.918 35.0703 20.934 35.0785 20.9442 35.0926C20.9541 35.1068 20.9564 35.1248 20.9501 35.1409L20.8525 35.3978L20.8521 35.397Z" fill="#3CB4E5"/>
<path d="M27.4956 31.8595H28.6261L28.0609 31.2747L27.4956 31.8595Z" fill="#3CB4E5"/>
<path d="M8.1405 31.8596H8.47393L8.1405 31.5144V31.8596Z" fill="#3CB4E5"/>
<path d="M24.0303 31.2747L22.2168 33.1505L22.0152 33.3596L21.8131 33.1505L20.0001 31.2747L18.1866 33.1505L17.9846 33.3596L17.7829 33.1505L15.9695 31.2747L15.2485 32.0204L18.0352 34.8071L19.798 32.9834L20.0001 32.7743L20.2017 32.9834L21.9646 34.8071L24.5402 32.2314L24.7513 32.0204L24.0303 31.2747Z" fill="#3CB4E5"/>
<path d="M11.3736 31.8595H12.5041L11.9389 31.2747L11.3736 31.8595Z" fill="#3CB4E5"/>
<path d="M30.0763 27.1323L28.0714 25.0587H28.0502L26.0457 27.1323L24.0408 25.0587H24.0196L22.0151 27.1323L20.0106 25.0587H19.989L17.9845 27.1323L15.98 25.0587H15.9588L13.9543 27.1323L11.9498 25.0587H11.9282L9.92371 27.1323L8.14044 25.2874V27.0452L9.92371 28.89L11.9388 26.8055L13.9543 28.89L15.9694 26.8055L17.9845 28.89L20 26.8055L22.0151 28.89L24.0302 26.8055L26.0457 28.89L28.0608 26.8055L30.0763 28.8904L31.8592 27.046V25.2878L30.0763 27.1323Z" fill="#3CB4E5"/>
<path d="M31.8592 31.1115V29.3534L30.0764 31.1978L28.0609 29.1129L26.0458 31.1978L24.0303 29.1129L22.0152 31.1978L20.0001 29.1129L17.9846 31.1978L15.9695 29.1129L13.9544 31.1978L11.9389 29.1129L9.92377 31.1978L8.1405 29.3526V31.1108L8.86425 31.8596H10.9833L11.9389 30.8707L12.8945 31.8596H15.0139L15.9695 30.8707L17.9846 32.9556L20.0001 30.8707L22.0152 32.9556L24.0303 30.8707L24.9858 31.8596H27.1053L28.0609 30.8707L29.0164 31.8596H31.1363L31.8592 31.1115Z" fill="#3CB4E5"/>
<path d="M28.4622 25.0587L30.0764 26.7282L31.6906 25.0587H28.4622Z" fill="#3CB4E5"/>
<path d="M29.8747 29.0855L28.0609 27.2092L26.2474 29.0855L26.0458 29.2942L25.8437 29.0855L24.0303 27.2092L22.2168 29.0855L22.0152 29.2942L21.8132 29.0855L20.0001 27.2092L18.1866 29.0855L17.9846 29.2942L17.7829 29.0855L15.9695 27.2092L14.156 29.0855L13.9544 29.2942L13.7523 29.0855L11.9389 27.2092L10.1258 29.0851L9.92377 29.2942L9.72214 29.0851L8.1405 27.4489V28.949L9.92377 30.7942L11.7372 28.918L11.9389 28.7093L12.1409 28.918L13.9544 30.7938L15.7675 28.918L15.9695 28.7093L16.1711 28.918L17.9846 30.7938L19.798 28.918L20.0001 28.7093L20.2017 28.918L22.0152 30.7938L23.8286 28.918L24.0303 28.7093L24.2323 28.918L26.0458 30.7938L27.8592 28.918L28.0609 28.7093L28.2625 28.918L30.0764 30.7938L31.8592 28.9497V27.4497L30.278 29.0855L30.0764 29.2942L29.8747 29.0855Z" fill="#3CB4E5"/>
<path d="M27.6596 25.0587H24.4316L26.0458 26.7286L27.6596 25.0587Z" fill="#3CB4E5"/>
<path d="M31.8593 31.5151L31.5266 31.8596H31.8593V31.5151Z" fill="#3CB4E5"/>
<path d="M23.6293 25.0587H20.4009L22.0151 26.7286L23.6293 25.0587Z" fill="#3CB4E5"/>
<path d="M11.538 25.0587H8.30957L9.92377 26.7286L11.538 25.0587Z" fill="#3CB4E5"/>
<path d="M19.5988 25.0587H16.3704L17.9846 26.7286L19.5988 25.0587Z" fill="#3CB4E5"/>
<path d="M15.5682 25.0587H12.3401L13.9543 26.7286L15.5682 25.0587Z" fill="#3CB4E5"/>
<path d="M17.4216 24.0244V23.5054C17.4216 23.4348 17.3847 23.4152 17.3314 23.4152H17.2482V24.115H17.3314C17.3851 24.115 17.4216 24.0954 17.4216 24.0248V24.0244Z" fill="#002856"/>
<path d="M25.2102 23.4641L25.1411 23.9031H25.2796L25.2102 23.4641Z" fill="#002856"/>
<path d="M15.1712 23.4641L15.1021 23.9031H15.2406L15.1712 23.4641Z" fill="#002856"/>
<path d="M16.111 23.6337V23.5054C16.111 23.4348 16.0745 23.4152 16.0208 23.4152H15.9349V23.7243H16.0208C16.0745 23.7243 16.111 23.7047 16.111 23.634V23.6337Z" fill="#002856"/>
<path d="M20.7136 23.4641L20.6445 23.9031H20.7826L20.7136 23.4641Z" fill="#002856"/>
<path d="M28.8226 23.4641L28.7532 23.9031H28.8916L28.8226 23.4641Z" fill="#002856"/>
<path d="M9.36351 23.6337V23.5054C9.36351 23.4348 9.32703 23.4152 9.27329 23.4152H9.18738V23.7243H9.27329C9.32703 23.7243 9.36351 23.7047 9.36351 23.634V23.6337Z" fill="#002856"/>
<path d="M8.42402 23.4641L8.35498 23.9031H8.49306L8.42402 23.4641Z" fill="#002856"/>
<path d="M12.9587 23.4641L12.8896 23.9031H13.0281L12.9587 23.4641Z" fill="#002856"/>
<path d="M30.5341 23.4641L30.465 23.9031H30.6031L30.5341 23.4641Z" fill="#002856"/>
<path d="M26.1501 23.6337V23.5054C26.1501 23.4348 26.1136 23.4152 26.0598 23.4152H25.9739V23.7243H26.0598C26.1136 23.7243 26.1501 23.7047 26.1501 23.634V23.6337Z" fill="#002856"/>
<path d="M18.1626 23.4641L18.0936 23.9031H18.2316L18.1626 23.4641Z" fill="#002856"/>
<path d="M11.4053 23.4641L11.3363 23.9031H11.4744L11.4053 23.4641Z" fill="#002856"/>
<path d="M20.0012 36.2479C19.9345 36.2479 19.8929 36.1707 19.8741 36.1244C19.8655 36.1036 19.8478 36.0875 19.827 36.0816C19.5528 36.0028 19.2924 35.7411 19.1476 35.3987L19.0499 35.1394C19.0441 35.1233 19.046 35.1053 19.0558 35.0915C19.0656 35.0774 19.0813 35.0688 19.0986 35.0688C19.1072 35.0688 19.1158 35.0707 19.1237 35.075L19.4505 35.25C19.4685 35.2598 19.4791 35.279 19.4779 35.2994C19.4767 35.3198 19.4634 35.3375 19.4446 35.3449L19.3689 35.374C19.4571 35.5501 19.5921 35.6839 19.7521 35.7529C19.7654 35.7588 19.7796 35.7615 19.7937 35.7615C19.8486 35.7611 19.8937 35.7156 19.8937 35.6607V34.6914H19.4936C19.4661 34.7185 19.4297 34.7342 19.3904 34.7346C19.3398 34.7346 19.2935 34.7102 19.2657 34.6694C19.2374 34.6279 19.232 34.5761 19.2512 34.5274C19.2657 34.4906 19.2955 34.4611 19.3328 34.447C19.3508 34.4404 19.3689 34.4368 19.3873 34.4364C19.4277 34.436 19.4654 34.4517 19.4936 34.4796H19.8333C19.867 34.4796 19.8941 34.4521 19.8941 34.4188V34.3462C19.7988 34.3046 19.7368 34.2113 19.7368 34.1054C19.7368 33.9618 19.8537 33.8437 19.9973 33.8425C20.0079 33.8425 20.0189 33.8429 20.0298 33.8441C20.1534 33.8578 20.2507 33.9579 20.2617 34.0814C20.2719 34.1944 20.2071 34.3011 20.1055 34.3462V34.4192C20.1055 34.4353 20.1118 34.4506 20.1232 34.4623C20.1346 34.4737 20.1499 34.48 20.1663 34.48H20.5061C20.5335 34.4529 20.57 34.4372 20.6092 34.4368C20.6284 34.4368 20.6481 34.44 20.6669 34.4474C20.7042 34.4615 20.734 34.491 20.7485 34.5278C20.7673 34.5761 20.7622 34.6279 20.7344 34.6694C20.7069 34.7102 20.6614 34.7346 20.6124 34.7349C20.5712 34.7349 20.5339 34.7193 20.5061 34.6918H20.1055V35.6658C20.1055 35.6933 20.1161 35.7188 20.1354 35.738C20.1546 35.7568 20.1805 35.7678 20.2068 35.7674C20.2189 35.7674 20.2307 35.7651 20.2421 35.7603C20.406 35.6948 20.5433 35.5583 20.6312 35.3747L20.5555 35.3457C20.5367 35.3387 20.5233 35.3206 20.5221 35.3002C20.521 35.2798 20.5316 35.2606 20.5496 35.2508L20.8764 35.0762C20.8838 35.0723 20.892 35.0699 20.9003 35.0699C20.9175 35.0699 20.9336 35.0782 20.9438 35.0923C20.9536 35.1064 20.956 35.1245 20.9497 35.1406L20.852 35.3975C20.7132 35.7349 20.4472 36.0032 20.1738 36.082C20.1534 36.0879 20.1361 36.1036 20.1283 36.1236C20.1099 36.1699 20.0687 36.2475 20.0024 36.2483H20.0016L20.0012 36.2479ZM19.9992 34.0347C19.9784 34.0347 19.9592 34.0442 19.9459 34.0598C19.9326 34.0759 19.9271 34.0963 19.9302 34.1175C19.9349 34.1465 19.9584 34.1701 19.9875 34.1748C19.9918 34.1756 19.9961 34.176 20.0004 34.176C20.0212 34.176 20.0404 34.1665 20.0538 34.1509C20.0671 34.1348 20.0726 34.1144 20.0695 34.0932C20.0647 34.0642 20.0412 34.0406 20.0122 34.0359C20.0079 34.0351 20.0036 34.0347 19.9992 34.0347Z" fill="#002856"/>
<path d="M5.38708 22.6584L5.64952 22.9209L7.7874 25.0588V32.2126H14.9413L15.0032 32.2746L15.0146 32.286L15.9392 33.2106L17.7684 35.0397L17.9884 35.2598L19.7505 37.0219L20 37.2714L20.2495 37.0219L24.2593 33.0121L24.9964 32.275L25.0584 32.213H32.2122V25.0592L34.3501 22.9213L34.6125 22.6588H5.38708V22.6584ZM31.1335 23.2712H31.2888L31.4791 23.8455L31.6709 23.2712H31.8317V24.2585H31.6736V23.6548L31.5254 24.1146H31.4336L31.2853 23.6548V24.2585H31.1331V23.2712H31.1335ZM30.4337 23.2712H30.6396L30.8259 24.2585H30.6596L30.6243 24.0385H30.4439L30.4086 24.2585H30.2505L30.4337 23.2712ZM29.422 23.2712H29.5856L29.7931 23.8819V23.2712H29.9425V24.2585H29.7872L29.5715 23.6168V24.2585H29.422V23.2712ZM28.7222 23.2712H28.9281L29.1145 24.2585H28.9481L28.9128 24.0385H28.7324L28.6971 24.2585H28.539L28.7222 23.2712ZM31.6905 25.0588L30.0763 26.7287L28.4621 25.0588H31.6909H31.6905ZM27.969 23.687H28.3021V23.8196H27.969V23.687ZM27.1237 23.2712H27.2873L27.4948 23.8819V23.2712H27.6442V24.2585H27.4889L27.2731 23.6168V24.2585H27.1237V23.2712ZM25.81 23.2712H26.0653C26.2148 23.2712 26.3136 23.3304 26.3136 23.4799V23.656C26.3136 23.7505 26.274 23.8098 26.2065 23.8396L26.3478 24.2585H26.1814L26.0559 23.8651H25.9739V24.2585H25.8103V23.2712H25.81ZM25.1101 23.2712H25.3161L25.5024 24.2585H25.3361L25.3008 24.0385H25.1203L25.085 24.2585H24.927L25.1101 23.2712ZM27.6595 25.0588L26.0453 26.7287L24.4311 25.0588H27.6595ZM23.5834 24.0749H23.7442V24.2162C23.7442 24.3052 23.7003 24.3884 23.6525 24.4449L23.5917 24.4139C23.6242 24.3688 23.6509 24.3068 23.6579 24.2585H23.583V24.0753L23.5834 24.0749ZM22.7157 23.2712H22.8793V23.6831H23.0668V23.2712H23.2304V24.2585H23.0668V23.8298H22.8793V24.2585H22.7157V23.2712ZM21.8496 23.4685C21.8496 23.3218 21.9484 23.2598 22.0979 23.2598H22.1093C22.2587 23.2598 22.3576 23.3218 22.3576 23.4685V23.6097H22.194V23.494C22.194 23.4234 22.1575 23.4038 22.1038 23.4038C22.05 23.4038 22.0135 23.4234 22.0135 23.494V24.0357C22.0135 24.1063 22.05 24.1259 22.1038 24.1259C22.1575 24.1259 22.194 24.1063 22.194 24.0357V23.889H22.0979V23.7509H22.3576V24.0612C22.3576 24.2134 22.2587 24.2699 22.1093 24.2699H22.0979C21.9484 24.2699 21.8496 24.215 21.8496 24.0612V23.4689V23.4685ZM21.3188 23.2712H21.4824V24.2585H21.3188V23.2712ZM20.6135 23.2712H20.8195L21.0058 24.2585H20.8395L20.8042 24.0385H20.6237L20.5884 24.2585H20.4303L20.6135 23.2712ZM23.6293 25.0588L22.0151 26.7287L20.4009 25.0588H23.6293ZM19.6073 23.2712H19.7709V23.6831H19.9584V23.2712H20.122V24.2585H19.9584V23.8298H19.7709V24.2585H19.6073V23.2712ZM18.7522 23.4685C18.7522 23.3218 18.851 23.2598 19.0005 23.2598H19.0032C19.1527 23.2598 19.2516 23.3218 19.2516 23.4685V23.6489H19.088V23.4936C19.088 23.4246 19.0542 23.4034 19.0021 23.4034C18.9499 23.4034 18.9162 23.4246 18.9162 23.4936V24.0353C18.9162 24.1044 18.9499 24.1255 19.0021 24.1255C19.0542 24.1255 19.088 24.1044 19.088 24.0353V23.8561H19.2516V24.0604C19.2516 24.2126 19.1527 24.2691 19.0032 24.2691H19.0005C18.851 24.2691 18.7522 24.2142 18.7522 24.0604V23.4681V23.4685ZM18.0622 23.2712H18.2681L18.4545 24.2585H18.2881L18.2528 24.0385H18.0724L18.0371 24.2585H17.879L18.0626 23.2712H18.0622ZM17.0846 23.2712H17.3373C17.4867 23.2712 17.5856 23.3304 17.5856 23.4799V24.0498C17.5856 24.1993 17.4867 24.2585 17.3373 24.2585H17.0846V23.2712ZM19.5987 25.0588L17.9845 26.7287L16.3703 25.0588H19.5987ZM15.7709 23.2712H16.0263C16.1757 23.2712 16.2746 23.3304 16.2746 23.4799V23.656C16.2746 23.7505 16.235 23.8098 16.1675 23.8396L16.3087 24.2585H16.1424L16.0169 23.8651H15.9349V24.2585H15.7713V23.2712H15.7709ZM15.0711 23.2712H15.2771L15.4634 24.2585H15.2971L15.2618 24.0385H15.0813L15.046 24.2585H14.8879L15.0715 23.2712H15.0711ZM15.5681 25.0588L13.9539 26.7287L12.3397 25.0588H15.5681ZM13.5444 24.0749H13.7052V24.2162C13.7052 24.3052 13.6617 24.3884 13.6134 24.4449L13.5526 24.4139C13.5852 24.3688 13.6119 24.3068 13.6189 24.2585H13.544V24.0753L13.5444 24.0749ZM12.8587 23.2712H13.0646L13.251 24.2585H13.0846L13.0493 24.0385H12.8689L12.8336 24.2585H12.6755L12.8591 23.2712H12.8587ZM12.0051 23.2712H12.1687V24.1118H12.4213V24.2585H12.0051V23.2712ZM11.3053 23.2712H11.5112L11.6976 24.2585H11.5312L11.4959 24.0385H11.3155L11.2802 24.2585H11.1221L11.3057 23.2712H11.3053ZM11.5379 25.0588L9.92371 26.7287L8.30951 25.0588H11.5375H11.5379ZM10.3317 23.4685C10.3317 23.3218 10.4305 23.2598 10.58 23.2598H10.5827C10.7322 23.2598 10.831 23.3218 10.831 23.4685V23.6489H10.6675V23.4936C10.6675 23.4246 10.6337 23.4034 10.5816 23.4034C10.5294 23.4034 10.4956 23.4246 10.4956 23.4936V24.0353C10.4956 24.1044 10.5294 24.1255 10.5816 24.1255C10.6337 24.1255 10.6675 24.1044 10.6675 24.0353V23.8561H10.831V24.0604C10.831 24.2126 10.7322 24.2691 10.5827 24.2691H10.58C10.4305 24.2691 10.3317 24.2142 10.3317 24.0604V23.4681V23.4685ZM9.02384 23.2712H9.27921C9.42867 23.2712 9.52752 23.3304 9.52752 23.4799V23.656C9.52752 23.7505 9.4879 23.8098 9.42043 23.8396L9.56165 24.2585H9.39532L9.2698 23.8651H9.18781V24.2585H9.02423V23.2712H9.02384ZM8.32403 23.2712H8.52997L8.7163 24.2585H8.54998L8.51467 24.0385H8.33423L8.29892 24.2585H8.14084L8.32442 23.2712H8.32403ZM8.14044 31.8596V31.5144L8.47388 31.8596H8.14044ZM11.3736 31.8596L11.9388 31.2747L12.5041 31.8596H11.3736ZM20 36.7716L18.2336 35.0052L20 33.178L21.766 35.0052L20 36.7712V36.7716ZM21.9645 34.8071L20.2016 32.9834L20 32.7748L19.7984 32.9834L18.0355 34.8071L15.2488 32.0204L15.9698 31.2747L17.7833 33.1509L17.9849 33.3596L18.1865 33.1509L20 31.2747L21.8135 33.1509L22.0151 33.3596L22.2167 33.1509L24.0302 31.2747L24.7512 32.0204L21.9645 34.8071ZM27.4955 31.8596L28.0608 31.2747L28.6261 31.8596H27.4955ZM31.8592 31.8596H31.5265L31.8592 31.5156V31.8596ZM31.8592 31.1115L31.1362 31.8596H29.0164L28.0608 30.8711L27.1052 31.8596H24.9858L24.0302 30.8711L22.0151 32.956L20 30.8711L17.9849 32.956L15.9698 30.8711L15.0142 31.8596H12.8948L11.9392 30.8711L10.9836 31.8596H8.86458L8.14084 31.1107V29.353L9.92411 31.1978L11.9392 29.1129L13.9543 31.1978L15.9694 29.1129L17.9845 31.1978L20 29.1129L22.0151 31.1978L24.0302 29.1129L26.0453 31.1978L28.0604 29.1129L30.0759 31.1978L31.8588 29.3534V31.1115H31.8592ZM31.8592 28.9497L30.0763 30.7942L28.2624 28.9179L28.0608 28.7092L27.8592 28.9179L26.0457 30.7942L24.2322 28.9179L24.0306 28.7092L23.829 28.9179L22.0155 30.7942L20.202 28.9179L20.0004 28.7092L19.7988 28.9179L17.9853 30.7942L16.1718 28.9179L15.9702 28.7092L15.7686 28.9179L13.9551 30.7942L12.1416 28.9179L11.94 28.7092L11.7384 28.9179L9.92489 30.7942L8.14162 28.9489V27.4489L9.72326 29.085L9.92489 29.2937L10.1265 29.085L11.94 27.2092L13.7535 29.0854L13.9551 29.2941L14.1567 29.0854L15.9702 27.2092L17.7837 29.0854L17.9853 29.2941L18.1869 29.0854L20.0004 27.2092L21.8139 29.0854L22.0155 29.2941L22.2171 29.0854L24.0306 27.2092L25.8441 29.0854L26.0457 29.2941L26.2473 29.0854L28.0608 27.2092L29.8747 29.0854L30.0763 29.2941L30.2779 29.0854L31.8592 27.4497V28.9493V28.9497ZM31.8592 27.046L30.0763 28.8905L28.0608 26.8055L26.0457 28.8905L24.0306 26.8055L22.0155 28.8905L20.0004 26.8055L17.9853 28.8905L15.9702 26.8055L13.9551 28.8905L11.94 26.8055L9.92489 28.8905L8.14162 27.0456V25.2878L9.92489 27.1327L11.9294 25.0588H11.951L13.9555 27.1323L15.96 25.0588H15.9816L17.9861 27.1323L19.9906 25.0588H20.0122L22.0167 27.1323L24.0212 25.0588H24.0428L26.0473 27.1323L28.0518 25.0588H28.0734L30.0779 27.1323L31.8608 25.2878V27.046H31.8592Z" fill="#002856"/>
<path d="M34.6129 17.3419L34.3109 17.0399L32.2122 14.9412V7.78735H25.0584L20.2495 2.97849L20 2.729L19.7505 2.97849L14.9417 7.78735H7.78779V14.9412L5.68913 17.0399L5.38708 17.3419H34.6133H34.6129ZM11.8921 16.0337C10.9601 15.9337 10.254 15.8132 9.7213 15.692C10.456 15.4276 11.1825 15.1425 11.8921 14.8392V16.0333V16.0337ZM13.555 16.1792C13.0686 16.1443 12.6069 16.1055 12.1726 16.0627V14.7184C12.6422 14.5133 13.1035 14.3006 13.555 14.0818V16.1792ZM15.2178 16.2773C14.7404 16.2545 14.2787 16.2283 13.8355 16.1985V13.9437C14.3093 13.7087 14.771 13.4667 15.2178 13.2188V16.2773ZM16.8807 16.3405C16.4088 16.3267 15.9471 16.3099 15.4983 16.2899V13.0607C15.9792 12.7873 16.4409 12.5072 16.8807 12.222V16.3401V16.3405ZM18.0304 16.3675C17.7374 16.3624 17.4479 16.3558 17.1615 16.3483V12.0376C17.5024 11.8101 17.8264 11.5814 18.1324 11.3527L18.0304 16.3675ZM18.1465 10.6502C17.7378 10.9706 17.2925 11.2919 16.8104 11.612C14.8138 12.9387 12.3091 14.1665 9.68364 15.1221C11.055 14.2681 12.3519 13.3094 13.5573 12.2557C15.2602 10.7674 16.825 9.05165 18.2175 7.14952L18.1465 10.6502ZM19.9726 16.3844C19.4799 16.3844 18.9923 16.3813 18.5117 16.3746L18.5211 15.9054C18.5466 15.9066 18.5729 15.9027 18.5984 15.8933C19.5285 15.5485 20.4711 15.5485 21.4 15.8933C21.4232 15.9019 21.4467 15.9058 21.4699 15.9058C21.4722 15.9058 21.4746 15.9058 21.4769 15.9058L21.4863 16.3742C20.9885 16.3809 20.4833 16.3844 19.9726 16.3844ZM18.8275 6.9118C18.8275 6.9118 18.8295 6.91141 18.8303 6.91102C18.8675 6.89925 18.9048 6.88787 18.9421 6.87728C18.9523 6.87414 18.9628 6.87101 18.973 6.86787V7.38135C18.8793 7.41783 18.7855 7.45902 18.6918 7.50531L18.7032 6.95417C18.7447 6.93926 18.7859 6.92553 18.8275 6.91219V6.9118ZM19.5771 9.267C19.594 9.28662 19.6117 9.30623 19.6289 9.32585C19.3351 9.63182 19.004 9.94132 18.6365 10.252L18.6824 7.99016C18.9071 8.40714 19.2057 8.83354 19.5775 9.267H19.5771ZM20.8332 7.73322C20.6735 8.02899 20.4719 8.33144 20.2299 8.63819L19.9988 8.91239L19.798 8.67389C19.5442 8.35536 19.3339 8.04194 19.1684 7.73557C19.7286 7.53081 20.2856 7.53002 20.8328 7.73283L20.8332 7.73322ZM19.5273 7.22366V6.75372C19.592 6.74548 19.6568 6.73881 19.7215 6.73371V7.19542C19.6568 7.20248 19.592 7.21189 19.5273 7.22366ZM19.9988 6.2418C19.9078 6.2418 19.8168 6.24494 19.7258 6.25082L19.8498 5.59298H20.1452L20.2691 6.25082C20.1789 6.24494 20.0887 6.2418 19.9988 6.2418ZM20.0961 6.73096V7.18129C20.0679 7.18051 20.04 7.17972 20.0118 7.17972H20.0094C19.9737 7.17972 19.9376 7.1809 19.9019 7.18208V6.73096H20.0961ZM20.2762 7.19306V6.73371C20.3409 6.73881 20.4056 6.74509 20.4707 6.75372V7.22052C20.406 7.20914 20.3413 7.20012 20.2762 7.19345V7.19306ZM21.3161 7.99369L21.362 10.25C20.9952 9.93975 20.6649 9.63103 20.3715 9.32545C20.3888 9.30584 20.4064 9.28623 20.4233 9.26661C20.794 8.83433 21.0917 8.4095 21.3165 7.9933L21.3161 7.99369ZM21.025 7.37704V6.86787C21.1148 6.89337 21.2051 6.92161 21.2949 6.95378L21.3063 7.501C21.2129 7.45471 21.1192 7.41352 21.025 7.37704ZM20.2526 12.6343L21.3808 11.1766L21.4416 14.17L20.2526 12.6343ZM21.4526 14.7231L21.4683 15.4916C21.3561 15.452 21.2439 15.417 21.1317 15.3865V14.8255C21.2388 14.7957 21.3459 14.7616 21.453 14.7231H21.4526ZM18.8773 14.4109L19.9988 12.9618L21.1203 14.4109C20.3746 14.6372 19.6223 14.6372 18.8769 14.4109H18.8773ZM20.9411 14.8738V15.339C20.8665 15.3221 20.7916 15.3072 20.7167 15.2947V14.9193C20.7916 14.9059 20.8661 14.891 20.9411 14.8738ZM20.526 14.9483V15.2664C20.4515 15.257 20.3766 15.2495 20.3017 15.2441V14.971C20.3766 14.9655 20.4511 14.9577 20.526 14.9483ZM20.111 14.9808V15.2346C20.0361 15.2327 19.9616 15.2327 19.8866 15.2346V14.9808C19.9239 14.982 19.9612 14.9824 19.9984 14.9824C20.0357 14.9824 20.0734 14.9816 20.111 14.9808ZM19.696 14.971V15.2441C19.6211 15.2495 19.5465 15.257 19.4716 15.2664V14.9483C19.5462 14.9581 19.6211 14.9655 19.696 14.971ZM19.2814 14.9193V15.2947C19.2064 15.3076 19.1319 15.3221 19.057 15.339V14.8734C19.1315 14.8906 19.2064 14.9055 19.2814 14.9189V14.9193ZM19.9988 12.3067L18.8813 10.8632L19.1794 10.5089C19.4763 10.2493 19.7497 9.98957 20 9.73067C20.2475 9.98722 20.5182 10.2445 20.8116 10.5015L21.116 10.8632L19.9984 12.3067H19.9988ZM20.845 7.3131C20.7802 7.29231 20.7155 7.27387 20.6504 7.25818V6.78118C20.7151 6.79294 20.7798 6.80628 20.845 6.82158V7.3131ZM19.3473 7.2621C19.2825 7.27818 19.2178 7.29662 19.1527 7.31741V6.82158C19.2174 6.80667 19.2822 6.79294 19.3473 6.78157V7.26249V7.2621ZM19.7454 12.6343L18.5564 14.17L18.6173 11.177L19.7454 12.6343ZM18.8663 14.8255V15.3868C18.7542 15.4174 18.6416 15.4524 18.5298 15.492L18.5455 14.7231C18.6526 14.7616 18.7593 14.7957 18.8667 14.8255H18.8663ZM22.8385 16.3467C22.5517 16.3546 22.2611 16.3609 21.9676 16.3663L21.8657 11.3511C22.1724 11.5806 22.4968 11.8093 22.8385 12.0376V16.3471V16.3467ZM24.5013 16.2875C24.0526 16.3079 23.5909 16.3248 23.119 16.3389V12.2224C23.5583 12.5072 24.0204 12.7873 24.5013 13.0611V16.2879V16.2875ZM26.1642 16.1945C25.7213 16.2247 25.2592 16.2514 24.7818 16.2746V13.2188C25.2282 13.4667 25.6903 13.7087 26.1642 13.9437V16.1945ZM27.8274 16.0568C27.3939 16.1004 26.9319 16.1396 26.445 16.1749V14.0814C26.8965 14.3002 27.3579 14.5133 27.8274 14.718V16.0565V16.0568ZM28.1079 16.0274V14.8392C28.812 15.1401 29.5322 15.4229 30.2615 15.6858C29.7295 15.8062 29.0282 15.9266 28.1079 16.0274ZM23.1896 11.612C22.7067 11.2911 22.2607 10.9695 21.8511 10.6486L21.7801 7.14991C23.1727 9.05204 24.7371 10.7674 26.4399 12.2557C27.6446 13.3086 28.9403 14.2665 30.3105 15.1201C27.6874 14.1649 25.1843 12.9379 23.1892 11.612H23.1896ZM8.14044 15.0875V8.1404H15.0876L20 3.22797L24.9124 8.1404H31.8596V15.0875C31.8596 15.0875 31.7996 15.1519 31.6038 15.2507C27.7325 13.0426 24.4354 10.0104 21.7888 6.21748C21.7782 6.19826 21.7652 6.18061 21.7503 6.16413L21.7331 5.76833H21.2518V6.23396C21.1655 6.29476 21.0635 6.33281 20.9481 6.35125C20.861 6.33124 20.774 6.31398 20.6869 6.29947L20.6786 6.25553L20.5398 5.51845L20.4782 5.19169H19.5175L19.4559 5.51845L19.3171 6.25553L19.3088 6.29986C19.2229 6.31437 19.1366 6.33163 19.0507 6.35125C18.9342 6.33281 18.8314 6.29437 18.7443 6.23199V5.77068H18.263L18.2469 6.16766C18.2469 6.16766 18.2458 6.16884 18.2454 6.16962C18.243 6.17237 18.2407 6.17551 18.2383 6.17865C18.2348 6.18296 18.2316 6.18688 18.2285 6.1912C18.2281 6.19159 18.2277 6.19238 18.2273 6.19277C15.5764 9.99859 12.2715 13.0407 8.38914 15.2535C8.19654 15.1527 8.14123 15.0868 8.14123 15.0868L8.14044 15.0875Z" fill="#002856"/>
<path d="M6.01861 18.0931V19.6842H6.74314V18.0931H7.37508V21.9072H6.74314V20.251H6.01861V21.9072H5.38666V18.0931H6.01861Z" fill="#002856"/>
<path d="M7.92035 18.0931H9.57103V18.649H8.5523V19.7222H9.40235V20.2781H8.5523V21.9072H7.92035V18.0931Z" fill="#002856"/>
<path d="M11.1731 19.9619L11.9196 21.9072H11.2657L10.7918 20.5123L10.345 21.9072H9.70209L10.4486 19.9619L9.76211 18.0931H10.416L10.8193 19.368L11.1951 18.0931H11.838L11.1731 19.9619Z" fill="#002856"/>
<path d="M15.5701 21.9068H14.9762L14.4858 19.2916L13.9955 21.9068H13.38L12.7806 18.0928H13.4016L13.7178 20.8171L14.2081 18.0928H14.775L15.2653 20.8171L15.5815 18.0928H16.1699L15.5705 21.9068H15.5701Z" fill="#002856"/>
<path d="M17.5209 21.0571H16.8234L16.6873 21.9072H16.0769L16.7853 18.0931H17.5809L18.2999 21.9072H17.657L17.5209 21.0571ZM17.4389 20.5339L17.1717 18.8392L16.9046 20.5339H17.4385H17.4389Z" fill="#002856"/>
<path d="M18.6161 21.9068V18.0928H19.248L20.0491 20.4519V18.0928H20.6265V21.9068H20.0271L19.1935 19.4277V21.9068H18.6161Z" fill="#002856"/>
<path d="M23.1056 18.8993V21.1003C23.1056 21.6777 22.7243 21.9068 22.1469 21.9068H21.1717V18.0928H22.1469C22.7243 18.0928 23.1056 18.3215 23.1056 18.8993ZM22.1249 18.6486H21.8036V21.351H22.1249C22.332 21.351 22.4736 21.2749 22.4736 21.0023V18.9974C22.4736 18.7251 22.332 18.6486 22.1249 18.6486Z" fill="#002856"/>
<path d="M23.6285 21.9068V18.0928H25.3012V18.6486H24.2605V19.6948H25.1321V20.2507H24.2605V21.3514H25.3177V21.9072H23.6285V21.9068Z" fill="#002856"/>
<path d="M27.1974 21.9068L26.7126 20.3868H26.3964V21.9068H25.7645V18.0928H26.7506C27.3281 18.0928 27.7097 18.3215 27.7097 18.8993V19.5803C27.7097 19.9455 27.5572 20.1742 27.2955 20.2887L27.8404 21.9068H27.1974ZM26.3964 19.8419H26.7287C26.9358 19.8419 27.0774 19.7658 27.0774 19.4932V18.9974C27.0774 18.7251 26.9358 18.6486 26.7287 18.6486H26.3964V19.8419Z" fill="#002856"/>
<path d="M28.2216 21.9068V18.0928H29.8943V18.6486H28.8536V19.6948H29.7252V20.2507H28.8536V21.3514H29.9107V21.9072H28.2216V21.9068Z" fill="#002856"/>
<path d="M31.7905 21.9068L31.3057 20.3868H30.9895V21.9068H30.3575V18.0928H31.3437C31.9211 18.0928 32.3028 18.3215 32.3028 18.8993V19.5803C32.3028 19.9455 32.1502 20.1742 31.8886 20.2887L32.4334 21.9068H31.7905ZM30.9895 19.8419H31.3217C31.5289 19.8419 31.6705 19.7658 31.6705 19.4932V18.9974C31.6705 18.7251 31.5289 18.6486 31.3217 18.6486H30.9895V19.8419Z" fill="#002856"/>
<path d="M33.981 19.4552V18.9213C33.981 18.6816 33.8448 18.5945 33.6597 18.5945C33.4745 18.5945 33.3384 18.6816 33.3384 18.9213V19.183C33.3384 19.3791 33.4039 19.4662 33.5836 19.5697L34.0304 19.8204C34.3956 20.0275 34.6133 20.1962 34.6133 20.6049V21.1553C34.6133 21.7437 34.2481 21.9508 33.6707 21.9508H33.6597C33.0823 21.9508 32.7171 21.7492 32.7171 21.1553V20.4908H33.338V21.0682C33.338 21.3024 33.4742 21.406 33.6648 21.406C33.8554 21.406 33.9916 21.3024 33.9916 21.0682V20.7685C33.9916 20.5724 33.9315 20.4743 33.7409 20.3708L33.2996 20.1201C32.9293 19.9075 32.7167 19.7333 32.7167 19.3356V18.8342C32.7167 18.2678 33.1309 18.0497 33.6538 18.0497H33.6648C34.1877 18.0497 34.6019 18.2678 34.6019 18.8342V19.4552H33.981Z" fill="#002856"/>
</g>
<defs>
<clipPath id="clip0_5005_2791">
<rect width="40" height="40" fill="white"/>
</clipPath>
</defs>
</svg>
