<?xml version="1.0" encoding="UTF-8"?>
<svg id="Layer_2" xmlns="http://www.w3.org/2000/svg" version="1.1" viewBox="0 0 603.1 603.2">
  <!-- Generator: Adobe Illustrator 29.7.0, SVG Export Plug-In . SVG Version: 2.1.1 Build 138)  -->
  <defs>
    <style>
      .st0 {
        fill: #dfdfdf;
      }

      .st1 {
        fill: #d6d5d5;
      }

      .st2 {
        fill: #092b4a;
      }

      .st3 {
        fill: #fff;
      }

      .st4 {
        fill: #fec70b;
      }
    </style>
  </defs>
  <g id="Layer_1">
    <g>
      <path class="st3" d="M301.9,5.5C138.1,5.5,5.3,138.3,5.3,302.1s132.8,296.6,296.6,296.6,296.6-132.8,296.6-296.6S465.7,5.5,301.9,5.5ZM507.1,507.4c-26.7,26.7-57.9,47.7-92.5,62.4-35.9,15.2-74,22.9-113.3,22.9s-77.4-7.7-113.3-22.9c-34.7-14.7-65.8-35.6-92.5-62.4-26.7-26.7-47.7-57.9-62.4-92.5-15.2-35.9-22.9-74-22.9-113.3s7.7-77.4,22.9-113.3c14.7-34.7,35.6-65.8,62.4-92.5,26.7-26.7,57.9-47.7,92.5-62.4,35.9-15.2,74-22.9,113.3-22.9s77.4,7.7,113.3,22.9c34.7,14.7,65.8,35.6,92.5,62.4,26.7,26.7,47.7,57.9,62.4,92.5,15.2,35.9,22.9,74,22.9,113.3s-7.7,77.4-22.9,113.3c-14.7,34.7-35.6,65.8-62.4,92.5Z"/>
      <path class="st3" d="M586.2,301.6c0,38.5-7.5,75.8-22.4,110.9-14.4,33.9-34.9,64.4-61.1,90.6-26.2,26.2-56.6,46.7-90.6,61.1-35.1,14.9-72.4,22.4-110.9,22.4s-75.8-7.5-110.9-22.4c-33.9-14.4-64.4-34.9-90.6-61.1-26.2-26.2-46.7-56.6-61.1-90.6-14.9-35.1-22.4-72.4-22.4-110.9s7.5-75.8,22.4-110.9c14.4-33.9,34.9-64.4,61.1-90.6,26.2-26.2,56.6-46.7,90.6-61.1,35.1-14.9,72.4-22.4,110.9-22.4s75.8,7.5,110.9,22.4c33.9,14.4,64.4,34.9,90.6,61.1,26.2,26.2,46.7,56.6,61.1,90.6,14.9,35.1,22.4,72.4,22.4,110.9Z"/>
      <g>
        <path class="st1" d="M382,235.9c-.3-.3-.6-.6-.8-.9.1.1.2.2.3.3.2.2.4.4.5.5Z"/>
        <g>
          <path class="st2" d="M579.4,184.2c-15.2-35.9-36.9-68.2-64.6-95.9-27.7-27.7-59.9-49.4-95.9-64.6C381.8,8,342.3,0,301.6,0s-80.2,8-117.4,23.7c-35.9,15.2-68.2,36.9-95.9,64.6s-49.4,59.9-64.6,95.9C8,221.4,0,260.9,0,301.6s8,80.2,23.7,117.4c15.2,35.9,36.9,68.2,64.6,95.9,27.7,27.7,60,49.4,95.9,64.6,37.2,15.7,76.7,23.7,117.4,23.7s80.2-8,117.4-23.7c35.9-15.2,68.2-36.9,95.9-64.6,27.7-27.7,49.4-60,64.6-95.9,15.7-37.2,23.7-76.7,23.7-117.4s-8-80.2-23.7-117.4ZM414.6,569.8c-35.9,15.2-74,22.9-113.3,22.9s-77.4-7.7-113.3-22.9c-34.7-14.7-65.8-35.6-92.5-62.4-26.7-26.7-47.7-57.9-62.4-92.5-15.2-35.9-22.9-74-22.9-113.3s7.7-77.4,22.9-113.3c14.7-34.7,35.6-65.8,62.4-92.5,26.7-26.7,57.9-47.7,92.5-62.4,35.9-15.2,74-22.9,113.3-22.9s77.4,7.7,113.3,22.9c34.7,14.7,65.8,35.6,92.5,62.4,26.7,26.7,47.7,57.9,62.4,92.5,15.2,35.9,22.9,74,22.9,113.3s-7.7,77.4-22.9,113.3c-14.7,34.7-35.6,65.8-62.4,92.5-26.7,26.7-57.9,47.7-92.5,62.4Z"/>
          <path class="st4" d="M569.5,188.3c-14.7-34.7-35.6-65.8-62.4-92.5-26.7-26.7-57.9-47.7-92.5-62.4-35.9-15.2-74-22.9-113.3-22.9s-77.4,7.7-113.3,22.9c-34.7,14.7-65.8,35.6-92.5,62.4-26.7,26.7-47.7,57.9-62.4,92.5-15.2,35.9-22.9,74-22.9,113.3s7.7,77.4,22.9,113.3c14.7,34.7,35.6,65.8,62.4,92.5,26.7,26.7,57.9,47.7,92.5,62.4,35.9,15.2,74,22.9,113.3,22.9s77.4-7.7,113.3-22.9c34.7-14.7,65.8-35.6,92.5-62.4,26.7-26.7,47.7-57.9,62.4-92.5,15.2-35.9,22.9-74,22.9-113.3s-7.7-77.4-22.9-113.3ZM190.4,564.1c-33.9-14.4-64.4-34.9-90.6-61.1-26.2-26.2-46.7-56.6-61.1-90.6-14.9-35.1-22.4-72.4-22.4-110.9s7.5-75.8,22.4-110.9c14.4-33.9,34.9-64.4,61.1-90.6,26.2-26.2,56.6-46.7,90.6-61.1,35.1-14.9,72.4-22.4,110.9-22.4s75.8,7.5,110.9,22.4c33.9,14.4,64.4,34.9,90.6,61.1,26.2,26.2,46.7,56.6,61.1,90.6,14.9,35.1,22.4,72.4,22.4,110.9s-7.5,75.8-22.4,110.9c-14.4,33.9-34.9,64.4-61.1,90.6-26.2,26.2-56.6,46.7-90.6,61.1-35.1,14.9-72.4,22.4-110.9,22.4s-75.8-7.5-110.9-22.4Z"/>
          <path class="st2" d="M492.5,301.6c0,51.1-19.9,99.1-56,135.2-36.1,36.1-84.2,56-135.2,56s-99.1-19.9-135.2-56c-36.1-36.1-56-84.1-56-135.2s19.9-99.1,56-135.2c36.1-36.1,84.2-56,135.2-56s99.1,19.9,135.2,56c36.1,36.1,56,84.2,56,135.2Z"/>
          <g>
            <polygon class="st2" points="88.8 245.8 52.7 235.9 50.3 245.2 86.3 255.1 88.8 245.8"/>
            <polygon class="st2" points="99.6 215.5 80.1 205.8 105.5 203.2 109.5 194.8 76 178.1 71.9 186.7 91.4 196.5 66 199.1 62 207.4 95.5 224.2 99.6 215.5"/>
            <polygon class="st2" points="103.7 151.1 126.5 170 132.4 162.5 109.6 143.6 116.3 135.2 110.1 130 90.8 154.4 97 159.5 103.7 151.1"/>
            <polygon class="st2" points="173.6 123.3 168.6 116.9 155.3 127.9 150.9 122.2 162.4 112.7 157.4 106.3 145.9 115.8 142 110.9 155.2 99.9 150.2 93.6 129.6 110.5 153 140.3 173.6 123.3"/>
            <path class="st2" d="M199.4,107.7l-5.8-12.2,3.9-1.9,14,8.1,9.9-4.9-14.5-8.5c2.7-2.7,3.1-6.1,1.1-10.4l-2.4-5.2c-2.7-5.6-6.9-7.1-12.6-4.3l-18.2,9,16.3,34.4,8.5-4.2ZM186.7,80.7l7.2-3.6c2-1,2.9-.7,3.8,1.2l1.1,2.4c.9,1.9.5,2.8-1.4,3.8l-7.2,3.6-3.5-7.4Z"/>
            <polygon class="st2" points="271.9 54.1 274.8 83.9 284.1 83 281.3 53.1 291.8 52 291.1 43.9 260.6 47 261.3 55.1 271.9 54.1"/>
            <path class="st2" d="M322.6,83.9l11.7,1.5c6.2.8,9.8-2,10.5-8.2l2.4-20.1c.8-6.2-2-9.8-8.3-10.6l-11.7-1.5c-6.2-.8-9.8,2-10.5,8.2l-2.4,20.1c-.8,6.2,2,9.8,8.3,10.6ZM323.8,72.9l2.1-17.1c.3-2.1,1.1-2.7,3.2-2.5l6.1.8c2.1.3,2.8,1.1,2.5,3.2l-2.1,17.1c-.3,2.1-1.1,2.7-3.2,2.5l-6.1-.8c-2.1-.3-2.8-1.1-2.5-3.2Z"/>
            <path class="st2" d="M377.6,81.8l4,1.5,3.9,15.9,10.3,3.9-4-16.6c3.8.2,6.5-1.9,8.1-6.4l1.9-5.4c2.1-5.9.2-10-5.7-12.3l-19-7.2-13,35.8,8.8,3.4,4.6-12.7ZM383.2,66.3l7.5,2.9c2.1.8,2.5,1.7,1.8,3.7l-.9,2.5c-.7,2-1.6,2.3-3.7,1.6l-7.5-2.9,2.8-7.7Z"/>
            <path class="st2" d="M418.3,117l9.8,6.6c5.2,3.5,9.6,2.6,13-2.6l10.9-17c3.4-5.2,2.4-9.7-2.8-13.2l-9.8-6.6c-5.2-3.5-9.6-2.6-13,2.6l-10.9,17c-3.4,5.2-2.4,9.7,2.8,13.2ZM424.2,107.7l9.2-14.4c1.1-1.8,2.1-2,3.9-.8l5.1,3.4c1.8,1.2,2,2.2.9,4l-9.2,14.4c-1.1,1.7-2.1,2-3.9.8l-5.1-3.4c-1.8-1.2-2-2.2-.9-4Z"/>
            <polygon class="st2" points="458.8 149.2 474.7 134 468 159.2 474.2 166 501.4 139.9 495 132.9 479.2 148.1 485.8 122.9 479.6 116.1 452.4 142.2 458.8 149.2"/>
            <polygon class="st2" points="495.5 199.5 520.9 184.4 526.2 193.8 533.1 189.7 517.7 162.6 510.8 166.7 516.1 176.1 490.8 191.1 495.5 199.5"/>
            <path class="st2" d="M510.7,235.6l3.5,11.5c1.9,6.1,5.8,8.3,11.7,6.4l18.9-6.1c5.8-1.9,7.9-6,6-12.1l-3.5-11.5c-1.9-6.1-5.8-8.3-11.7-6.4l-18.9,6.1c-5.8,1.9-7.9,6-6,12.1ZM521,232.3l16-5.2c2-.6,2.9-.1,3.5,2l1.8,6c.6,2.1.2,3-1.8,3.7l-16,5.2c-1.9.6-2.9.1-3.5-2l-1.8-6c-.6-2.1-.2-3,1.8-3.7Z"/>
            <polygon class="st2" points="73.6 360.4 80.7 358.2 85.5 375 93.2 372.6 85.7 346.7 49.9 357.5 52.6 366.7 65.9 362.7 70.1 377.3 77.8 374.9 73.6 360.4"/>
            <path class="st2" d="M111.3,409.6l-5.7-10.5c-3.1-5.6-7.3-6.9-12.7-3.9l-17.3,9.9c-5.3,3-6.5,7.5-3.5,13.1l5.7,10.5c3.1,5.6,7.3,6.9,12.7,3.9l17.3-9.9c5.3-3,6.5-7.5,3.5-13.1ZM101.9,415l-14.7,8.4c-1.8,1-2.8.7-3.8-1.2l-3-5.5c-1-1.9-.8-2.9,1-4l14.7-8.4c1.8-1,2.8-.7,3.8,1.2l3,5.5c1,1.9.8,2.9-1,4Z"/>
            <path class="st2" d="M134.2,442.2c-4.2-4.7-8.7-5-13.2-.8l-14.6,13.7c-4.5,4.2-4.7,8.8-.4,13.5l7.9,8.9c4.2,4.7,8.7,5,13.2.8l14.6-13.7c4.5-4.2,4.7-8.8.4-13.5l-7.9-8.9ZM134.2,458.6l-12.4,11.6c-1.5,1.4-2.5,1.4-4-.3l-4.1-4.6c-1.4-1.6-1.4-2.7.1-4.1l12.4-11.6c1.5-1.4,2.5-1.4,4,.3l4.1,4.6c1.4,1.6,1.4,2.6-.1,4.1Z"/>
            <polygon class="st2" points="157.9 478.2 166.6 484.4 149.9 509 157.6 514.5 174.4 489.9 183.1 496.1 187.7 489.4 162.5 471.5 157.9 478.2"/>
            <path class="st2" d="M222.8,506.2l-18.1-7.6-14.1,35.3,18.9,7.9c5.8,2.4,9.9.7,12.3-5.1l1.1-2.8c1.4-3.6,1.1-6.1-1.3-8.7,3.1-.6,4.7-2,5.7-4.6l.8-2c2.3-5.8.5-10-5.3-12.5ZM214.1,530.3l-.6,1.5c-.8,2-1.7,2.3-3.8,1.5l-7.5-3.2,2.7-6.7,7.5,3.2c2,.9,2.5,1.8,1.7,3.8ZM218.8,516.3l-.5,1.1c-.8,1.9-1.7,2.2-3.7,1.4l-6.8-2.9,2.5-6.2,6.8,2.9c2,.9,2.5,1.8,1.7,3.7Z"/>
            <path class="st2" d="M259.6,516.9l-17.5,35.8,9.5,1.5,3.6-7.7,13,2.1,1.1,8.5,9.6,1.6-5.8-39.6-13.6-2.2ZM258.9,538.8l6.3-13.3,1.9,14.6-8.2-1.3Z"/>
            <polygon class="st2" points="315.3 550.4 313.4 520.5 304 521.1 306.4 559.2 332.2 557.5 331.7 549.4 315.3 550.4"/>
            <polygon class="st2" points="365.9 542.3 358.1 513.3 349.1 515.9 358.9 552.7 383.9 545.7 381.8 537.8 365.9 542.3"/>
            <path class="st2" d="M457.3,494.2l-8.3,4.5.2.3c1.2,1.7,1,2.8-.8,4l-5,3.6c-1.8,1.3-2.8,1.1-3.9-.6l-9.6-14.1c-1.2-1.8-1-2.8.8-4l5-3.6c1.8-1.3,2.7-1.1,3.9.6l.2.3,7-6.4c0-.2-.2-.3-.4-.7-3.5-5.1-7.9-5.9-13-2.2l-9.6,6.9c-5.1,3.7-6,8.2-2.5,13.3l11.4,16.6c3.5,5.1,7.9,5.9,13.1,2.2l9.6-6.9c5.1-3.7,6-8.2,2.5-13.3-.2-.4-.3-.4-.5-.6Z"/>
            <polygon class="st2" points="484.5 469.8 463 449.5 456.6 456.6 484 482.4 501.6 462.9 495.7 457.4 484.5 469.8"/>
            <path class="st2" d="M525.5,409.3l-24.7-14.7-4.7,8.3,23.4,13.9c1.8,1,2,2.1,1,4l-2.8,4.9c-1.1,1.9-2.1,2.2-3.8,1.1l-23.4-13.9-4.7,8.3,24.7,14.7c5.3,3.1,9.6,1.9,12.8-3.6l5.6-9.9c3.2-5.6,2-10-3.2-13.1Z"/>
            <path class="st2" d="M544.8,353.5l-2.8-.9c-3.6-1.1-6.1-.6-8.3,2.1-.8-3.1-2.3-4.6-5-5.4l-2-.6c-5.9-1.8-9.8.4-11.6,6.5l-5.7,19.2,35.6,11.2,6-20c1.8-6.1-.2-10.2-6.1-12ZM528.1,362.2l-2.2,7.2-6.3-2,2.2-7.2c.6-2.1,1.5-2.7,3.5-2.1l1.1.4c2,.6,2.3,1.5,1.7,3.7ZM542.5,365.9l-2.4,8-6.8-2.1,2.4-8c.6-2.2,1.5-2.7,3.5-2l1.5.5c2,.6,2.4,1.5,1.8,3.7Z"/>
            <ellipse class="st2" cx="538" cy="303.1" rx="12.3" ry="12.6"/>
            <ellipse class="st2" cx="63.6" cy="303.1" rx="12.3" ry="12.6"/>
          </g>
          <path class="st4" d="M430.9,171.9c-34.6-34.6-80.7-53.7-129.6-53.7s-95,19.1-129.6,53.7-53.7,80.7-53.7,129.6,19.1,95,53.7,129.6,80.7,53.7,129.6,53.7,95-19.1,129.6-53.7c34.6-34.6,53.7-80.7,53.7-129.6s-19.1-95-53.7-129.6ZM425.5,425.8c-33.2,33.2-77.3,51.5-124.3,51.5s-91.1-18.3-124.3-51.5c-33.2-33.2-51.5-77.3-51.5-124.3s18.3-91.1,51.5-124.3c33.2-33.2,77.3-51.5,124.3-51.5s91.1,18.3,124.3,51.5c33.2,33.2,51.5,77.3,51.5,124.3s-18.3,91.1-51.5,124.3Z"/>
        </g>
      </g>
      <g>
        <g>
          <path class="st0" d="M426.7,293.3l-16.2,6.8-.5.2s0-.5,0-1.4c0-.9-.1-2.2-.3-3.8,0,0,0-.1,0-.2,0-.8-.2-1.7-.3-2.6,0,0,0-.1,0-.2-1.3-9-4.9-24.1-14.5-39.8,0,0,0-.1-.1-.2-.1-.2-.3-.4-.4-.6,0-.1-.1-.2-.2-.3-.1-.2-.2-.3-.3-.5,0-.1-.2-.3-.3-.4,0-.1-.1-.2-.2-.3-.3-.4-.6-.9-.9-1.3-.4-.6-.8-1.2-1.2-1.8,0-.1-.2-.2-.3-.4,0-.1-.2-.2-.2-.3,0-.1-.2-.2-.2-.4-.2-.2-.3-.5-.5-.7,0,0,0,0,0-.1-1.3-1.8-2.7-3.5-4.2-5.3,0,0,0,0,0,0-.2-.3-.4-.5-.7-.8,0,0-.2-.2-.2-.3-.1-.1-.2-.3-.4-.4,0-.1-.2-.2-.3-.3-.3-.3-.5-.6-.8-.9,0,0-.2-.2-.2-.3l-.9-.9c-.2-.2-.3-.4-.5-.5,0-.1-.2-.2-.3-.3-.6-.6-1.2-1.2-1.8-1.8-1.2-1.2-2.4-2.3-3.7-3.5,0,0,0,0,0,0-4.1-3.7-8.7-7.2-13.9-10.4,0,0,0,0,0,0-1.3-.8-2.6-1.6-3.9-2.4,0,0,0,0,0,0-.3-.2-.6-.3-.8-.5-.1,0-.2-.1-.3-.2-.2-.1-.5-.3-.8-.4-.1,0-.3-.2-.4-.2-.2-.1-.5-.2-.7-.4-.2-.1-.5-.3-.8-.4-.1,0-.3-.1-.4-.2,0,0,0,0,0,0-.4-.2-.9-.5-1.3-.7h0s31.3,172.9,31.3,172.9c-2.6,2.5-5.4,5.1-8.3,7.6l-29.8-188.7h0s64.7,16.1,81.2,87.7Z"/>
          <g>
            <path class="st3" d="M427,221.9l-.3,71.4c-16.6-71.6-81.2-87.7-81.2-87.7h0s29.8,188.7,29.8,188.7c-6.7,5.9-14.3,11.8-22.8,17.7l-26-229.4c65.4,9.3,100.6,39.3,100.6,39.3Z"/>
            <path class="st0" d="M322,430.5c-3.2,1.7-6.5,3.4-10,5.1l-8.1-254.6,18.1,249.6Z"/>
            <path class="st3" d="M312,435.5c-3.4,1.7-6.9,3.3-10.5,4.9-8-3.7-15.4-7.4-22.4-11.3l20.1-248.3h4.7s8.1,254.6,8.1,254.6Z"/>
            <path class="st0" d="M257.6,205.3l-6.9,8.2c-2.7,1.4-5.3,2.8-7.7,4.2-.8.5-1.6,1-2.4,1.5,0,0,0,0,0,0-2,1.2-3.9,2.5-5.7,3.8-1.9,1.4-3.8,2.8-5.5,4.3-.6.5-1.1.9-1.7,1.4-5.8,5-10.7,10.3-14.8,15.7-.2.3-.5.6-.7.9-.2.3-.4.6-.6.8-.2.3-.4.6-.6.9-1.1,1.5-2.1,3-3,4.5-.1.2-.3.4-.4.6-1.4,2.2-2.6,4.4-3.8,6.6-.3.5-.6,1.1-.9,1.6-.5.9-.9,1.8-1.3,2.7-.7,1.4-1.3,2.8-1.8,4.1-.4.9-.7,1.8-1,2.6-.1.3-.2.5-.3.8-.3.8-.6,1.6-.9,2.4-.7,2.1-1.4,4.1-1.9,6h0c-.2.8-.4,1.5-.6,2.1,0,.3-.1.6-.2.8-.1.4-.2.8-.3,1.2,0,0,0,.1,0,.2-.2.9-.4,1.7-.6,2.5,0,.2,0,.4-.1.6,0,.4-.2.7-.2,1.1,0,0,0,0,0,.1,0,.4-.1.7-.2,1.1,0,0,0,0,0,.1-.1.8-.3,1.5-.4,2.2,0,.2,0,.3,0,.5,0,.2,0,.3,0,.5-.1.6-.2,1.2-.2,1.8,0,0,0,0,0,.1-.2,1.4-.3,2.6-.4,3.5,0,.2,0,.3,0,.4,0,.3,0,.6,0,.8,0,.4,0,.6,0,.6l-16.6-7.2c17.1-71.4,82-87,82-87Z"/>
            <path class="st0" d="M276.8,182.4l-27.8,227.9c-3.2-2.3-6.2-4.6-9.1-6.9l31.3-214.3,5.7-6.8Z"/>
          </g>
        </g>
        <path class="st3" d="M175.9,220.8s35.4-29.6,100.9-38.4l-5.7,6.8-31.3,214.3c-8.1-6.3-15.2-12.7-21.4-19l32.3-171,6.9-8.2s-64.8,15.6-82,87l.3-71.4Z"/>
      </g>
    </g>
  </g>
</svg>