<svg width="40" height="40" viewBox="0 0 40 40" fill="none" xmlns="http://www.w3.org/2000/svg">
<path d="M10 32.9319V28.7977L11.8777 5.26172L19.6571 0L27.4361 5.26172L29.3138 28.7977V32.9319L19.6571 40L10 32.9319Z" fill="white"/>
<path d="M15.5116 7.36853L13.9097 27.4507L19.1706 24.0544L15.5116 7.36853Z" fill="#00B7BD"/>
<path d="M20.0246 23.9776L25.4043 27.4507L23.8032 7.38007L19.657 4.57544L16.2676 6.86821L20.0246 23.9776Z" fill="#00B7BD"/>
<path d="M26.5979 5.75085L19.6571 1.05615L12.7163 5.75085L10.8748 28.8324L19.6571 35.3269L28.4393 28.8324L26.5979 5.75085ZM14.3132 6.68161L19.6571 3.06695L25.001 6.68161L26.7051 28.0428L21.1911 32.1204V25.7096L19.6571 24.7194L18.123 25.7096V32.1204L12.6091 28.0428L14.3132 6.68161Z" fill="#592C82"/>
<path d="M19.6571 36.7491L10.8748 30.2546V32.4884L19.6571 38.9162L28.4393 32.4884V30.2546L19.6571 36.7491Z" fill="#00B7BD"/>
<path d="M19.6571 28.2288L19.2938 29.2598L19.5275 29.5148V33.8357L19.6571 33.9314L19.7867 33.8357V29.5148L20.0205 29.2598L19.6571 28.2288Z" fill="white"/>
<path d="M18.6307 29.8234V32.552L19.3733 33.0986V32.7769L18.8899 32.4212V30.5921H19.0222L18.6307 29.8234Z" fill="white"/>
<path d="M20.6832 29.8234V32.552L19.941 33.0982V32.7765L20.424 32.4212V30.5921H20.2917L20.6832 29.8234Z" fill="white"/>
<path d="M18.7039 26.1959H19.1004L19.2099 26.3055V26.8571L19.1004 26.9666L18.8794 27.0634V27.5842H18.7039V26.1959ZM19.0344 26.8004V26.3784L18.9978 26.3417H18.879V26.8898L18.9978 26.837L19.0344 26.8004Z" fill="white"/>
<path d="M19.8673 26.3456H19.6154V26.8224H19.8418V26.972H19.6154V27.5838H19.4399V26.1956H19.8673V26.3452V26.3456Z" fill="white"/>
<path d="M20.0809 26.3055L20.1905 26.1959H20.4609L20.5704 26.3055V26.6179H20.3949V26.3788L20.3583 26.3421H20.2927L20.2561 26.3788V27.3979L20.2927 27.4345H20.3583L20.3949 27.3979V27.1602H20.5704V27.4746L20.4609 27.5842H20.1905L20.0809 27.4746V26.3055Z" fill="white"/>
</svg>
