<svg width="40" height="40" viewBox="0 0 40 40" fill="none" xmlns="http://www.w3.org/2000/svg">
<path d="M36.4828 7.23975L26.1872 7.18834C26.196 7.19833 26.204 7.20905 26.2128 7.21904C26.7722 7.89175 27.3336 8.56275 27.893 9.23449L21.4449 18.4568L12.7079 7H10.7624L20.5056 19.8005L20.4839 19.8312L19.7242 20.9164L9.11095 7H7.17127L18.7869 22.2582L18.7533 22.3064L17.9995 23.3848L5.50204 7H3.56846L17.0626 24.7234L17.0322 24.7677L16.2705 25.8568L1.88534 7H0L18.5345 31.3394H23.846L36.5666 11.9594C37.416 10.8406 38.8998 10.9422 39.9998 11.6546C40.0176 8.22238 38.6147 7.25071 36.4828 7.23975ZM34.7042 9.51274L34.1506 10.2032C33.8645 10.5624 33.3712 10.6788 32.956 10.4873L30.837 9.48204L34.6669 9.50177H34.7132L34.7044 9.51274H34.7042Z" fill="#212322"/>
</svg>
