<svg xmlns="http://www.w3.org/2000/svg" fill="none" viewBox="0 0 750 1010" height="1010" width="750">
<g clip-path="url(#clip0_38_254)">
<path fill="black" d="M375 1010C253.366 920.093 136.175 813.093 65.5851 676.053C19.6324 586.922 0 497.662 0 377.541V63.9235C118.787 23.2214 234.726 0 375 0C515.231 0 631.213 23.2214 750 63.9235V377.541C750 497.662 730.368 586.922 684.415 676.053C613.868 813.093 496.634 920.093 375 1010Z"></path>
<path fill="#36E882" d="M375 983.196C511.65 882.153 608.56 776.189 665.171 666.255C709.354 580.621 728.469 493.562 728.469 377.585V79.3325C617.32 41.2633 496.85 21.5381 375 21.5381C253.15 21.5381 132.68 41.2633 21.574 79.3325V377.542C21.574 493.562 40.6454 580.621 84.7859 666.168C141.396 776.146 238.307 882.11 375 983.153V983.196Z"></path>
<path fill="black" d="M38.7902 229.365V377.542C38.7902 491.059 57.1282 575.009 100.06 658.27C153.952 762.939 246.376 864.931 374.957 961.658C503.495 864.931 595.961 762.895 649.81 658.313C692.829 574.966 711.167 491.015 711.167 377.542V229.365C491.716 158.536 258.198 158.536 38.7471 229.365H38.7902Z"></path>
<path fill="black" d="M58.6381 167.945V121.286C58.6381 113.474 57.6889 108.251 55.2726 103.029C68.9505 98.9282 84.3975 94.612 94.0196 92.1085C102.735 89.8641 107.784 88.9145 112.616 88.6556C126.294 87.8786 134.277 92.6265 134.536 101.647C134.794 110.582 126.467 119.991 113.264 126.077C131.429 124.351 142.087 130.307 142.087 142.436C142.087 153.097 133.888 162.809 118.571 170.362C112.012 173.599 104.763 176.059 92.2073 179.426C82.9736 181.886 68.6485 185.987 55.1863 190.001C57.6889 182.016 58.6381 175.973 58.6381 167.945ZM110.373 108.812C110.588 99.403 101.01 97.6333 83.4483 103.633V129.53C100.492 125.603 110.114 118.265 110.373 108.812ZM115.68 147.615C115.68 135.314 101.7 131.343 83.4483 138.249V172.304C104.418 167.556 115.68 158.924 115.68 147.615ZM159.13 119.732C159.13 92.1517 180.79 70.0094 212.03 65.6068C243.139 61.2474 264.843 77.0017 264.843 104.021C264.843 131.041 243.226 152.363 211.598 157.111C180.143 161.816 159.13 146.838 159.13 119.732ZM238.134 106.525C238.134 85.7637 227.347 72.6855 211.9 74.6278C196.281 76.6564 185.58 92.8855 185.58 114.682C185.58 136.479 196.151 150.291 211.253 148.047C226.614 145.803 238.177 128.02 238.177 106.568L238.134 106.525ZM279.211 139.112L286.891 115.589C295.78 129.574 309.285 137.688 322.575 136.997C332.672 136.436 339.662 130.998 339.662 123.703C339.662 118.912 336.727 115.718 329.263 112.438C321.712 109.115 311.054 106.352 303.59 103.244C291.767 98.2808 286.331 91.5043 286.331 81.6201C286.331 66.2543 300.008 55.6795 321.539 54.5573C332.628 53.953 345.616 55.8521 357.223 59.7799L350.794 80.3252C342.207 68.5419 331.765 62.7581 320.202 63.4487C311.658 63.9667 306.394 67.7218 306.394 73.2897C306.394 77.1744 308.681 79.5051 315.197 82.2244C322.359 85.2026 333.276 88.3534 340.611 91.3748C355.669 97.4607 362.875 105.791 362.875 117.056C362.875 133.76 347.126 144.939 321.841 146.105C307.732 146.709 292.371 144.249 279.168 139.199L279.211 139.112ZM404.556 143.17C407.836 136.307 408.914 130.912 408.914 122.581V64.9162C397.825 64.4415 389.109 68.4124 378.667 77.9944L374.482 55.4205C407.102 55.4637 439.075 56.8449 469.106 59.5641L465.05 81.6201C454.91 70.959 447.057 66.6427 435.105 65.9521V123.531C435.105 132.163 436.141 137.472 439.549 144.594C427.554 143.903 415.861 143.429 404.556 143.17ZM475.319 103.072C475.319 75.3615 497.023 59.3051 528.391 63.7509C559.458 68.1966 581.204 90.3389 581.204 117.445C581.204 144.551 559.285 160.003 527.183 155.298C495.901 150.723 475.319 129.962 475.319 103.072ZM554.625 112.913C554.625 90.8137 544.183 74.8004 528.391 72.7286C512.556 70.6568 502.114 83.9077 502.114 106.093C502.114 128.279 512.297 143.817 527.873 146.191C543.968 148.651 554.625 135.4 554.625 112.913ZM671.082 183.268L626.035 108.294V149.126C626.035 157.629 627.157 163.629 630.437 172.779C619.132 170.103 609.423 167.945 598.766 165.657C601.268 158.967 602.174 153.442 602.174 144.767V102.252C602.174 93.2739 600.794 87.188 596.781 78.3829C607.87 80.6705 620.297 83.5624 632.723 86.5406L668.105 154.78V117.574C668.105 108.985 666.983 103.331 663.617 94.5256C678.201 98.5829 687.349 101.173 695.072 103.503C692.613 109.762 691.75 114.423 691.75 121.761V189.44C686.227 187.8 678.158 185.469 671.039 183.354L671.082 183.268Z"></path>
<path fill="white" d="M291.25 334.034C295.564 328.466 299.836 322.121 302.209 317.589C304.194 313.834 304.669 311.676 304.237 309.777C303.59 307.014 300.828 305.115 297.506 305.201C283.008 329.07 272.178 340.853 246.548 362.996C243.442 365.715 242.579 369.513 243.959 374.909C263.333 364.679 293.148 349.745 310.364 340.853C315.542 338.177 318.303 335.976 320.029 332.955C321.798 329.804 322.489 325.66 322.705 316.898C313.643 322.38 301.95 328.768 291.293 334.034H291.25Z"></path>
<path fill="white" d="M424.405 578.246L602.994 526.02C610.502 523.819 615.464 521.617 620.297 518.38C636.477 507.546 652.313 484.196 663.402 454.802L421.212 535.775C421.47 530.897 422.765 528.739 426.303 527.185L614.515 443.666C621.721 440.472 626.855 437.408 631.386 433.566C646.531 420.574 659.82 394.634 667.112 363.859L420.262 484.152C419.874 479.275 420.823 477.117 424.275 475.002L621.807 355.917C628.711 351.73 633.63 347.802 637.685 343.27C650.846 328.423 662.496 298.727 667.026 268.254L321.41 491.015C303.202 502.755 295.349 515.963 295.349 535.084C295.349 542.594 296.47 550.45 299.405 562.751L309.544 605.439C297.506 591.886 288.359 580.448 280.678 569.441C265.274 547.428 258.198 530.897 258.198 515.1C258.198 494.77 269.676 477.592 293.278 462.096L418.105 380.217C438.902 366.578 450.811 357.082 458.966 347.371C469.796 334.422 475.19 319.79 475.19 303.561C475.19 260.614 437.522 228.631 387.729 228.631C362.573 228.631 341.949 236.789 324.042 254.788C314.593 264.283 305.79 276.628 298.844 289.706C301.562 291.907 306.092 293.245 310.882 293.245C316.06 293.245 319.253 291.821 323.826 287.634C333.017 279.002 347.083 259.104 371.678 254.442C365.335 260.528 361.106 266.398 358.129 272.182C355.109 278.095 353.642 283.49 352.52 286.685C351.398 290.051 350.233 291.864 347.126 293.806C344.494 295.446 340.525 297.648 335.217 300.54C334.527 308.093 333.707 318.927 332.887 330.538C352.088 322.035 365.809 316.294 376.726 310.294C391.914 301.921 399.551 294.367 407.188 280.037C419.572 281.462 428.59 290.483 428.59 303.345C428.59 309.992 426.174 316.078 421.902 321.387C416.552 327.948 408.181 333.386 399.336 338.738C359.337 363.125 256.472 411.467 211.469 435.897C177.9 454.111 159.26 469.305 146.876 487.217C133.673 506.295 127.114 529.387 127.114 554.421C127.114 581.484 135.183 610.014 152.615 644.63C193.433 725.344 274.551 817.107 374.957 896.138V824.143L392.043 835.624C402.313 842.53 410.727 845.638 419.097 845.681C431.567 845.767 444.943 838.904 463.367 823.02L375.949 771.83C379.315 768.852 381.688 768.334 385.183 769.672L443.26 791.987C450.595 794.835 456.55 796.087 462.634 796.087C478.857 796.087 496.764 785.944 517.173 765.096L389.368 727.632C392.259 723.963 394.373 723.013 398.473 723.661L499.957 739.717C506.688 740.796 511.391 740.969 515.706 740.364C531.498 738.077 549.102 725.171 569.555 700.957L400.846 682.138C402.917 678.124 405.117 676.743 409.173 676.743L541.681 676.57C550.44 676.57 556.395 675.966 561.4 674.585C577.494 670.182 594.106 654.687 612.099 627.365L409.518 635.048C411.244 630.43 412.884 628.962 416.94 628.401L579.694 604.835C588.454 603.54 593.157 602.374 597.817 600.302C614.515 592.922 631.515 573.11 646.056 544.062L418.019 586.145C418.838 581.527 420.521 579.541 424.405 578.376V578.246Z"></path>
</g>
<defs>
<clipPath id="clip0_38_254">
<rect fill="white" height="1010" width="750"></rect>
</clipPath>
</defs>
</svg>
