<svg xmlns="http://www.w3.org/2000/svg" viewBox="0 71 169.51 237.24" width="500" height="500">
<path fill="#a9f1fd" d="M169.51,122.45l-.81-1.8-49.89,9.89c-.61-.58-1.24-1.14-1.88-1.69l16.21-45.46-1.73-.94-32.36,36.9c-1.42-.4-2.88-.74-4.36-1.02l-8.94-46.87h-1.98l-8.95,46.87c-1.48.28-2.93.62-4.36,1.02l-32.36-36.9-1.73.94,16.21,45.46c-.64.54-1.26,1.1-1.88,1.69L.81,120.65l-.81,1.8,33.62,21.68H2.21l2.76,4.96c5.5,9.89,8.28,21.37,8.28,34.15v81c0,1.91.18,3.83.53,5.7,2.32,12.26,12.47,22.05,25.26,24.37,6.04,1.09,17.63,3.4,27.46,6.59,8.1,2.63,13.41,5.29,15.78,7.93l2.48,2.75,2.48-2.75c2.38-2.64,7.68-5.3,15.78-7.93,9.84-3.19,21.43-5.5,27.47-6.59,12.79-2.32,22.94-12.11,25.26-24.37.35-1.87.53-3.79.53-5.7v-81c0-12.77,2.79-24.26,8.28-34.15l2.76-4.96h-31.44l33.62-21.68Z"/>
<path d="M126.94,147.47c-.19-.39-.38-.78-.57-1.16l31.03-20.01-39.67,7.86c-1.51-1.54-3.09-2.94-4.74-4.2l12.89-36.13-25.74,29.36c-2.71-.9-5.48-1.54-8.29-1.94l-7.09-37.16-7.09,37.16c-2.8.4-5.58,1.04-8.29,1.94l-25.74-29.36,12.89,36.14c-1.65,1.26-3.23,2.66-4.74,4.19l-39.67-7.86,31.03,20.01c-.19.38-.38.77-.57,1.16H7.89c5.78,10.39,8.71,22.41,8.71,35.77v81c0,1.7.16,3.41.47,5.08,2.06,10.91,11.13,19.63,22.58,21.7,6.12,1.11,17.89,3.45,27.9,6.7,8.74,2.84,14.4,5.73,17.23,8.87,2.83-3.14,8.49-6.04,17.23-8.87,10.02-3.25,21.78-5.59,27.9-6.7,11.44-2.07,20.51-10.79,22.58-21.7.31-1.67.47-3.37.47-5.08v-81c0-13.36,2.93-25.38,8.7-35.77h-34.72Z"/>
<path fill="#a9f1fd" d="M80.82,128.11v10.2c1.6-.12,3.22-.19,4.85-.19,1.01,0,2.02.03,3.02.08v-10.11c-1.25-.1-2.51-.16-3.78-.16-1.38,0-2.74.07-4.09.18"/>
<path fill="#a9f1fd" d="M67.71,140.9c2.52-.8,5.16-1.44,7.87-1.9v-9.6c0-.15-.02-.29-.05-.43-2.72.6-5.35,1.44-7.82,2.51v9.41Z"/>
<path fill="#a9f1fd" d="M56.78,145.63c1.78-1.08,3.69-2.05,5.69-2.91v-8.7c-.76.47-1.51.95-2.23,1.47-2.24,1.62-4.14,3.41-5.64,5.31v6.28c.7-.49,1.42-.98,2.18-1.44"/>
<path fill="#a9f1fd" d="M112.72,145.63c-1.78-1.08-3.69-2.05-5.69-2.91v-8.7c.76.47,1.51.95,2.23,1.47,2.24,1.62,4.14,3.41,5.64,5.31v6.28c-.7-.49-1.42-.98-2.18-1.44"/>
<path fill="#a9f1fd" d="M101.8,140.9c-2.52-.8-5.16-1.44-7.87-1.9v-9.6c0-.15.02-.29.05-.43,2.73.6,5.35,1.44,7.82,2.51v9.41Z"/>
<polygon fill="#a9f1fd" points="82.15 169.38 70.78 169.38 70.78 231.33 47.59 169.38 39.4 169.38 39.4 268.57 50.77 268.57 50.77 207.02 73.96 268.57 82.15 268.57 82.15 169.38"/>
<path fill="#a9f1fd" d="M130.15,169.38h-11.37v87.67h-14.97v-15.77h-11.37v16.41c0,3.03,1.05,5.55,3.2,7.69,2.15,2.15,4.66,3.19,7.69,3.19h15.93c3.03,0,5.55-1.04,7.69-3.19,2.15-2.15,3.2-4.67,3.2-7.69v-88.31Z"/>
<path fill="#a9f1fd" d="M103.33,221.96h7.4v-11.53h-6.92v-41.06h-11.37v41.7c0,3.03,1.05,5.55,3.2,7.69,2.14,2.15,4.66,3.2,7.69,3.2"/>
</svg>
