<svg width="200" height="200" viewBox="0 0 200 200" fill="none" xmlns="http://www.w3.org/2000/svg">
<path d="M100.013 175C86.3106 175 73.077 170.052 62.7351 161.068C52.5234 152.187 45.8024 139.922 43.8226 126.589L29 25H171L156.203 126.536C154.224 139.896 147.503 152.161 137.291 161.042C126.949 170.026 113.715 174.974 100.013 174.974V175Z" fill="white"/>
<path d="M100.013 172.005C87.04 172.005 74.4838 167.318 64.7149 158.802C55.0242 150.391 48.6679 138.776 46.7923 126.146L32.4647 27.9948H167.535L153.234 126.12C151.358 138.776 145.002 150.391 135.311 158.802C125.516 167.318 112.986 172.005 100.013 172.005Z" fill="#9EA2A2"/>
<path d="M100.013 167.656C88.082 167.656 76.5678 163.359 67.5804 155.521C58.6712 147.786 52.836 137.109 51.1167 125.495L37.4924 32.3437H162.508L148.935 125.495C147.216 137.109 141.381 147.786 132.472 155.521C123.484 163.333 111.944 167.656 100.013 167.656Z" fill="#363B37"/>
<path d="M92.1198 127.682V127.474H88.3425V127.682C88.3425 132.943 85.6854 137.708 81.2308 140.469C78.8081 138.411 76.698 135.964 75.0308 133.177H70.7065C76.2552 144.036 87.6131 151.146 99.9349 151.146C112.257 151.146 123.615 144.036 129.137 133.177H124.813C123.172 135.937 121.088 138.385 118.665 140.417C114.236 137.63 111.605 132.891 111.605 127.656V127.422H107.828V127.656C107.828 133.698 110.642 139.245 115.461 142.786C111.423 145.365 106.76 146.953 101.863 147.292V122.604H98.0853V147.292C93.1879 146.979 88.4988 145.391 84.435 142.812C89.2543 139.271 92.0937 133.724 92.0937 127.63L92.1198 127.682Z" fill="#4891CE"/>
<path d="M100.013 158.281C83.5493 158.281 68.9351 148.177 62.9695 133.203H58.9318C65.1057 150.365 81.4652 162.057 100.013 162.057C118.561 162.057 134.92 150.365 141.068 133.203H137.03C131.065 148.177 116.451 158.281 100.013 158.281Z" fill="#E3173E"/>
<path d="M69.1695 91.9531L69.7166 90.5469L75.4476 75.599L73.6762 63.6719L78.6518 67.2917L80.0585 63.6458L56.3267 46.3542L63.5948 95.9635L58.4628 109.349L48.4856 41.9792H88.3686L89.8274 38.2031H44.1092L56.8217 124.167L69.1435 91.9792L69.1695 91.9531ZM61.3544 54.7135L69.3779 60.5469L71.5401 75.1823L66.3561 88.75L61.3544 54.7135Z" fill="#E3173E"/>
<path d="M110.147 38.2031L111.605 41.9792H151.514L141.537 109.323L136.483 96.0937L143.777 46.3281L119.968 63.6458L121.374 67.2917L126.376 63.6458L124.578 75.5469L129.997 89.7396L130.83 91.901L143.152 124.089L155.891 38.125H110.173L110.147 38.2031ZM128.434 75.1823L130.622 60.5729L138.698 54.6875L133.67 88.8802L128.434 75.1823Z" fill="#E3173E"/>
<path d="M74.4577 50.5208L87.066 59.6875L88.9156 61.0417L63.5426 127.552H81.856C81.856 127.526 85.3728 117.24 85.3728 117.24H114.575L118.118 127.448H136.431C136.431 127.422 110.85 61.1979 110.85 61.1979L112.882 59.7135L117.18 56.5885L125.516 50.5469H106.76L102.045 38.3333L99.987 32.0052L99.8046 32.5521C99.8046 32.526 92.9273 50.5469 92.9273 50.5469H74.4577V50.5208ZM99.8828 74.974L109.339 102.135H90.5568L99.8828 74.974Z" fill="white"/>
</svg>
