<svg width="200" height="200" viewBox="0 0 200 200" fill="none" xmlns="http://www.w3.org/2000/svg">
<path d="M100 175C141.421 175 175 141.421 175 100C175 58.5786 141.421 25 100 25C58.5786 25 25 58.5786 25 100C25 141.421 58.5786 175 100 175Z" fill="#061922"/>
<path d="M99.922 35.4167C61.9792 35.651 33.1511 67.6302 35.573 104.505C37.8386 139.01 66.9272 165.026 100.573 164.557C134.089 164.115 162.63 137.526 164.505 103.229C166.51 66.5885 137.734 35.1823 99.948 35.4167H99.922ZM90.4167 92.7865L83.7501 93.9323V68.151L90.4167 65.7813V92.7865Z" fill="#4D90CD"/>
<path d="M83.047 99.9479L76.3542 101.198L76.3282 157.37L83.047 159.687V99.9479Z" fill="#061922"/>
<path d="M83.047 99.9479L76.3542 101.198L76.3282 157.37L83.047 159.687V99.9479Z" fill="#061922"/>
<path d="M98.906 57.7604V162.005C99.2706 162.005 99.6352 162.031 99.9998 162.031C105.052 162.031 110 161.432 114.791 160.26V94.0625L107.422 92.8125V60.4948L104.088 59.4271V38.151C103.177 38.099 102.239 38.0469 101.302 38.0469V58.5677L98.88 57.7864L98.906 57.7604Z" fill="white"/>
<path d="M152.162 56.0156C150.833 54.4271 149.427 52.9167 147.943 51.4583C135.625 39.2969 118.698 31.7708 100 31.7708C81.3022 31.7708 64.3751 39.2969 52.0574 51.4583C50.573 52.9167 49.1668 54.4271 47.8386 56.0156C37.8126 67.8906 31.7449 83.2552 31.7449 100.026C31.7449 116.797 31.823 103.464 31.9272 105.156C32.1095 107.526 32.3959 109.87 32.8126 112.161C33.0209 113.359 33.2814 114.557 33.5678 115.755C36.0678 126.328 41.0418 135.964 47.8386 144.01C49.1668 145.599 50.573 147.109 52.0574 148.568C64.3751 160.729 81.3282 168.255 100 168.255C118.672 168.255 135.625 160.729 147.943 148.568C149.427 147.109 150.833 145.599 152.162 144.01C158.958 135.964 163.932 126.328 166.432 115.755C166.719 114.583 166.953 113.385 167.188 112.161C167.604 109.87 167.891 107.526 168.073 105.156C168.203 103.464 168.255 101.745 168.255 100.026C168.255 83.2552 162.214 67.8906 152.162 56.0156ZM37.9689 100.026C37.9689 85.4948 42.9428 71.7187 52.0574 60.651C58.8282 68.8542 63.3074 78.5677 65.1563 88.9323C55.5209 91.875 46.3803 96.0417 37.9689 101.198C37.9689 100.807 37.9689 100.417 37.9689 100.026ZM39.9741 115.729C39.323 113.255 38.8282 110.755 38.4897 108.203C44.0626 104.557 49.9741 101.406 56.172 98.776C59.4011 97.4219 62.6563 96.224 65.9636 95.1562C66.0938 96.7708 66.1459 98.3854 66.1459 100C66.1459 105.391 65.4688 110.651 64.1407 115.729C61.9011 124.349 57.8126 132.396 52.0574 139.375C46.3022 132.396 42.2136 124.375 39.9741 115.729ZM93.7241 59.401L90.3907 60.4687V92.7865L83.0209 94.0365V159.661C73.0209 156.823 63.8282 151.51 56.2501 143.984C63.047 135.937 68.0209 126.302 70.4949 115.729C71.6928 110.677 72.3178 105.417 72.3178 100C72.3178 94.5833 72.2136 95.5729 72.0053 93.4115C75.8595 92.4219 79.7657 91.6927 83.698 91.1198V84.8437C79.4272 85.4167 75.2345 86.1979 71.1199 87.2396C68.9064 75.4687 63.6459 64.7917 56.2241 55.9896C66.4324 45.8333 79.5574 39.6875 93.698 38.2812V59.401H93.7241ZM100 162.031C99.6355 162.031 99.2709 162.031 98.9063 162.005V57.7604L96.4845 58.5417V38.099C97.6303 38.0469 98.8022 37.9948 99.9741 37.9948C116.484 37.9948 132.005 44.401 143.698 56.0156C136.276 64.8177 131.042 75.4948 128.802 87.2656C121.875 85.5469 114.74 84.4271 107.396 83.9583V90.1823C114.375 90.625 121.224 91.7187 127.917 93.4375C127.708 95.599 127.604 97.8125 127.604 100.026C127.604 105.443 128.229 110.703 129.427 115.755C131.927 126.328 136.901 135.964 143.698 144.01C132.005 155.625 116.458 162.031 99.9741 162.031H100ZM160.026 115.729C157.787 124.349 153.698 132.396 147.943 139.375C142.188 132.396 138.099 124.349 135.859 115.729C134.531 110.651 133.854 105.391 133.854 100C133.854 94.6094 133.906 96.7708 134.037 95.1562C137.344 96.1979 140.599 97.3958 143.828 98.776C150.026 101.406 155.938 104.557 161.511 108.203C161.172 110.755 160.677 113.281 160.026 115.729ZM162.031 101.198C153.594 96.0156 144.479 91.875 134.844 88.9323C136.719 78.5417 141.198 68.8542 147.969 60.651C157.109 71.7187 162.057 85.4948 162.057 100.026C162.057 114.557 162.057 100.807 162.057 101.198H162.031Z" fill="#FFD520"/>
</svg>
