<svg width="200" height="200" viewBox="0 0 200 200" fill="none" xmlns="http://www.w3.org/2000/svg">
<path d="M169.064 70.3597L170.964 67.1483L167.501 68.6504C166.356 69.1424 164.976 69.5568 163.622 69.9194C170.6 64.9469 175 53.5 175 53.5L172.24 55.1834L171.381 55.6754C171.251 55.7531 158.05 63.5485 140.371 69.7122C136.022 71.2402 132.143 72.302 128.706 73.2602C117.979 76.2644 111.521 78.0514 111.99 87.815C112.172 91.4407 111.469 94.16 110.011 95.6621C109.543 96.1282 109.048 96.439 108.553 96.6462C108.371 96.4131 108.267 95.9728 108.267 94.9628C108.319 93.6938 109.985 89.5501 109.985 89.5501C111.834 84.9144 111.001 81.5994 111.001 81.5994C111.001 81.5994 110.298 80.5117 109.256 79.4758C112.198 75.5393 110.662 70.9812 110.584 70.774L110.272 69.8417L109.282 69.9453C106.366 70.282 103.84 71.1625 102.096 72.5092C101.653 72.043 101.315 71.784 101.237 71.7322L99.5704 70.5668L99.284 72.5351C98.3727 72.2502 97.3572 72.1725 97.3572 72.1725C95.769 71.1625 93.6079 70.2561 90.6917 69.9453L89.7023 69.8417L89.3899 70.774C89.3118 70.9812 87.8016 75.5652 90.7178 79.4758C89.6763 80.5117 88.9733 81.5994 88.9733 81.5994C88.9733 81.5994 88.114 84.9403 89.9887 89.5501C89.9887 89.5501 91.6551 93.6938 91.7072 94.9628C91.7072 95.9728 91.603 96.4131 91.4468 96.6462C90.9521 96.439 90.4574 96.1282 89.9887 95.6621C88.5306 94.16 87.8537 91.4666 88.0099 87.815C88.4786 78.0773 81.9953 76.2644 71.294 73.2602C67.8832 72.302 64.0036 71.2143 59.6294 69.7122C41.9762 63.5744 28.7493 55.7531 28.6192 55.6754L27.7599 55.1834L25 53.5C25 53.5 29.4003 64.9469 36.3782 69.9194C35.0243 69.5827 33.6443 69.1424 32.4987 68.6504L29.0358 67.1483L30.9365 70.3597C31.0927 70.6186 34.0349 75.5652 38.9819 78.9578C38.5393 78.9578 38.0706 78.9578 37.602 78.9578C35.9356 78.9578 34.5296 78.8801 33.4881 78.7247L29.921 78.2068L32.4206 80.7707C32.6549 81.0038 37.0812 85.51 41.846 87.815C40.5181 88.2034 38.9299 88.5919 37.3937 88.7473L34.79 89.0322L36.6646 90.8191C36.8469 91.0004 40.6744 94.6003 47.3919 97.4231C44.2154 98.226 42.2106 98.6662 42.2106 98.6662C43.6947 100.427 45.6735 102.888 48.3293 105.918H48.3032C64.3161 123.943 76.0849 131.168 88.2963 139.378C91.7332 141.683 99.9349 146.5 99.9349 146.5C99.9349 146.5 108.267 141.683 111.704 139.378C123.915 131.142 135.71 123.943 151.697 105.918H151.671C154.327 102.914 156.279 100.453 157.789 98.6662C157.789 98.6662 155.785 98.226 152.608 97.4231C159.326 94.5744 163.153 90.9745 163.335 90.8191L165.21 89.0322L162.606 88.7473C161.07 88.566 159.508 88.2034 158.154 87.815C162.919 85.5359 167.345 81.0297 167.579 80.7707L170.079 78.2068L166.512 78.7247C165.47 78.8801 164.09 78.9578 162.398 78.9578C160.706 78.9578 161.461 78.9578 161.018 78.9578C165.965 75.5652 168.907 70.6186 169.064 70.3597Z" fill="#00A8E1"/>
<path d="M167.97 69.764C164.194 71.3956 158.05 72.2761 158.05 72.2761C166.408 67.7698 170.86 59.3012 172.058 56.7373L172.032 56.7114C172.032 56.7114 158.805 64.5844 140.787 70.8517C122.769 77.1191 112.667 76.1349 113.24 87.7632C113.578 95.1441 110.61 97.3714 108.371 98.0188C107.512 97.5267 107.069 97.1901 107.069 94.9369C107.121 93.642 108.006 91.2853 108.787 89.317C108.787 89.2653 108.813 89.2135 108.839 89.1617C108.839 89.1617 108.839 89.1617 108.839 89.1358C110.584 84.8367 109.829 82.0656 109.829 82.0656C109.751 81.9102 109.647 81.7548 109.516 81.5994C108.605 80.3563 107.433 79.683 107.433 79.683C111.079 76.0572 109.386 71.1625 109.386 71.1625C105.689 71.5769 103.32 72.9754 101.861 74.2444C101.237 73.2343 100.508 72.7423 100.508 72.7423C100.508 72.7423 100.403 73.5969 99.9868 74.1149C99.5702 73.5969 99.466 72.7423 99.466 72.7423C99.466 72.7423 98.737 73.2602 98.1121 74.2444C96.654 72.9754 94.2846 71.5769 90.5874 71.1625C90.5874 71.1625 88.895 76.0572 92.5402 79.683C92.5402 79.683 91.3685 80.3563 90.4572 81.5994C90.327 81.7548 90.2229 81.9102 90.1447 82.0656C90.1447 82.0656 89.4157 84.8367 91.1341 89.1358C91.1341 89.1358 91.1341 89.1358 91.1341 89.1617C91.1341 89.2135 91.1602 89.2653 91.1862 89.317C91.9934 91.3112 92.8786 93.642 92.9047 94.9369C92.9047 97.4749 92.2277 97.5526 91.6028 98.0188C89.3636 97.3714 86.3954 95.1441 86.7339 87.7632C87.2807 76.1349 77.1782 77.1191 59.1866 70.8517C41.1689 64.5844 27.942 56.7114 27.942 56.7114C27.942 56.7114 27.942 56.7114 27.916 56.7373C29.1137 59.3012 33.566 67.744 41.9239 72.2761C41.9239 72.2761 35.7792 71.4215 32.0038 69.764C32.0038 69.764 36.4041 77.2744 43.382 79.9678C43.382 79.9678 37.029 80.5117 33.2796 79.9678C33.2796 79.9678 40.0753 86.9344 45.5952 87.8409C45.5952 87.8409 41.4292 89.5501 37.4976 89.9904C37.4976 89.9904 42.5488 94.8074 51.2452 97.6303C47.8344 98.6922 44.3714 99.4691 44.3714 99.4691C44.3714 99.4691 58.5877 117.08 76.8137 129.822C84.9373 135.493 91.1862 140.077 99.9607 145.179C108.709 140.077 114.984 135.493 123.108 129.822C141.334 117.08 155.55 99.4691 155.55 99.4691C155.55 99.4691 152.087 98.6922 148.676 97.6303C157.399 94.8074 162.424 89.9904 162.424 89.9904C158.518 89.5501 154.326 87.8409 154.326 87.8409C159.846 86.9344 166.642 79.9678 166.642 79.9678C162.893 80.5117 156.539 79.9678 156.539 79.9678C163.517 77.2744 167.918 69.764 167.918 69.764H167.97Z" fill="#002B5C"/>
<path d="M82.1515 130.055C84.2085 131.583 86.3175 133.033 88.3744 134.38C88.9212 133.266 89.6242 132.256 90.4834 131.376L82.1515 130.055Z" fill="#00A8E1"/>
<path d="M117.848 130.055L109.412 131.401C110.271 132.308 110.974 133.318 111.521 134.457C113.604 133.085 115.765 131.609 117.848 130.055Z" fill="#00A8E1"/>
<path d="M105.95 137.928C106.731 137.41 107.538 136.892 108.345 136.322C107.33 135.338 105.976 134.432 104.127 133.888C104.283 135.39 105.038 136.685 105.95 137.928Z" fill="white"/>
<path d="M100.716 141.191C101.939 140.466 103.319 139.637 104.778 138.679C103.684 137.203 102.773 135.545 102.695 133.551C102.07 133.447 101.419 133.37 100.716 133.344V141.191Z" fill="#C4D600"/>
<path d="M97.3309 133.577C97.2528 135.571 96.3154 137.228 95.2479 138.705C96.706 139.637 98.086 140.492 99.3097 141.217V133.396C98.6067 133.421 97.9297 133.499 97.3309 133.603V133.577Z" fill="white"/>
<path d="M91.681 136.322C92.4882 136.866 93.2953 137.41 94.0765 137.928C94.9878 136.685 95.7428 135.39 95.8991 133.888C94.0504 134.432 92.6704 135.338 91.681 136.322Z" fill="#C4D600"/>
<path d="M100.716 131.997C101.445 132.023 102.122 132.101 102.773 132.204C102.929 131.194 103.345 130.391 103.996 129.848C104.075 129.796 104.127 129.744 104.205 129.692C103.111 129.252 101.939 128.967 100.716 128.915V132.023V131.997Z" fill="white"/>
<path d="M95.8731 132.489C95.769 131.764 95.5086 131.22 95.092 130.858C94.8316 130.624 94.5192 130.495 94.2328 130.443C92.3841 131.557 90.874 133.188 89.9627 135.131C90.1449 135.26 90.3532 135.416 90.5355 135.545C91.7592 134.276 93.4777 133.137 95.8471 132.489H95.8731Z" fill="white"/>
<path d="M105.741 130.443C105.481 130.521 105.168 130.624 104.882 130.858C104.465 131.22 104.231 131.764 104.101 132.489C106.496 133.111 108.188 134.276 109.412 135.545C109.594 135.416 109.803 135.286 109.985 135.131C109.074 133.188 107.563 131.557 105.715 130.443H105.741Z" fill="#C4D600"/>
<path d="M96.0293 129.822C96.6803 130.391 97.0969 131.168 97.2531 132.178C97.904 132.075 98.581 131.997 99.31 131.971V128.863C98.0863 128.941 96.9146 129.226 95.821 129.64C95.8992 129.692 95.9512 129.744 96.0293 129.796V129.822Z" fill="#C4D600"/>
<path d="M84.3126 91.5702C83.8179 88.0739 84.7032 85.4582 83.6096 83.5677C81.6829 80.2268 79.0792 79.4499 71.1118 77.145C63.1705 74.84 53.6929 72.5092 38.9299 65.4649C38.9299 65.4649 46.0901 71.4474 55.9842 74.581C65.8783 77.7406 67.4405 78.2845 73.6374 79.9678C79.8342 81.6253 82.1515 83.6972 82.1255 86.5201C82.0995 88.7991 81.3444 96.6462 87.0726 100.246C85.7186 97.8893 84.6251 94.8333 84.3126 91.5443V91.5702Z" fill="#00A8E1"/>
<path d="M128.888 77.1449C120.947 79.4499 118.317 80.2268 116.39 83.5677C115.375 85.3546 116.078 87.7373 115.765 90.8968C115.557 94.4449 114.359 97.7598 112.927 100.272C118.629 96.6721 117.874 88.825 117.848 86.5459C117.822 83.6972 120.14 81.6512 126.336 79.9937C132.533 78.3363 134.095 77.7665 143.99 74.6069C153.884 71.4474 161.044 65.4908 161.044 65.4908C146.281 72.561 136.803 74.8659 128.862 77.1708L128.888 77.1449Z" fill="#00A8E1"/>
<path d="M77.517 92.9946C77.517 92.9687 77.5431 92.9428 77.5691 92.9428C77.5691 92.9428 77.5691 92.9428 77.5431 92.9946H77.517ZM89.3639 106.306C89.3639 106.306 89.1296 106.151 88.739 105.84C87.7236 105.089 85.6146 103.406 83.7659 101.152C82.3599 99.2619 80.0947 95.6103 80.0687 91.6479C80.0426 85.9244 80.9019 84.2151 73.0647 81.9879C65.2535 79.7606 52.7557 76.2644 45.283 74.2444C45.283 74.2444 49.1886 77.5593 57.6767 79.916C66.1648 82.2728 74.4186 85.0438 74.4186 85.0438C74.4186 85.0438 52.0527 83.3864 45.5174 82.2469C45.5174 82.2469 48.7981 84.7072 59.5254 86.1057C70.2266 87.4783 76.5797 87.7373 76.5797 87.7373C76.5797 87.7373 55.6458 90.5083 47.8086 90.4048C47.8086 90.4048 51.4018 92.1399 61.8166 91.622C71.7628 91.1299 76.3974 90.2753 76.788 90.1976C76.3454 90.5342 69.0029 95.9469 52.1308 99.8576C52.1308 99.8576 59.3691 100.168 65.6441 98.226C70.6172 96.698 76.5797 93.4866 77.4389 93.0205C77.1785 93.4607 73.3771 99.5727 58.7182 107.549C59.4733 107.342 71.8149 104.105 78.2461 96.18C77.3868 98.7957 74.9133 104.467 67.9354 112.858C67.9354 112.858 75.8767 107.653 79.4177 100.065C79.6781 102.706 80.1468 108.637 79.4438 112.755C79.4438 112.755 82.2558 108.352 81.8913 102.188C83.4014 103.613 85.5104 105.037 88.4787 106.047C88.7651 106.151 89.0515 106.254 89.3379 106.332L89.3639 106.306Z" fill="#C4D600"/>
<path d="M122.483 92.9946C122.483 92.9946 122.457 92.9687 122.457 92.9428C122.457 92.9428 122.483 92.9428 122.509 92.9428L122.483 92.9946ZM154.457 82.2469C147.921 83.3864 125.556 85.0438 125.556 85.0438C125.556 85.0438 133.809 82.2469 142.297 79.916C150.786 77.5593 154.691 74.2444 154.691 74.2444C147.245 76.2903 134.747 79.7606 126.909 81.9879C119.098 84.2151 119.932 85.9244 119.906 91.6479C119.906 95.5844 117.614 99.2619 116.234 101.152C114.281 103.535 112.042 105.27 111.105 105.969C110.845 106.151 110.688 106.254 110.636 106.306C110.845 106.254 111.053 106.177 111.235 106.099C114.334 105.089 116.521 103.665 118.057 102.188C117.692 108.352 120.478 112.755 120.478 112.755C119.801 108.637 120.27 102.68 120.53 100.065C124.071 107.627 132.013 112.858 132.013 112.858C125.035 104.467 122.561 98.7957 121.702 96.18C128.107 104.105 140.475 107.368 141.23 107.549C126.545 99.5727 122.77 93.4607 122.509 93.0205C123.368 93.4866 129.331 96.698 134.304 98.226C140.579 100.168 147.791 99.8576 147.791 99.8576C130.919 95.9728 123.577 90.5342 123.16 90.1976C123.551 90.2753 128.185 91.104 138.132 91.622C148.546 92.1399 152.139 90.4048 152.139 90.4048C144.302 90.4824 123.368 87.7373 123.368 87.7373C123.368 87.7373 129.695 87.5042 140.423 86.1057C151.15 84.7331 154.431 82.2469 154.431 82.2469H154.457Z" fill="#C4D600"/>
<path d="M111.834 120.369C110.871 119.022 109.907 119.022 109.413 115.681L105.924 119.385C106.444 113.92 105.767 107.731 105.247 104.079L104.335 106.695C104.335 106.695 103.19 107.938 99.9871 107.679H99.7788C96.5502 107.938 95.4306 106.695 95.4306 106.695L94.5193 104.079C94.0246 107.731 93.3476 113.92 93.8423 119.385L90.3533 115.681C89.8586 119.022 88.8953 119.048 87.9319 120.369C87.1508 121.457 86.4217 122.881 85.6406 125.393C86.2655 127.076 87.333 128.863 87.3851 128.915L91.6552 129.77C94.6495 127.827 97.4615 127.18 99.909 127.18C102.33 127.18 105.142 127.827 108.163 129.77L112.433 128.915C112.485 128.838 113.552 127.051 114.177 125.393C113.396 122.881 112.667 121.457 111.886 120.369H111.834Z" fill="white"/>
<path d="M118.057 127.776C117.952 126.481 116.911 123.813 115.036 121.016C115.349 122.57 114.255 125.264 114.229 125.186C113.891 121.69 113.292 120.006 112.667 118.919C112.433 118.504 112.094 118.012 111.886 117.831C111.027 116.95 110.193 114.775 110.193 114.775L109.412 115.707C109.907 119.048 110.87 119.074 111.834 120.395C112.615 121.482 113.344 122.907 114.125 125.419C113.5 127.102 112.433 128.889 112.38 128.941L113.813 128.656L118.057 127.776Z" fill="#C4D600"/>
<path d="M87.9315 120.369C88.8949 119.022 89.8582 119.022 90.3529 115.681L89.5718 114.749C89.5718 114.749 88.7647 116.924 87.8794 117.805C87.6711 117.986 87.3326 118.478 87.0983 118.893C86.4734 120.006 85.9006 121.69 85.5361 125.186C85.5361 125.264 84.4165 122.57 84.7289 121.016C82.8282 123.787 81.7867 126.481 81.7086 127.776L85.9527 128.656L87.3847 128.941C87.3326 128.863 86.2651 127.076 85.6402 125.419C86.4213 122.907 87.1504 121.482 87.9315 120.395V120.369Z" fill="#C4D600"/>
<path d="M94.5189 104.079L93.4253 100.971C92.0714 105.581 91.8631 108.43 91.8631 110.968C91.8631 115.034 92.9827 118.012 93.8159 119.359C93.2951 113.894 93.9721 107.705 94.4928 104.053L94.5189 104.079Z" fill="#C4D600"/>
<path d="M105.923 119.385C106.756 118.038 107.876 115.034 107.876 110.994C107.876 106.954 107.668 105.607 106.314 100.997L105.246 104.105C105.741 107.756 106.418 113.946 105.923 119.411V119.385Z" fill="#C4D600"/>
<path d="M95.6124 79.3981C94.9875 79.9937 94.2325 80.7966 93.946 81.4699C95.1958 79.8125 96.7581 79.165 96.7581 79.165C96.3935 76.7047 93.7898 74.5551 92.3838 73.5451C92.1495 76.8342 94.2845 78.6211 95.6124 79.3981Z" fill="#C4D600"/>
<path d="M95.8731 98.3555C95.8731 98.3555 96.3418 97.8375 96.7844 96.9311C98.2945 94.3931 97.4874 91.3889 97.1749 90.094C97.0187 89.3429 96.9406 88.9286 96.9406 88.9286C96.9406 88.9286 96.6021 88.4365 95.8731 88.048C95.144 87.6596 94.9097 87.5301 94.6233 86.9603C94.3369 86.3906 94.5192 85.7431 94.5192 85.7431C94.2588 85.9244 93.8422 86.52 93.8422 86.52C93.2694 85.7431 93.7641 85.251 93.7641 85.251C93.2694 84.2669 93.2694 83.7748 93.2694 83.7748C92.7747 83.3605 92.2279 82.8425 92.2279 82.8425C92.2279 82.8425 92.2279 82.9202 92.2279 83.1015C92.1498 84.0338 92.0977 87.4524 94.3109 88.7991C94.3109 88.7991 94.1546 90.2494 94.9097 92.4507C94.9357 92.5802 95.1961 93.2794 95.1961 93.2794C95.4044 92.7874 95.5867 91.6738 95.6127 91.3371C96.0033 92.2953 96.6802 94.6261 95.795 98.4073L95.8731 98.3555Z" fill="#C4D600"/>
<path d="M106.054 81.444C105.767 80.7707 105.012 79.9678 104.387 79.3722C105.715 78.5952 107.824 76.8083 107.616 73.5192C106.21 74.5033 103.606 76.6788 103.242 79.1391C103.242 79.1391 104.804 79.7865 106.054 81.444Z" fill="#C4D600"/>
<path d="M99.987 104.597C99.284 104.597 98.3987 104.442 97.8259 104.26L97.5135 104.157L97.7478 104.959H97.7738C97.7738 105.011 98.4508 105.581 99.987 105.581C101.523 105.581 102.174 105.011 102.2 104.985H102.226C102.226 104.959 102.461 104.157 102.461 104.157L102.174 104.26C101.575 104.442 100.716 104.597 100.013 104.597H99.987Z" fill="#C4D600"/>
<path d="M107.72 83.0497C107.72 82.8684 107.72 82.7907 107.72 82.7907C107.72 82.7907 107.199 83.3087 106.705 83.7231C106.705 83.7231 106.705 84.2151 106.21 85.1992C106.21 85.1992 106.705 85.6913 106.132 86.4682C106.132 86.4682 105.715 85.8726 105.455 85.6913C105.455 85.6913 105.637 86.3388 105.351 86.9085C105.064 87.4783 104.83 87.6078 104.101 87.9962C103.372 88.3847 103.033 88.8768 103.033 88.8768C103.033 88.8768 102.955 89.2911 102.799 90.0422C102.513 91.3371 101.679 94.3413 103.19 96.8793C103.632 97.7857 104.101 98.3296 104.101 98.3296C103.216 94.5225 103.893 92.1917 104.283 91.2335C104.283 91.5443 104.491 92.6838 104.7 93.1759C104.7 93.1759 104.96 92.4766 104.986 92.3471C105.741 90.1717 105.585 88.6955 105.585 88.6955C107.824 87.3488 107.746 83.9561 107.668 82.9979L107.72 83.0497Z" fill="#C4D600"/>
<path d="M103.476 100.583C103.476 100.583 103.476 100.583 103.476 100.609C103.033 101.23 102.513 101.204 102.513 101.204C102.513 101.204 102.903 100.738 102.252 100.298C102.252 100.298 101.705 100.842 100.898 101.152C100.898 101.152 100.352 101.36 100.013 101.36C99.6746 101.36 99.1278 101.152 99.1278 101.152C98.3206 100.842 97.7738 100.298 97.7738 100.298C97.1229 100.738 97.5135 101.204 97.5135 101.204C97.5135 101.204 97.0188 101.256 96.5501 100.609V100.583C95.8731 100.039 95.4045 99.1324 95.4045 99.1324C95.1181 99.5986 96.9146 102.784 96.9146 102.784C97.6957 103.302 98.9716 103.561 100.013 103.561C101.055 103.561 102.33 103.302 103.111 102.784C103.111 102.784 104.908 99.5986 104.622 99.1324C104.622 99.1324 104.153 100.039 103.476 100.583Z" fill="#C4D600"/>
<path d="M106.054 81.444C104.804 79.7865 103.242 79.1391 103.242 79.1391C103.606 76.6788 106.21 74.5292 107.616 73.5192C107.616 73.5192 104.518 74.2962 103.138 75.9536L102.721 76.4457C102.929 77.896 102.617 79.7606 101.133 82.0138C99.9871 83.749 100.82 85.0698 100.82 85.0698C100.82 85.0698 99.4924 84.9921 98.6332 83.2569C97.5136 81.0555 99.3622 79.2686 97.826 77.0931L97.3053 76.4457C96.4721 75.4875 95.5347 74.8141 94.7276 74.3997C93.5299 73.8041 92.4103 73.5451 92.4103 73.5451C93.8163 74.5292 96.42 76.7047 96.7585 79.1391C96.7585 79.1391 95.2223 79.7865 93.9985 81.3922C93.9985 81.3922 93.9725 81.4181 93.9465 81.444C93.9465 81.444 92.8008 82.0915 92.2801 82.7907C92.2801 82.7907 92.8008 83.3087 93.3216 83.7231C94.7797 84.9921 95.5608 85.1733 96.446 86.2093C97.7219 87.6855 96.9668 88.9027 96.9668 88.9027C96.9668 88.9027 97.0189 89.317 97.2011 90.0681C97.4875 91.363 98.3207 94.3672 96.8106 96.9052C96.3679 97.8116 95.8993 98.3296 95.8993 98.3296L95.4045 99.1065C95.4045 99.1065 95.8732 100.013 96.5502 100.557C96.0294 99.754 97.6698 98.8216 97.6698 98.8216C98.4509 99.3137 99.0236 100.868 99.1278 101.152C99.1278 101.152 99.7006 101.36 100.013 101.36C100.325 101.36 100.898 101.152 100.898 101.152C100.898 101.101 101.523 99.3655 102.356 98.8216C102.356 98.8216 103.997 99.754 103.476 100.557C104.153 100.013 104.622 99.1065 104.622 99.1065L104.127 98.3296C104.127 98.3296 103.658 97.7857 103.216 96.8793C101.706 94.3413 102.513 91.3371 102.825 90.0422C102.981 89.2911 103.059 88.8768 103.059 88.8768C103.059 88.8768 102.304 87.6855 103.58 86.1834C104.465 85.1733 105.247 84.9662 106.705 83.6972C107.199 83.2828 107.72 82.7648 107.72 82.7648C107.199 82.0915 106.054 81.4181 106.054 81.4181L106.054 81.444Z" fill="white"/>
</svg>
