<?xml version="1.0" encoding="UTF-8"?>
<svg id="Layer_1" xmlns="http://www.w3.org/2000/svg" version="1.1" viewBox="0 0 512 512">
  <!-- Generator: Adobe Illustrator 29.8.2, SVG Export Plug-In . SVG Version: 2.1.1 Build 3)  -->
  <defs>
    <style>
      .st0 {
        fill: #b896d4;
      }
    </style>
  </defs>
  <polygon points="32.2 16 256 76 479.8 16 256 496 32.2 16"/>
  <path class="st0" d="M256,91.7L59.6,39.1l196.4,421.1L452.4,39.1l-196.4,52.6ZM235.5,276.3l5.1-66.4h12.7l-.5,59.6h6.4l-.5-59.6h12.7l5.1,66.4h-41ZM258.3,149.9h8.6l3.9,50.6h-29.4l3.9-50.6h8.6l-.3,43.5h5.2l-.3-43.5ZM234.6,102.5l-88.4,94.2-20.1-43.1,108.5-51.1ZM121.9,144.6l-17.6-37.7,127.1-8-109.5,45.7ZM236.8,106.7l-61.6,152.2-24.4-52.4,86.1-99.8ZM240.8,108.6l-26.7,233.7-33.1-71,59.9-162.7ZM271.2,108.6l59.9,162.7-33.1,71-26.7-233.7ZM275.2,106.7l86.1,99.8-24.4,52.4-61.6-152.2ZM277.4,102.5l108.5,51.1-20.1,43.1-88.4-94.2ZM280.6,98.9l127.1,8-17.6,37.7-109.5-45.7ZM290.3,94.7l140.7-37.7-18.8,40.3-121.9-2.6ZM254.1,103.4l-.2,31.3h4.3l-.2-31.3,1.2-.3,4.1-1.1,3.1,40h-20.5l3.1-40,4.1,1.1,1.2.3ZM221.7,94.7l-121.9,2.6-18.8-40.3,140.7,37.7ZM228.2,372.5l6.5-85.5h18l-.9,113.5,4.2,9,4.2-9-.9-113.5h18l6.5,85.5-27.8,59.7-27.8-59.7Z"/>
</svg>