<svg width="200" height="200" viewBox="0 0 200 200" fill="none" xmlns="http://www.w3.org/2000/svg">
<path d="M90.6982 94.2975C95.9779 92.6967 90.7513 103.673 83.8943 103.039C84.7899 99.4119 87.2933 95.3326 90.6982 94.2975Z" fill="white"/>
<path d="M173.625 86.1887C172.639 83.7652 170.223 82.2297 167.619 82.3678C167.619 82.3678 167.177 82.391 166.833 82.4106C167.261 81.3183 167.475 80.2098 167.475 79.0916C167.475 76.7055 166.495 75.0225 165.91 74.2309C164.849 72.7922 163.349 71.7998 161.671 71.2882C150.625 46.1158 125.495 28.5 96.3422 28.5C57.0016 28.5 25 60.5707 25 100.003C25 108.453 26.4725 116.563 29.169 124.095C28.2262 126.048 27.6971 128.19 27.6686 130.366C27.6686 134.425 29.338 138.319 32.3769 141.275C34.9003 143.735 38.1367 145.315 41.6405 145.847C54.7342 161.523 74.3936 171.5 96.3422 171.5C132.109 171.5 161.813 144.986 166.907 110.532C172.932 105.641 174.633 99.7836 174.945 95.5101C174.984 94.9651 175 94.4371 175 93.9255C175 89.693 173.788 86.5805 173.625 86.1887Z" fill="#20305D"/>
<path d="M157.64 97.8822H162.113C162.139 98.5827 162.156 99.2916 162.156 100.003C162.156 136.37 132.629 165.96 96.3422 165.96C92.7349 165.96 89.1977 165.659 85.7487 165.102C84.0829 165.562 82.3279 165.814 80.5144 165.814C74.061 165.814 68.3386 162.688 64.7714 157.862C44.3816 146.64 30.5251 124.91 30.5251 100.003C30.5251 63.624 60.0516 34.0397 96.3422 34.0397C125.798 34.0397 150.799 53.5373 159.165 80.3398H154.467C154.467 80.3398 146.182 94.0785 157.64 97.8822Z" fill="#FAD412"/>
<path d="M154.938 95.6224V88.4665H157.847C152.429 59.3818 126.914 37.2916 96.3422 37.2916C61.8399 37.2916 33.7704 65.426 33.7704 100.003C33.7704 134.578 61.8399 162.712 96.3422 162.712C130.842 162.712 158.909 134.578 158.909 100.003C158.909 98.53 158.856 97.0691 158.758 95.6224H154.938Z" fill="#E2293A"/>
<path d="M96.3422 39.5062C63.0597 39.5062 35.9817 66.6444 35.9817 100.003C35.9817 133.356 63.0597 160.497 96.3422 160.497C129.622 160.497 156.7 133.356 156.7 100.003C156.7 66.6444 129.622 39.5062 96.3422 39.5062Z" fill="#20305D"/>
<path d="M96.3422 142.142C86.3188 142.142 77.1081 138.606 69.8743 132.716H66.4586C74.3396 139.956 84.8344 144.382 96.3422 144.382C116.016 144.382 132.731 131.444 138.484 113.622H136.129C130.467 130.192 114.773 142.142 96.3422 142.142Z" fill="#E2293A"/>
<path d="M56.3675 86.9425C61.8618 70.0769 77.7034 57.8617 96.3422 57.8617C118.203 57.8617 136.216 74.674 138.199 96.0791H140.442C138.455 73.4418 119.434 55.628 96.3422 55.628C76.4592 55.628 59.5951 68.8295 54.0196 86.9425H56.3675Z" fill="#E2293A"/>
<path d="M56.3323 73.885L55.0954 75.889L47.4043 71.1191L48.6418 69.1146L56.3323 73.885Z" fill="#FAD412"/>
<path d="M55.3472 60.3875L57.1071 58.8305L63.9967 60.1124L64.0162 60.0967L60.3501 55.9503L62.1099 54.3876L68.1058 61.1715L66.3464 62.7321L59.4456 61.437L59.4279 61.4589L63.1037 65.6183L61.342 67.1755L55.3472 60.3875Z" fill="#FAD412"/>
<path d="M75.1008 56.9998L78.1941 55.7574C80.5198 54.8186 81.7185 52.198 80.7704 49.8356C79.8245 47.4657 77.1615 46.4042 74.8219 47.3438L71.7305 48.5935L75.1008 56.9998ZM74.6529 49.5645L75.167 49.3556C76.5641 48.7906 77.8938 49.2413 78.5019 50.7455C79.1581 52.3912 78.331 53.5529 77.0279 54.0726L76.5407 54.2673L74.6529 49.5645Z" fill="#FAD412"/>
<path d="M92.4938 52.2889L90.1521 52.5368L89.2094 43.5166L91.5456 43.2762L92.4938 52.2889Z" fill="#FAD412"/>
<path d="M106.541 51.6296L106.848 53.287L109.319 53.7223L107.543 44.2033L105.015 43.7552L100.01 52.0665L102.468 52.5073L103.355 51.0642L106.541 51.6296ZM106.233 49.7435L104.306 49.4013L105.767 46.7312L105.791 46.7354L106.233 49.7435Z" fill="#FAD412"/>
<path d="M120.816 48.4445L122.852 49.6292L123.806 56.5846L123.826 56.6L126.595 51.7987L128.63 52.9795L124.097 60.8288L122.062 59.6475L121.119 52.6767L121.091 52.6647L118.319 57.4699L116.283 56.2891L120.816 48.4445Z" fill="#FAD412"/>
<path d="M135.025 69.4494L134.205 70.916L135.821 72.8316L140.531 64.3741L138.875 62.4095L129.726 65.5948L131.333 67.5044L132.936 66.967L135.025 69.4494ZM135.99 67.7962L134.73 66.2993L137.555 65.1832L137.571 65.2012L135.99 67.7962Z" fill="#FAD412"/>
<path d="M60.8001 101.274C59.9896 101.53 59.0842 101.815 58.8198 101.896C59.5623 100.385 59.911 98.715 59.8238 97.018C59.7118 94.8939 58.9261 92.8857 57.5521 91.2009C56.9863 90.5142 56.0761 90.2122 55.2133 90.4432C54.3514 90.6697 53.6993 91.3742 53.5433 92.2519C53.4558 92.7677 53.1245 93.2621 52.6417 93.6162C52.1435 93.9785 51.5602 94.138 51.0379 94.055C50.8142 94.0221 50.4976 93.8976 50.338 93.5943C50.1121 93.1717 50.272 92.1358 51.1537 91.3209C51.1823 91.2935 51.2225 91.2593 51.2514 91.2241C51.2975 91.1808 55.5602 87.1082 68.3894 86.3344C65.5235 89.1728 62.7308 93.7895 60.8001 101.274ZM170.05 87.6556C169.687 86.7535 168.791 86.1887 167.823 86.242H166.248C166.248 86.242 165.136 86.427 164.767 87.1234C163.875 88.7931 159.781 93.8133 158.077 92.9233C156.178 91.9369 161.824 83.344 161.824 83.344C163.187 81.6706 163.611 80.2231 163.611 79.0916C163.611 77.7944 163.077 76.9044 162.802 76.5322C161.557 74.8434 159.125 74.2786 157.02 75.1822C156.379 75.4573 155.33 75.367 154.502 75.1976C154.258 73.3886 153.465 71.0421 151.511 70.0007C150.73 69.5852 149.175 69.0574 147.061 70.2758C145.584 71.1345 144.834 72.4304 144.638 74.0012C144.617 74.2233 144.603 74.448 144.603 74.6704C144.603 76.3398 145.329 78.07 146.584 79.3336C146.659 79.4106 146.746 79.4735 146.82 79.5439C146.185 81.1035 145.388 82.6413 144.617 83.9955C144.654 83.6567 144.687 83.3187 144.687 82.9754C144.687 81.4953 144.249 80.0052 142.921 78.9024C140.605 76.9634 137.587 77.2961 136.159 77.8041C132.509 79.0204 125.114 83.0921 122.314 90.7814C122.887 88.5746 122.665 87.0506 122.188 86.0488C121.61 84.838 120.697 84.3891 120.697 84.3891C119.532 83.6394 118.063 83.529 116.348 84.0879C112.273 85.4224 110.732 90.4032 110.732 90.4032C108.772 95.4822 111.188 98.7443 111.188 98.7443C111.098 98.9768 109.285 101.619 109.285 101.619L108.234 91.5553C108.069 89.9582 107.272 89.1201 106.636 88.7046C105.614 88.0314 104.412 88.0607 103.626 88.3128C103.624 88.3128 97.8123 90.1709 97.8123 90.1709C96.8685 90.474 96.2276 91.3564 96.2276 92.3483V94.6514C96.0479 94.4371 95.8466 94.2364 95.6154 94.0414C93.3029 92.1105 90.2909 92.4388 88.8581 92.9428C86.1024 93.8561 83.2982 95.4725 80.9745 97.4452C80.8779 97.0417 80.6779 96.6638 80.3735 96.3587C79.7659 95.7521 78.8701 95.5357 78.056 95.8074C78.056 95.8074 74.4933 96.9788 71.3886 98.0025C72.6563 93.6301 74.6089 89.6768 78.4183 87.476C79.1245 87.0688 79.5597 86.3106 79.5597 85.4957C79.5597 85.4584 79.5547 85.3381 79.5547 85.3381C85.5472 83.8086 89.2045 80.5444 91.3503 77.6944C94.5097 73.4891 95.1373 69.2722 95.1636 69.0913C95.2581 68.4135 95.0477 67.7328 94.5888 67.2288C94.1279 66.7248 93.4677 66.4549 92.787 66.4883L91.6815 66.5415C90.9487 66.5872 90.2779 66.9727 89.8826 67.5952C86.5516 72.8277 78.8201 74.2823 69.8675 75.971C63.9943 77.0837 57.9144 78.2295 52.1902 80.5919C36.3509 87.1372 37.0503 97.1908 37.1849 98.3371C37.562 104.071 42.8516 108.461 49.0502 108.134C50.1775 108.075 51.28 107.855 52.3258 107.496C52.1701 108.004 52.0584 108.598 52.0584 109.276C52.0584 110.347 52.3373 111.603 53.1488 113.008C53.6883 113.93 54.7878 114.355 55.806 114.036L58.0477 113.335C54.987 125.151 52.517 127.56 52.4003 127.667C51.3584 128.663 49.36 129.194 48.4465 128.671C48.0623 128.458 47.8257 128.155 47.7618 127.801C47.6852 127.383 47.8434 126.914 48.2028 126.474C48.6732 125.911 49.4006 125.513 50.2042 125.383C51.1409 125.233 51.8876 124.517 52.0761 123.587C52.2665 122.658 51.8649 121.709 51.0685 121.198C49.0457 119.91 46.6917 119.194 44.2501 119.126C40.748 119.02 37.3539 120.28 34.9506 122.595C32.7869 124.666 31.5721 127.482 31.5317 130.39C31.5317 136.602 36.9188 141.872 43.6584 142.169C43.852 142.195 47.4355 142.601 51.756 140.86C55.687 139.271 61.0688 135.533 64.3844 126.737C67.0175 120.827 68.1339 114.489 69.2112 108.347C69.2112 108.347 69.3037 107.835 69.3891 107.339C70.5105 106.988 73.1279 106.153 75.1883 105.5C74.4711 107.445 74.1021 109.492 74.1021 111.619C74.1021 112.178 74.1287 112.768 74.18 113.335C74.2368 113.862 74.8237 118.536 78.5284 120.658C79.03 120.95 79.5597 121.162 80.1058 121.328C64.0037 128.08 60.5764 136.09 60.3719 136.598C60.2646 136.872 60.2115 137.163 60.2115 137.445C60.2115 138.045 60.4443 138.63 60.8834 139.069L63.3584 141.528C63.406 141.577 63.4652 141.634 63.5313 141.703C63.154 143.134 62.9516 144.634 62.9516 146.185C62.9516 155.906 70.8162 163.787 80.5144 163.787C90.2141 163.787 98.0756 155.906 98.0756 146.185C98.0756 143.622 97.5232 141.193 96.5396 138.992C96.9185 138.86 97.263 138.63 97.5284 138.319L98.2573 137.465C98.8206 136.791 98.9045 135.775 98.5578 134.966C98.5472 134.948 98.3102 134.312 98.9219 133.22C100.206 130.923 106.121 125.052 133.155 120.336C144.921 118.091 155.066 114.177 162.457 109C169.072 104.701 170.804 99.1342 171.091 95.2269C171.402 91.0114 170.109 87.7892 170.05 87.6556Z" fill="white"/>
<path d="M92.0545 117.308C94.161 115.524 96.7854 112.788 99.5714 108.67C99.7011 109.898 100.05 114.351 100.14 115.414C95.9886 116.296 92.0545 117.308 92.0545 117.308Z" fill="#20305D"/>
<path d="M151.392 100.223C149.301 99.1757 147.873 97.4909 147.258 95.3564C147.093 94.7717 146.995 94.1479 146.944 93.5338C143.797 98.3468 140.399 101.469 138.953 102.685C137.818 103.677 135.76 105.067 133.464 105.968C129.726 107.299 127.153 106.484 125.684 105.555C123.775 104.354 122.734 102.468 122.158 100.892C120.522 101.55 119.135 101.942 117.884 102.114C114.806 107.768 111.139 111.587 107.665 114.142C111.204 113.626 115.003 113.177 119.084 112.827C139.712 111.047 151.285 105.484 157.35 101.134C157.358 101.134 157.523 101.012 157.758 100.823C154.204 101.546 151.829 100.453 151.392 100.223Z" fill="#20305D"/>
<path d="M48.9311 105.85C53.9274 105.591 57.7852 101.69 57.5454 97.142C57.4579 95.4488 56.8178 93.9096 55.7881 92.6516C55.604 93.7029 54.9831 94.7287 53.9847 95.4595C52.1133 96.8293 49.6337 96.6145 48.451 94.9905C47.3611 93.4904 48.0802 91.0471 49.6141 89.6393C49.7669 89.4785 55.1738 84.0111 72.306 83.925C90.769 83.8422 92.9078 68.7679 92.9078 68.7679L91.8024 68.8295C85.569 78.6134 67.5329 76.7211 53.0607 82.7061C38.0601 88.8972 39.4504 98.0912 39.4504 98.0912C39.6901 102.637 43.9336 106.114 48.9311 105.85Z" fill="#E2293A"/>
<path d="M77.3253 102.429L78.767 97.9787L68.1847 101.457C69.661 94.5433 71.8316 88.6474 77.279 85.4957L77.2162 84.3068C73.5737 84.7038 66.3464 87.5272 62.7037 103.067L59.431 104.106C59.431 104.106 51.9464 106.398 55.1198 111.854L56.1438 111.532C55.979 111.087 55.5074 109.335 57.9894 108.556L61.7941 107.351C57.6092 126.875 53.9016 129.383 53.9016 129.383C52.2295 130.974 49.2388 131.749 47.3238 130.661C45.2389 129.481 44.8461 126.95 46.4495 125.012C47.3031 123.981 48.5496 123.336 49.8468 123.123C48.2313 122.103 46.2837 121.465 44.1832 121.411C38.5255 121.241 33.8805 125.241 33.8126 130.352C33.7417 135.456 38.2749 139.738 43.9336 139.907C43.9336 139.907 56.4092 141.469 62.267 125.906C65.1506 119.473 66.1863 112.24 67.3868 105.583L77.3253 102.429Z" fill="#E2293A"/>
<path d="M115.228 95.7719C115.038 95.4945 114.886 95.1439 114.836 94.6952C114.724 93.7895 114.867 92.8739 115.263 91.9667C115.58 91.2241 116.004 90.7167 116.534 90.4369C116.534 90.4369 116.814 90.2738 117.038 90.3542C117.269 90.4369 117.265 90.7321 117.265 90.7321C117.232 91.7438 116.213 93.6596 115.228 95.7719ZM90.444 97.9059C95.873 96.2603 90.4951 107.547 83.4446 106.897C84.362 103.165 86.9381 98.9711 90.444 97.9059ZM137.749 82.769C143.18 81.1173 137.802 92.4093 130.751 91.7581C131.671 88.0239 134.247 83.8341 137.749 82.769ZM167.941 88.5198L166.562 88.5313C164.586 92.0233 159.872 96.7562 156.619 94.8153C152.683 92.4701 159.964 82.029 159.964 82.029C163.109 78.2982 160.182 76.3098 157.917 77.2823C155.661 78.2551 152.386 76.9634 152.386 76.9634C152.386 76.9634 152.251 70.1463 148.236 72.231C146.093 73.3494 146.72 76.2372 148.195 77.7177C148.663 78.1823 149.152 78.432 149.607 78.5678C148.182 82.9955 145.129 87.6078 144.076 89.1316C144.076 89.1316 137.171 98.4196 132.659 98.1106C130.901 97.9884 130.233 96.1634 130.413 93.7995C133.464 94.1278 136.616 92.8249 139.15 90.0686C139.965 89.1788 140.725 88.0805 141.252 87.0192C141.472 86.6964 143.613 82.4487 141.466 80.6587C139.517 79.029 136.909 79.9636 136.909 79.9636C133.026 81.2455 126.999 85.1235 124.608 91.1239C124.12 92.4216 123.889 93.8253 123.782 95.0139C122.455 95.721 119.398 97.3176 117.442 97.2597C119.177 94.0902 120.567 89.663 120.341 87.7811C120.149 86.2216 118.836 85.7043 117.222 86.2216C115.502 86.7731 114.17 88.1277 113.231 90.2813C112.454 92.0865 112.072 93.8329 112.339 95.5258C112.454 96.2326 112.866 97.5538 113.942 98.5177C112.172 101.815 109.899 104.74 107.576 107.248L105.97 91.791C105.785 90.0258 104.317 90.4899 104.317 90.4899L98.5078 92.3483V93.7896L99.0253 93.6241C99.0253 93.6241 100.259 93.2323 100.394 94.5397L100.702 97.4768C99.5797 99.5714 91.4974 114.28 85.3498 113.248C83.6136 112.957 82.9253 111.304 83.1097 108.937C86.1591 109.272 89.3115 107.964 91.8394 105.209C92.6584 104.314 93.4175 103.224 93.9456 102.157C94.1698 101.835 96.3071 97.5909 94.1591 95.7972C92.2105 94.1717 89.6042 95.1006 89.6042 95.1006C84.3636 96.8329 75.5133 102.692 76.4485 113.119C76.4485 113.119 77.4227 122.402 86.4401 118.292C86.4401 118.292 93.5865 115.741 101.136 101.65L102.503 114.8C106.981 112.504 112.327 108.09 116.462 99.9431C117.921 99.9431 119.964 99.5143 123.74 97.6953C123.747 97.8451 123.755 97.9255 123.755 97.9255C123.755 97.9255 124.676 106.677 132.665 103.827C134.629 103.055 136.451 101.845 137.461 100.965C139.841 98.9531 143.302 95.3326 146.123 90.4998C146.123 90.4998 148.659 86.2125 150.861 81.3321C151.355 81.4877 152.186 81.7142 153.121 81.7946C150.432 86.2339 146.164 95.057 152.424 98.1873C152.424 98.1873 157.013 100.76 163.643 95.3368C163.201 99.9136 158.654 103.011 158.654 103.011C151.108 108.413 138.557 113.438 119.279 115.099C69.679 119.379 62.4894 137.445 62.4894 137.445L64.3519 139.291C67.0261 132.998 73.2555 128.584 80.5144 128.584C86.4274 128.584 91.6508 131.517 94.8302 136.001C95.1591 136.271 95.4818 136.549 95.7912 136.84L96.5175 135.982C96.5175 135.982 90.5216 125.458 132.745 118.087C145.378 115.681 154.71 111.642 161.172 107.114C172.535 99.7599 167.941 88.5198 167.941 88.5198Z" fill="#E2293A"/>
<path d="M64.8961 146.182C64.8961 137.541 71.8889 130.535 80.5162 130.535C89.1407 130.535 96.1331 137.541 96.1289 146.182C96.1331 154.834 89.1407 161.836 80.5162 161.836C71.8889 161.836 64.8961 154.834 64.8961 146.182Z" fill="#20305D"/>
<path d="M77.9774 157.261C77.5316 156.277 77.4636 155.286 77.7748 154.314C76.3602 153.792 75.0349 153.182 73.887 152.495C73.4529 154.56 73.35 156.491 73.4529 158.253C73.5237 158.293 73.5899 158.33 73.6586 158.369C75.8316 159.602 78.1941 160.179 80.5198 160.172C79.4938 159.412 78.5039 158.413 77.9774 157.261Z" fill="white"/>
<path d="M91.6378 137.74C92.2784 139.549 92.6623 141.577 92.3154 143.496C91.9563 145.475 90.8503 147.072 89.0266 148.229C87.6813 149.093 86.0404 149.697 84.4503 150.284C81.8714 151.237 79.43 152.137 78.5237 153.975C82.774 155.455 87.6735 156.099 90.6787 155.373C90.8612 155.334 91.0232 155.286 91.1529 155.243C91.7167 154.572 92.2256 153.849 92.669 153.059C95.486 148.054 94.8917 142.049 91.6378 137.74Z" fill="white"/>
<path d="M68.848 151.164C69.5185 151.04 70.079 150.617 70.5214 149.922C68.4748 147.831 67.8097 145.616 66.9941 142.707C66.274 145.512 66.4586 148.432 67.4368 151.068C67.9149 151.198 68.3933 151.247 68.848 151.164Z" fill="white"/>
<path d="M71.8579 142.616C72.0821 145.272 72.292 147.782 71.2323 149.829C71.8534 150.414 72.5995 150.994 73.5099 151.591C74.4381 147.817 77.2576 139.553 85.0797 132.97C80.9482 131.531 76.4454 132.151 72.8961 134.464C72.2943 135.393 71.8334 136.525 71.7214 137.868C71.5899 139.433 71.7263 141.053 71.8579 142.616Z" fill="white"/>
<path d="M73.3745 152.18C72.404 151.556 71.604 150.951 70.9409 150.334C70.4167 151.111 69.7516 151.576 68.9534 151.729C68.5446 151.802 68.1196 151.794 67.6961 151.721C68.7469 154.164 70.4998 156.332 72.8644 157.885C72.7899 156.133 72.9248 154.213 73.3745 152.18Z" fill="#E2293A"/>
<path d="M78.3131 154.503C78.0542 155.334 78.1157 156.18 78.4969 157.023C79.092 158.323 80.3469 159.408 81.4925 160.139C84.8344 159.897 88.0435 158.462 90.4547 156.007C87.3394 156.623 82.5107 155.964 78.3131 154.503Z" fill="#E2293A"/>
<path d="M74.0217 151.91C75.1823 152.617 76.5355 153.249 77.9816 153.782C78.9644 151.697 81.5362 150.749 84.2545 149.747C85.8144 149.171 87.4253 148.575 88.7193 147.748C90.4026 146.673 91.4211 145.209 91.7519 143.395C92.1818 141.043 91.3966 138.445 90.4547 136.37C89.5641 135.456 88.5308 134.663 87.3732 134.006C86.8222 133.694 86.2641 133.429 85.6967 133.196C77.679 139.825 74.8946 148.252 74.0217 151.91Z" fill="#E2293A"/>
<path d="M70.8073 149.404C71.6985 147.532 71.5008 145.165 71.2873 142.665C71.1558 141.077 71.0154 139.433 71.154 137.827C71.2323 136.864 71.4777 136.001 71.8227 135.244C70.4537 136.332 69.2693 137.699 68.3607 139.315C67.9329 140.077 67.5839 140.854 67.3092 141.654L67.467 142.272C68.3011 145.258 68.9001 147.4 70.8073 149.404Z" fill="#E2293A"/>
</svg>
