<?xml version="1.0" encoding="utf-8"?>
<!-- Generator: Adobe Illustrator 26.1.0, SVG Export Plug-In . SVG Version: 6.00 Build 0)  -->
<svg version="1.1" id="Layer_2_1_" xmlns="http://www.w3.org/2000/svg" xmlns:xlink="http://www.w3.org/1999/xlink" x="0px" y="0px"
	 viewBox="0 0 400 400" style="enable-background:new 0 0 400 400;" xml:space="preserve">
<style type="text/css">
	.st0{fill:#FDB927;}
	.st1{fill:#552583;}
	.st2{fill:#FFFFFF;}
</style>
<g>
	<path class="st0" d="M201.3,53.8c-81-0.4-147,64.9-147.5,145.9c-0.4,81,64.9,147,145.9,147.5c81,0.4,147-64.9,147.5-145.9
		C347.6,120.2,282.3,54.2,201.3,53.8"/>
	<path class="st1" d="M172.1,293c0,3.7-0.3,8.8-2.9,10.6c-1.3,0.9-3,0.9-5.2,0c-3.5-1.4-5-3.2-5-6.5v-46c0-2.5,0.7-3.8,2.6-4.6
		c1.3-0.6,1.6-0.7,1.6-0.7l0.6-0.2v-4.7l-20.7,9.3l0,4.9l1.1-0.7c0,0,0.4-0.2,1.7-0.8c0.7-0.3,1.3-0.4,1.5-0.3
		c0.2,0.1,0.5,0.5,0.5,2.1v39.2c0,1.5-0.3,2-0.5,2.2c-0.3,0.2-0.8,0.1-1.5-0.2c-1.2-0.5-1.6-0.7-1.6-0.7l-1.1-0.6v5.1l34.9,13.3
		v-19.6l-5.9-2.2V293z M260.8,293.7c-0.1,0.1-0.3,0-0.4,0c-1.3-0.7-2.5-5.1-3.2-8.1L244.5,239l-1.6,0.6c-1.7,0.6-3.2,2.6-3.7,5.1
		l-11.3,50.5c-1.5,6.5-2.5,11.3-5.4,12.3l-0.5,0.2v5l14.2-5.1v-5l-1,0.4c-1.5,0.5-2.6,0.6-3.1,0.2c-0.5-0.4-0.5-1.4-0.4-1.9
		c0.1-0.9,0.8-4.3,1.3-6.7l0.7-3l13.1-4.7l1.3,4.7c0.3,1.1,1.1,3.5,1.3,4.1c0.4,1.3-1.4,2.6-3.1,3.3l-0.5,0.2v5l16.2-5.8v-5
		L260.8,293.7z M235.2,284.1l5.1-22.7l4.8,19.1L235.2,284.1z"/>
	<g>
		<path class="st1" d="M201.2,61.8c-76.6-0.4-139,61.4-139.4,137.9c-0.4,76.6,61.4,139,137.9,139.4c76.6,0.4,139-61.4,139.4-137.9
			C339.6,124.6,277.8,62.2,201.2,61.8z M323.8,191c-26.5-25-61.6-24.7-76.6-23.1l13.6-5l-4.6-10.4l13.4,7.1l8.4-3.1l-4.8-10.7
			l13.9,7.4l23.7-8.8C317.9,158.6,322.5,174.3,323.8,191z M306.1,136.1c-30.1-11.3-58.9-1.8-73.9,5.2l5.8-7.1l-9.3-6.6l15.2-0.7
			l5.7-7l-9.6-6.8l15.7-0.7L268.2,97C283.6,107.1,296.5,120.5,306.1,136.1z M215.5,157.4c1.2-2.9,3.3-4.7,5.3-5.9
			c6.2,5.1,10.5,12.5,11.4,20.9C228.4,165.8,222.6,160.5,215.5,157.4z M231.4,184c-0.8,3.2-2.2,6.2-3.9,8.9c-0.5-6.2-4-12-7.1-17.1
			c-3-4.8-5.8-9.4-5.8-13.5v0C223.2,166.3,229.3,174.1,231.4,184z M133.2,96.7l12.8,15.7l15.7,0.7l-9.6,6.8l5.7,7l15.2,0.7l-9.3,6.6
			l5.8,7.1c-15.2-7.1-44.4-16.7-74.8-4.9C104.4,120.5,117.6,106.9,133.2,96.7z M185.4,148.6c3.9-2.2,8.3-3.6,13.1-4v10
			c-2.6,0.2-5.1,0.6-7.5,1.2C189.8,152.6,187.7,150.3,185.4,148.6z M187.2,162.4L187.2,162.4c0,4.1-2.8,8.7-5.8,13.5
			c-3.1,5.1-6.6,10.9-7.1,17.1c-1.7-2.7-3.1-5.7-3.9-8.9C172.6,174.1,178.6,166.3,187.2,162.4z M186.3,157.4
			c-7.1,3-12.9,8.3-16.7,15.1c0.9-8.4,5.2-15.8,11.4-20.9C183,152.7,185.2,154.5,186.3,157.4z M90.4,144.2l24.3,9l13.9-7.4
			l-4.8,10.7l8.4,3.1l13.4-7.1l-4.6,10.4l13.6,5c-15.2-1.6-50.7-1.9-77.4,23.9C78.4,174.7,83,158.6,90.4,144.2z M76.8,199.9
			c0-0.1,0-0.2,0-0.3l26.1-0.7l10.1-12l-0.5,11.7l9-0.2l9.8-11.6l-0.5,11.3l18.8-0.5c-19.3,7.5-49.2,24.1-60.5,56.8
			C81.2,237.9,76.7,219.4,76.8,199.9z M189.9,323.7c-43.4-3.7-80.4-29.8-99.4-66.6l27.5-12.3l4.8-14.9l4.1,11l8.2-3.7l4.6-14.5
			l3.9,10.6l37.9-16.9l8.4,12.5V323.7z M198.5,207.4c-6.7-0.5-12.9-3.1-17.8-7.2c-3.8-7.3,0.3-14.1,5-21.8
			c3.3-5.4,6.5-10.6,6.5-16.1c0-0.6,0-1.2-0.1-1.8c2.1-0.6,4.2-0.9,6.4-1.1V207.4z M145.5,89.7c16.7-8.3,35.6-13,55.6-12.9
			c19.6,0.1,38.1,4.8,54.6,13c-29,8.1-46.9,30.5-54.9,42.7C192.9,120.2,174.8,97.7,145.5,89.7z M203.4,144.6c4.7,0.4,9.2,1.8,13.1,4
			c-2.3,1.7-4.4,4-5.6,7.3c-2.4-0.7-4.9-1.1-7.5-1.2V144.6z M203.4,159.5c2.2,0.2,4.4,0.5,6.4,1.1c0,0.6-0.1,1.2-0.1,1.8
			c0,5.5,3.1,10.6,6.5,16.1c4.7,7.7,8.8,14.4,5,21.8c-4.9,4.1-11,6.7-17.8,7.2V159.5z M212.1,323.6v-94.8l7.9-12.4l38,16.9l3.9-10.6
			l4.6,14.5l8.2,3.7l4.1-11l4.8,14.9l27,12C291.8,293.6,255.1,319.6,212.1,323.6z M252,197.6l18.8,0.5l-0.5-11.3l9.8,11.6l9,0.2
			l-0.5-11.7l10.1,12l25.4,0.7c0,0.6,0,1.1,0,1.6c-0.1,18.8-4.4,36.5-11.9,52.4C300.7,221.4,271.1,205,252,197.6z"/>
	</g>
	<g>
		<path class="st2" d="M200.8,132.6c7.9-12.3,25.9-34.6,54.9-42.7c-16.4-8.2-35-12.9-54.6-13c-20-0.1-38.9,4.6-55.6,12.9
			C174.8,97.7,192.9,120.2,200.8,132.6z"/>
		<path class="st2" d="M157.8,127l-5.7-7l9.6-6.8l-15.7-0.7l-12.8-15.7c-15.6,10.2-28.8,23.8-38.5,39.7c30.5-11.8,59.6-2.3,74.8,4.9
			l-5.8-7.1l9.3-6.6L157.8,127z"/>
		<path class="st2" d="M114.7,153.2l-24.3-9c-7.4,14.4-12,30.5-13.2,47.5c26.6-25.7,62.2-25.4,77.4-23.9l-13.6-5l4.6-10.4l-13.4,7.1
			l-8.4-3.1l4.8-10.7L114.7,153.2z"/>
		<path class="st2" d="M310.7,144.4l-23.7,8.8l-13.9-7.4l4.8,10.7l-8.4,3.1l-13.4-7.1l4.6,10.4l-13.6,5c15-1.5,50.1-1.9,76.6,23.1
			C322.5,174.3,317.9,158.6,310.7,144.4z"/>
		<path class="st2" d="M268.2,97l-12.6,15.4l-15.7,0.7l9.6,6.8l-5.7,7l-15.2,0.7l9.3,6.6l-5.8,7.1c15.1-7.1,43.8-16.5,73.9-5.2
			C296.5,120.5,283.6,107.1,268.2,97z"/>
	</g>
</g>
</svg>
