<svg width="200" height="170" viewBox="0 0 200 170" fill="none" xmlns="http://www.w3.org/2000/svg">
<path d="M136.772 82.4084C136.591 82.2 117.887 60.1129 103.743 20.5748L99.9611 10L96.3085 20.6268C96.179 21.0175 82.9415 59.2273 63.2019 82.4344L61 85.013L63.2278 87.5916C63.4092 87.8 82.1126 109.887 96.2567 149.425L100.039 160L103.691 149.373C103.821 148.982 117.058 110.773 136.798 87.5655L139 84.987L136.772 82.4084Z" fill="#A7A8AA"/>
<path d="M102.137 21.1478L99.9611 15.1051L97.8887 21.1738C97.7592 21.5645 84.4181 60.0608 64.4713 83.5284L63.2278 85.013L64.4972 86.4977C64.6785 86.706 83.5633 109.002 97.8369 148.878L99.987 154.921L102.059 148.852C102.189 148.462 115.53 109.965 135.477 86.4977L136.746 85.013L135.477 83.5284C135.296 83.32 116.411 61.0505 102.137 21.1478Z" fill="black"/>
<path d="M110.53 98.4528C107.862 94.2073 105.298 90.5087 102.733 86.9404H92.8374C92.8374 86.9404 98.9768 94.1031 106.023 106.215C107.5 108.767 109.028 111.554 110.556 114.523C112.085 111.528 113.613 108.767 115.09 106.189C122.136 94.0771 128.25 86.9404 128.25 86.9404H118.354C115.686 90.639 113.147 94.2594 110.53 98.4528Z" fill="#A7A8AA"/>
<path d="M100.09 118.014C93.3033 103.636 87.5006 94.9887 81.6979 86.9144H71.8022C71.8022 86.9144 90.3761 108.559 100.013 140.413C102.526 132.157 105.271 125.489 108.51 118.821C107.033 115.748 105.531 112.856 104.028 110.174C102.655 112.804 101.567 114.784 100.065 118.014" fill="#A7A8AA"/>
<path d="M94.7023 72.8495C97.4742 73.9434 99.2875 76.3136 99.9092 81.4968C100.557 76.2876 102.344 73.9174 105.116 72.8495C102.344 71.7555 100.531 69.3853 99.9092 64.2021C99.2616 69.4114 97.4742 71.7816 94.7023 72.8495Z" fill="#A7A8AA"/>
<path d="M100.013 51.8302C106.8 66.2077 112.603 74.855 118.406 82.9293H128.301C128.301 82.9293 109.727 61.285 100.091 29.4305C90.4281 61.285 71.8801 82.9293 71.8801 82.9293H81.7758C87.7081 74.6727 93.0186 66.8849 100.039 51.8302" fill="white"/>
</svg>
