<svg width="200" height="200" viewBox="0 0 200 200" fill="none" xmlns="http://www.w3.org/2000/svg">
<path d="M158.159 77.8365L157.823 76.8791C156.75 73.8018 155.466 70.8447 154.007 67.9966C159.032 57.8625 180 31.7044 180 31.7044C180 31.7044 168.019 40.791 161.103 44.2724C161.234 43.5443 162.337 37.0408 162.337 37.0408C162.337 37.0408 152.442 46.0279 143.194 52.4762C130.035 38.1579 111.194 29.5 90.8725 29.5C82.9739 29.5 75.1553 30.8166 67.6328 33.4151C30.717 46.1624 11.1131 86.3997 23.9214 123.116C33.8262 151.459 60.7322 170.5 90.8725 170.5C98.7711 170.5 106.595 169.178 114.127 166.58C150.712 153.947 170.291 114.298 158.149 77.8465L158.159 77.8365Z" fill="#9C9E9F"/>
<path d="M154.079 79.1882L154.089 79.1782L153.773 78.2755C152.755 75.3628 151.536 72.5651 150.153 69.872C150.714 66.2014 151.973 62.9498 154.169 59.5584C157.419 54.546 165.834 45.4243 165.834 45.4243C162.71 47.8881 154.821 52.0922 154.821 52.0922C155.358 51.3043 157.424 46.8558 157.424 46.8558C155.749 48.6362 145.93 55.9126 145.93 55.9126C144.771 56.3316 143.387 56.8551 141.873 57.4435C129.46 42.7462 110.935 33.7643 90.8744 33.7643C83.4522 33.7643 76.1103 35.001 69.0339 37.4446C34.3599 49.419 15.9397 87.2226 27.9707 121.72C37.2786 148.342 62.5544 166.231 90.8744 166.231C98.2967 166.231 105.644 164.994 112.72 162.55C129.992 156.586 143.227 144.207 150.679 129.021C150.799 129.121 150.87 129.176 150.87 129.176C150.97 128.782 151.06 128.393 151.151 128.004C158.111 113.196 159.626 95.8407 154.079 79.1882Z" fill="#172439"/>
<path d="M86.9869 52.8104C95.0008 55.2242 97.1422 53.8828 106.119 55.3391C107.96 52.3565 109.72 49.0301 111.28 45.3346C98.2506 46.9406 86.9869 52.8104 86.9869 52.8104Z" fill="#315C98"/>
<path d="M80.4133 60.0175C80.4133 60.0175 85.5886 65.4486 86.7622 66.7406C86.7622 66.7406 89.31 68.0671 93.3619 70.7203C96.3611 68.0171 100.047 64.1821 103.628 59.1147C95.7742 58.2471 89.35 58.3018 83.6178 55.7736C83.6178 55.7736 80.995 58.8705 80.4133 60.0175Z" fill="#315C98"/>
<path d="M114.406 57.0761C115.795 57.4203 117.279 57.8092 118.899 58.2584C122.996 59.3904 126.562 60.7967 129.682 62.3127C131.803 61.4451 134.14 60.5026 136.442 59.5796C126.968 49.1013 116.648 44.942 116.648 44.942C115.163 44.9721 113.683 45.0768 112.219 45.2312C112.244 47.9644 112.6 52.6574 114.406 57.0761Z" fill="#315C98"/>
<path d="M124.66 64.3688C121.982 63.2567 119.434 62.3691 117.002 61.6708C118.196 63.2218 119.675 64.6033 121.526 65.6657C121.526 65.6657 122.744 65.1569 124.66 64.3688Z" fill="#315C98"/>
<path d="M84.2392 69.7842C80.1417 68.4975 71.9572 67.4102 71.9572 67.4102C71.26 67.7093 66.7014 70.1383 66.7014 70.1383C70.3575 73.001 73.1708 76.2479 75.3525 79.8335C81.3103 77.265 86.8669 75.754 86.8669 75.754C86.8669 75.754 88.1306 74.996 90.1417 73.43C86.5108 71.0411 84.2392 69.7842 84.2392 69.7842Z" fill="#315C98"/>
<path d="M70.6714 64.1575C70.6714 64.1575 75.7114 64.9555 80.3003 65.8434C77.6572 62.8906 74.4578 60.7213 74.4578 60.7213L78.6103 54.6071L70.195 58.9009C70.195 58.9009 64.1467 58.452 60.9672 58.3871C63.8811 60.2227 66.4186 62.337 66.4186 62.337L62.7325 68.5364L70.6714 64.1575Z" fill="#6CC32E"/>
<path d="M104.543 139.657C97.0711 135.682 89.4181 138.829 87.1564 143.228C91.3539 156.364 98.5506 159.96 98.5506 159.96C104.568 158.938 109.824 157.357 114.408 155.481C113.886 150.828 111.866 143.552 104.543 139.657Z" fill="#315C98"/>
<path d="M85.9061 150.717C79.9481 151.495 66.4775 151.535 65.6853 136.109C65.6853 136.109 63.9603 132.932 64.2011 129.387C64.2011 129.387 59.3061 127.142 57.2803 120.868C57.2803 120.868 52.4405 118.45 52.3353 112.51C52.2297 106.57 57.1597 102.949 59.0103 101.114C60.8558 99.2735 61.7736 98.3257 61.4578 97.2685C61.1367 96.2114 59.2208 91.8725 63.3231 87.3538C65.3342 85.1394 68.4786 83.1547 71.8186 81.4787C67.5158 74.5114 63.0272 72.4769 63.0272 72.4769C62.305 72.9557 60.555 74.5217 60.555 74.5217C57.8869 78.6263 48.4686 92.4857 47.8017 114.554C47.1347 136.628 54.7725 148.617 54.7725 148.617C75.8258 162.981 93.2531 160.482 93.2531 160.482C90.0936 157.575 87.7214 154.278 85.9061 150.717Z" fill="#315C98"/>
<path d="M59.7678 67.3444C60.3044 66.3867 62.1647 63.1401 62.1647 63.1401C55.3994 57.7139 45.8008 59.1053 45.8008 59.1053C39.5369 64.8459 33.905 78.5258 33.905 78.5258C48.3033 63.7685 59.7678 67.3444 59.7678 67.3444Z" fill="#315C98"/>
<path d="M69.4533 55.1839C71.0331 54.4908 76.5244 52.1168 76.5244 52.1168C71.8806 47.6928 73.315 41.8178 73.315 41.8178C59.0972 45.9972 49.8344 55.0841 49.8344 55.0841C56.7853 54.6852 69.4533 55.1839 69.4533 55.1839Z" fill="#315C98"/>
<path d="M55.5711 74.9487C55.8669 74.3606 57.7425 70.9342 57.7425 70.9342C43.7355 69.4778 31.2479 87.6963 31.2479 87.6963C24.3122 122.223 48.6803 143.509 48.6803 143.509C34.8086 103.057 55.5711 74.9487 55.5711 74.9487Z" fill="#315C98"/>
<path d="M80.7169 50.3801C97.5575 43.1636 108.29 41.7371 108.29 41.7371C90.5014 36.8499 77.5675 40.6998 77.5675 40.6998C75.5667 47.8566 80.7169 50.3801 80.7169 50.3801Z" fill="#315C98"/>
<path d="M63.6011 93.5205C63.6011 93.5205 65.2111 96.9371 68.3506 96.6128C68.3506 96.6128 62.7736 100.837 63.6011 93.5205Z" fill="#6CC32E"/>
<path d="M82.3036 96.1586C82.3036 96.1586 86.2606 95.0716 88.0461 93.5357C89.8414 92.0046 93.4169 90.2341 93.4169 90.2341C93.4169 90.2341 90.2175 99.8495 82.3036 96.1586Z" fill="#6CC32E"/>
<path d="M68.6231 110.092C68.6231 110.092 64.245 110.032 61.7975 110.651C61.7975 110.651 62.2039 111.519 62.4194 111.668C62.4194 111.668 65.8297 111.289 67.9964 111.244L68.6231 110.092Z" fill="#6CC32E"/>
<path d="M71.9689 119.706C71.9689 119.706 73.6439 119.975 75.4592 119.756C75.4592 119.756 75.5444 122.539 76.4069 124.374C76.4069 124.374 73.1472 122.883 71.9689 119.706Z" fill="white"/>
<path d="M60.2317 120.794C60.2317 120.794 61.1692 123.796 64.3839 125.083C64.3839 125.083 63.3108 122.105 63.4211 120.3C63.4211 120.3 61.4953 121.013 60.2317 120.794Z" fill="white"/>
<path d="M68.6864 134.457C68.6864 134.457 70.4517 133.869 71.2239 133.754C71.2239 133.754 69.3033 132.168 68.4206 130.363C68.4206 130.363 67.598 132.497 68.6864 134.457Z" fill="white"/>
<path d="M75.3894 129.461C75.3894 129.461 74.9633 131.236 75.7858 133.261C75.7858 133.261 77.25 132.952 78.6392 133.132C78.6392 133.132 76.8889 131.84 75.3894 129.461Z" fill="white"/>
<path d="M151.121 58.2915C151.121 58.2915 147.931 61.6777 146.652 68.6599C145.378 75.6374 148.142 87.2723 141.868 96.1547C141.868 96.1547 139.085 93.2324 139.039 90.3598C138.994 87.482 139.045 83.5671 138.117 79.9763C138.117 79.9763 136.547 85.158 133.358 86.8485C133.358 86.8485 129.958 81.8762 133.358 74.899C136.763 67.9168 147.61 59.9871 151.121 58.2915Z" fill="white"/>
<path d="M85.2522 92.4694C89.1139 89.3576 96.5861 85.7916 101.847 84.6646C101.847 84.6646 97.1531 88.9038 95.4931 92.5645C95.3175 92.9484 95.0467 93.3874 94.7106 93.8562C96.2753 93.5968 98.1911 93.1178 98.1911 93.1178C95.3878 96.4445 87.6142 99.0478 87.6142 99.0478C87.7647 98.9981 87.9353 98.9083 88.1158 98.8135C86.4005 99.397 84.525 99.5514 82.6444 98.9282C81.6364 99.7113 81.2903 100.958 81.2903 100.958C80.2322 99.8958 79.3194 97.4321 79.0686 96.7039C78.3514 96.0158 77.6444 95.1827 76.9622 94.1752C76.9622 94.1752 81.3956 95.5818 85.2522 92.4694ZM109.109 100.599C89.54 100.599 75.0767 108.424 75.0767 108.424C75.0767 108.424 86.2453 97.9556 108.261 97.9556C135.272 97.9556 146.336 111.775 146.336 111.775C143.146 100.634 136.832 96.968 132.083 90.8338C126.917 84.161 126.907 77.0841 132.439 70.2413C137.966 63.4039 147.539 58.1871 147.539 58.1871C147.539 58.1871 130.027 65.1643 123.432 67.8475C116.837 70.5256 113.933 71.3038 107.554 72.8546C101.17 74.4059 91.17 76.4156 82.9853 81.0688C74.7958 85.7218 74.3444 89.9463 74.3444 89.9463C72.2683 86.7394 73.1256 83.8516 73.1256 83.8516C71.1097 85.0138 64.7958 87.627 65.0064 90.764C65.3072 95.1329 71.8519 94.7887 71.8519 94.7887C69.8711 98.7086 66.8569 99.5066 66.8569 99.5066C65.3625 101.865 64.0183 101.871 64.0183 101.871C63.8831 101.482 63.5369 100.544 63.5369 100.544C56.0744 106.025 55.4578 109.696 55.4578 109.696C56.7317 110.354 57.6694 111.287 57.6694 111.287C57.1478 111.326 55.2472 111.461 55.2472 111.461C55.0814 112.204 55.2472 113.661 55.2472 113.661C57.7394 114.428 58.3314 115.246 58.3314 115.246C57.795 115.192 55.6133 115.301 55.6133 115.301C55.6133 115.301 56.1447 117.571 58.6975 117.68C61.2503 117.785 63.0055 115.301 63.0055 115.301C60.8792 112.868 59.6553 109.431 59.6553 109.431L62.5942 104.998C62.2933 106.12 61.5258 109.072 61.5258 109.072C63.9783 108.344 68.4319 108.215 68.4319 108.215C72.1528 105.781 76.6614 103.227 76.6614 103.227C68.8831 109.985 68.0555 115.301 68.0555 115.301C73.9081 119.635 80.3878 114.798 82.6294 113.71C82.6294 113.71 90.1769 110.753 93.6875 109.586C97.1981 108.424 107.198 106.205 107.198 106.205C89.54 105.781 76.0344 112.972 76.0344 112.972C76.0344 112.972 83.6925 103.876 106.877 103.876C132.293 103.876 146.968 119.426 146.968 119.426C142.504 108.633 126.977 100.599 109.109 100.599Z" fill="#9C9E9F"/>
<path d="M95.1786 73.0985C95.1786 73.0985 102.927 66.7 110.008 54.2468C110.008 54.2468 111.021 62.7351 117.194 67.069C117.194 67.069 112.516 68.9742 109.11 69.6077C105.705 70.2411 95.1786 73.0985 95.1786 73.0985Z" fill="#9C9E9F"/>
<path d="M69.2461 137.35C69.2461 137.35 75.58 135.474 81.2872 135.609C81.2872 135.609 94.2208 127.569 87.6614 115.371C87.6614 115.371 94.7175 109.94 113.579 111.421C113.579 111.421 100.249 105.566 81.8839 114.099C81.8839 114.099 95.4294 105.456 108.614 106.274C124.567 107.261 130.48 111.156 133.995 115.65C137.967 120.727 138.183 128.288 136.408 134.098C136.408 134.098 135.359 120.622 119.753 119.794C119.753 119.794 140.164 132.946 117.992 154.74C117.992 154.74 117.195 136.028 98.2631 134.657C98.2631 134.657 99.9683 132.921 101.558 131.883C101.558 131.883 93.6494 131.225 86.2469 137.933C79.0156 144.491 82.5461 147.19 82.5461 147.19C82.5461 147.19 71.3925 149.563 69.2461 137.35Z" fill="white"/>
</svg>
