<svg width="200" height="170" viewBox="0 0 200 170" fill="none" xmlns="http://www.w3.org/2000/svg">
<path d="M151.839 92.0828H148.767C150.746 87.9977 152.669 83.7294 154.496 79.2487C154.496 79.2487 145.514 73.9911 128.765 70.6107L131.465 61.7872L129.48 63.3706C129.868 61.4469 130.077 59.4591 130.077 57.4229C130.077 47.4047 125.102 38.0706 116.766 32.4555C115.263 31.4424 113.652 30.5599 111.98 29.831L111.113 29.4148C98.1403 24.5258 97.3107 15.0081 97.3107 15.0081C97.3107 15.0081 94.1661 20.9068 95.7162 26.1229C96.1194 27.4805 96.7041 28.8292 97.5047 30.1516C93.8937 28.3979 88.4918 26.3969 82.3193 25.3128C68.811 22.9404 69.3369 10 69.3369 10C69.3369 10 56.9266 26.3125 70.5452 39.7305C63.7093 35.5586 59.9852 28.7 59.9852 28.7C59.9852 28.7 57.6798 41.0693 63.6207 48.3885C64.7503 49.7802 65.7168 51.2904 66.8099 52.7109C68.6783 55.1391 70.3741 61.1984 70.3337 63.469L68.1735 61.7875L70.8395 70.5005L70.8833 70.6432C54.2367 74.0247 45.3108 79.2487 45.3108 79.2487C47.1377 83.7294 49.0598 87.9977 51.039 92.0828H41.281V119.347H66.7838C68.7603 122.253 70.7246 124.978 72.6546 127.54C73.0612 128.08 73.4655 128.61 73.8692 129.135C74.4406 129.878 75.008 130.606 75.5715 131.318C75.917 131.755 76.2615 132.188 76.6041 132.614C77.2081 133.365 77.8056 134.096 78.3981 134.811C78.7146 135.193 79.0306 135.575 79.3434 135.947C79.8555 136.555 80.3613 137.15 80.8622 137.731C81.2541 138.186 81.6446 138.637 82.0292 139.075C82.4387 139.542 82.8429 139.997 83.244 140.445C83.4897 140.719 83.731 140.984 83.9736 141.252C84.5936 141.936 85.2036 142.602 85.799 143.239C86.0076 143.463 86.2142 143.682 86.4197 143.9C87.0289 144.546 87.6241 145.169 88.2033 145.765C88.3908 145.958 88.578 146.15 88.7621 146.338C89.3361 146.923 89.8926 147.481 90.4318 148.016C90.6042 148.187 90.7783 148.36 90.9468 148.525C91.4688 149.038 91.9691 149.521 92.4543 149.984C92.6139 150.137 92.7789 150.296 92.9343 150.443C93.2286 150.722 93.5135 150.989 93.7921 151.248C93.9752 151.418 94.1509 151.579 94.3267 151.741C94.7168 152.101 95.0923 152.443 95.4464 152.761C95.612 152.91 95.7734 153.055 95.9311 153.194C96.2512 153.48 96.5547 153.747 96.8401 153.995C96.9921 154.127 97.1425 154.258 97.2835 154.379C97.5238 154.586 97.7476 154.776 97.9565 154.953C98.1035 155.077 98.2503 155.201 98.3811 155.309C98.5036 155.411 98.6234 155.511 98.7315 155.599C98.8974 155.736 99.0506 155.861 99.1812 155.966C99.2723 156.04 99.3546 156.106 99.4285 156.165C99.4907 156.214 99.5463 156.258 99.5951 156.297C99.7743 156.438 99.8779 156.517 99.8779 156.517C99.8779 156.517 100.013 156.415 100.262 156.217C100.275 156.206 100.286 156.198 100.301 156.186C100.371 156.13 100.456 156.063 100.543 155.992C100.685 155.878 100.846 155.747 101.032 155.595C101.099 155.54 101.176 155.475 101.249 155.415C101.472 155.231 101.713 155.029 101.986 154.798C102.022 154.767 102.058 154.736 102.095 154.705C102.4 154.446 102.738 154.155 103.098 153.84C103.148 153.797 103.194 153.756 103.245 153.712C103.626 153.378 104.039 153.011 104.475 152.617C104.533 152.566 104.591 152.514 104.649 152.461C105.105 152.048 105.587 151.606 106.097 151.13C106.132 151.099 106.167 151.065 106.201 151.033C107.285 150.021 108.483 148.87 109.781 147.576C109.799 147.558 109.817 147.54 109.835 147.522C110.47 146.887 111.132 146.215 111.812 145.514C111.865 145.459 111.918 145.404 111.971 145.349C112.65 144.645 113.349 143.91 114.068 143.14C114.108 143.097 114.149 143.053 114.189 143.009C115.658 141.431 117.204 139.714 118.808 137.858C118.859 137.799 118.909 137.742 118.96 137.683C119.725 136.796 120.504 135.873 121.292 134.924C121.395 134.8 121.498 134.677 121.601 134.551C122.379 133.609 123.168 132.638 123.966 131.634C124.065 131.509 124.166 131.38 124.266 131.254C125.089 130.213 125.92 129.147 126.759 128.042C128.812 125.338 130.905 122.441 133.012 119.347H134.642H158.719V92.0828H151.839Z" fill="#100F0D"/>
<path d="M112.255 63.4648C111.768 67.3021 109.265 71.1497 104.885 74.7732L107.952 77.831L114.929 69.1755C115.397 67.1612 115.744 64.9721 115.871 62.5849C114.757 62.9193 113.549 63.2172 112.255 63.4648Z" fill="#87D5B5"/>
<path d="M120.571 60.7117C119.703 61.1536 118.768 61.5687 117.762 61.9474C117.659 65.1182 117.197 67.9656 116.546 70.5193L118.165 72.1799L124.311 67.3945C122.086 65.5758 120.988 63.2443 120.571 60.7117Z" fill="#87D5B5"/>
<path d="M73.2767 96.5378V99.1271H71.4897V112.122H73.2767V114.709H66.8715L57.5927 106.453L57.6954 114.709H49.6454V112.122H51.4321V99.1271H49.6454V96.5378H56.0779L65.3062 104.42V96.5378H73.2767Z" fill="white"/>
<path d="M150.312 96.5378H148.466V96.5253H142.328V102.947L134.693 104.494V96.5253H128.555V96.5378H126.68V99.1271H128.555V108.73L142.328 105.827V112.122H128.555V114.709H148.466V99.1271H150.312V96.5378Z" fill="white"/>
<path d="M124.806 75.0013L121.66 79.257L117.832 75.4174L115.246 72.7656L115.22 72.7982L115.207 72.7859L115.205 72.8159L108.157 81.562L99.8382 73.4771L99.7615 90.5862L105.967 82.8859L108.36 85.2935L114.864 77.2227L114.011 88.2669L120.354 81.4547L122.251 83.3508L124.806 75.0013Z" fill="white"/>
<path d="M91.4821 81.562L84.3933 72.7661L78.0155 79.306L74.8333 75.0005L77.3883 83.3508L84.2141 76.5279L84.2251 76.5414L86.2077 89.1906L89.3201 82.8633L91.2782 85.2935L99.8233 76.8088L99.8382 73.4771L91.4821 81.562Z" fill="#87D5B5"/>
<path d="M95.0892 103.209C94.7622 103.19 94.4677 103.171 94.193 103.152C88.7093 102.673 82.6737 100.004 82.6737 100.004C85.9661 103.031 89.4732 103.916 91.087 104.173C90.8293 105.284 90.6642 106.731 91.4589 107.059C93.5944 107.941 98.7187 106.906 98.9509 105.133C99.246 102.873 97.107 103.32 95.0892 103.209Z" fill="#87D5B5"/>
<path d="M97.3647 110.77C96.614 110.88 95.9055 110.93 95.2644 110.953C89.7667 110.428 83.7091 107.663 83.7091 107.663C87.1363 110.889 90.8251 111.745 92.3055 111.967C91.9135 113.23 91.5826 113.772 93.1602 113.921C97.5094 114.333 100.067 111.767 99.9991 110.953C99.9312 110.138 99.9479 110.391 97.3647 110.77Z" fill="#87D5B5"/>
<path d="M96.8506 117.252C96.3677 117.346 95.9063 117.408 95.4676 117.455L95.4874 117.447C89.932 116.978 83.7091 114.132 83.7091 114.132C87.2188 117.436 91.005 118.254 92.4102 118.452C92.106 119.648 91.791 120.163 93.2343 120.233C97.1261 120.422 99.3 118.03 99.2055 117.308C99.1104 116.584 99.1371 116.81 96.8506 117.252Z" fill="#87D5B5"/>
<path d="M96.8641 123.036C96.4181 123.123 95.9914 123.18 95.5848 123.224C91.2144 122.818 86.3808 120.611 86.3808 120.611C88.7791 122.868 91.345 123.664 92.722 123.941C92.424 125.245 91.9856 125.785 93.4435 125.856C97.1253 126.035 99.1825 123.772 99.0929 123.088C99.0031 122.405 99.0282 122.616 96.8641 123.036Z" fill="#87D5B5"/>
<path d="M96.0084 127.394L96.3575 130.405C96.3575 130.405 97.2224 131.907 99.833 131.911L99.9852 125.203C98.2826 126.889 96.608 127.297 96.0084 127.394Z" fill="#87D5B5"/>
<path d="M99.833 131.911V131.912C99.8348 131.912 99.8364 131.911 99.8377 131.911C99.8411 131.911 99.8427 131.912 99.8445 131.912V131.911C99.8458 131.911 99.8468 131.911 99.8484 131.911C99.8429 131.911 99.8382 131.911 99.833 131.911Z" fill="#87D5B5"/>
<path d="M99.833 131.911L99.9852 125.203C99.9852 125.203 103.007 122.731 99.7364 120.42C99.7364 120.42 103.679 117.419 100.188 115.222C100.188 115.222 104.799 112.284 102.08 108.785C102.08 108.785 103.965 110.858 105.544 111.248L103.32 130.405C103.32 130.405 102.273 132.082 99.833 131.911Z" fill="white"/>
<path d="M99.8001 134.315C99.8004 134.315 99.8004 134.315 99.8009 134.315C99.8004 134.315 99.8001 134.315 99.7996 134.315C97.5823 134.315 96.5758 133.796 95.6687 132.351C95.372 132.705 95.2044 133.104 95.2044 133.525C95.2044 135.003 97.2626 136.203 99.7996 136.203C99.8001 136.203 99.8001 136.203 99.8004 136.203C101.28 135.236 99.8001 134.315 99.8001 134.315Z" fill="#87D5B5"/>
<path d="M104.395 133.525C104.395 133.104 104.228 132.705 103.931 132.351C102.948 133.795 102.017 134.315 99.8009 134.315C99.8004 134.315 99.8004 134.315 99.8001 134.315C99.8001 134.315 101.28 135.236 99.8004 136.203C99.9113 136.203 100.015 136.189 100.124 136.184C100.466 136.159 101.044 136.096 101.677 135.965C103.276 135.546 104.395 134.613 104.395 133.525Z" fill="white"/>
<path d="M112.179 137.32C116.511 132.508 121.439 126.523 126.519 119.347H123.18C119.22 124.83 115.378 129.566 111.87 133.574L112.179 137.32Z" fill="white"/>
<path d="M87.7152 133.308C84.2713 129.352 80.513 124.705 76.6425 119.347H73.3038C78.3124 126.42 83.174 132.34 87.4616 137.125L87.7152 133.308Z" fill="white"/>
<path d="M146.381 81.2419C143.059 79.8888 136.484 77.5425 127.203 75.7182L126.401 78.3378C134.486 79.9086 140.495 81.8862 144.04 83.2453C142.659 86.3091 141.228 89.2302 139.778 92.0828H142.831C144.29 89.1656 145.73 86.1815 147.115 83.0508L147.681 81.7698L146.381 81.2419Z" fill="white"/>
<path d="M73.2461 78.3654L72.4452 75.7477C63.2515 77.5672 56.728 79.8938 53.4233 81.2388L52.1236 81.7685L52.6898 83.0495C54.0755 86.1794 55.5164 89.1646 56.9778 92.0828H60.0319C58.5795 89.2286 57.1461 86.306 55.765 83.2422C59.2881 81.8922 65.2433 79.9312 73.2461 78.3654Z" fill="white"/>
<path d="M99.8004 95.1328C99.8004 95.1328 99.8004 95.1328 99.8001 95.1328C89.5933 95.1328 81.0209 92.1466 78.5002 88.0948C77.5935 87.8958 75.9332 87.7995 75.3968 89.5036C75.3462 89.7521 75.2853 89.9997 75.2853 90.2534C75.2853 95.5 86.2609 99.7539 99.8001 99.7539C103.015 97.1133 99.8053 95.1359 99.8004 95.1328Z" fill="#87D5B5"/>
<path d="M124.314 90.2534C124.314 90.0338 124.256 89.8201 124.218 89.6042C123.722 87.8044 122.033 87.8904 121.103 88.0901C118.586 92.1443 110.011 95.1328 99.8004 95.1328C99.8053 95.1359 103.015 97.1133 99.8001 99.7539H99.8004C113.34 99.7539 124.314 95.5 124.314 90.2534Z" fill="white"/>
<path d="M153.12 89.3099C154.47 86.3919 155.799 83.412 157.071 80.294L157.976 78.0734L155.905 76.8586C155.353 76.5349 146.255 71.3193 129.585 67.931L128.765 70.6107C145.514 73.9911 154.496 79.2487 154.496 79.2487C152.669 83.7294 150.746 87.9977 148.767 92.0828H151.839H158.719V119.347H134.642H133.012C130.905 122.441 128.812 125.338 126.759 128.042C125.92 129.147 125.089 130.213 124.266 131.254C124.166 131.38 124.065 131.509 123.966 131.634C123.168 132.638 122.379 133.609 121.601 134.551C121.498 134.677 121.395 134.8 121.292 134.924C120.504 135.873 119.725 136.796 118.96 137.683C118.909 137.742 118.859 137.799 118.808 137.858C117.204 139.714 115.658 141.431 114.189 143.01C114.149 143.053 114.108 143.097 114.068 143.14C113.349 143.91 112.65 144.645 111.971 145.349C111.918 145.404 111.865 145.459 111.812 145.514C111.19 146.155 110.589 146.764 110.004 147.351C109.569 141.029 108.317 122.651 108.422 122.581C112.939 119.566 115.184 110.839 115.295 110.462C115.679 109.602 116.486 106.413 116.49 104.866C116.49 104.681 116.479 104.517 116.453 104.378L116.445 104.345L116.424 104.318C116.424 104.318 115.786 103.604 115.026 102.886C114.252 102.177 113.395 101.448 112.786 101.431C112.734 101.431 112.672 101.439 112.62 101.454C110.218 102.172 107.828 102.487 107.824 102.49L107.806 102.491L107.802 102.497C107.13 102.696 106.468 102.745 105.856 102.745C105.323 102.745 104.824 102.708 104.396 102.708C103.978 102.709 103.623 102.739 103.34 102.9C103.056 103.06 102.889 103.362 102.877 103.8C102.877 103.811 102.874 103.823 102.874 103.837C102.895 104.928 104.392 107.042 106.399 107.864C107.105 108.148 107.829 108.253 108.528 108.253C110.155 108.251 111.622 107.678 112.298 107.367C111.418 108.922 110.187 110.505 109.139 111.731C108.584 112.386 108.085 112.934 107.72 113.323L105.356 130.076C105.599 130.32 105.881 130.663 106.101 131.103C106.613 131.84 106.898 132.665 106.898 133.524C106.898 135.387 105.659 136.938 103.74 137.842L103.721 138.08C103.657 139.279 103.501 141.92 103.318 143.837C103.854 144.551 104.183 145.428 104.183 146.388C104.183 148.726 102.3 150.618 99.9654 150.655V156.45C99.914 156.489 99.8779 156.517 99.8779 156.517C99.8779 156.517 99.7743 156.438 99.5951 156.297C99.5463 156.258 99.4907 156.214 99.4285 156.165C99.3546 156.106 99.2723 156.04 99.1812 155.966C99.0509 155.861 98.8974 155.736 98.7315 155.599C98.6234 155.511 98.5036 155.411 98.3811 155.309C98.2503 155.201 98.1035 155.077 97.9565 154.953C97.7476 154.776 97.5238 154.586 97.2835 154.379C97.1425 154.258 96.9921 154.127 96.8401 153.995C96.5547 153.747 96.2512 153.48 95.9311 153.194C95.7734 153.055 95.612 152.91 95.4464 152.761C95.0923 152.443 94.7168 152.101 94.3267 151.741C94.1509 151.579 93.9752 151.418 93.7921 151.248C93.5135 150.989 93.2286 150.722 92.9343 150.443C92.7789 150.296 92.6139 150.137 92.4543 149.984C91.9691 149.521 91.4688 149.038 90.9468 148.525C90.7783 148.36 90.6042 148.187 90.4318 148.016C89.8926 147.481 89.3361 146.923 88.7621 146.338C88.578 146.151 88.3908 145.958 88.2033 145.765C87.6241 145.169 87.0289 144.546 86.4197 143.9C86.2142 143.682 86.0076 143.463 85.799 143.239C85.2036 142.602 84.5936 141.936 83.9736 141.252C83.731 140.984 83.4897 140.719 83.244 140.445C82.8429 139.997 82.4387 139.542 82.0292 139.075C81.6446 138.637 81.2541 138.186 80.8622 137.731C80.3613 137.15 79.8555 136.555 79.3434 135.947C79.0308 135.575 78.7146 135.193 78.3981 134.811C77.8058 134.096 77.2081 133.365 76.6041 132.614C76.2615 132.188 75.917 131.755 75.5713 131.318C75.008 130.606 74.4406 129.878 73.8692 129.135C73.4655 128.61 73.0612 128.08 72.6546 127.54C70.7246 124.978 68.7603 122.253 66.7838 119.347H41.281V92.0828H51.039C49.0598 87.9977 47.1377 83.7294 45.3108 79.2487C45.3108 79.2487 54.2367 74.0247 70.8833 70.6432L70.0634 67.9628C53.494 71.3526 44.4525 76.5362 43.9025 76.8586L41.8303 78.0734L42.7357 80.294C44.0071 83.412 45.3362 86.3919 46.6861 89.3099H38.5V122.12H65.3313C70.0365 128.942 74.544 134.644 78.4268 139.172C89.4852 152.071 97.845 158.459 98.1949 158.725L99.8764 160L101.559 158.726C101.909 158.461 110.282 152.072 121.354 139.172C125.241 134.645 129.753 128.943 134.463 122.12H161.5V89.3099H153.12Z" fill="#87D5B5"/>
<path d="M110.508 61.8453C110.494 61.3602 110.442 60.8682 110.348 60.3695C109.269 54.7234 104.702 53.4831 96.0452 51.6094C95.125 51.4096 94.1716 51.2036 93.1876 50.982C92.6076 50.8513 91.9728 50.681 91.3134 50.4898C77.6523 47.5182 66.2599 41.1471 61.9851 35.1828C61.9851 35.1828 60.8595 43.2331 69.0747 50.6505C83.8509 62.5924 100.722 63.3029 110.508 61.8453Z" fill="#87D5B5"/>
<path d="M96.4369 49.8128C104.776 51.6172 110.802 52.9224 112.159 60.026C112.255 60.5281 112.304 61.0315 112.33 61.5349C113.739 61.2638 114.952 60.9539 115.931 60.6401C115.938 58.9977 115.85 57.2784 115.638 55.4789C114.179 43.1078 103.666 35.7167 96.6291 32.1021C93.0758 30.3719 87.9178 28.393 82.0425 27.6771C74.8038 26.7945 69.0598 21.8435 68.3678 16.7865C68.3678 16.7865 68.1568 17.1995 67.8777 17.932C65.4702 24.2518 66.8334 31.3901 71.333 36.4469C77.2974 43.1497 87.2436 47.7557 93.595 49.1878C94.5721 49.4086 95.5211 49.6143 96.4369 49.8128Z" fill="#87D5B5"/>
<path d="M115.552 34.2242C114.144 33.2766 112.645 32.4539 111.072 31.7706C105.901 29.2786 100.142 26.8078 97.5483 20.9068C97.5483 20.9068 95.553 26.8836 103.896 34.3492C111.829 40.0302 116.524 47.2435 117.469 55.2643C117.662 56.895 117.755 58.4578 117.775 59.9633C118.709 59.5815 119.576 59.1677 120.374 58.7284C120.239 55.3516 121.013 51.7898 121.679 48.7406C121.927 47.6039 122.162 46.5305 122.329 45.562C122.788 42.9065 121.813 40.4599 120.568 38.5456C119.075 36.9172 117.392 35.4638 115.552 34.2242Z" fill="#87D5B5"/>
<path d="M124.146 45.874C123.972 46.882 123.734 47.9747 123.481 49.1313C122.893 51.8276 122.246 54.7984 122.204 57.6073C124.902 55.7828 126.532 53.9063 127.483 52.5281C126.913 49.3138 125.794 46.2922 124.224 43.5565C124.286 44.3026 124.285 45.0706 124.146 45.874Z" fill="#87D5B5"/>
<path d="M127.818 55.1391C126.516 56.6242 124.726 58.2711 122.304 59.7453C122.601 62.2719 123.601 64.5451 125.818 66.2216L126.716 65.5227C127.493 62.9576 127.921 60.2411 127.921 57.4229C127.921 56.6529 127.878 55.8935 127.818 55.1391Z" fill="#87D5B5"/>
<path d="M84.5706 69.0034L91.6863 77.831L99.8004 69.743V69.7047L99.8192 69.724L99.8382 69.7047V69.743L103.571 73.4643C106.725 70.8883 109.659 67.5737 110.354 63.7844C108.089 64.1156 105.617 64.3049 102.995 64.3049C93.3894 64.3049 81.8206 61.7646 71.3456 54.6078L70.0224 53.7568C70.0224 53.7568 72.5465 57.6073 73.0672 65.5977L81.4949 72.1586L84.5706 69.0034Z" fill="#87D5B5"/>
<path d="M100.64 145.321L101.133 138.541C100.713 138.593 100.284 138.631 99.8377 138.631C99.4053 138.631 98.9906 138.593 98.5832 138.544L99.0762 145.321C98.7407 145.566 98.5088 145.942 98.5088 146.388C98.5088 147.131 99.1128 147.734 99.8581 147.734C100.603 147.734 101.207 147.131 101.207 146.388C101.207 145.942 100.975 145.566 100.64 145.321Z" fill="#87D5B5"/>
</svg>
