<svg width="200" height="200" viewBox="0 0 200 200" fill="none" xmlns="http://www.w3.org/2000/svg">
<path d="M173.335 51.2514L150.672 51.4179C137.48 36.7671 118.372 27.5548 97.0977 27.5548C57.2991 27.5548 25.0547 59.77 25.0547 99.5325C25.0547 139.295 57.2991 171.51 97.0977 171.51C136.896 171.51 169.141 139.295 169.141 99.5325C169.141 91.9296 167.947 84.5765 165.752 77.695L173.335 51.2514Z" fill="#3C286E"/>
<path d="M162.448 99.5325C162.448 125.56 147.117 148.091 125.01 158.552C84.1833 152.919 55.5216 115.127 61.1595 74.3375C63.1314 60.2139 68.9082 47.5887 77.3512 37.2943C83.5723 35.3242 90.21 34.242 97.0977 34.242C133.119 34.242 162.448 63.5159 162.448 99.5048" fill="#FA4B0A"/>
<path d="M180 46.7243L152.783 46.8076C138.285 31.6573 118.122 23 97.07 23C54.5773 23 20 57.5459 20 100C20 142.454 54.5773 177 97.07 177C139.563 177 174.14 142.454 174.14 100C174.14 92.5636 173.057 85.2105 170.974 78.1348L179.972 46.7243H180ZM97.0977 172.005C79.8785 172.005 64.0757 165.956 51.6889 155.884C52.3833 153.47 53.0498 151.111 53.7164 148.808C65.8532 106.77 74.5461 81.1038 96.0979 74.8328L75.296 147.227L99.0141 138.625C107.346 109.573 116.65 82.075 138.507 74.8328L122.649 130.023L160.365 116.343V116.316C160.837 114.457 161.253 112.597 161.559 110.683H149.45L164.447 58.4339C157.671 58.4339 152.366 58.4339 147.728 58.7946C137.841 59.516 130.925 61.8191 118.983 69.0058L122.01 58.4339C100.792 58.4339 92.4041 58.4339 76.6013 69.0058L79.6285 58.4339H46.3288L44.6624 64.2332L55.3827 68.978L35.6917 137.57C28.9707 126.638 25.0825 113.763 25.0825 99.9723C25.0825 60.2375 57.3546 27.9946 97.1255 27.9946C118.427 27.9946 137.507 37.2346 150.7 51.8854L173.362 51.7189L165.78 78.1625C167.974 85.044 169.169 92.3694 169.169 99.9723C169.169 139.735 136.896 171.95 97.1255 171.95" fill="white"/>
</svg>
