<svg width="200" height="170" viewBox="0 0 200 170" fill="none" xmlns="http://www.w3.org/2000/svg">
<path d="M169.948 61.0588L99.974 10L30.1041 61.0588L30 89.0227C30 116.232 43.7398 136.775 59.119 147.763C73.4052 157.969 88.6543 160 99.948 160C111.242 160 126.595 157.969 140.881 147.763C156.26 136.775 170 116.232 170 89.0227L169.896 61.0588H169.948Z" fill="#2C5235"/>
<path d="M165.29 89.0228L165.212 63.3501L99.9737 15.5459L34.7878 63.3501L34.7097 89.0228C34.6577 106.468 41.3975 122.897 53.68 135.265C65.9625 147.632 82.7209 154.558 99.9737 154.558C117.226 154.558 134.037 147.632 146.319 135.265C158.602 122.897 165.342 106.468 165.29 89.0228ZM38.2748 65.1467L55.8138 52.3364C62.2153 58.6634 67.5239 66.8912 70.7766 75.6136C71.9476 75.3793 73.1186 75.145 74.2636 74.9367C70.9068 65.7195 65.39 56.9971 58.6763 50.2534L99.9737 19.9462L141.297 50.2534C134.583 56.9971 129.067 65.7195 125.71 74.9367C126.881 75.145 128.026 75.3793 129.197 75.6136C132.476 66.8912 137.758 58.6634 144.16 52.3364L161.699 65.1467L161.777 89.0228H38.1967L38.2748 65.1467ZM143.821 132.791C136.951 125.917 131.435 116.856 128.338 107.405H124.643C127.818 117.742 133.803 127.688 141.271 135.213C129.977 145.393 115.067 151.043 99.9737 151.043C84.8807 151.043 69.996 145.393 58.7023 135.213C66.1707 127.688 72.1558 117.742 75.3305 107.405H71.6354C68.5387 116.883 63.022 125.917 56.1521 132.791C45.4309 121.986 39.1856 107.926 38.3268 92.8242H161.673C160.814 107.9 154.568 121.96 143.847 132.791H143.821Z" fill="#FEE11A"/>
<path d="M98.777 107.197H106.167L102.732 115.138H107.234L95.0818 133.364L98.2565 119.356H93.7546L98.777 107.197Z" fill="#78BE20"/>
<path d="M103.201 61.0588C103.201 60.7985 102.498 60.7204 101.769 60.6943L99.9739 32.9127L98.2564 60.6943C97.5278 60.6943 96.8252 60.7985 96.8252 61.0588V63.975H103.201V61.0588ZM138.903 82.904C129.926 77.957 111.32 78.0611 111.346 74.3899C111.346 72.5412 115.145 70.6405 115.145 70.6405C115.145 70.6405 115.093 69.7292 113.974 69.2085C112.23 68.4013 107.676 67.6462 99.9739 67.6462C92.2713 67.6462 87.7954 68.4013 86.0519 69.2085C84.907 69.7292 84.8809 70.6405 84.8809 70.6405C84.8809 70.6405 88.6802 72.5412 88.6802 74.3899C88.6802 78.0611 70.1003 77.957 61.1226 82.904H138.929H138.903ZM69.0073 98.3701L63.3084 102.302H136.717L131.018 98.3701H69.0073ZM85.2713 107.197H81.6542L82.565 111.18C84.6207 120.085 87.7434 135.395 88.9404 150.028C90.1114 150.236 91.2824 150.418 92.4534 150.549C91.1003 134.067 87.1969 115.633 85.2973 107.379L85.2453 107.197H85.2713ZM114 110.503C111.84 119.668 108.483 135.499 107.234 150.601C108.431 150.47 109.628 150.288 110.799 150.08C112.1 135.473 115.327 120.215 117.435 111.311L118.372 107.301H114.755L114.026 110.503H114Z" fill="white"/>
</svg>
