<svg width="200" height="200" viewBox="0 0 200 200" fill="none" xmlns="http://www.w3.org/2000/svg">
<path d="M172.879 97.7199C171.785 94.7487 168.921 88.8843 170.848 84.2189C172.254 80.8306 173.92 79.6838 173.79 74.6275C172.879 63.6807 165.067 61.361 163.374 61.1525C159.676 60.7355 157.567 63.0812 157.541 64.8796C157.515 66.678 158.062 67.5381 159.39 68.4764C159.39 68.4764 158.765 65.3227 161.655 65.7137C163.608 65.9743 164.676 68.3982 163.765 70.0924C161.447 73.2461 157.645 71.7865 155.328 69.128C153.635 67.46 149.937 62.7945 142.802 62.7424C131.553 62.6642 128.298 71.7605 120.096 68.8674C116.997 67.6424 115.252 64.7754 117.101 61.1786C118.611 59.1456 120.981 58.7286 122.569 59.6669C123.793 60.6052 124.47 62.0126 123.923 63.4722C123.403 64.4626 122.439 64.7754 121.319 64.1238C120.486 63.5243 120.408 62.7945 120.773 62.4818C121.424 62.0387 121.814 62.3515 121.814 62.3515C121.189 61.4914 120.564 61.2047 119.497 61.6477C117.179 63.2116 117.387 67.6945 123.663 67.903C130.694 67.2254 135.095 61.6217 132.621 52.8903C130.746 48.1207 124.028 35.8707 99.9927 36.001C75.9838 35.8707 69.2395 48.1207 67.3646 52.8903C64.8908 61.6217 69.2915 67.1993 76.3223 67.903C82.598 67.6945 82.8063 63.2116 80.4887 61.6477C79.4471 61.1786 78.7961 61.4914 78.1712 62.3515C78.1712 62.3515 78.5618 62.0648 79.2128 62.4818C79.5773 62.8206 79.4992 63.5243 78.6659 64.1238C77.5462 64.7754 76.5827 64.4626 76.0619 63.4722C75.5411 62.0126 76.2182 60.5791 77.4421 59.6669C79.0305 58.7547 81.4001 59.1456 82.9105 61.1786C84.7593 64.7754 83.0146 67.6424 79.9159 68.8674C71.7393 71.7605 68.4843 62.6903 57.209 62.7424C50.074 62.7945 46.3764 67.46 44.6838 69.128C42.3662 71.8126 38.5904 73.2461 36.2468 70.0924C35.3094 68.3722 36.403 65.9483 38.356 65.7137C41.2465 65.3227 40.6215 68.4764 40.6215 68.4764C41.9756 67.5121 42.5224 66.678 42.4704 64.8796C42.4443 63.0812 40.3351 60.7094 36.6374 61.1525C34.9188 61.361 27.1328 63.6807 26.2214 74.6275C26.0912 79.6838 27.7578 80.8306 29.1639 84.2189C31.0909 88.8843 28.2265 94.7487 27.1328 97.7199C26.1954 100.326 22.7841 111.456 27.237 118.31C33.6168 128.162 44.0328 123.523 44.1109 129.179C44.189 133.662 37.8873 133.088 38.6164 130.743C39.1893 128.892 41.0902 129.778 41.0902 129.778C40.0747 127.016 36.7936 126.364 34.8146 129.648C32.9137 132.802 34.1636 136.789 36.9759 138.614C43.7984 143.045 50.7771 140.334 56.1674 137.154C61.4535 134.053 66.6094 130.664 69.2134 130.586C73.1455 130.482 74.5256 133.766 73.6142 136.294C72.6767 138.875 70.5154 143.748 73.4059 147.632C76.2963 151.489 80.645 152.688 87.4154 153.992C93.4306 155.164 98.5345 160.664 99.9927 164C101.451 160.664 106.529 155.164 112.57 153.992C119.34 152.688 123.689 151.489 126.58 147.632C129.496 143.748 127.335 138.875 126.371 136.294C125.434 133.766 126.84 130.482 130.772 130.586C133.376 130.664 138.558 134.053 143.818 137.154C149.208 140.308 156.187 143.045 163.009 138.614C165.822 136.789 167.072 132.802 165.171 129.648C163.192 126.364 159.885 127.016 158.895 129.778C158.895 129.778 160.796 128.918 161.369 130.743C162.098 133.088 155.796 133.662 155.875 129.179C155.979 123.523 166.395 128.162 172.774 118.31C177.201 111.429 173.816 100.326 172.879 97.7199Z" fill="#E03A3E"/>
<path d="M170.691 98.5019C170.561 98.137 170.379 97.6939 170.196 97.2247C168.868 93.8625 166.655 88.2328 168.686 83.3328C169.103 82.2902 169.545 81.4562 169.936 80.7264C170.873 78.9541 171.498 77.7551 171.446 74.7578C170.561 64.593 163.14 63.4722 163.087 63.4461C162.697 63.394 162.358 63.394 162.046 63.4461C163.634 63.7068 165.04 64.7233 165.796 66.235C166.603 67.8509 166.603 69.7014 165.796 71.2392L165.639 71.4998C164.389 73.194 162.671 74.1583 160.718 74.2365C158.296 74.3147 155.692 73.0376 153.687 70.7701C153.505 70.5876 153.322 70.4052 153.114 70.1967C151.291 68.3201 148.245 65.1403 142.802 65.1142C138.011 65.1142 134.86 66.9387 131.839 68.711C128.272 70.7961 124.6 72.9594 119.366 71.1089H119.314L119.262 71.0828C116.919 70.1706 115.226 68.5286 114.471 66.5217C113.95 65.1403 113.638 62.9249 115.044 60.1882L115.122 60.0057L115.252 59.8494C117.335 57.0345 120.981 56.1222 123.741 57.7121L123.871 57.7903L123.975 57.8685C126.137 59.5105 126.944 61.9866 126.137 64.3063L126.085 64.4626L126.007 64.593C125.876 64.8275 125.746 65.036 125.59 65.2445C127.361 64.7233 128.741 63.7329 129.678 62.3515C131.136 60.2142 131.397 57.2169 130.433 53.6983C128.116 47.8861 121.085 38.2686 99.9926 38.3989C78.9523 38.2686 71.8954 47.8861 69.5779 53.6983C68.6144 57.2169 68.8488 60.2142 70.307 62.3515C71.2444 63.7329 72.6506 64.6972 74.3953 65.2445C74.239 65.036 74.1088 64.8275 73.9786 64.593L73.9005 64.4626L73.8484 64.3063C73.0152 61.9605 73.8484 59.5105 76.0098 57.8685L76.1139 57.7903L76.2441 57.7121C79.0044 56.1222 82.6499 57.0345 84.7331 59.8494L84.8373 60.0057L84.9154 60.1882C86.3476 62.9249 86.0091 65.1403 85.5143 66.5217C84.7592 68.5546 83.0405 70.1706 80.723 71.0828H80.6709L80.6188 71.1089C75.3588 72.9594 71.6871 70.7961 68.1196 68.711C65.099 66.9387 61.9482 65.0882 57.1568 65.1142C51.7144 65.1403 48.6678 68.294 46.871 70.1967C46.6627 70.4052 46.4804 70.6137 46.2981 70.7701C44.293 73.0376 41.663 74.3408 39.2673 74.2365C37.3143 74.1583 35.5957 73.22 34.3458 71.4998L34.2416 71.3695L34.1635 71.2392C33.3302 69.7275 33.3302 67.8509 34.1635 66.235C34.9186 64.7233 36.3248 63.6807 37.9132 63.4461C37.6008 63.4201 37.2622 63.4201 36.8716 63.4461C36.7935 63.4461 29.3982 64.593 28.5128 74.7578C28.4607 77.7551 29.0857 78.9541 30.0231 80.7264C30.4137 81.4562 30.8564 82.2902 31.2731 83.3328C33.3042 88.2328 31.0908 93.8625 29.7627 97.2247C29.5805 97.6939 29.3982 98.137 29.268 98.5019C27.6535 102.959 25.8047 111.899 29.1378 117.033C32.1324 121.673 36.0384 122.507 39.5017 123.262C42.5484 123.914 46.3242 124.748 46.4023 129.127C46.4283 131.446 45.2826 133.375 43.3035 134.287C41.3245 135.2 38.8507 134.939 37.4185 133.688C36.8456 133.193 36.481 132.567 36.2988 131.916C35.83 133.766 36.7675 135.721 38.1997 136.659C42.8608 139.683 48.0168 139.213 54.9434 135.147L57.4693 133.636C62.9637 130.352 66.4531 128.319 69.1092 128.241C71.609 128.162 73.6662 129.127 74.9682 130.899C76.2181 132.619 76.5045 134.991 75.7494 137.076L75.541 137.676C74.6557 140.047 73.3016 143.644 75.2286 146.225C77.5201 149.274 80.9574 150.395 87.8319 151.724C92.9097 152.714 97.3105 156.311 99.9665 159.673C102.597 156.337 107.023 152.714 112.101 151.724C118.976 150.395 122.413 149.274 124.705 146.225C126.631 143.644 125.303 140.047 124.392 137.676L124.184 137.076C123.429 134.991 123.715 132.645 124.965 130.899C126.241 129.127 128.324 128.162 130.824 128.241C133.48 128.319 136.995 130.326 142.464 133.636L144.99 135.147C151.916 139.213 157.072 139.683 161.733 136.659C163.166 135.721 164.103 133.766 163.634 131.916C163.478 132.593 163.087 133.193 162.541 133.688C161.108 134.939 158.635 135.2 156.656 134.287C154.677 133.375 153.531 131.446 153.557 129.127C153.635 124.748 157.411 123.914 160.457 123.262C163.921 122.507 167.827 121.673 170.821 117.033C174.154 111.873 172.306 102.959 170.691 98.5019Z" fill="#C4CED4"/>
<path d="M168.53 99.3098C168.4 98.971 168.243 98.5539 168.061 98.0848C166.603 94.3838 164.181 88.2327 166.577 82.4466C167.046 81.3258 167.54 80.3875 167.931 79.6577C168.816 78.0157 169.207 77.2338 169.181 74.9141C169.051 73.4285 168.764 72.2035 168.374 71.161C168.243 71.578 168.061 71.9689 167.853 72.3599L167.697 72.6205L167.488 72.8812C165.822 75.1487 163.452 76.4519 160.796 76.5562C157.723 76.6865 154.468 75.1227 151.994 72.386C151.812 72.2035 151.604 71.995 151.422 71.7865C149.755 70.0663 147.229 67.4599 142.776 67.4339C138.636 67.4339 135.876 69.0237 132.985 70.7179C129.34 72.8551 124.835 75.5136 118.559 73.2982H118.533C118.533 73.2982 118.481 73.2982 118.455 73.2461H118.429C115.486 72.0732 113.299 69.962 112.309 67.3296C111.632 65.5051 111.19 62.6121 113.013 59.0935L113.169 58.7807L113.377 58.4679C116.163 54.7148 121.111 53.5158 124.887 55.7052L125.147 55.8616L125.356 56.0179C126.788 57.0866 127.777 58.4679 128.298 59.9796C128.975 58.1812 128.663 56.0701 128.22 54.4281C126.085 49.1892 119.575 40.5882 99.9665 40.6925C80.3844 40.5882 73.9005 49.1892 71.7652 54.4281C71.3225 56.0701 71.0361 58.1812 71.6871 59.9796C72.2079 58.4679 73.1974 57.0866 74.6296 55.9919L74.7338 55.9137L75.1244 55.6791C78.9002 53.4898 83.8478 54.6887 86.634 58.4419L86.8424 58.7546L86.9986 59.0674C88.8214 62.5599 88.3787 65.4791 87.7017 67.3035C86.7122 69.962 84.5508 72.0471 81.5823 73.22H81.5302C81.5302 73.22 81.5042 73.2461 81.4521 73.2721H81.4C75.1244 75.4876 70.5934 72.829 66.9738 70.7179C64.0834 69.0237 61.3492 67.4078 57.2088 67.4339C52.756 67.4599 50.2301 70.0663 48.5636 71.7865C48.3813 71.9689 48.173 72.1775 47.9907 72.386C45.5429 75.1227 42.2619 76.6865 39.1892 76.5562C36.5331 76.4519 34.1635 75.1487 32.4969 72.8812L32.2886 72.6205L32.1323 72.3599C31.924 71.9689 31.7417 71.578 31.6115 71.161C31.2209 72.2035 30.9345 73.4285 30.8043 74.9141C30.7522 77.2599 31.1689 78.0157 32.0282 79.6577C32.4188 80.3875 32.9135 81.3258 33.3823 82.4466C35.7779 88.2327 33.3562 94.3838 31.898 98.0848C31.7157 98.5539 31.5595 98.971 31.4293 99.3098C30.0491 103.089 28.2003 111.403 31.0387 115.808C33.5125 119.64 36.6373 120.317 39.9443 121.047C42.965 121.699 48.5636 122.924 48.6677 129.153C48.7198 132.28 47.1053 135.017 44.4232 136.346C47.0793 136.398 50.0478 135.356 53.7195 133.219C53.7195 133.219 56.2454 131.707 56.2454 131.733C62.2346 128.136 65.776 126.103 69.031 126.025C72.312 125.947 75.0723 127.224 76.817 129.648C78.5096 131.994 78.9262 135.173 77.8846 137.962C77.8846 137.962 77.6763 138.562 77.6502 138.562C76.8951 140.595 75.8535 143.358 77.0253 144.921C78.6658 147.137 81.1917 148.153 88.1964 149.535C92.2847 150.317 96.5032 152.793 99.8884 156.259C103.274 152.793 107.492 150.343 111.58 149.535C118.611 148.179 121.111 147.137 122.778 144.921C123.949 143.358 122.908 140.595 122.153 138.562C122.048 138.275 121.97 138.093 121.918 137.936C120.903 135.173 121.319 131.994 123.012 129.648C124.757 127.224 127.517 125.947 130.798 126.025C134.027 126.129 137.594 128.162 143.557 131.733L144.807 132.489C145.328 132.802 145.745 133.036 146.083 133.271V133.219C149.729 135.382 152.697 136.398 155.354 136.346C152.697 135.017 151.057 132.28 151.109 129.153C151.213 122.924 156.812 121.725 159.832 121.047C163.14 120.317 166.264 119.64 168.738 115.808C171.576 111.403 169.728 103.089 168.374 99.3098" fill="#002B5C"/>
<path d="M99.8881 51.3004C93.4042 51.3004 88.092 49.9712 88.0399 48.3291C87.9879 46.6871 93.3 45.3579 99.8881 45.3579C106.476 45.3579 111.788 46.6871 111.736 48.3291C111.684 49.9712 106.372 51.3004 99.8881 51.3004ZM99.784 44.5238C91.5553 44.5238 84.9412 46.4786 85.0193 48.9286C85.0974 51.3525 91.7116 53.3334 99.784 53.3334C107.856 53.3334 114.444 51.3786 114.549 48.9286C114.653 46.5047 108.039 44.5238 99.784 44.5238Z" fill="#E03A3E"/>
<path d="M94.2639 45.8271C94.0817 48.7201 99.7584 49.5281 100.852 47.9904C99.1074 48.0685 98.4043 47.2606 98.6907 46.1138C99.9407 41.1095 116.059 42.2563 116.424 48.8244C116.71 53.6983 108.846 51.0137 102.519 64.5669C107.987 52.8121 119.419 53.4377 119.497 49.3978C119.679 41.292 94.7066 38.9723 94.2379 45.8271" fill="#C4CED4"/>
<path d="M115.33 102.881C114.757 101.369 114.757 99.0752 117.075 99.0752C115.434 96.938 111.971 99.4141 114.575 103.324C115.382 104.549 115.955 106.634 116.111 109.97C116.45 116.929 108.247 116.746 110.33 127.172C110.018 126.807 109.705 126.442 109.367 126.077C107.778 124.435 106.06 123.236 105.487 121.594C103.716 116.408 110.148 116.251 107.153 107.572C103.716 97.6417 93.4044 106.112 88.1703 95.687C83.7435 86.8253 91.9201 76.1392 98.5342 68.9716C97.1541 70.4051 96.0084 71.578 96.1386 71.4477C90.6702 76.8168 80.3323 85.8349 85.2799 97.0162C88.613 104.549 100.227 100.822 101.737 108.953C103.274 117.19 95.8 114.557 92.2846 122.976C91.6597 124.487 90.0973 126.468 89.0036 127.98C87.8318 129.622 86.66 132.697 86.66 135.512C86.66 138.327 86.66 135.747 86.66 135.851C86.0611 135.799 84.2904 135.46 83.8737 133.088C83.8217 132.75 83.7956 132.359 83.7956 131.942C83.7956 131.707 83.8217 131.472 83.8737 131.238C84.6029 127.797 90.0192 125.843 90.592 121.516C91.1649 117.163 85.2278 116.59 83.3529 117.163C83.3529 117.163 86.686 118.232 86.686 121.36C86.686 124.487 83.2227 125.269 82.3374 130.195C81.9468 132.437 82.2072 135.591 86.7642 136.946C87.3631 140.855 90.4098 147.085 99.9404 147.059C110.747 147.032 113.221 139.057 113.221 135.486C113.221 131.916 113.012 132.828 112.648 131.577C109.497 117.085 115.669 121.334 117.908 114.818C117.986 114.609 118.038 114.375 118.116 114.14C119.522 109.032 115.929 104.601 115.304 102.881H115.33Z" fill="#C4CED4"/>
<path d="M99.2114 138.64C96.4772 138.901 94.2118 141.012 92.9618 143.279C94.6544 144.791 96.8158 145.755 99.2114 145.938V138.64Z" fill="#002B5C"/>
<path d="M106.789 127.485C105.096 126.051 102.961 125.113 100.591 124.983V128.996C102.44 128.892 103.612 128.449 104.68 128.058C105.383 127.798 106.06 127.537 106.789 127.459" fill="#002B5C"/>
<path d="M99.2114 132.906V130.482C97.2584 130.404 95.9564 129.961 94.9148 129.596C93.7691 129.179 92.9098 128.892 91.5296 129.205C90.2276 130.951 89.4464 133.114 89.4464 135.46C89.4464 137.806 89.4464 135.695 89.4464 135.799C92.1806 134.001 95.5138 133.01 99.1854 132.906" fill="#002B5C"/>
<path d="M100.591 134.366V137.233C103.56 137.545 106.476 139.657 107.856 142.419C109.106 141.012 109.966 139.266 110.304 137.337C107.856 135.46 104.68 134.496 100.591 134.366Z" fill="#002B5C"/>
<path d="M99.2111 137.18V134.339C95.5655 134.444 92.2845 135.512 89.6544 137.441C89.993 139.239 90.8002 140.855 91.9199 142.211C93.6386 139.318 96.3467 137.415 99.2111 137.18Z" fill="white"/>
<path d="M105.174 129.44C104.081 129.857 102.727 130.352 100.591 130.456V132.906C104.627 133.01 107.882 133.923 110.46 135.643V135.486C110.46 133.036 109.627 130.795 108.221 128.996C107.153 128.788 106.216 129.075 105.174 129.466" fill="white"/>
<path d="M95.4095 128.215C96.399 128.553 97.4927 128.944 99.2113 129.023V124.983C96.8417 125.165 94.6543 126.129 92.9878 127.615C93.8992 127.667 94.6283 127.928 95.4095 128.215Z" fill="white"/>
<path d="M100.591 138.666V145.938C102.935 145.808 105.07 144.895 106.763 143.462C105.825 141.22 103.43 139.005 100.591 138.666Z" fill="white"/>
<path d="M48.9019 82.0035C48.9019 82.0035 48.355 83.4891 48.1988 83.828C48.0425 84.1407 48.0425 84.245 47.2093 83.9583C45.6729 83.3849 44.2147 80.987 44.2147 80.987L46.0375 80.7003C46.0375 80.7003 46.6624 82.3423 47.8863 82.9418L48.9539 80.0227C48.9539 80.0227 50.5163 82.629 51.0111 82.4205C51.7142 82.1078 52.0787 80.2833 52.0267 79.6056L52.7818 79.4753C52.912 80.3615 52.3912 82.3163 51.3757 83.3588C51.1413 83.5934 50.7767 83.828 50.3341 83.5934C49.9174 83.3588 48.8758 82.0296 48.8758 82.0296" fill="white"/>
<path d="M75.3847 78.1982C75.9836 78.3025 76.6346 78.7456 76.4003 79.2668C76.0617 79.9706 74.942 80.3615 73.5098 80.2573C72.2599 80.153 71.9214 79.319 71.9214 79.319C71.9214 79.319 72.6245 79.7099 73.0932 79.7621C73.7702 79.8142 74.4993 79.8924 74.8639 79.5535C75.0462 79.3972 75.0201 79.2408 74.8639 79.1105L72.989 78.7977C72.0516 78.6413 71.5568 77.9897 71.9474 77.4945C72.3901 76.9732 73.2234 76.6865 74.0567 76.7387C75.567 76.8429 75.9315 77.3642 75.9315 77.3642C75.9315 77.3642 73.8483 77.0775 73.4577 77.5466C73.3275 77.703 73.4577 77.8855 73.7442 77.9376L75.3847 78.2243V78.1982Z" fill="white"/>
<path d="M119.471 77.3642C119.392 77.0514 118.143 76.6865 118.143 76.6865H120.851C120.851 76.6865 120.59 77.0253 120.616 77.3642C120.668 77.7291 120.747 78.3285 120.747 78.3285C120.069 78.511 119.601 78.537 118.846 78.537C117.361 78.537 115.877 77.7551 115.877 76.8429C115.877 75.9046 117.153 75.1748 118.637 75.1748C120.122 75.1748 120.694 76.061 120.694 76.061C120.694 76.061 119.861 75.67 118.794 75.644C117.7 75.644 117.179 76.4519 117.179 76.8429C117.179 77.286 117.596 78.1461 118.846 78.1461C119.028 78.1461 119.158 78.094 119.34 78.0418C119.34 78.0418 119.575 77.7291 119.471 77.3381" fill="white"/>
<path d="M142.177 79.2929C142.073 79.8924 141.422 80.3094 140.693 80.2051C139.964 80.1009 139.469 79.5275 139.547 78.928C139.652 78.3285 140.303 77.9115 141.032 78.0158C141.761 78.12 142.256 78.6934 142.177 79.2929ZM141.006 77.5206C139.443 77.3381 138.167 77.9115 138.063 78.6934C137.959 79.5014 139.053 80.3615 140.615 80.57C142.177 80.7785 143.453 80.2051 143.558 79.3972C143.662 78.6152 142.568 77.7291 141.006 77.5206Z" fill="white"/>
<path d="M60.9848 80.4397C61.1671 80.0487 61.3494 79.6317 61.5837 79.3971C61.7921 79.1626 62.2868 79.6578 62.6774 80.2572L60.9848 80.4397ZM63.2763 81.5344L65.3595 81.2737C65.3595 81.2737 63.6409 78.954 62.7555 78.4067C62.0525 77.9376 61.6619 77.7812 61.2452 78.3546C60.438 79.5535 59.6047 81.9253 59.6047 81.9253L60.4901 81.8211C60.4901 81.8211 60.5682 81.4822 60.7244 81.0652L63.0159 80.8046C63.1461 81.0652 63.2503 81.3258 63.2763 81.5083" fill="white"/>
<path d="M86.8943 78.7716L88.4828 78.6674C88.4828 78.6674 87.1026 76.7126 88.4046 75.2009C88.4046 75.2009 87.7016 75.0185 87.1808 75.5397C86.8683 75.8525 86.7641 76.3477 86.712 76.869L85.0455 76.9732C84.9674 76.5562 84.759 76.1913 84.3424 75.9828C83.6914 75.6701 82.9883 76.0089 82.9883 76.0089C82.9883 76.0089 83.8737 76.5562 84.082 77.3903C84.2643 78.2243 83.8216 79.0062 83.8216 79.0062C83.8216 79.0062 84.8372 78.6153 85.0455 77.5727L86.712 77.4685C86.7381 78.1722 86.8943 78.7716 86.8943 78.7716Z" fill="white"/>
<path d="M97.8314 74.9142C97.8314 74.9142 97.1283 74.6796 96.6075 75.1748C95.7222 75.9828 96.1388 78.094 96.1388 78.094H97.7272C97.7272 78.094 96.4773 76.3738 97.8314 74.9142Z" fill="white"/>
<path d="M132.23 76.5562C131.943 76.2695 127.725 76.087 127.725 76.087L127.647 76.8168C127.647 76.8168 128.011 76.4519 128.506 76.478C128.688 76.478 129.105 76.5301 129.548 76.5823C128.61 77.3642 128.949 79.5014 128.949 79.5014L130.537 79.5535C130.537 79.5535 129.522 78.0158 130.537 76.6604C130.902 76.7126 131.214 76.7386 131.319 76.7908C131.813 76.895 132.152 77.3902 132.152 77.3902C132.152 77.3902 132.542 76.8429 132.256 76.5301" fill="white"/>
<path d="M110.044 74.7057C110.044 74.7057 109.471 74.4711 109.054 74.9663C108.794 75.253 108.664 75.8004 108.612 76.3216C107.674 75.4615 106.815 75.0966 106.164 74.9663H106.138C105.409 74.8099 104.966 74.9142 104.966 74.9142C104.966 74.9142 105.747 75.8004 105.878 76.6605C106.008 77.5206 105.565 78.2504 105.565 78.2504C105.565 78.2504 106.737 77.8594 106.789 76.5562C106.789 76.478 106.789 76.3738 106.789 76.2695C108.247 77.0775 108.716 78.1982 108.716 78.1982H109.992C109.992 78.1982 108.976 76.1653 110.07 74.7317" fill="white"/>
<path d="M154.989 79.7359C154.989 79.7359 154.468 79.4232 153.973 79.8141C153.661 80.0748 153.452 80.57 153.322 81.0913C152.541 80.1008 151.76 79.5796 151.135 79.345H151.109C150.432 79.0583 149.937 79.0844 149.937 79.0844C149.937 79.0844 150.562 80.0748 150.562 80.9609C150.562 81.821 149.989 82.4726 149.989 82.4726C149.989 82.4726 151.187 82.2902 151.473 81.0131C151.473 80.9349 151.499 80.8306 151.525 80.7264C152.854 81.7689 153.088 82.9678 153.088 82.9678L154.364 83.1764C154.364 83.1764 153.687 81.0131 155.015 79.762" fill="white"/>
<path fill-rule="evenodd" clip-rule="evenodd" d="M103.586 68.6849C104.549 66.7562 104.575 63.8371 104.393 62.0648C105.331 60.4749 106.867 58.2073 108.716 56.7217C107.362 60.5531 107.674 66.5738 103.586 68.6849ZM97.9352 69.2583C99.4976 66.6259 98.9768 63.6286 98.456 61.9605C99.2892 60.5531 100.643 57.9467 100.982 55.7834C100.982 55.7834 103.247 57.8424 103.482 61.9605C100.774 67.9291 97.9352 69.2583 97.9352 69.2583ZM92.9615 66.9126C95.1489 61.1525 91.8418 56.6174 90.2273 54.8712C93.1698 55.9137 96.3728 58.6765 97.4925 61.7781C95.7999 65.3227 92.9876 66.9387 92.9876 66.9387M111.085 53.7244C110.877 53.8286 110.669 53.9329 110.486 54.0893C110.486 54.0893 110.434 54.0893 110.408 54.0893C106.685 56.1744 104.289 60.6573 104.289 60.6573C104.055 58.0509 101.867 55.0536 101.867 55.0536L99.9402 55.1057C99.5757 58.2334 97.9872 60.6052 97.9872 60.6052C95.8259 56.044 91.972 54.7409 90.8262 54.2456L87.1546 52.9685C87.1546 52.9685 87.1806 52.9685 87.2327 53.0206L86.9202 52.8643C86.9202 52.8643 96.6852 60.0839 90.9044 69.1541C90.9044 69.1541 95.7738 67.4339 97.805 63.2376C97.805 63.2376 99.107 67.3036 95.253 72.2817C95.253 72.2817 101.242 69.0759 103.508 63.9153C103.508 63.9153 103.82 67.5903 101.555 70.4312C111.788 67.6163 105.851 57.0345 113.325 52.6297L111.137 53.6983" fill="white"/>
<path d="M50.6208 88.1285C55.3861 88.1285 55.5424 92.6636 55.5424 92.6636C56.8444 87.9982 59.6827 87.529 60.8806 87.7375C61.8701 87.8939 65.8542 88.6237 67.052 95.5045C66.4792 86.1216 61.5576 85.2354 60.4118 85.053C59.188 84.8445 56.2975 85.3136 54.9695 89.979C54.9695 89.979 54.8132 85.4439 49.9438 85.4179C47.0012 85.4179 45.4649 88.9625 45.3086 89.3274C45.6732 90.4482 46.0378 92.0902 46.0378 92.0902C46.0378 92.0902 47.5481 88.1545 50.5948 88.1545L50.6208 88.1285Z" fill="#C4CED4"/>
<path d="M44.0064 85.8349C44.0064 85.8349 40.2306 88.0503 38.1995 89.6402C38.1995 89.6402 39.189 90.396 39.8921 91.4907C41.8712 89.9008 44.996 88.4152 44.996 88.4152C45.0741 88.5455 44.345 86.3301 44.0064 85.8349Z" fill="#C4CED4"/>
<path d="M52.2873 115.026C52.2873 115.026 52.0529 115.626 51.9748 117.32C51.9748 117.32 54.2142 119.04 56.7922 118.832C56.7922 118.832 57.0526 117.919 57.1047 116.538C54.5527 116.746 52.2873 115.026 52.2873 115.026Z" fill="#E03A3E"/>
<path d="M40.9599 105.435V105.383C40.7515 110.7 41.8713 116.434 47.8344 120.421C47.9386 119.796 48.1469 118.128 48.1469 118.128C42.9129 114.661 41.2724 110.048 40.9859 105.435H40.9599Z" fill="#E03A3E"/>
<path d="M60.7242 117.815C60.568 118.623 60.594 119.275 60.4117 120.109C60.4117 120.109 66.0364 114.792 66.9738 104.966C65.4895 113.332 60.7242 117.815 60.7242 117.815Z" fill="#E03A3E"/>
<path d="M67.0519 95.4784C65.8541 88.5976 61.87 87.8678 60.8805 87.7114C59.6826 87.5029 56.8443 87.9721 55.5423 92.6375C55.5423 92.6375 55.386 88.1024 50.6207 88.1024C45.8554 88.1024 46.0637 92.038 46.0637 92.038C46.0637 92.038 45.6991 90.396 45.3346 89.2753C45.2044 88.8843 45.0742 88.5455 44.97 88.3891C44.97 88.3891 41.8452 89.8747 39.8662 91.4646C39.8662 91.4646 41.9234 93.5497 41.3765 97.6678C41.064 100.092 40.7776 102.75 40.9338 105.409C41.2203 110.022 42.8868 114.609 48.0948 118.102C42.8868 108.145 47.2615 92.9503 49.2927 92.6375C50.9853 92.3769 53.0424 94.1231 52.2612 115C52.2612 115 54.5007 116.72 57.0786 116.512C57.0786 116.512 57.4953 104.835 57.2609 99.9875C57.1307 97.0683 56.5578 92.3247 59.7347 92.1944C62.4429 92.0902 63.9271 102.881 60.6982 117.789C60.6982 117.789 65.4635 113.306 66.9478 104.94C67.2082 103.48 67.3644 101.916 67.3905 100.248C67.3905 98.3976 67.2863 96.8077 67.0519 95.4524V95.4784Z" fill="white"/>
<path d="M160.223 106.764C160.223 106.764 160.223 106.764 160.197 106.764C160.457 111.69 157.124 116.773 152.489 117.137C148.401 117.45 147.073 115.078 146.891 113.593C146.708 115.86 148.167 119.874 152.828 119.431C157.671 118.988 160.978 112.837 160.249 106.764H160.223Z" fill="#E03A3E"/>
<path d="M153.375 87.112C155.874 86.8253 157.359 88.4673 157.255 89.9008C157.255 90.1354 157.202 90.3439 157.124 90.5263C157.749 89.6662 158.661 85.1051 154.26 84.662C152.047 84.4535 149.208 86.5125 148.557 90.7609C149.469 88.2588 151.604 87.3205 153.349 87.112H153.375Z" fill="#C4CED4"/>
<path d="M160.171 106.764C159.859 100.952 156.187 97.0944 153.635 93.68C151.812 91.2301 152.776 89.6402 153.401 89.2753C154.13 88.8322 155.38 88.9625 155.588 89.9008C155.718 90.4481 155.588 91.621 154.677 91.7774C154.677 91.7774 156.578 92.0902 157.098 90.5263C157.15 90.3439 157.202 90.1354 157.229 89.9008C157.333 88.4673 155.822 86.8253 153.349 87.112C151.63 87.3205 149.495 88.2588 148.557 90.7609C148.219 91.6471 148.062 92.7418 148.115 94.071C148.245 97.6939 151.656 100.978 153.218 102.959C154.677 104.809 156.291 108.771 154.859 111.899C153.687 114.453 152.177 114.661 151.265 114.74C150.354 114.792 148.844 113.853 149.182 112.681C149.521 111.508 151.031 111.221 151.265 111.482C151.265 111.482 150.302 110.569 149.364 110.595C147.984 110.595 146.969 111.69 146.865 113.019C146.865 113.176 146.865 113.358 146.865 113.567C147.047 115.052 148.375 117.424 152.463 117.111C157.072 116.746 160.431 111.664 160.171 106.738V106.764Z" fill="white"/>
<path d="M112.492 78.6673C112.492 78.6673 109.159 81.2998 105.93 82.1077C105.93 82.1077 105.825 83.0721 105.799 84.4274C108.95 83.6194 112.049 81.404 112.049 81.404C112.153 80.2312 112.492 78.6673 112.492 78.6673Z" fill="#C4CED4"/>
<path d="M105.747 86.7471C105.773 85.3136 105.799 84.4274 105.799 84.4274C103.195 84.0365 101.737 84.0886 101.737 84.0886C100.591 87.138 100.826 90.9433 100.826 90.9433C100.826 90.9433 100.956 89.0668 101.711 86.721C101.711 86.721 103.195 86.3822 105.773 86.7471H105.747Z" fill="#C4CED4"/>
<path d="M111.606 85.1311C111.554 85.913 111.476 86.7731 111.424 87.6854C113.794 87.6333 115.382 86.7731 116.007 86.3822L116.346 83.7758C115.747 84.1668 113.95 85.0529 111.606 85.1311Z" fill="#C4CED4"/>
<path d="M110.304 112.446C106.216 112.576 105.617 108.406 105.409 106.138C105.409 106.086 105.409 106.034 105.409 105.982C105.409 107.181 105.409 108.067 105.409 108.458C105.617 110.752 106.216 114.974 110.304 114.766C114.393 114.557 114.262 109.214 114.21 107.885C114.288 109.214 113.351 112.368 110.304 112.446Z" fill="#E03A3E"/>
<path d="M111.606 85.1311C111.737 83.4631 111.893 82.1599 112.049 81.404C112.049 81.404 108.976 83.6194 105.799 84.4274C105.799 84.4274 105.799 85.3136 105.747 86.7471C103.169 86.3561 101.685 86.721 101.685 86.721C100.956 89.0668 100.8 90.9433 100.8 90.9433C100.8 90.9433 102.623 89.8226 105.695 89.8487C105.617 95.8694 105.253 104.158 105.357 105.982C105.357 106.034 105.357 106.086 105.357 106.138C105.565 108.432 106.164 112.602 110.252 112.446C113.273 112.342 114.21 109.214 114.158 107.885C114.158 107.885 113.82 109.501 112.544 109.37C111.268 109.24 110.799 108.823 110.591 105.878C110.461 103.975 110.903 96.4949 111.268 89.7705C114.861 88.9104 115.981 86.3822 115.981 86.3822C115.356 86.7731 113.794 87.6333 111.398 87.6854C111.45 86.7731 111.502 85.913 111.58 85.1311H111.606Z" fill="white"/>
<path d="M126.215 85.8349C126.371 85.0008 126.528 84.1146 126.736 83.2285C126.736 83.2285 121.32 84.9487 119.965 85.496C119.965 85.496 119.913 86.4604 119.861 87.9721C119.861 88.0503 119.861 88.1545 119.887 88.2327C119.887 88.0763 119.887 87.9981 119.887 87.9981C122.856 86.4604 125.955 85.887 126.189 85.8609L126.215 85.8349Z" fill="#C4CED4"/>
<path d="M128.481 109.084C128.559 110.439 127.595 113.567 124.575 113.671C120.46 113.801 119.679 109.006 119.471 106.712C119.471 106.556 119.471 106.399 119.445 106.191C119.445 107.442 119.445 108.458 119.523 109.032C119.731 111.325 120.512 116.147 124.627 115.991C128.715 115.86 128.585 110.439 128.507 109.084H128.481Z" fill="#E03A3E"/>
<path d="M128.481 109.084C128.481 109.084 128.142 110.7 126.866 110.569C125.59 110.439 124.991 109.266 124.575 106.894C124.08 103.949 123.767 97.9806 126.241 85.8349C125.981 85.887 122.908 86.4343 119.939 87.9721C119.939 87.9721 119.939 88.0503 119.939 88.2067C119.861 90.0832 119.314 102.49 119.471 106.165C119.471 106.347 119.471 106.529 119.497 106.686C119.705 108.979 120.486 113.775 124.601 113.645C127.621 113.541 128.585 110.413 128.507 109.058L128.481 109.084Z" fill="white"/>
<path d="M123.012 80.9609C123.976 80.9609 124.757 81.7168 124.809 82.6811C125.304 82.0556 125.382 81.2476 125.382 80.6221C125.382 79.6317 124.522 78.8498 123.507 78.8498C121.189 78.7976 120.955 81.8992 121.189 82.212C121.189 82.2381 121.241 82.2641 121.267 82.3162C121.476 81.5343 122.179 80.9609 123.012 80.9609Z" fill="#C4CED4"/>
<path d="M124.783 82.6811C124.757 81.7168 123.95 80.9609 122.986 80.9609C122.153 80.9609 121.45 81.5343 121.241 82.3162C121.215 82.4726 121.189 82.603 121.189 82.7593C121.189 83.7498 121.997 84.5577 122.986 84.5577C123.976 84.5577 124.783 83.7498 124.783 82.7593C124.783 81.7689 124.783 82.7072 124.783 82.6811Z" fill="white"/>
<path d="M142.724 112.003C141.266 114.479 138.766 114.661 136.761 113.906C135.147 113.306 133.897 112.029 133.22 111.065C132.465 109.996 131.501 107.546 131.215 103.923C131.215 108.823 132.386 112.081 133.298 113.384C133.975 114.349 135.225 115.626 136.839 116.225C138.844 116.981 141.396 116.799 142.802 114.323C143.61 112.889 143.61 110.543 143.271 109.579C143.375 110.283 143.271 111.091 142.698 112.003H142.724Z" fill="#E03A3E"/>
<path d="M140.407 85.053C142.646 84.7923 145.302 86.5647 144.808 89.9529C144.781 90.1354 144.755 90.3178 144.703 90.5003C145.354 89.1971 146.839 83.828 141.735 82.7072C139.209 82.1599 133.975 84.3753 132.308 92.9242C132.256 93.263 132.204 93.5758 132.126 93.8886C133.975 87.0338 138.271 85.3136 140.381 85.079L140.407 85.053Z" fill="#C4CED4"/>
<path d="M140.407 85.053C138.298 85.2875 134.001 86.9817 132.152 93.8625C132.022 94.3838 131.892 94.9572 131.761 95.5306C131.137 98.7625 131.058 101.577 131.241 103.923C131.527 107.546 132.491 109.996 133.246 111.065C133.923 112.055 135.173 113.306 136.787 113.906C138.818 114.661 141.292 114.453 142.75 112.003C143.297 111.091 143.427 110.283 143.323 109.579C143.063 107.754 141.266 106.712 141.266 106.712C142.594 108.693 141.761 110.7 139.391 110.934C136.605 111.221 135.641 104.549 135.902 97.355C136.162 90.1614 138.714 87.9981 139.756 87.7636C140.771 87.529 142.099 88.1024 142.125 89.2492C142.125 90.2136 141.943 90.8391 141.344 91.2301C140.771 91.621 139.626 91.2301 139.626 91.2301C139.626 92.3769 140.511 93.1327 141.266 93.3673C141.969 93.5758 144.078 93.3673 144.729 90.5003C144.755 90.3439 144.808 90.1614 144.834 89.9529C145.328 86.5647 142.672 84.8184 140.433 85.053L140.407 85.053Z" fill="white"/>
<path d="M94.6542 83.437C96.6072 83.2806 97.8571 84.4795 98.0654 85.7045C98.3258 83.6455 97.128 81.0131 94.5761 81.0913C92.3887 81.1694 89.4722 82.4466 89.4983 87.3987C89.4983 87.9721 89.5764 88.5194 89.7326 89.0928C90.0451 84.8966 92.6752 83.5934 94.6542 83.437Z" fill="#C4CED4"/>
<path d="M92.9095 112.654C89.0556 112.811 87.988 110.257 87.9359 108.823C87.6494 111.325 88.7692 115.157 92.9095 114.974C97.102 114.792 100.253 109.501 100.149 104.158C99.706 108.484 96.7374 112.498 92.9095 112.654Z" fill="#E03A3E"/>
<path d="M94.7063 89.8747C93.1178 87.4247 94.0553 85.913 94.6282 85.5742C95.3052 85.1833 96.4249 85.3657 96.6072 86.2519C96.7114 86.7992 96.5551 87.9199 95.7479 88.0503C95.7479 88.0503 97.8832 88.5194 98.1175 86.304C98.1175 86.1216 98.1175 85.913 98.1175 85.7306C97.9092 84.5056 96.6593 83.2806 94.7063 83.463C92.7272 83.6194 90.0972 84.9226 89.7847 89.1189C89.7847 89.4056 89.7587 89.7183 89.7587 90.0572C89.7587 93.5758 92.7533 96.9119 94.1074 98.8928C95.3573 100.743 96.7114 104.653 95.3312 107.676C94.2115 110.126 92.8054 110.257 91.9721 110.283C91.1388 110.309 89.8108 109.344 90.1493 108.224C90.4878 107.103 91.8679 106.868 92.0762 107.129C92.0762 107.129 91.2169 106.217 90.3836 106.191C89.1337 106.165 88.1963 107.155 88.04 108.458C88.04 108.562 88.04 108.693 88.04 108.823C88.0921 110.257 89.1598 112.837 93.0137 112.654C96.8416 112.472 99.8101 108.484 100.253 104.158C100.305 103.741 100.305 103.298 100.305 102.854C100.201 97.1986 96.9978 93.2891 94.8104 89.8747H94.7063Z" fill="white"/>
<path d="M79.1863 113.879C76.4521 115.86 71.6347 115.86 70.6713 113.202C70.3848 112.394 70.3067 111.716 70.3588 111.143C68.8745 118.18 76.3219 118.102 79.1082 116.199C82.3632 114.01 85.6182 107.65 85.6963 96.8859C85.2016 106.243 82.1549 111.768 79.1863 113.879Z" fill="#E03A3E"/>
<path d="M84.6547 81.2216C82.233 81.9514 79.603 84.271 79.603 84.271C79.603 84.271 79.7853 85.2615 79.9936 86.8253C79.9936 86.8253 82.5715 84.5577 84.9412 83.828C84.9412 83.828 84.8631 83.0721 84.6808 81.2216H84.6547Z" fill="#C4CED4"/>
<path d="M71.2702 87.3987C73.5357 85.7567 75.8793 85.2615 75.8793 85.2615C75.9313 84.4014 75.9834 83.4631 76.0615 82.4726C76.0615 82.4726 73.093 83.0982 70.7754 84.7663C70.7754 84.7663 70.2025 90.1875 71.2181 95.4263V95.3742C70.9317 91.1519 71.2702 87.3987 71.2702 87.3987Z" fill="#C4CED4"/>
<path d="M84.9151 83.854C82.5455 84.5838 79.9675 86.8513 79.9675 86.8513C79.9675 86.8513 81.6081 95.6088 79.9155 102.203C79.9155 102.203 74.3429 106.295 75.8793 85.3918C75.8793 85.3397 75.8793 85.3136 75.8793 85.2615C75.8793 85.2615 73.5357 85.7567 71.2702 87.3987C71.2702 87.3987 70.9317 91.1519 71.2702 95.3742C71.7129 101.03 73.3794 107.52 78.7176 106.894C78.7176 106.894 77.5458 112.759 74.4471 112.915C72.9367 112.993 72.6243 111.299 72.7805 110.543C72.9367 109.787 73.5357 109.214 73.9002 109.11C73.9002 109.11 73.2753 108.771 72.5461 108.875C71.5045 109.032 70.5411 109.761 70.3848 111.091C70.3067 111.664 70.3848 112.342 70.6973 113.15C71.6608 115.808 76.4782 115.808 79.2124 113.827C82.1809 111.69 85.2276 106.165 85.7224 96.8338C85.9307 93.1066 85.7224 88.7801 84.9412 83.8019L84.9151 83.854Z" fill="white"/>
</svg>
