<svg width="59" height="67" fill="none" xmlns="http://www.w3.org/2000/svg"><g clip-path="url(#clip0_1321_17853)"><mask id="a" style="mask-type:luminance" maskUnits="userSpaceOnUse" x="-3" y="-34" width="65" height="101"><path d="M29.5 67A53.88 53.88 0 01-2.16 56.752v-79.629A53.884 53.884 0 0129.5-33.126c.001 0 0 0 0 0a53.88 53.88 0 0131.66 10.25v79.628A53.882 53.882 0 0129.5 67z" fill="#fff"/></mask><g mask="url(#a)"><path d="M34.058 30.038c.201-.836.746-1.532 1.527-2.057.233.642.633 1.744 1.029 2.823-1.205.018-2.158.034-2.639.043a3.04 3.04 0 01.083-.81zm8.085 1.87l-.39 2.363c-1.795.184-2.72-.108-3.43-1.87a59.081 59.081 0 01-.232-.584c2.42.052 4.052.09 4.052.09zM27.864 34.43c1.3 0 2.532.287 3.64.797l.049.021a2.179 2.179 0 002.864-2.8 3.795 3.795 0 01-.29-.713c1.004.019 1.965.039 2.85.057l.153.41c.741 1.993 1.276 3.528 5.445 3.229a.229.229 0 00.208-.19c.235-1.43.462-2.862.68-4.294a.19.19 0 00-.189-.22c-1.86.011-3.88.037-5.587.06-.452-1.157-.954-2.458-1.273-3.259 1.166-.515 2.656-.737 4.264-.595a8.302 8.302 0 10-13.827 7.557 8.92 8.92 0 011.014-.06z" fill="#fff"/></g><mask id="b" style="mask-type:luminance" maskUnits="userSpaceOnUse" x="-3" y="-34" width="65" height="101"><path d="M29.5 67A53.88 53.88 0 01-2.16 56.752v-79.629A53.884 53.884 0 0129.5-33.126c.001 0 0 0 0 0a53.88 53.88 0 0131.66 10.25v79.628A53.882 53.882 0 0129.5 67z" fill="#fff"/></mask><g mask="url(#b)"><path d="M58.265 53.776l-.042-.095c.079-.757.556-7.577-7.319-10.557.673-5.01-13.362-5.142-18.413-4.936a70.82 70.82 0 00-5.46.423l.005.013c-7.134.851-12.977 2.912-12.587 7.018-2.462.404-4.51 1.578-4.51 1.578.199-4.1 1.941-7.493 3.1-9.322a9.506 9.506 0 003.93-6.555 9.54 9.54 0 00-1.03-.91c-.29-1.943-5.25-3.164-6.921-1.876a9.482 9.482 0 00-8.24 8.222 9.518 9.518 0 005.528 2.775c-1.731 3.957-2.3 8.73-3.865 13.981 7.273 2.81 12.57-.988 18.733-1.477 1.881 4.236 5.462 20.28 5.462 20.28l19.901-7.14c-2.055-10.479.038-6.562 1.039-11.842 2.928 1.407 6.24 2.102 10.689.42z" fill="#fff"/></g><mask id="c" style="mask-type:luminance" maskUnits="userSpaceOnUse" x="-3" y="-34" width="65" height="101"><path d="M29.5 67A53.88 53.88 0 01-2.16 56.752v-79.629A53.884 53.884 0 0129.5-33.126c.001 0 0 0 0 0a53.88 53.88 0 0131.66 10.25v79.628A53.882 53.882 0 0129.5 67z" fill="#fff"/></mask><g mask="url(#c)"><path d="M27.032 38.611c1.148 3.545 4.198 4.963 4.198 4.963a12.7 12.7 0 015.939-5.438 76.268 76.268 0 00-4.678.052 70.82 70.82 0 00-5.46.423z" fill="#C9D0DC"/></g><mask id="d" style="mask-type:luminance" maskUnits="userSpaceOnUse" x="-3" y="-34" width="65" height="101"><path d="M29.5 67A53.88 53.88 0 01-2.16 56.752v-79.629A53.884 53.884 0 0129.5-33.126c.001 0 0 0 0 0a53.88 53.88 0 0131.66 10.25v79.628A53.882 53.882 0 0129.5 67z" fill="#fff"/></mask><g mask="url(#d)"><path d="M35.067 42.204c1.205.61 2.765 1.91 2.339 3.354-.426 1.443-2.695.894-2.971 2.259 8.684-.496 12.698 10.167 23.83 5.959-2.353-5.577-8.813-6.722-8.813-6.722-1.063.627-2.068.741-3.036.538-3.938-.826-7.258-6.925-11.349-5.388z" fill="#C9D0DC"/></g><mask id="e" style="mask-type:luminance" maskUnits="userSpaceOnUse" x="-3" y="-34" width="65" height="101"><path d="M29.5 67A53.88 53.88 0 01-2.16 56.752v-79.629A53.884 53.884 0 0129.5-33.126c.001 0 0 0 0 0a53.88 53.88 0 0131.66 10.25v79.628A53.882 53.882 0 0129.5 67z" fill="#fff"/></mask><g mask="url(#e)"><path d="M2.402 53.539c7.288 2.815 12.596-.99 18.772-1.48 1.886 4.244 4.113 15.003 5.276 20.279h12.13c-1.208-6.081-3.986-10.547-5.807-14.434 0 0-1.674-.032-3.334-.395-4.034-8.609-9.3-12.028-13.134-11.532 1.161.5 2.204 1.515 3.14 2.892-5.04 2.681-11.411 2.711-11.411 2.711.268-2.585 1.883-4.37 1.883-4.37.199-4.11 1.945-7.51 3.106-9.343a9.526 9.526 0 003.938-6.558 17.354 17.354 0 01-7.476 4.866 17.356 17.356 0 01-8.748.568v.003a9.541 9.541 0 005.539 2.781C4.54 43.493 3.97 48.276 2.402 53.54z" fill="#C9D0DC"/></g><mask id="f" style="mask-type:luminance" maskUnits="userSpaceOnUse" x="-3" y="-34" width="65" height="101"><path d="M29.5 67A53.88 53.88 0 01-2.16 56.752v-79.629A53.884 53.884 0 0129.5-33.126c.001 0 0 0 0 0a53.88 53.88 0 0131.66 10.25v79.628A53.882 53.882 0 0129.5 67z" fill="#fff"/></mask><g mask="url(#f)"><path d="M32.996 31.707a2.1 2.1 0 01-.428.556c-.194.18-.427.301-.683.369a1.94 1.94 0 01-.571.059 1.03 1.03 0 00.53-.255c.517-.478.66-1.327-.199-2.033-1.03-.846-2.48-.653-2.821-.321-.195.189-.029.784.39 1.39a8.288 8.288 0 01-.517-.373 8.304 8.304 0 01-3.182-7.16 8.3 8.3 0 001.336 10.552 8.701 8.701 0 014.712.76 2.184 2.184 0 002.87-2.807 3.935 3.935 0 01-.29-.714l-1.147-.023z" fill="#C9D0DC"/></g></g><defs><clipPath id="clip0_1321_17853"><path fill="#fff" d="M0 0h59v67H0z"/></clipPath></defs></svg>