<svg width="500" height="500" viewBox="0 0 500 500" fill="none" xmlns="http://www.w3.org/2000/svg">
<path d="M474.623 212.093C469.256 202.343 463.34 195.643 455.406 190.06C448.156 174.527 430.923 157.643 415.29 146.927C416.173 141.393 415.973 136.56 415.39 130.71L415.04 127.16L412.573 124.593C374.99 85.4933 329.423 68.5766 264.823 69.7266C139.173 72.01 74.3229 132.727 31.8729 185.393L23.6562 195.593L35.5229 201.093C35.9729 201.293 43.5229 204.793 52.0396 208.21C42.0562 237.343 51.2563 283.993 82.0396 309.21C109.156 331.41 128.59 338.827 151.056 347.443L153.79 348.477C173.456 356.043 190.006 369.093 206.023 381.727L212.49 386.827C219.506 392.577 224.973 397.593 230.79 402.943L241.323 412.493C256.206 424.493 268.373 430.727 291.256 430.31C318.59 429.793 343.04 417.177 358.29 395.693C366.973 384.027 371.123 373.127 374.29 363.093C379.79 345.76 375.206 329.26 370.19 321.943L372.69 321.743L373.14 321.71L373.59 321.643C395.24 318.06 413.29 308.61 427.29 293.527C437.173 282.827 441.073 275.193 444.09 268.56C454.69 261.827 463.206 251.143 466.94 243.36C470.123 236.727 474.19 227.077 475.69 218.81L476.34 215.26L474.623 212.093Z" fill="white"/>
<path d="M405.223 131.71C369.073 94.0933 325.473 78.91 265.023 79.9933C152.573 82.06 88.3398 131.743 39.8398 191.877C39.8398 191.877 54.5732 198.677 65.8732 202.543C64.8065 204.327 63.8898 206.093 63.1398 207.81C52.6065 231.643 59.5065 277.51 88.5898 301.31C115.473 323.293 133.707 329.827 157.507 338.96C181.34 348.127 199.99 364.06 218.823 378.777C230.307 388.21 237.39 395.293 248.173 404.843C261.473 415.543 271.223 420.443 291.123 420.093C318.24 419.61 338.39 406.177 350.023 389.76C357.206 380.077 361.14 371.06 364.623 360.01C370.023 343.043 362.973 328.177 361.44 327.01C353.406 337.643 342.04 344.993 330.14 349.693C328.223 347.643 326.073 343.393 325.073 340.11C324.04 336.827 321.757 328.477 324.323 323.077C339.407 317.977 351.89 312.127 356.573 309.777C361.257 307.427 365.54 303.76 368.407 302.977L366.756 312.043L372.023 311.66C396.99 307.527 411.49 295.727 419.873 286.66C430.073 275.643 433.007 268.677 436.123 261.56C446.49 256.06 454.79 245.343 457.773 239.027C460.79 232.727 464.44 224.01 465.707 217.043C460.89 208.26 455.69 202.127 447.373 196.86C441.223 180.86 419.423 160.943 403.74 151.677C406.206 144.027 405.94 139.243 405.223 131.71Z" fill="black"/>
<path d="M390.006 137.593C351.056 101.243 314.29 94.0926 265.273 94.9759C185.623 96.4092 155.923 123.743 122.106 148.543C150.973 139.209 184.323 136.909 197.856 136.576C215.406 136.126 225.59 136.743 236.34 138.076C236.54 138.143 236.406 138.109 236.34 138.076C221.973 145.943 201.723 155.009 187.973 164.109C161.54 179.943 136.573 197.859 114.206 218.359C114.206 218.359 93.4398 212.793 80.0065 209.543C76.7898 218.393 74.2565 235.743 76.8898 248.126C101.24 237.109 144.923 227.393 181.006 226.309C226.356 226.409 255.706 230.759 296.573 240.976C309.94 250.009 324.04 259.859 339.84 264.509C351.906 269.326 365.873 264.893 377.19 261.426C385.54 258.993 393.506 254.759 400.006 249.559C381.673 231.576 356.44 222.776 330.706 218.843C330.09 218.093 327.84 218.459 328.856 217.059C335.323 216.509 339.623 215.959 349.59 216.443C359.573 216.926 378.69 217.976 395.106 220.443C411.523 222.876 417.14 228.693 423.873 219.893C427.356 214.009 431.973 207.543 433.623 203.209C429.24 194.143 422.956 185.193 413.823 178.443C413.823 178.443 413.04 189.209 410.506 192.743L409.79 192.443C406.773 183.243 402.306 171.793 394.406 164.609C393.173 169.609 391.473 174.393 388.556 178.626C388.073 178.859 387.84 178.426 387.456 178.209C388.14 169.359 384.99 161.309 381.706 153.726C386.623 150.943 390.373 143.509 390.006 137.593Z" fill="#D2AA41"/>
<path d="M451.222 218.111L451.256 219.177C447.389 230.461 440.172 242.261 428.572 249.377C424.872 248.761 419.539 249.611 420.122 246.394C430.239 235.211 438.389 223.511 443.072 210.244C446.539 212.061 449.472 214.927 451.222 218.111Z" fill="#D2AA41"/>
<path d="M326.173 271.693C331.823 274.093 340.023 278.426 347.656 278.293C368.173 278.426 386.023 271.21 402.889 263.76L411.439 258.76L420.939 261.693C415.606 277.626 398.573 295.143 382.223 298.11C389.173 290.96 394.406 284.36 397.006 275.226C397.423 273.793 397.523 270.443 396.773 269.893C396.023 271.326 392.056 280.01 388.023 282.276C387.473 281.076 388.506 274.893 387.106 273.893C386.806 275.46 381.323 284.226 378.456 285.66C377.539 284.126 377.773 277.86 376.373 277.21C375.889 278.776 372.023 284.81 368.806 286.61C368.423 285.96 368.256 278.81 367.439 278.81C359.539 292.86 343.639 305.276 326.773 307.876C332.039 300.66 337.273 292.793 338.189 283.593C312.839 269.61 283.773 262.826 267.223 261.91C270.239 260.31 274.573 257.493 280.656 255.793C283.389 254.876 290.406 253.26 290.406 253.26L296.289 257.026C305.289 262.393 320.539 269.31 326.173 271.693Z" fill="white"/>
<path d="M210.574 243.477C161.624 242.477 112.991 251.11 84.6406 267.46C128.491 251.76 171.574 248.927 208.991 250.66C218.324 251.11 230.641 252.543 239.057 253.593C243.024 251.093 246.857 248.843 250.407 246.893C237.457 245.093 221.457 243.693 210.574 243.477Z" fill="white"/>
<path d="M95.5586 285.56C125.342 276.977 178.159 272.627 209.825 275.41C212.425 272.977 216.092 270.41 218.825 268.194C194.542 266.06 135.142 267.327 95.5586 285.56Z" fill="white"/>
<path d="M253.807 286.411C253.807 286.411 256.541 296.328 259.857 303.094C263.174 309.894 265.774 317.628 273.157 321.694C274.157 322.544 275.341 322.961 276.541 323.261C276.807 322.344 274.891 320.661 273.907 318.328C268.124 306.844 267.791 298.461 267.274 289.528C273.874 290.594 282.657 293.911 286.974 296.511C285.641 304.928 285.574 312.894 288.507 321.578C290.074 326.194 292.674 330.644 294.491 333.678C290.107 337.744 285.324 342.461 279.857 345.811C260.124 337.128 244.941 319.844 238.374 301.861C232.191 299.644 222.024 299.578 217.641 299.678C221.224 294.311 232.557 285.761 236.591 283.778C236.591 283.778 235.874 283.644 239.457 283.944C243.141 284.328 253.807 286.411 253.807 286.411Z" fill="#00839C"/>
<path d="M134.789 185.793C133.223 187.709 115.539 201.659 112.289 204.809L62.2227 190.793C102.023 180.893 134.789 185.793 134.789 185.793Z" fill="white"/>
<path d="M391.64 200.943V201.493C383.94 201.426 372.356 202.493 367.456 203.676C362.573 204.876 356.723 206.576 352.34 209.459C352.34 209.459 348.89 208.643 346.656 208.193C343.756 207.609 336.456 206.659 334.406 206.893C346.373 199.026 365.606 196.559 378.256 198.076C382.14 198.509 387.54 199.059 391.64 200.943Z" fill="black"/>
<path d="M336.822 237.026L352.172 243.726C351.389 245.576 348.306 247.559 346.156 249.026L343.656 249.843C311.406 237.093 277.889 227.026 242.039 222.343C218.822 219.443 197.439 219.059 173.122 219.909C164.872 220.109 148.156 222.026 139.806 223.459L139.539 222.326C162.656 216.826 185.306 215.143 208.522 214.326C253.572 215.51 296.839 222.893 336.822 237.026Z" fill="black"/>
<path d="M308.224 166.16C316.708 171.877 324.508 178.777 333.491 184.077C342.341 186.027 352.308 186.027 359.991 190.027C356.641 190.677 340.291 189.177 324.974 196.693C318.674 199.777 307.324 205.627 303.491 211.977C284.824 192.66 257.724 185.16 230.508 187.077V186.527C253.191 180.093 278.124 178.727 303.291 177.777C301.274 175.077 298.024 173.36 295.258 171.627C283.158 170.127 270.424 169.877 258.458 170.743C261.324 167.593 264.274 167.26 269.608 166.393C277.041 165.227 296.841 163.76 308.224 166.16Z" fill="black"/>
<path d="M316.223 188.893C316.706 193.743 312.256 197.509 308.773 198.509C305.29 199.459 299.473 198.576 297.24 196.976C295.056 195.376 293.54 193.726 292.59 191.776C299.507 191.909 303.973 196.943 309.273 193.076C310.84 191.676 311.09 189.759 311.907 188.109L316.223 188.893Z" fill="white"/>
<path d="M244.373 101.41C246.357 101.677 248.173 103.26 249.157 105.277C250.257 114.027 243.173 121.243 237.807 124.127C232.407 126.96 217.973 129.193 213.523 124.843C209.857 121.21 212.423 115.777 217.423 114.727C220.123 114.143 225.123 114.01 229.223 112.127C232.607 110.593 236.273 105.593 236.89 104.227C237.457 102.843 241.707 101.077 244.373 101.41Z" fill="black"/>
<path d="M302.625 110.927C303.542 113.977 302.042 114.993 300.475 115.993C293.258 118.077 293.492 112.643 281.192 113.01C268.875 113.36 264.708 123.243 259.958 114.76C256.742 109.043 268.642 103.443 273.258 102.077C281.308 99.71 299.508 100.727 302.625 110.927Z" fill="black"/>
<path d="M325.091 108.76C325.474 110.61 324.991 112.21 324.308 114.743C323.624 117.276 321.708 120.243 318.458 121.376C317.058 121.86 311.958 121.343 311.108 118.743C309.091 112.693 314.458 110.226 313.024 105.51C316.808 105.96 321.741 107.36 325.091 108.76Z" fill="black"/>
<path d="M175.523 121.627C173.34 124.877 169.773 134.044 160.79 136.094C159.106 136.51 157.856 135.96 157.09 135.544C156.323 135.127 156.273 129.894 158.39 128.977C162.156 126.794 171.323 123.227 175.523 121.627Z" fill="black"/>
<path d="M371.123 131.894C372.356 135.761 373.456 137.577 372.839 141.911C371.923 144.194 370.339 145.494 367.739 145.677C365.173 145.844 361.956 144.377 361.073 141.477C360.689 134.744 358.273 126.094 354.473 121.061C355.323 121.194 359.289 123.561 360.739 124.411C362.189 125.277 367.973 129.011 371.123 131.894Z" fill="black"/>
<path d="M299.675 130.076C299.742 132.943 292.525 136.943 284.892 136.743C281.125 136.643 272.442 134.176 272.758 129.326C273.058 124.476 282.158 122.343 286.025 122.526C292.258 122.726 299.608 126.076 299.675 130.076Z" fill="black"/>
<path d="M221.356 186.059C221.056 188.892 213.389 192.009 205.856 190.842C202.123 190.259 193.823 186.742 194.706 181.942C195.623 177.192 204.939 176.192 208.723 176.842C214.923 177.892 221.789 182.092 221.356 186.059Z" fill="black"/>
<path d="M258.705 204.777C258.439 207.611 250.805 210.794 243.239 209.711C239.505 209.161 231.139 205.711 232.022 200.927C232.905 196.144 242.172 195.111 246.005 195.694C252.205 196.627 259.105 200.794 258.705 204.777Z" fill="black"/>
<path d="M351.841 137.193C350.241 139.559 342.025 138.659 335.941 134.043C332.925 131.793 327.258 124.743 330.325 120.943C333.408 117.176 342.058 120.743 345.108 123.093C350.058 126.893 354.091 133.876 351.841 137.193Z" fill="black"/>
<path d="M258.19 121.344C260.79 122.544 262.09 129.961 258.157 136.561C256.24 139.777 250.19 147.777 245.973 145.377C241.04 142.577 244.373 132.627 246.423 129.344C249.223 124.744 254.557 119.711 258.19 121.344Z" fill="black"/>
<path d="M328.957 140.028C334.091 143.544 341.607 142.211 342.974 147.544C344.374 152.878 340.507 154.961 337.324 154.894C326.374 154.594 316.557 149.928 312.191 138.311C311.541 136.594 311.341 131.811 313.874 130.744C321.907 127.411 323.274 136.128 328.957 140.028Z" fill="black"/>
<path d="M292.422 145.592C295.938 145.426 299.472 144.326 302.005 146.992C303.272 147.476 303.305 148.942 303.205 150.176C299.138 156.776 289.005 157.259 280.905 156.576C276.088 155.309 270.372 153.976 267.872 149.326C267.488 147.376 268.722 145.909 270.055 144.509C273.888 142.076 278.572 145.059 282.838 146.042C287.155 147.076 292.422 145.592 292.422 145.592Z" fill="black"/>
<path d="M254.708 152.644C261.241 151.144 263.491 154.694 264.141 155.827C264.791 156.961 265.208 160.411 261.958 162.744C254.191 168.244 240.825 164.211 237.941 163.394C235.075 162.544 227.675 157.477 226.725 151.561C226.241 148.694 226.958 145.877 230.491 144.794C235.525 143.261 239.591 149.677 240.991 150.811C243.208 152.677 248.175 154.177 254.708 152.644Z" fill="black"/>
<path d="M377.889 159.76C378.639 161.127 378.572 163.31 377.656 164.96C376.739 166.61 374.606 167.393 372.522 167.243C370.956 167.177 368.756 166.793 367.056 167.043C364.622 167.393 361.339 168.443 358.306 171.077C355.222 173.743 350.506 177.81 346.472 171.427C345.589 169.777 346.439 166.643 347.256 164.86C351.706 159.327 361.006 155.893 365.139 155.727C369.206 155.56 375.156 155.343 377.889 159.76Z" fill="black"/>
<path d="M332.206 160.51C335.723 162.527 340.99 167.627 339.19 170.66C337.54 173.427 328.823 172.094 325.34 170.277C321.856 168.46 315.656 162.677 318.54 159.16C320.806 156.377 329.873 159.144 332.206 160.51Z" fill="black"/>
<path d="M235.138 172.343C235.105 174.943 232.739 177.61 230.355 178.026C225.605 178.16 223.955 174.326 220.638 172.493C214.005 168.593 207.572 169.826 201.755 171.326C200.522 171.626 197.138 170.876 196.688 169.11C195.905 167.743 195.622 164.11 198.538 162.026C206.022 156.66 218.005 157.926 224.905 160.826C231.788 163.726 235.138 169.743 235.138 172.343Z" fill="black"/>
<path d="M223.057 202.993C224.124 201.143 223.124 196.81 220.907 195.81C216.224 194.477 212.457 197.86 208.491 198.743C198.291 200.393 196.207 197.177 190.674 194.577C188.724 194.16 185.407 194.477 183.524 196.077C181.674 197.677 180.857 200.11 183.291 202.943C189.007 209.677 200.457 210.643 208.324 209.677C216.224 208.777 222.007 204.843 223.057 202.993Z" fill="black"/>
<path d="M176.524 186.576C175.524 184.693 173.691 183.059 169.307 183.593C162.324 184.476 163.741 190.193 159.807 194.809C157.074 198.026 152.591 200.276 149.041 201.076C145.524 201.859 145.457 205.893 145.724 207.409C145.991 208.926 147.374 211.693 151.474 211.893C161.191 212.343 169.457 205.676 173.607 199.759C177.707 193.826 177.507 188.459 176.524 186.576Z" fill="black"/>
<path d="M81.6398 220.027C84.5398 222.011 88.8232 223.377 91.5565 223.311C94.2898 223.277 101.407 219.994 103.223 224.544C104.223 226.977 102.507 231.144 100.207 232.277C94.1565 235.944 86.0398 236.411 80.0898 232.994L81.6398 220.027Z" fill="black"/>
<path d="M134.307 219.094C136.557 225.31 131.607 225.86 130.79 227.994C130.79 227.994 124.023 228.91 121.423 229.677C120.123 230.06 112.973 231.827 112.023 232.077C113.023 226.227 118.49 221.777 122.173 219.11C126.857 215.677 133.557 217.044 134.307 219.094Z" fill="black"/>
<path d="M205.457 116.627C206.957 119.06 202.79 126.21 196.123 129.893C192.84 131.71 184.09 133.993 181.89 129.693C179.707 125.343 186.473 118.927 189.857 117.077C195.357 114.093 203.357 113.243 205.457 116.627Z" fill="black"/>
<path d="M330.59 389.594C323.823 397.494 307.807 404.161 299.09 405.328C288.357 406.728 272.89 405.261 261.123 397.628C245.523 387.511 207.64 330.728 143.09 315.744C167.473 313.728 223.74 343.828 252.673 378.161C256.807 382.444 263.207 392.594 276.957 391.978C288.99 391.061 293.923 387.528 300.423 385.411C315.24 379.528 322.04 380.928 324.907 383.561C330.59 388.744 330.59 389.594 330.59 389.594Z" fill="#D2AA41"/>
<path d="M327.441 370.061C331.991 373.144 337.774 378.194 337.774 378.194C337.774 378.194 340.574 376.511 342.191 374.527C343.791 372.544 351.041 360.227 351.657 350.311C344.991 357.111 340.341 361.694 334.524 365.461C333.574 366.011 332.091 366.661 332.091 366.661C332.057 365.127 332.291 360.327 330.991 357.911C330.991 357.911 325.824 364.611 324.807 365.161C324.674 361.711 324.257 357.944 323.374 356.744C323.374 356.744 315.991 363.861 315.091 364.061C314.991 362.044 313.924 357.227 313.307 356.327C313.307 356.327 307.424 363.744 305.507 364.977C304.207 365.827 303.974 365.361 304.041 364.594C305.474 358.444 306.641 349.277 306.024 342.711C303.591 345.111 299.524 349.477 296.374 352.561C293.224 355.644 283.507 363.194 276.974 365.961C273.241 365.177 270.824 362.844 267.874 360.961C264.591 357.877 261.574 355.394 258.607 352.411C255.641 349.427 241.057 338.327 231.141 333.777C247.591 347.144 254.674 363.127 268.857 378.144C268.857 378.144 270.741 381.161 278.291 379.144C282.841 377.944 288.557 376.777 295.841 374.144C302.707 371.994 309.657 369.427 317.007 368.427C320.507 367.294 325.424 368.694 327.441 370.061Z" fill="white"/>
</svg>
