<?xml version="1.0"?>
<svg xmlns="http://www.w3.org/2000/svg" viewBox="0 0 580 580" fill="none">
<path d="M502.967 210.778C502.967 185.314 509.089 162.765 517.169 144.445L533.193 108.054L495.487 96.9299C479.08 92.0809 467.124 79.6789 459.968 60.0779L443.324 14.5659L406.279 45.2479C394.085 55.3389 380.143 61.9359 365.356 61.9359C345.521 61.9359 325.89 52.0459 313.624 39.9069L289.755 16.3039L265.903 39.9069C253.626 52.0459 233.999 61.9359 214.159 61.9359C199.358 61.9359 185.424 55.3389 173.241 45.2479L136.181 14.5659L119.566 60.0779C112.384 79.6789 100.443 92.0809 84.018 96.9299L46.319 108.054L62.357 144.445C70.418 162.765 76.548 185.313 76.548 210.778C76.548 272.916 46.06 285.27 46.06 350.511C46.06 437.861 111.089 500.598 183.095 519.115C218.684 528.118 235.259 529.002 261.793 536.427C265.236 540.049 289.755 566.532 289.755 566.532C289.755 566.532 314.27 540.049 317.724 536.427C344.252 529.002 360.837 528.118 396.437 519.115C468.417 500.598 533.457 437.861 533.457 350.511C533.455 285.27 502.967 272.916 502.967 210.778ZM392.156 502.292C354.034 511.923 327.726 514.376 308.358 521.364C305.875 523.693 289.753 541.166 289.753 541.166C289.753 541.166 273.642 523.693 271.156 521.364C251.788 514.376 225.472 511.923 187.362 502.292C107.13 481.994 63.188 414.649 63.188 350.511C63.188 292.272 93.621 274.281 93.621 210.632C93.621 161.043 69.953 119.16 69.953 119.16C69.953 119.16 128.133 114.089 143.902 43.3569C143.902 43.3569 178.8 79.2889 214.159 79.2889C259.762 79.2889 289.754 40.5459 289.754 40.5459C289.754 40.5459 319.757 79.2889 365.356 79.2889C400.715 79.2889 435.61 43.3569 435.61 43.3569C451.382 114.089 509.577 119.16 509.577 119.16C509.577 119.16 485.901 161.043 485.901 210.632C485.901 274.281 516.327 292.272 516.327 350.511C516.325 414.649 472.373 481.994 392.156 502.292Z" fill="#D0D3D4"/>
<path d="M468.773 210.632C468.773 165.241 485.936 130.262 485.936 130.262C485.936 130.262 446.343 122.274 427.898 72.1619C427.898 72.1619 401.619 96.6739 365.355 96.6739C319.927 96.6739 289.753 64.7769 289.753 64.7769C289.753 64.7769 259.589 96.6739 214.158 96.6739C177.894 96.6739 151.615 72.1619 151.615 72.1619C133.175 122.273 93.577 130.262 93.577 130.262C93.577 130.262 110.736 165.241 110.736 210.632C110.736 277.99 80.291 297.472 80.291 350.511C80.291 424.645 138.07 471.843 191.628 485.454C234.058 496.224 261.79 497.436 280.417 506.431C280.417 506.431 287.189 512.623 289.752 515.478C292.329 512.623 299.102 506.431 299.102 506.431C317.714 497.435 345.461 496.223 387.88 485.454C441.446 471.843 499.22 424.645 499.22 350.511C499.221 297.472 468.773 277.991 468.773 210.632ZM130.178 210.632C130.178 181.841 123.932 156.983 118.569 140.893C131.066 134.03 146.761 121.905 159.272 101.026C172.719 108.54 191.761 116.123 214.159 116.123C248.09 116.123 274.595 101.311 289.754 90.1789C304.912 101.311 331.428 116.123 365.356 116.123C370.766 116.123 375.98 115.67 380.978 114.889L103.238 323.48C111.241 292.083 130.178 266.089 130.178 210.632ZM168.015 455.78C132.47 437.526 101.362 402.448 99.81 354.3L425.82 109.477C437.196 125.263 450.24 135.022 460.949 140.892C455.582 156.982 449.339 181.84 449.339 210.631C449.339 222.609 450.212 233.179 451.676 242.765L168.015 455.78ZM383.091 466.602C349.492 475.152 308.387 479.54 295.978 486.631C293.178 488.675 289.753 492.319 289.753 492.319C289.753 492.319 286.329 488.676 283.535 486.631C271.119 479.541 230.013 475.152 196.415 466.602C195.141 466.28 193.885 465.93 192.614 465.572L457.013 267.009C466.012 298.524 479.776 319.158 479.776 350.512C479.776 413.423 429.658 454.766 383.091 466.602Z" fill="#D0D3D4"/>
<path d="M220.88 354.505L190.428 307.861L156.599 333.271C156.599 333.271 168.45 333.593 168.45 346.013V433.831L192.322 415.919V353.811L219.517 395.482L244.756 376.541V267.067L220.88 284.986V354.505Z" fill="#D0D3D4"/>
<path d="M317.646 252.785L290.731 272.988V232.526L254.365 259.831C254.365 259.831 266.215 260.167 266.215 272.594V360.419L290.73 342.004V301.961L317.645 281.765V321.793L340.988 304.262V194.78L317.645 212.326L317.646 252.785Z" fill="#D0D3D4"/>
<path d="M385.88 242.613V161.089L349.521 188.387C349.521 188.387 361.376 188.712 361.376 201.128V288.964L429.052 238.125C427.595 220.601 429.052 210.2 429.052 210.2L385.88 242.613Z" fill="#D0D3D4"/>
<path d="M435.608 43.3569C435.608 43.3569 400.713 79.2889 365.354 79.2889C319.755 79.2889 289.752 40.5459 289.752 40.5459C289.752 40.5459 259.76 79.2889 214.157 79.2889C178.798 79.2889 143.9 43.3569 143.9 43.3569C128.132 114.089 69.951 119.16 69.951 119.16C69.951 119.16 93.619 161.043 93.619 210.632C93.619 274.281 63.186 292.272 63.186 350.511C63.186 414.649 107.128 481.993 187.36 502.292C225.471 511.923 251.786 514.376 271.154 521.364C273.64 523.693 289.751 541.166 289.751 541.166C289.751 541.166 305.873 523.693 308.356 521.364C327.724 514.376 354.032 511.923 392.154 502.292C472.371 481.994 516.323 414.649 516.323 350.511C516.323 292.272 485.897 274.281 485.897 210.632C485.897 161.043 509.573 119.16 509.573 119.16C509.573 119.16 451.38 114.089 435.608 43.3569ZM468.773 210.632C468.773 277.99 499.221 297.472 499.221 350.511C499.221 424.645 441.447 471.843 387.881 485.454C345.462 496.224 317.715 497.436 299.103 506.431C299.103 506.431 292.33 512.623 289.753 515.478C287.19 512.623 280.418 506.431 280.418 506.431C261.791 497.435 234.059 496.223 191.629 485.454C138.071 471.843 80.292 424.645 80.292 350.511C80.292 297.472 110.737 277.99 110.737 210.632C110.737 165.241 93.578 130.262 93.578 130.262C93.578 130.262 133.175 122.274 151.616 72.1619C151.616 72.1619 177.895 96.6739 214.159 96.6739C259.591 96.6739 289.754 64.7769 289.754 64.7769C289.754 64.7769 319.928 96.6739 365.356 96.6739C401.62 96.6739 427.899 72.1619 427.899 72.1619C446.343 122.273 485.937 130.262 485.937 130.262C485.937 130.262 468.773 165.241 468.773 210.632Z" fill="black"/>
<path d="M467.013 57.5L446.732 2L401.483 39.451C389.497 49.385 377.329 54.43 365.354 54.43C349.327 54.43 331.098 46.635 318.9 34.573L289.752 5.735L260.607 34.573C248.414 46.636 230.185 54.43 214.157 54.43C202.175 54.43 190.021 49.385 178.032 39.451L132.776 2L112.495 57.5C106.193 74.747 95.898 85.601 81.901 89.734L36 103.26L55.47 147.48C64.466 167.888 69.029 189.173 69.029 210.778C69.029 270.535 38.54 284.138 38.54 350.511C38.54 446.135 112.496 508.718 181.197 526.395C215.925 534.858 226.413 535.413 257.767 543.138C260.326 545.884 289.752 577.566 289.752 577.566C289.752 577.566 319.178 545.884 321.729 543.138C353.087 535.413 363.579 534.858 398.299 526.395C467.004 508.718 540.967 446.135 540.967 350.511C540.967 284.138 510.471 270.535 510.471 210.778C510.471 189.173 515.027 167.888 524.027 147.48L543.508 103.26L497.617 89.734C483.599 85.601 473.319 74.747 467.013 57.5ZM517.169 144.445C509.089 162.765 502.967 185.313 502.967 210.778C502.967 272.916 533.455 285.27 533.455 350.511C533.455 437.861 468.415 500.598 396.435 519.115C360.835 528.118 344.25 529.002 317.722 536.427C314.268 540.049 289.753 566.532 289.753 566.532C289.753 566.532 265.234 540.049 261.791 536.427C235.257 529.002 218.682 528.118 183.093 519.115C111.088 500.598 46.058 437.861 46.058 350.511C46.058 285.27 76.546 272.916 76.546 210.778C76.546 185.314 70.416 162.765 62.355 144.445L46.317 108.054L84.016 96.93C100.441 92.081 112.383 79.679 119.564 60.078L136.179 14.566L173.239 45.248C185.422 55.339 199.357 61.936 214.157 61.936C233.996 61.936 253.623 52.046 265.901 39.907L289.753 16.304L313.622 39.907C325.889 52.046 345.519 61.936 365.354 61.936C380.14 61.936 394.083 55.339 406.277 45.248L443.322 14.566L459.966 60.078C467.122 79.679 479.079 92.081 495.485 96.93L533.191 108.054L517.169 144.445Z" fill="black"/>
<path d="M425.82 109.478L99.81 354.301C101.361 402.449 132.47 437.526 168.015 455.781L451.676 242.768C450.212 233.181 449.339 222.612 449.339 210.634C449.339 181.843 455.582 156.985 460.949 140.895C450.241 135.023 437.197 125.264 425.82 109.478ZM244.756 376.542L219.517 395.483L192.322 353.812V415.92L168.45 433.832V346.013C168.45 333.593 156.599 333.271 156.599 333.271L190.428 307.861L220.88 354.505V284.985L244.756 267.066V376.542ZM340.989 304.263L317.646 321.794V281.766L290.731 301.962V342.005L266.216 360.42V272.595C266.216 260.168 254.366 259.832 254.366 259.832L290.732 232.527V272.989L317.647 252.786V212.327L340.99 194.781V304.263H340.989ZM429.052 238.127L361.376 288.966V201.13C361.376 188.714 349.521 188.389 349.521 188.389L385.88 161.091V242.615L429.052 210.203C429.052 210.203 427.595 220.603 429.052 238.127Z" fill="black"/>
<path d="M365.355 116.123C331.428 116.123 304.911 101.311 289.753 90.179C274.594 101.311 248.089 116.123 214.158 116.123C191.76 116.123 172.718 108.54 159.271 101.026C146.76 121.905 131.065 134.03 118.568 140.893C123.931 156.983 130.177 181.841 130.177 210.632C130.177 266.089 111.24 292.082 103.238 323.48L380.977 114.888C375.979 115.67 370.765 116.123 365.355 116.123Z" fill="black"/>
<path d="M192.615 465.572C193.885 465.929 195.141 466.28 196.416 466.602C230.014 475.152 271.12 479.54 283.536 486.631C286.329 488.675 289.754 492.319 289.754 492.319C289.754 492.319 293.178 488.676 295.979 486.631C308.388 479.541 349.493 475.152 383.092 466.602C429.659 454.766 479.777 413.424 479.777 350.512C479.777 319.158 466.013 298.524 457.014 267.009L192.615 465.572Z" fill="black"/>
<path d="M512.474 521.686C512.474 510.85 503.686 502.073 492.847 502.073C482.011 502.073 473.242 510.849 473.242 521.686C473.242 532.529 482.012 541.298 492.847 541.298C503.686 541.298 512.474 532.529 512.474 521.686ZM477.44 521.686C477.44 513.179 484.337 506.279 492.847 506.279C501.364 506.279 508.265 513.179 508.265 521.686C508.265 530.207 501.364 537.092 492.847 537.092C484.337 537.092 477.44 530.207 477.44 521.686Z" fill="white"/>
<path d="M500.912 532.894L496.483 523.401C499.075 522.489 500.912 520.036 500.912 517.144C500.912 513.457 497.94 510.493 494.257 510.493H484.79V532.895H489.011V523.782H492.016L496.273 532.895L500.912 532.894ZM494.256 519.583H489.009V514.691H494.256C495.61 514.691 496.709 515.779 496.709 517.144C496.709 518.487 495.61 519.583 494.256 519.583Z" fill="white"/>
</svg>
