<svg width="440" height="410" viewBox="-0.5 -0.5 44.5 41" fill="none"
	xmlns="http://www.w3.org/2000/svg">
	<!-- <g clip-path="url(#clip0_785_34594)"> -->
	<!-- <path d="M67.4252 7.58411L67.6015 22.1071L54.2663 7.58411H49.7051V29.8352H55.1741L54.9978 15.2838L68.331 29.8352H72.8638V7.58411H67.4252Z" fill="#001F60"/>
<path d="M120.958 21.1109C125.607 21.403 126.397 21.9305 126.397 23.1885C126.397 24.8583 124.614 25.5887 120.285 25.5887C115.957 25.5887 112.391 24.6513 110.754 23.9493V28.5752C112.654 29.4821 116.602 30.245 120.666 30.245C128.064 30.245 132.012 28.3135 132.012 23.1012C132.012 18.5341 129.351 17.1281 121.134 16.631C117.333 16.3977 116.077 16.1339 116.077 14.3769C116.077 12.6199 118.415 11.9463 121.544 11.9463C125.872 11.9463 129.76 12.9709 131.369 13.6445V8.87245C129.965 8.02234 126.691 7.17426 121.807 7.17426C113.503 7.17426 110.49 9.89706 110.49 14.5534C110.49 19.2098 113.445 20.6442 120.958 21.1129" fill="#001F60"/>
<path d="M97.0258 29.8352H102.493L110.096 7.58411H104.598L99.7451 23.365L95.0359 7.58411H89.6864L85.1819 23.1317L80.181 7.58411H74.3047L81.8487 29.8352H87.4048L92.2295 14.2308L97.0258 29.8352Z" fill="#001F60"/>
<path d="M139.817 25.1809V7.58411H134.174V29.8352H153.999V25.1809H139.817Z" fill="#001F60"/> -->
	<path d="M43.2785 21.827L37.2766 2.90743C36.612 1.19503 34.8714 0 33.0457 0L10.4583 0.022318C8.66097 0.022318 6.88186 1.25184 6.23141 2.93989L0.26594 21.8737C-0.0177446 22.6102 -0.0684025 23.4116 0.0774922 24.1725C0.221361 25.0814 0.675255 25.9376 1.37231 26.5422C1.56683 26.7228 1.77757 26.8851 2.00654 27.0251L19.3133 39.3366C20.0124 39.7626 20.8898 39.998 21.7834 39.998C22.677 39.998 23.5584 39.7606 24.2616 39.3325L41.546 26.9825C41.775 26.8425 41.9858 26.6802 42.1803 26.4996C42.8875 25.8849 43.3434 25.0104 43.4792 24.0852C43.6149 23.3345 43.5602 22.5514 43.2785 21.827Z" fill="#7C868C"/>
	<path d="M20.1319 37.4416L20.1217 37.4355L20.1116 37.4294L2.3246 25.822C1.30942 25.1808 0.847419 23.7992 1.26484 22.6589L7.42079 4.10248L7.42687 4.08219L7.43497 4.0619C7.84834 2.96628 9.0236 2.14052 10.1725 2.13849L33.3394 2.11414C34.0466 2.11414 34.7639 2.42862 35.309 2.92368C35.7041 2.25211 35.848 1.55822 35.9311 1.06316C35.1246 0.397682 34.0993 -0.00201416 33.0456 -0.00201416L10.4603 0.0223328C8.66292 0.0223328 6.88381 1.25185 6.23337 2.93991L0.267893 21.8737C-0.0157915 22.6102 -0.0664494 23.4116 0.0794454 24.1725C0.223314 25.0814 0.677209 25.9376 1.37426 26.5422C1.56879 26.7228 1.77952 26.8851 2.0085 27.0251L19.3153 39.3366C19.836 39.6551 20.4561 39.8661 21.1085 39.9534C21.532 39.2777 21.7853 38.5818 21.8988 37.8798C21.8603 37.8798 21.8238 37.8839 21.7853 37.8839C21.1754 37.8839 20.5858 37.7276 20.1298 37.4416H20.1319Z" fill="#C6CCD0"/>
	<path d="M33.3411 3.15292C34.0544 3.15292 34.8507 3.71493 35.1121 4.4007L41.3106 22.9612C41.572 23.647 41.2843 24.5235 40.6743 24.9049L22.9015 36.5569C22.5956 36.7497 22.1923 36.845 21.7871 36.845C21.3818 36.845 20.9826 36.7497 20.6787 36.559L2.88356 24.9495C2.27161 24.5681 1.98185 23.6936 2.24324 23.0058L8.40527 4.42911C8.66464 3.74131 9.46098 3.17727 10.1742 3.17727L33.3411 3.15292ZM33.3411 2.11615L10.1742 2.1405C9.02532 2.1405 7.84803 2.96829 7.43669 4.06391L7.42858 4.08419L7.4225 4.10448L1.26656 22.6589C0.849135 23.7991 1.31114 25.1808 2.32632 25.822L20.1133 37.4294L20.1235 37.4354L20.1336 37.4415C20.5915 37.7256 21.1792 37.8838 21.7891 37.8838C22.399 37.8838 22.9947 37.7256 23.4527 37.4375L23.4608 37.4314L23.4689 37.4253L41.2336 25.7794C42.2468 25.1382 42.7067 23.7545 42.2873 22.6163L36.0949 4.07405L36.0888 4.05376L36.0807 4.03347C35.6653 2.93989 34.488 2.11615 33.3411 2.11615Z" fill="white"/>
	<path d="M23.0968 3.1631C23.2305 3.22802 23.2933 3.29903 23.2933 3.29903C23.4818 3.46946 23.577 3.71699 23.5851 3.98278C23.5851 4.0335 23.5952 4.08625 23.6054 4.13697C23.8526 4.02538 24.1018 3.93611 24.3794 3.99292C24.6489 4.0477 25.4412 4.30537 25.889 4.99926C25.889 4.99926 26.3064 5.37461 25.7816 6.49254C25.735 6.59399 25.6844 6.6792 25.6296 6.75427C25.6215 6.78065 25.6155 6.79688 25.6155 6.79688C25.6155 6.79688 25.8039 6.73804 25.8323 6.87601C25.8606 7.01397 25.6864 7.34063 25.5567 7.49482C25.427 7.64902 25.3561 7.82554 25.275 7.90669C25.194 7.98785 25.0785 7.96959 25.0785 7.96959C25.0704 8.06089 24.9691 8.15828 24.8049 8.49508C24.7441 8.6229 24.6935 8.71623 24.655 8.78724C24.7381 8.73246 24.8171 8.68782 24.8556 8.68782C24.89 8.68782 24.9366 8.72434 24.9833 8.76898C25.5952 8.54986 26.27 8.56812 26.6205 8.52145C26.9873 8.47276 27.4635 8.45247 28.2071 7.97771C28.9508 7.50294 28.9001 7.47251 29.893 7.23512C30.8879 6.99774 31.5201 6.665 31.7066 6.56761C31.893 6.47022 31.9761 6.21661 32.0774 5.89198C32.1767 5.56736 32.1402 5.63431 32.2131 5.32389C32.2861 5.01346 32.3388 4.91608 32.436 4.94245C32.5232 4.9668 32.4563 5.40707 32.4158 5.55924C32.3692 5.73373 32.3753 6.04212 32.3753 6.04212C32.3753 6.04212 32.4421 6.0685 32.5434 5.88184C32.6488 5.68909 32.6873 5.56939 32.7623 5.43345C32.8373 5.29548 32.8454 5.30766 32.9284 5.14737C33.0115 4.98709 33.0926 4.57928 33.2425 4.63203C33.3823 4.68072 33.277 4.98709 33.2 5.19607C33.123 5.40504 32.8474 5.97923 32.8676 5.97314C32.9305 5.95082 33.0115 5.75199 33.1432 5.60388C33.2749 5.45374 33.3155 5.3036 33.4411 5.0297C33.5667 4.75579 33.7835 4.79028 33.7633 4.94448C33.7491 5.05607 33.5586 5.59779 33.4411 5.76213C33.3236 5.92647 33.1838 6.21864 33.1858 6.2227C33.1959 6.24704 33.2425 6.24704 33.3823 6.06444C33.5829 5.80677 33.6255 5.8514 33.7146 5.70735C33.8038 5.5633 33.9639 5.3807 34.047 5.41113C34.2131 5.472 34.0247 5.80474 33.8484 6.03198C33.6721 6.25922 33.3864 6.52297 33.3114 6.87601C33.2364 7.22904 33.6518 7.0789 33.9335 7.03832C34.2131 6.99774 34.3671 7.0789 34.3833 7.19454C34.3955 7.28787 34.1665 7.507 33.7775 7.47656C33.3904 7.44613 33.1371 7.57192 32.7015 7.63076C32.2658 7.6896 32.045 7.31831 31.3986 7.74032C30.7522 8.16234 30.2233 8.46059 29.6336 8.91709C29.2709 9.19708 29.2649 9.11187 28.659 9.35331C28.4158 9.45069 28.0248 9.56837 27.6134 9.70634C27.6398 9.78749 27.6722 9.86459 27.6499 9.88082C27.5749 9.93763 27.4695 9.92749 27.1555 9.96604C26.9589 9.99039 26.6975 10.0695 26.5334 10.1243C26.3389 10.2197 26.1788 10.3211 26.0754 10.4266C25.7451 10.7654 25.4878 10.8364 25.3743 11.437C25.3419 11.719 25.3926 12.068 25.3926 12.068C25.9417 13.9488 25.1352 13.9589 24.965 14.4317C24.7928 14.9044 24.8779 15.3082 24.3875 16.0406C23.7634 16.9759 23.5223 17.895 23.4169 18.5504C23.3784 18.8588 23.3683 19.2402 23.4574 19.5953C23.5243 19.857 23.3561 19.7515 23.3581 19.9118C23.3663 19.9564 23.3764 20.0031 23.3865 20.0518C23.4392 20.2202 23.6256 20.8126 23.7654 21.1332C23.7675 21.1372 23.7715 21.1433 23.7735 21.1474C23.806 21.2042 23.8465 21.2752 23.8911 21.3584C24.1991 21.8047 24.967 23.4096 24.9002 23.4624C24.888 23.4725 24.8657 23.4887 24.8374 23.509C24.9204 23.8803 25.0319 24.4342 25.0177 24.6574C24.9995 24.9617 25.0177 25.4548 25.2791 26.1649C25.5405 26.875 25.115 27.5425 24.8678 27.8123C24.6226 28.0822 24.7381 28.1167 24.3247 29.1129C23.9113 30.1091 23.0461 31.3406 22.6935 31.9473C22.3612 32.5174 21.5568 33.5947 21.883 33.9742C21.9336 33.9498 21.9823 33.9234 22.0086 33.9275C22.0532 33.9336 22.1099 33.9681 22.1444 34.0776C22.1646 34.1446 22.2356 34.2298 22.2883 34.2866C22.4382 34.4307 22.5395 34.5707 23.115 34.9318C23.6114 35.2422 23.9944 35.4897 24.1666 35.717L40.6669 24.8988C41.2789 24.5154 41.5646 23.6409 41.3032 22.9551L35.1047 4.39465C35.0885 4.35204 35.0703 4.30943 35.05 4.26682C34.9284 4.01524 34.7359 3.78597 34.5069 3.60134C34.4684 3.57091 34.4299 3.54047 34.3894 3.51207C34.1078 3.31324 33.7835 3.18136 33.4695 3.15092C33.4249 3.14687 33.3803 3.14484 33.3357 3.14484L23.0947 3.15498L23.0968 3.1631Z" fill="#001F60"/>
	<path d="M22.5262 36.1978C22.2952 36.0761 21.4867 35.4654 20.5971 35.4593C20.4978 35.4593 20.4026 35.4532 20.3094 35.4471C20.3094 35.4471 19.9487 35.4674 19.511 35.2503C19.0733 35.0332 19.1118 34.6883 19.1118 34.6883C19.1524 34.2988 19.4968 33.8788 19.5495 33.7652C19.6042 33.6434 19.7907 33.5785 19.7907 33.5785C19.7907 33.5785 20.0642 33.3046 20.2243 33.0206C20.3844 32.7365 21.122 31.1113 21.3692 30.2673C21.6164 29.4233 21.3813 29.4902 21.667 28.8735C21.9325 28.2952 22.7714 27.1509 22.741 26.806C22.7086 26.4611 22.5221 25.9376 22.2222 25.7591C22.0743 25.6718 21.8474 25.4162 21.584 25.055C21.3165 25.0692 20.895 25.1748 20.8443 24.8116C20.7755 24.3165 19.7015 22.4763 19.7015 22.4763C19.7015 22.4763 18.3115 23.2047 18.0379 23.6267C17.9102 23.8255 17.7846 23.7363 17.4462 23.6774C17.3571 23.6612 17.2821 23.6409 17.2172 23.6206C17.0389 23.7342 16.887 23.8296 16.7796 23.8925C16.3621 24.1441 15.7563 24.2516 15.2456 24.7142C14.735 25.1768 13.6874 25.7733 13.424 25.8646C13.1606 25.9579 12.7756 25.8078 12.5182 25.8098C12.2609 25.8098 11.5942 25.5014 11.4017 25.122C11.2112 24.7426 10.7229 24.3449 10.0319 23.4887C9.31663 22.6041 9.16061 22.6143 9.07145 22.5433C8.98229 22.4722 8.44532 22.3383 8.344 22.4073C8.24269 22.4743 8.16163 22.4621 8.13732 22.4012C8.113 22.3383 7.30248 21.7743 6.22245 21.8899C5.45042 21.9731 5.2559 21.6343 5.25792 21.3503C5.25995 21.0195 6.17382 20.2019 6.77563 20.2283C7.37745 20.2546 8.16974 20.3338 8.34198 20.3257C8.57703 20.3135 8.98635 20.1228 9.01066 20.1025C9.03498 20.0822 9.17479 19.9219 9.21735 19.9097C9.2599 19.8976 9.32677 19.9097 9.33285 19.9483C9.33892 19.9868 9.35513 20.0416 9.37945 20.0457C9.40377 20.0497 9.499 20.0578 9.53142 20.0233C9.56182 19.9889 9.58006 19.9138 9.62869 19.8955C9.67732 19.8773 9.92453 19.9341 9.94277 19.9889C9.961 20.0436 9.96506 20.0883 10.0117 20.1288C10.0562 20.1674 10.19 20.2384 10.2467 20.5996C10.3116 21.0175 10.111 21.3726 10.1312 21.3949C10.1535 21.4172 10.344 21.472 10.7776 21.6302C11.2092 21.7865 11.6246 21.9488 12.0299 22.1517C12.4878 22.3809 12.8667 23.3183 12.8667 23.3183C12.8667 23.3183 13.4361 22.7928 13.7867 22.5128C14.0501 22.3018 14.5385 21.7134 14.7674 21.4294C14.7654 21.4274 14.7634 21.4233 14.7613 21.4213C14.6864 21.3279 14.6479 21.2245 14.8708 21.0398C15.0288 20.908 15.6165 20.3033 16.0562 19.8529C16.2851 19.5952 16.5425 19.3153 16.8221 19.0251C17.118 18.6619 17.4766 18.1953 17.6043 18.0715C17.7623 17.9173 18.0886 17.7286 18.1777 17.68C18.1838 17.6739 18.1899 17.6657 18.196 17.6597C18.1838 17.6353 18.1433 17.5521 18.1453 17.4629C18.1473 17.191 18.4756 16.984 18.8727 16.633C18.9376 16.5762 18.9943 16.5154 19.047 16.4545C19.1321 16.2638 19.1828 16.1096 19.2841 15.9432C19.584 15.4522 19.4543 14.5919 19.2537 13.8676C19.0531 13.1433 19.0308 12.4656 19.0308 12.4656C19.0166 12.4636 18.9963 12.4616 18.9741 12.4596C18.8363 12.5285 18.6823 12.5813 18.5323 12.5772C18.1271 12.5671 18.0338 12.6827 17.7643 12.7497C17.4948 12.8166 17.4847 12.7598 17.4584 12.699C17.4503 12.6807 17.4462 12.632 17.4462 12.5772C17.1909 12.6543 16.9234 12.772 16.6863 12.9506C15.9042 13.5349 15.4098 13.5917 15.0795 13.6769C14.7492 13.7642 14.2487 13.9427 13.7381 14.0563C13.2274 14.172 11.9387 14.3728 11.3085 14.5879C10.6763 14.803 10.5952 14.9714 10.5952 14.9714C10.1738 15.3244 9.94885 15.16 9.73406 15.3142C9.51724 15.4684 9.422 15.4847 9.422 15.4847C9.37337 15.6774 9.26395 15.7038 9.26395 15.7038C9.33892 15.7768 9.31866 15.8803 9.31866 15.8803C9.34095 16.0528 9.0674 15.9736 9.0674 15.9736L9.05727 16.0406C9.06335 16.1988 8.92961 16.1765 8.92961 16.1765C8.90529 16.1725 8.84045 16.1502 8.78777 16.0791C8.73711 16.0081 8.66821 16.0041 8.55677 15.9189C8.44532 15.8336 8.44735 15.6531 8.44735 15.6531L8.36224 15.3974C8.27714 15.1398 8.24877 15.0424 8.35414 14.878C8.4595 14.7137 8.58311 14.4763 8.58311 14.4763C8.83437 13.8981 8.93569 14.1618 9.23153 14.103C9.52737 14.0421 9.81308 14.0928 10.1961 13.9954C10.579 13.8981 11.2882 13.5775 12.196 13.2184C13.1038 12.8593 14.6965 12.1857 14.6965 12.1857C15.5131 11.7677 15.7461 12.0477 16.1899 11.7109C16.6337 11.3741 17.3327 10.9622 17.7664 10.7735C18.2 10.5848 18.429 10.0269 19.1463 9.824C19.509 9.72053 19.7481 9.64343 19.896 9.59068C20.0541 9.48112 20.2648 9.37561 20.4796 9.30663C20.7917 9.20519 21.0065 9.13215 21.2111 9.00432C21.4158 8.8765 21.6711 8.82984 21.7177 8.80549C21.7643 8.78114 22.0358 8.57825 22.0358 8.57825C22.1817 8.54173 22.2992 8.60463 22.358 8.64723C22.4634 8.49304 22.5363 8.29218 22.5363 8.29218C22.435 7.89654 22.5343 7.13164 22.5343 7.13164C22.5343 7.13164 22.4735 7.19048 22.3884 7.0586C22.2749 6.88208 22.3215 6.72991 22.3215 6.72991C22.3317 6.33833 22.206 6.48644 22.3256 6.05631C22.4411 5.6343 22.591 5.91632 22.591 5.91632L22.6133 5.81284C22.6133 5.81284 22.6174 5.79661 22.6194 5.79053C22.6235 5.72357 22.6316 5.6485 22.6478 5.56126C22.6984 5.2833 22.7775 4.85317 23.0226 4.53666C22.7916 4.43927 22.5262 4.59144 22.4695 5.01954C22.3965 5.58561 21.7521 5.7114 21.4239 5.78444C21.0956 5.85951 20.8646 6.30181 20.8646 6.30181C20.8646 6.30181 20.9619 5.74183 21.4198 5.64445C22.1351 5.49228 21.9507 4.94041 21.9507 4.94041C21.2962 5.5146 20.7025 5.60387 20.4006 5.56735C19.6833 5.4801 19.4259 5.04592 19.4259 5.04592C19.8778 5.42127 20.5384 5.12707 20.5384 5.12707C19.6083 5.16765 19.2294 4.39464 19.1686 4.2587C19.2152 4.35609 19.4502 4.73955 20.2709 4.71723C20.6883 4.70506 20.9295 4.54275 21.1057 4.32362C21.0895 4.32565 21.0794 4.32768 21.0794 4.32768C20.6113 4.39666 20.2365 3.61756 20.2365 3.61756C20.2365 3.61756 20.3722 3.84886 20.814 4.0903C21.2557 4.33377 21.3671 3.83871 21.586 3.53235C21.6123 3.49583 21.6427 3.46134 21.6772 3.4309C21.7197 3.38424 21.7643 3.3396 21.815 3.30105C21.815 3.30105 21.8879 3.23004 22.0277 3.16309L10.1758 3.17526C9.4605 3.17526 8.66619 3.7393 8.40682 4.4271L2.24277 23.0038C1.98137 23.6916 2.27113 24.5661 2.88308 24.9475L13.5658 31.9168C13.4929 31.8174 13.424 31.7119 13.3612 31.5983C13.1464 31.158 13.0572 30.6528 13.1383 30.1314C13.3449 28.7781 14.6114 27.8468 15.963 28.0558C17.3145 28.2648 18.2426 29.5308 18.0359 30.8841C17.8474 32.1217 16.7755 33.0023 15.5597 32.9881C15.3875 32.9678 15.2233 32.9353 15.0673 32.8948L20.6802 36.5569C20.7937 36.628 20.9234 36.6868 21.0591 36.7314C21.2415 36.7903 21.4381 36.8268 21.6387 36.839C21.6893 36.841 21.738 36.843 21.7886 36.843C22.1918 36.843 22.5971 36.7477 22.9031 36.5549L23.2334 36.3378C22.9233 36.3094 22.6316 36.2486 22.5282 36.1938L22.5262 36.1978Z" fill="#E71A48"/>
	<path d="M42.2873 22.6143L36.0949 4.07204L36.0888 4.05175L36.0807 4.03146C35.6653 2.93787 34.488 2.11414 33.3411 2.11414L10.1742 2.13848C9.02532 2.13848 7.84803 2.96628 7.43669 4.06189L7.42858 4.08218L7.4225 4.10247L1.26656 22.6589C0.849135 23.7991 1.31114 25.1808 2.32632 25.822L20.1133 37.4294L20.1235 37.4355L20.1336 37.4416C20.5915 37.7256 21.1792 37.8839 21.7891 37.8839C22.399 37.8839 22.9947 37.7256 23.4527 37.4375L23.4608 37.4314L23.4689 37.4253L41.2336 25.7794C42.2468 25.1382 42.7067 23.7545 42.2873 22.6163V22.6143ZM33.3411 3.15294C33.3857 3.15294 33.4303 3.15497 33.4748 3.15903C33.791 3.18946 34.1152 3.32134 34.3948 3.52017C34.4353 3.54858 34.4738 3.57901 34.5123 3.60944C34.7413 3.79408 34.9338 4.02334 35.0554 4.27493C35.0756 4.31753 35.0939 4.36014 35.1101 4.40275L41.3086 22.9632C41.57 23.649 41.2822 24.5255 40.6723 24.9069L24.172 35.7251C23.9998 35.4958 23.6148 35.2503 23.1204 34.9399C22.5449 34.5788 22.4456 34.4388 22.2936 34.2947C22.2409 34.2379 22.1721 34.1547 22.1498 34.0857C22.1153 33.9741 22.0586 33.9417 22.014 33.9356C21.9897 33.9315 21.939 33.9579 21.8884 33.9823C21.5621 33.6008 22.3666 32.5255 22.6989 31.9554C23.0515 31.3487 23.9167 30.1172 24.3301 29.121C24.7435 28.1248 24.628 28.0883 24.8731 27.8205C25.1183 27.5506 25.5459 26.8831 25.2845 26.173C25.0211 25.4629 25.0048 24.9698 25.0231 24.6655C25.0373 24.4423 24.9258 23.8884 24.8427 23.5171C24.8711 23.4968 24.8934 23.4806 24.9056 23.4705C24.9724 23.4177 24.2065 21.8108 23.8965 21.3665C23.8519 21.2833 23.8134 21.2123 23.7789 21.1555C23.7769 21.1514 23.7728 21.1453 23.7708 21.1413C23.633 20.8187 23.4446 20.2262 23.3919 20.0599C23.3818 20.0112 23.3716 19.9645 23.3635 19.9199C23.3615 19.7596 23.5317 19.8651 23.4628 19.6034C23.3716 19.2483 23.3838 18.8669 23.4223 18.5585C23.5256 17.9031 23.7688 16.984 24.3929 16.0487C24.8812 15.3163 24.7982 14.9125 24.9704 14.4398C25.1426 13.967 25.9471 13.9569 25.398 12.0761C25.398 12.0761 25.3493 11.7271 25.3797 11.4451C25.4932 10.8445 25.7505 10.7735 26.0808 10.4347C26.1842 10.3292 26.3442 10.2298 26.5388 10.1324C26.7029 10.0776 26.9623 9.99849 27.1608 9.97414C27.4729 9.93559 27.5803 9.94371 27.6553 9.88893C27.6755 9.8727 27.6451 9.7956 27.6188 9.71444C28.0301 9.57647 28.4212 9.4588 28.6644 9.36141C29.2723 9.11997 29.2763 9.20518 29.639 8.92519C30.2287 8.47072 30.7555 8.17247 31.4039 7.74842C32.0503 7.32641 32.2712 7.69567 32.7069 7.63886C33.1425 7.58003 33.3958 7.45423 33.7828 7.48467C34.1719 7.51307 34.3988 7.29395 34.3887 7.20265C34.3745 7.087 34.2185 7.00584 33.9389 7.04642C33.6592 7.087 33.2418 7.23714 33.3168 6.88411C33.3918 6.53108 33.6775 6.26732 33.8538 6.04008C34.0301 5.81284 34.2185 5.47807 34.0523 5.41923C33.9713 5.3888 33.8092 5.57343 33.72 5.71545C33.6309 5.85748 33.5863 5.81487 33.3877 6.07254C33.2459 6.25515 33.1993 6.25515 33.1912 6.2308C33.1912 6.22674 33.3289 5.93255 33.4465 5.77024C33.564 5.60589 33.7524 5.06417 33.7687 4.95258C33.7889 4.80042 33.5721 4.7639 33.4465 5.0378C33.3208 5.3117 33.2803 5.46184 33.1486 5.61198C33.0169 5.76212 32.9358 5.96095 32.873 5.98124C32.8528 5.98936 33.1283 5.41315 33.2053 5.20417C33.2823 4.99519 33.3877 4.69085 33.2479 4.64013C33.098 4.58738 33.0169 4.99519 32.9338 5.15547C32.8507 5.31576 32.8426 5.30359 32.7677 5.44155C32.6927 5.57952 32.6522 5.69719 32.5488 5.88994C32.4475 6.0766 32.3806 6.05023 32.3806 6.05023C32.3806 6.05023 32.3746 5.74183 32.4212 5.56734C32.4617 5.41518 32.5286 4.9749 32.4414 4.95055C32.3442 4.92418 32.2915 5.02157 32.2185 5.33199C32.1456 5.64241 32.1821 5.57546 32.0828 5.90009C31.9835 6.22471 31.8984 6.47833 31.712 6.57571C31.5255 6.6731 30.8913 7.00584 29.8984 7.24323C28.9035 7.48061 28.9562 7.51104 28.2125 7.98581C27.4668 8.46057 26.9906 8.48086 26.6259 8.52956C26.2753 8.57622 25.6006 8.55593 24.9886 8.77708C24.942 8.73245 24.8954 8.69593 24.861 8.69593C24.8225 8.69593 24.7435 8.74056 24.6604 8.79534C24.6989 8.72636 24.7475 8.631 24.8103 8.50318C24.9745 8.16638 25.0758 8.07102 25.0839 7.97769C25.0839 7.97769 25.1994 7.99595 25.2804 7.9148C25.3615 7.83364 25.4324 7.65712 25.5621 7.50293C25.6918 7.34873 25.866 7.02207 25.8377 6.88411C25.8093 6.74614 25.6208 6.80498 25.6208 6.80498C25.6208 6.80498 25.6269 6.78875 25.635 6.76237C25.6877 6.6873 25.7404 6.60209 25.787 6.50064C26.3098 5.38271 25.8944 5.00736 25.8944 5.00736C25.4466 4.31348 24.6563 4.0558 24.3848 4.00102C24.1052 3.94421 23.858 4.03349 23.6107 4.14508C23.6006 4.09435 23.5905 4.0416 23.5905 3.99088C23.5824 3.72306 23.4871 3.47756 23.2987 3.30714C23.2987 3.30714 23.2359 3.23815 23.1021 3.1712L33.3431 3.16105L33.3411 3.15294ZM21.7871 36.8451C21.7364 36.8451 21.6857 36.8451 21.6371 36.841C21.4365 36.8288 21.24 36.7943 21.0576 36.7335C20.9218 36.6888 20.7921 36.63 20.6787 36.559L15.0658 32.8968C15.2238 32.9374 15.388 32.9698 15.5582 32.9901C16.7719 33.0043 17.8438 32.1217 18.0343 30.8861C18.241 29.5329 17.313 28.2668 15.9614 28.0578C14.6078 27.8509 13.3434 28.7801 13.1367 30.1334C13.0577 30.6528 13.1448 31.16 13.3596 31.6003C13.4224 31.7139 13.4913 31.8194 13.5643 31.9189L2.88356 24.9495C2.27161 24.5681 1.98185 23.6936 2.24324 23.0058L8.40527 4.42912C8.66464 3.74132 9.46098 3.17729 10.1742 3.17729L22.0262 3.16511C21.8863 3.23207 21.8134 3.30308 21.8134 3.30308C21.7627 3.34366 21.7161 3.38626 21.6756 3.43293C21.6412 3.46336 21.6108 3.49785 21.5844 3.53437C21.3656 3.84074 21.2541 4.33579 20.8124 4.09233C20.3707 3.84886 20.2349 3.61959 20.2349 3.61959C20.2349 3.61959 20.6077 4.40072 21.0778 4.32971C21.0778 4.32971 21.088 4.32971 21.1042 4.32565C20.9279 4.54477 20.6868 4.70911 20.2693 4.71926C19.4487 4.74361 19.2136 4.36014 19.167 4.26072C19.2278 4.39666 19.6067 5.16968 20.5368 5.1291C20.5368 5.1291 19.8762 5.42329 19.4244 5.04794C19.4244 5.04794 19.6817 5.48213 20.399 5.56937C20.701 5.60589 21.2947 5.51662 21.9492 4.94244C21.9492 4.94244 22.1336 5.49227 21.4183 5.64647C20.9603 5.74386 20.8631 6.30384 20.8631 6.30384C20.8631 6.30384 21.0941 5.86357 21.4223 5.78647C21.7506 5.7114 22.395 5.58763 22.4679 5.02157C22.5226 4.59347 22.7901 4.43927 23.0211 4.53869C22.7759 4.8552 22.6948 5.28533 22.6462 5.56329C22.63 5.65053 22.6219 5.7256 22.6178 5.79255C22.6178 5.80067 22.6138 5.80878 22.6118 5.81487L22.5895 5.91835C22.5895 5.91835 22.4416 5.63836 22.324 6.05834C22.2045 6.48847 22.3301 6.34036 22.32 6.73194C22.32 6.73194 22.2754 6.88411 22.3868 7.06062C22.4699 7.19047 22.5327 7.13366 22.5327 7.13366C22.5327 7.13366 22.4335 7.89856 22.5348 8.2942C22.5348 8.2942 22.4618 8.49506 22.3565 8.64926C22.2977 8.60665 22.1802 8.54376 22.0343 8.58028C22.0343 8.58028 21.7627 8.78114 21.7161 8.80752C21.6695 8.83186 21.4142 8.88056 21.2096 9.00635C21.0049 9.13417 20.7901 9.20721 20.4781 9.30866C20.2633 9.37764 20.0525 9.48314 19.8945 9.59271C19.7466 9.64546 19.5075 9.72256 19.1447 9.82603C18.4274 10.0289 18.1985 10.5848 17.7648 10.7756C17.3312 10.9643 16.6321 11.3741 16.1883 11.7129C15.7446 12.0497 15.5116 11.7718 14.695 12.1877C14.695 12.1877 13.1023 12.8593 12.1945 13.2204C11.2867 13.5795 10.5755 13.9001 10.1945 13.9975C9.81153 14.0949 9.52582 14.0441 9.22998 14.105C8.93414 14.1659 8.83079 13.9001 8.58156 14.4783C8.58156 14.4783 8.45795 14.7157 8.35258 14.8801C8.24519 15.0444 8.27558 15.1418 8.36069 15.3995L8.44579 15.6551C8.44579 15.6551 8.44377 15.8357 8.55521 15.9209C8.66666 16.0061 8.73353 16.0102 8.78621 16.0812C8.83687 16.1522 8.90374 16.1745 8.92806 16.1786C8.92806 16.1786 9.06179 16.1988 9.05571 16.0426L9.06585 15.9757C9.06585 15.9757 9.3394 16.0548 9.31711 15.8823C9.31711 15.8823 9.3394 15.7789 9.2624 15.7058C9.2624 15.7058 9.37182 15.6794 9.42045 15.4867C9.42045 15.4867 9.51771 15.4705 9.7325 15.3163C9.94932 15.1621 10.1722 15.3284 10.5937 14.9734C10.5937 14.9734 10.6768 14.805 11.307 14.5899C11.9371 14.3749 13.2279 14.174 13.7365 14.0583C14.2471 13.9427 14.7476 13.7641 15.0779 13.6789C15.4082 13.5937 15.9026 13.5369 16.6848 12.9526C16.9219 12.774 17.1893 12.6564 17.4447 12.5793C17.4447 12.634 17.4487 12.6807 17.4568 12.701C17.4852 12.7619 17.4933 12.8187 17.7628 12.7517C18.0323 12.6848 18.1255 12.5691 18.5308 12.5793C18.6787 12.5833 18.8347 12.5306 18.9725 12.4616C18.9948 12.4636 19.0151 12.4656 19.0292 12.4677C19.0292 12.4677 19.0536 13.1474 19.2521 13.8697C19.4527 14.5919 19.5824 15.4542 19.2825 15.9452C19.1812 16.1116 19.1306 16.2678 19.0455 16.4565C18.9928 16.5174 18.934 16.5783 18.8712 16.6351C18.4761 16.9861 18.1458 17.193 18.1437 17.4649C18.1437 17.5542 18.1822 17.6394 18.1944 17.6617C18.1883 17.6678 18.1822 17.6759 18.1762 17.682C18.089 17.7307 17.7628 17.9194 17.6027 18.0736C17.4751 18.1973 17.1164 18.664 16.8206 19.0271C16.5409 19.3173 16.2836 19.5973 16.0546 19.8549C15.6169 20.3054 15.0273 20.91 14.8692 21.0419C14.6463 21.2265 14.6848 21.33 14.7598 21.4233C14.7598 21.4233 14.7638 21.4294 14.7659 21.4314C14.5369 21.7155 14.0486 22.3038 13.7851 22.5148C13.4326 22.7948 12.8652 23.3203 12.8652 23.3203C12.8652 23.3203 12.4863 22.383 12.0283 22.1537C11.6251 21.9528 11.2097 21.7905 10.7761 21.6323C10.3424 21.476 10.152 21.4213 10.1297 21.3969C10.1074 21.3746 10.31 21.0175 10.2452 20.6016C10.1884 20.2404 10.0547 20.1694 10.0101 20.1309C9.9635 20.0923 9.95743 20.0457 9.94121 19.9909C9.92298 19.9361 9.67577 19.8793 9.62714 19.8976C9.5785 19.9158 9.56229 19.9909 9.52987 20.0254C9.49948 20.0599 9.40424 20.0517 9.3779 20.0477C9.35156 20.0436 9.33737 19.9889 9.33129 19.9503C9.32521 19.9118 9.25835 19.8996 9.21579 19.9118C9.17324 19.9239 9.03342 20.0842 9.00911 20.1045C8.98479 20.1248 8.57548 20.3155 8.34043 20.3277C8.17021 20.3358 7.37792 20.2567 6.77408 20.2303C6.17227 20.2039 5.2584 21.0216 5.25637 21.3523C5.25435 21.6363 5.44685 21.9752 6.2209 21.892C7.30093 21.7743 8.11348 22.3404 8.13577 22.4033C8.16008 22.4641 8.24114 22.4783 8.34245 22.4093C8.44377 22.3424 8.98074 22.4743 9.0699 22.5453C9.15906 22.6163 9.31508 22.6082 10.0304 23.4908C10.7213 24.3449 11.2097 24.7446 11.4002 25.124C11.5906 25.5034 12.2573 25.8139 12.5167 25.8118C12.774 25.8118 13.159 25.9599 13.4224 25.8666C13.6858 25.7733 14.7314 25.1788 15.2441 24.7162C15.7547 24.2536 16.3626 24.1461 16.778 23.8945C16.8854 23.8296 17.0353 23.7363 17.2157 23.6226C17.2805 23.645 17.3555 23.6652 17.4447 23.6794C17.7831 23.7383 17.9087 23.8276 18.0363 23.6287C18.3099 23.2067 19.7 22.4783 19.7 22.4783C19.7 22.4783 20.7739 24.3186 20.8428 24.8136C20.8935 25.1768 21.3149 25.0692 21.5824 25.0571C21.8458 25.4182 22.0748 25.6739 22.2207 25.7611C22.5226 25.9397 22.707 26.4631 22.7394 26.808C22.7718 27.1529 21.933 28.2972 21.6655 28.8755C21.3798 29.4923 21.6148 29.4253 21.3676 30.2694C21.1224 31.1134 20.3828 32.7385 20.2227 33.0226C20.0627 33.3046 19.7891 33.5805 19.7891 33.5805C19.7891 33.5805 19.6027 33.6455 19.548 33.7672C19.4953 33.8808 19.1508 34.3008 19.1103 34.6903C19.1103 34.6903 19.0718 35.0332 19.5095 35.2524C19.9472 35.4695 20.3078 35.4492 20.3078 35.4492C20.399 35.4573 20.4963 35.4613 20.5956 35.4613C21.4851 35.4674 22.2936 36.0761 22.5246 36.1999C22.628 36.2546 22.9198 36.3155 23.2298 36.3439L22.8995 36.561C22.5935 36.7538 22.1903 36.8491 21.785 36.8491L21.7871 36.8451Z" fill="white"/>
	<path d="M33.8711 33.5623H34.5074V33.682H34.2581V34.3495H34.1203V33.682H33.8711V33.5623Z" fill="#67737A"/>
	<path d="M34.6583 33.5623H34.8528L35.0696 34.179H35.0716L35.2824 33.5623H35.4749V34.3495H35.3432V33.7428H35.3411L35.1223 34.3495H35.0088L34.79 33.7428H34.788V34.3495H34.6562V33.5623H34.6583Z" fill="#67737A"/>
	<!-- </g>
	<defs>
		<clipPath id="clip0_785_34594">
			<rect width="154" height="40" fill="white"/>
		</clipPath>
	</defs> -->
</svg>
