<?xml version="1.0" encoding="UTF-8"?><svg id="Layer_2" xmlns="http://www.w3.org/2000/svg" viewBox="0 0 575.98 122.25"><defs><style>.cls-1{fill:#33058d;stroke-width:0px;}</style></defs><g id="Layer_1-2"><path class="cls-1" d="M85.04,0H0v103.45h26.04c4.51,0,8.17-3.66,8.17-8.17v-20.87h51.12c26.01,0,36.69-10.84,36.84-37.43C122.17,10.71,111.41,0,85.04,0ZM73.48,51.47h-39.26v-28.52h39.26c12.17,0,14.48,4.93,14.48,14.04,0,10.96-3.52,14.48-14.48,14.48ZM575.98,80.32l-4.78,17.16c-.98,3.53-4.2,5.97-7.86,5.97h-84.12V0h33.49v80.32h63.27ZM234.83,114.45v5.7c0,1.16-.94,2.09-2.09,2.09h-16.42c-1.16,0-2.09-.94-2.09-2.09v-5.7c0-1.16.94-2.1,2.09-2.1h16.42c1.16,0,2.09.94,2.09,2.1ZM178.18,99.02L124.91,0h29.98c3.53,0,6.78,1.94,8.45,5.05l37.69,70.07s-8.48,15.76-11.68,21.71c-.72,1.34-2.12,2.18-3.65,2.18h-7.53ZM294.16,0h29.97l-53.26,99.02h-7.52c-1.52,0-2.92-.84-3.65-2.18l-11.68-21.72L285.71,5.05c1.67-3.11,4.92-5.05,8.45-5.05ZM234.99,54.24l-6.38-11.87,20.55-38.21C250.54,1.6,253.22,0,256.13,0h8.04l-29.18,54.24ZM220.43,81.31l-17.98,33.42c-2.49,4.63-7.32,7.51-12.57,7.51h-26.29l-8.44-15.7h34.82c2.54,0,4.88-1.4,6.08-3.63l18-33.47,6.38,11.87ZM259.08,106.55h34.82l-8.44,15.7h-26.29c-5.25,0-10.08-2.89-12.57-7.51L184.87,0h8.04c2.91,0,5.59,1.6,6.97,4.16l53.12,98.75c1.2,2.24,3.54,3.63,6.08,3.63ZM436.96,0h26.04v103.45h-26.04c-4.51,0-8.17-3.66-8.17-8.17v-33.72h-60.2v33.72c0,4.51-3.66,8.17-8.17,8.17h-26.04V0h26.04c4.51,0,8.17,3.66,8.17,8.17v30.25h60.2V8.17c0-4.51,3.66-8.17,8.17-8.17Z"/></g></svg>