<svg id="Layer_1" xmlns="http://www.w3.org/2000/svg" viewBox="0 0 233.6 113.1"><style>.st0{fill:#fa4d00}</style><path class="st0" d="M87.9 47.8h9.9l-9.7 30.4H75.7l-5.9-21.4-6.2 21.4H51.4l-9.7-30.4h9.9l6 21.4 6-21.4H76l6 21.4 5.9-21.4zm-44-34.9c.3-1.1 1.3-2.6 1.7-3.8.3-1 .2-1.7-.2-1.9.3-3.3-2-6.4-5.3-7.1-3.6-.7-7.2 1.6-7.9 5.2-.7 3.6 1.6 7.1 5.2 7.9.5.1 1 .1 1.5.1.2.1.5.2.6.4.3.3.5 1.4.2 1.9-.2.5-1.6 2-3.2 3.7-1.6 1.7-2.1 1.9-3.5 3.5-.7.8-.9 1.8-.9 1.8s-1.3.7-2.2 2c-.9 1.2-2.1 3.7-2.1 3.7s-1 .6-1.6 1c-.5.5-.9.8-1.7 1.8 0-.9.3-1.3.9-1.7.4-.3 1-1.8 1.1-3.6.8-.4 1.4-1.3 1.4-2.3 0-1.4-1.2-2.6-2.6-2.6-.6 0-1.1.2-1.5.5-1-.5-2.3-.7-3.8-.4-.5.1-1 .3-1.1.7-.3.1-.8.3-1.4 1.2-.7 1-.4 1.7-.5 2-.1.3-1.2.9-.7 3.2.2.9.1 1.6.2 1.9.1.4.2.6.6.7.2.1.5.2.7.3.4.1.5.2.6.6v.7c0 .1-.1.3-.2.3l-2.5.1c-1.5-.1-2.3.4-2.3.4s-1.5.1-2.5.7-2.3 2.2-2.6 3.6c-.2.6-.3 1-.6 1.5-.2.3-1.1.9-1.8 1.6-.4-1.5-1-3.3-1-4.6v-.3c0-.4 0-.8.2-1.2.4-.6.7-1.3.6-2.1 0-.5.1-1.1.2-1.6.1-.4 0-.7.2-1 .1-.2.3-.5.3-.8 0 0-.4 0-.7.1-.5.2-.6.8-.8 1.2-.1.3-.1.7-.3.8-.2.1-.5.1-.7-.1-.2-.3-.3-.5-.5-.8-.2-.3-.7-2.2-1.2-3.3-.2-.2-.3-.5-.6-.6-.2-.1-.5.1-.4.3.2.6.5 1.2.6 1.8-.2-.4-.5-.8-.7-1.1-.2-.2-.4-.5-.7-.6-.2-.1-.4 0-.5.2-.1.1.1.3.1.4.4.5.8 1.1 1 1.8-.2-.2-.4-.4-.7-.5-.1 0-.3 0-.4.1 0 .1 0 .3.1.4l.9 1.2c.2.3.4.7.6 1 0-.2-.3-.2-.3.1.2.4.7.7.8 1.2.4 1 .3 2.1.2 3.3s.1 4.7-.2 6.2c-.5 2.4-.4 3.3.2 6 .3 1.6 1.9 1.6 3.1.8 2-1.3 4.1-4.3 4.6-4.9.4-.5.7-1.3 1-1.2.7.8 1.2 4.1.6 7-.1.6-.4 1.7-.4 2 .1.3.4.5.4.6-.1 2.2-1.6 2.6-2.1 4.9-.5 2.3-.3 3.9.1 6.2.4 2.3 1.5 4.6 2.4 6.3.9 1.7 1.1 2.9 1.1 2.9l.8.1s1.2 4.9 3.7 8.7c7.3 11 9.9 15.9 10.4 17 .5 1-.2 1-.2 1.5s.4 1 1.6 1.8c1.3.8 2.3 3.6 2.8 5.1.5 1.5 1.5 4.4 3.7 4.1 2.2-.3 2.2-3.2 1.8-5-.5-1.8-2.3-2.7-2.6-3.9-.3-1.1-1.5-3-1.6-5.3 0-.3 0-.6.1-1.1.1-1.3.8-3 .8-4-.1-1-2.7-2.8-3.3-3.9-.6-1.1-1-3.4-1.2-3.5-.3-.1-.6-.1-.6-.1s-.4-7.6-1.4-10.7c-.8-2.3-2.8-4.3-2.8-4.3s.9-1.7 2.1-6.1c1.4-5.3-.7-7.8-1.3-10.8-.5-2.4.1-6 1.6-9.5.6-1.4 1.7-4.9 1.8-6.7 0-.8.5-1.4 1.3-2.5s1.5-2.3 1.8-3.3c.3-1 1.1-2 2.3-3.7.6-.9.9-1.7.9-1.7s2.2-2.2 3.8-4.4c1.9-2.5 2.2-4 2.3-4.5.1-.5.9-1.1 1.3-2 .4-.5.7-1.9 1-3zm143.4 56.9c0 6-5 8.4-12.6 8.4H148V47.8h24.1c8.3 0 12.9 2.2 12.9 8 0 3.5-2 5.5-4.4 6.4-.1 0-.2.1-.2.2s.1.2.2.2c3.8.5 6.7 2.9 6.7 7.2zm-30.3-10h15.1c2.6 0 3.6-.8 3.6-2 0-1.5-1.1-2.2-3.6-2.2H157v4.2zm21 8.4c0-1.2-.9-2-3.3-2H157v4.2h17.7c2.5.1 3.3-.8 3.3-2.2zm55.6 10h-10.8l-3.5-6.6h-17l-3.4 6.6h-10.7l16.4-30.4h12.3l16.7 30.4zm-18.1-13.9l-4.8-9.1-4.7 9.1h9.5zm-84.1 4.1l-17.2-20.5h-12.8v30.4h9V57.7l17.1 20.5h12.8V47.8h-9.1v20.6z"/></svg>