<svg width="200" height="200" viewBox="0 0 200 200" fill="none" xmlns="http://www.w3.org/2000/svg">
<g clip-path="url(#clip0_5_199922)">
<path d="M100.007 38C44.7705 38 0 65.7599 0 100C0 134.24 44.7705 162 100.007 162C155.244 162 200 134.24 200 100C200 65.7599 155.23 38 100.007 38ZM158.748 83.9454C155.901 81.0993 148.456 76.604 148.456 76.604L114.663 116.186L114.488 134.065L127.421 132.62C127.421 132.62 129.188 139.275 130.326 146.106C96.3287 152.936 70.8999 145.858 70.8999 145.858L73.4399 132.839L85.4244 134.065V115.763C85.4244 115.763 59.1198 84.9087 50.989 75.0132C45.9091 77.1879 40.4496 81.4058 40.4496 81.4058L32.3626 71.1601C53.3976 52.6389 90.5043 50.9313 90.5043 50.9313C90.5043 50.9313 91.0299 57.5137 91.4094 65.0885C85.3368 65.6869 78.6804 66.7232 78.6804 66.7232L107.248 99.9416L132.093 70.3427L121.13 67.9346C121.13 67.9346 122.356 59.8051 123.29 53.6314C150.471 56.2293 167.667 73.0574 167.667 73.0574C167.667 73.0574 162.295 79.7274 158.762 83.9746L158.748 83.9454Z" fill="#0047BA"/>
<path d="M163.243 154.338C163.243 153.943 163.083 153.681 162.762 153.549C162.587 153.476 162.295 153.433 161.9 153.433H160.806V156.541H161.346V155.315H161.769C162.061 155.315 162.265 155.345 162.382 155.418C162.572 155.534 162.674 155.768 162.674 156.133V156.483L162.689 156.512C162.689 156.512 162.689 156.527 162.689 156.541H163.214L163.185 156.498C163.185 156.498 163.156 156.425 163.156 156.337C163.156 156.249 163.156 156.176 163.156 156.104V155.87C163.156 155.709 163.097 155.549 162.995 155.388C162.879 155.228 162.703 155.126 162.47 155.082C162.66 155.053 162.82 154.994 162.922 154.936C163.127 154.805 163.229 154.6 163.229 154.323L163.243 154.338ZM162.368 154.878C162.251 154.921 162.076 154.951 161.842 154.951H161.346V153.841H161.813C162.119 153.841 162.338 153.885 162.484 153.958C162.616 154.031 162.689 154.177 162.689 154.41C162.689 154.644 162.587 154.805 162.368 154.892V154.878Z" fill="#0047BA"/>
<path d="M161.944 152.163C161.156 152.163 160.499 152.44 159.944 152.995C159.39 153.55 159.112 154.221 159.112 155.009C159.112 155.797 159.39 156.469 159.93 157.023C160.484 157.578 161.156 157.855 161.944 157.855C162.732 157.855 163.404 157.578 163.959 157.023C164.513 156.469 164.791 155.797 164.791 155.009C164.791 154.221 164.513 153.55 163.959 152.995C163.404 152.44 162.732 152.163 161.944 152.163ZM163.696 156.746C163.214 157.228 162.645 157.461 161.959 157.461C161.273 157.461 160.689 157.228 160.222 156.746C159.755 156.264 159.506 155.681 159.506 155.009C159.506 154.338 159.74 153.754 160.222 153.272C160.703 152.791 161.287 152.557 161.959 152.557C162.63 152.557 163.214 152.805 163.696 153.272C164.178 153.754 164.411 154.323 164.411 155.009C164.411 155.695 164.163 156.279 163.696 156.746Z" fill="#0047BA"/>
</g>
<defs>
<clipPath id="clip0_5_199922">
<rect width="200" height="124" fill="white" transform="translate(0 38)"/>
</clipPath>
</defs>
</svg>
