<svg id="Layer_1" data-name="Layer 1" xmlns="http://www.w3.org/2000/svg" viewBox="0 0 800 800"><defs><style>.cls-1{fill:#fedd00;}.cls-2{fill:#fff;}</style></defs><title>CLB-Logo-New</title><g id="CREST_FC" data-name="CREST FC"><g id="SHIELD"><polygon id="OUTLINE" class="cls-1" points="175.97 95.06 624.03 95.06 556.68 735.8 400 645.34 243.32 735.8 175.97 95.06"/><path id="FLAG" d="M196,113.09,258.35,706.3,400,624.51,541.64,706.3,604,113.09Z"/></g><g id="DETAIL"><path class="cls-2" d="M555.87,270.44l9-85.11L494.08,144.5H305.91l-70.73,40.84,49.35,469.57L530.38,513l11-104.57-70.73-40.84-9.14,87-116,67L314.85,229.57H485.14L476,316.52Zm-91.4,362.69-7.89-4.51,0-6.83,7.88-4.58.14,8,15.66-.09-.09-16.45-10.26,6.14-13.29-7.54,0-23.74,7.88-4.58h15.8l8,4.51.05,45.09-8,4.59Zm.09-30.59,5.31,3,10.31-6.05-.05-12.58-15.57.09ZM504,633.13l-7.89-4.51,0-45.09L504,579h15.8l8,4.51,0,6.83-8,4.58-.14-7.92L504,587l.09,16.37,10.34-6.06,13.29,7.53,0,23.67-8,4.59Zm0-20.58.05,12.66,15.66-.09-.09-15.59-5.18-2.92Z"/><path d="M491.62,799.5,474,789.36l-17.54,10.13H446.13L446,733.35l10.28-6,.14,60.16,12.42-7.27,0-46.94,10.32-.09.09,47.1,12.42,7.12-.14-60L502,733.27l.05,66.23Zm-91.07,0-.09-70.61,31.7-.09,6,10.38-27.34.14.1,19.77,15.41-.09,5.95,10.38-21.46.13.1,19.67,27.16-.09.09,10.41Zm-20.45,0L380,774.28l-8.16-4.68-12.27,7.09,0,22.72-10.32.09-.09-70.61,30.89-.09,10.38,5.89,0,24.09-8.35,4.84,8.31,4.61,0,31.27Zm-20.48-34.74,20.43-12,0-13.5-20.39.09ZM308.27,799.5,298,793.61,298,734.77l10.28-5.95,20.61,0,10.38,5.89,0,8.9-10.38,5.95-.14-10.31-20.48.09.09,49.86,20.48-.09-.09-10.25,10.47,5.8,0,8.89-10.41,6ZM573.1,72.59,562.82,66.7l0-8.89,10.27-6,.14,10.41,20.47-.09-.09-14.5L562.82,29.93l0-22.06,10.27-5.95h20.61L604,7.79l.05,8.89-10.38,6-.14-10.31-20.47.09L573.19,24,604,41.63l.05,25-10.4,6Zm-51.26,0L511.56,66.7l0-60.25L521.79.5l.14,61.77,20.47-.09L542.31.58l10.47,5.8,0,60.24-10.4,6Zm-61.5,0L460.25,2l30.89-.09,10.38,5.88,0,21.56-8.35,4.84,8.31,4.6,0,27.83-10.4,6Zm10.28-25.34,0,15,20.48-.09-.09-17.33-8.12-4.66Zm0-11.93,20.43-11.93,0-11.06-20.39.09ZM439.87,72.59,439.78,14,427,21.52l.05,51-10.32.09-.09-51.14-13-7.42.14,58.47-10.32.09L393.29,2l10.32-.09,18.18,10.54,18-10.53h10.38l.09,70.68Zm-87.52,0L342.07,66.7l0-60.25L352.3.5l.14,61.77,20.47-.09L372.82.58l10.47,5.8,0,60.24-10.4,6Zm-53.8,0L298.46,2l10.32-.09.09,60.36L336,62.18l-5.82,10.41Zm-41,0L247.25,66.7,247.2,7.87l10.28-5.95h20.61l10.37,5.88.05,58.83-10.4,6Zm.09-10.32,20.48-.09L278,12.33l-20.39.09ZM206.26,72.59,196,66.7l0-58.83,10.27-5.95h20.61L237.2,7.79l.05,8.89-10.38,6-.14-10.31-20.47.09.09,49.85,20.47-.09-.09-10.24,10.47,5.79.05,8.89-10.4,6Z"/></g></g></svg>