<svg id="Layer_1" data-name="Layer 1" xmlns="http://www.w3.org/2000/svg" viewBox="0 0 800 800"><defs><style>.cls-1{fill:#fff;}.cls-2{fill:#daa900;}.cls-3{fill:#a32035;}.cls-4{fill:#001e61;}</style></defs><title>RSL-Logo</title><g id="RSL-Logo"><path class="cls-1" d="M465.41,556.56a65.74,65.74,0,0,0-12-37l-26.67.32-7.94-25.49a66.61,66.61,0,0,0-38.88,0L372,519.9l-26.68-.32a65.81,65.81,0,0,0-12,37L355.06,572l-8.55,25.26A66.22,66.22,0,0,0,378,620.1l21.4-15.94,21.4,15.94a66.25,66.25,0,0,0,31.45-22.86L443.65,572Zm-14.89-33.4A61.38,61.38,0,0,1,461,555.36l-15.85,11.22,7.48-26.3-21.5-16.88Zm-68.08-24.88a62.05,62.05,0,0,1,33.83,0l5.78,18.55-22.7-15.23-22.7,15.23Zm-28.85,68.3-15.85-11.22a61.39,61.39,0,0,1,10.45-32.2l19.43.24-21.5,16.88Zm24.59,48.92a61.81,61.81,0,0,1-27.37-19.91l6.23-18.4,9.41,25.67,27.32,1ZM399.35,600l-3.45-16.34-20.31-14.76L359,570.68l14.46-8.32,7.76-23.86-6.8-15.24,12.38,11.18h25.1l12.39-11.18-6.8,15.24,7.75,23.86,14.46,8.32-16.59-1.76L402.8,583.68Zm48.54-4.43a61.75,61.75,0,0,1-27.37,19.91l-15.58-11.62,27.31-1,9.42-25.67Z"/><polygon class="cls-1" points="380.06 567.17 393.89 548.71 414.1 541.21 388.15 541.21 380.06 567.17"/><path class="cls-2" d="M102.59,0V305.23C102.59,647.81,399.35,800,399.35,800S696.11,647.81,696.11,305.23V0ZM684.9,305.23c0,306.88-246.67,459.35-285.55,481.53-38.88-22.18-285.53-174.65-285.53-481.53v-294H684.9Z"/><path class="cls-2" d="M399.35,760.26c59-35.62,263.1-177.86,263.1-455V33.67H136.27V305.23C136.27,582.4,340.36,724.64,399.35,760.26ZM147.48,44.89H651.23V305.23c0,262.88-188,401.79-251.88,441.78-63.87-40-251.87-178.9-251.87-441.78Z"/><path class="cls-2" d="M521.55,201.13a193.07,193.07,0,0,1,58.6,110.52A198.56,198.56,0,0,0,523.9,196.11Z"/><path class="cls-2" d="M325,524.09A193.57,193.57,0,0,1,271.86,189.9l-6.11-13.12A199.11,199.11,0,0,0,324.15,526C324.42,525.33,324.71,524.73,325,524.09Z"/><path class="cls-2" d="M457.87,340.72q-19.78-17.79-43.66-20.83s71.24-5.46,71.24-46.84c0-19.9-24.89-46.81-102.45-46.81H291.88S304,233,304,238.77V327c11.28,5.52,26.68,10.62,42,16.83V326.75h25c13.27,0,20.86,3,27.78,8.79l72.67,67.66c10.17,8.71,30.35,19.31,47.91,19.31,22.56,0,31.57-7.53,31.57-7.53s-14.55-.91-25.61-10.38Zm-81.6-25H346V237.68h30.29c38.1,0,63.54,13.06,63.54,39C439.81,297.8,413.4,315.74,376.27,315.74Z"/><path class="cls-2" d="M304,373.74v29.35c0,6.75-10.85,12.48-10.85,12.48h64.31S346,409.84,346,403.09v-9.94C336.07,386.09,320.27,380.32,304,373.74Z"/><path class="cls-2" d="M259.4,132c4.8,11.36,6.84,15.34,6.84,15.34l-3.87,14.18,15,6.6,9.31,20.07s43.85-19.76,112.63-19.76S512,188.14,512,188.14l9.31-20.07,15-6.6-3.87-14.18s2-4,6.83-15.34,28.1-23.6,28.1-23.6c-19.67-20.23-36,20.23-56.75.57-7.16,10.7,7.86,23.6,7.86,23.6A23.73,23.73,0,0,1,500.92,146c-15.79,2.66-32.28,1.67-35.46-27.41,0,0-10.71,29.4-35.45,23-16.12-4.18-22.56-17-24.83-23.53,16-1.94,28.25-11.73,28.25-23.5H410.09c-.9-12-10.74-21.91-10.74-21.91s-9.84,9.89-10.74,21.91H365.27c0,11.77,12.21,21.56,28.25,23.5-2.28,6.5-8.72,19.35-24.83,23.53-24.74,6.44-35.44-23-35.44-23-3.19,29.08-19.68,30.07-35.46,27.41a23.7,23.7,0,0,1-17.58-13.43s15-12.9,7.85-23.6c-20.77,19.66-37.07-20.8-56.75-.57C231.31,108.35,254.62,120.6,259.4,132Z"/><path class="cls-2" d="M511,213.76a7.81,7.81,0,0,0,.82-3.42c0-15.78-50.37-28.56-112.47-28.56s-112.47,12.78-112.47,28.56a7.94,7.94,0,0,0,.81,3.42c23.94-12.67,65-21,111.66-21S487.08,201.09,511,213.76Z"/><path class="cls-2" d="M346.12,540.28l21.5-16.88-19.43-.24a61.39,61.39,0,0,0-10.45,32.2l15.85,11.22Z"/><path class="cls-2" d="M416.27,498.28a62.05,62.05,0,0,0-33.83,0l-5.79,18.55,22.7-15.23,22.7,15.23Z"/><path class="cls-2" d="M431.09,523.4l21.5,16.88-7.48,26.3L461,555.36a61.38,61.38,0,0,0-10.44-32.2Z"/><path class="cls-2" d="M357,577.19l-6.23,18.4a61.81,61.81,0,0,0,27.37,19.91l15.59-11.62-27.32-1Z"/><path class="cls-2" d="M432.25,602.86l-27.31,1,15.58,11.62a61.75,61.75,0,0,0,27.37-19.91l-6.22-18.4Z"/><path class="cls-3" d="M113.82,11.21v294c0,306.88,246.65,459.35,285.53,481.53C438.23,764.58,684.9,612.11,684.9,305.23v-294Zm548.63,294c0,277.17-204.11,419.41-263.1,455-59-35.62-263.08-177.86-263.08-455V33.67H662.45Z"/><path class="cls-3" d="M602.22,340.57A215,215,0,0,1,477.91,535.68a80.29,80.29,0,0,1,2.45,12.57,218.85,218.85,0,0,0,53-370l-3.26,1.41A214.74,214.74,0,0,1,602.22,340.57Z"/><path class="cls-3" d="M318.07,551.21c.18-2.46.48-4.88.88-7.28a215,215,0,0,1-118.14-99.52A218.51,218.51,0,0,0,318.07,551.21Z"/><path class="cls-3" d="M406.08,284.65v19.42c17-6.06,26.8-17,26.8-27.36a28.74,28.74,0,0,0-.3-4H396S406.08,275.27,406.08,284.65Z"/><path class="cls-3" d="M406.08,351.8v89.48c0,9.38-10.06,12-10.06,12H514.89c47.65,0,31.28-28,31.28-28s-9.31,16.28-37.53,16.28H441.49V384.76Z"/><path class="cls-3" d="M370.21,309.74s12.26-6.09,12.26-17.22c0-10.81-13.5-16.67-29.56-19.61v13.55C364.07,291.56,369.5,299.86,370.21,309.74Z"/><path class="cls-3" d="M247.12,425.21c0,16,30.38,30.36,73.14,30.36,53.71,0,76.06-27.83,76.06-54.13,0-56.36-116.76-55.21-116.76-92.29,0-9.68,7.34-17.58,17.51-22.53V273.31c-24,5.61-47,19.53-47,44.07,0,52.23,113.16,50.5,113.16,91.62,0,21.15-14.78,35.57-43,35.57-32,0-59.09-16.65-52.38-41.54C267.88,403,247.12,407.85,247.12,425.21Z"/><path class="cls-3" d="M333.86,563.79a36.41,36.41,0,0,0,7.88,26.13l2.47-7.61S335.27,574.22,333.86,563.79Z"/><path class="cls-3" d="M385,621.79a36.51,36.51,0,0,0,27.28.58l-6.46-4.7S395.37,623.67,385,621.79Z"/><path class="cls-3" d="M458.51,570S461,581.79,456,591.05a36.44,36.44,0,0,0,9-25.77Z"/><path class="cls-3" d="M427,497.56l2.47,7.58s12,1.31,19.27,8.92A36.4,36.4,0,0,0,427,497.56Z"/><path class="cls-3" d="M373.21,497.21a36.44,36.44,0,0,0-22.41,15.57h8S363.73,501.77,373.21,497.21Z"/><path class="cls-3" d="M417.49,538.5l6.8-15.24L411.9,534.44H386.8l-12.38-11.18,6.8,15.24-7.76,23.86L359,570.68l16.59-1.76,20.31,14.76L399.35,600l3.45-16.34,20.31-14.76,16.59,1.76-14.46-8.32Zm-23.6,10.21-13.83,18.46,8.09-26h26Z"/><path class="cls-4" d="M147.48,44.89V305.23c0,262.88,188,401.79,251.87,441.78,63.87-40,251.88-178.9,251.88-441.78V44.89Zm194.26,545a36.41,36.41,0,0,1-7.88-26.13c1.41,10.43,10.35,18.52,10.35,18.52ZM385,621.79c10.35,1.88,20.82-4.12,20.82-4.12l6.46,4.7A36.51,36.51,0,0,1,385,621.79ZM458.51,570l6.46-4.69a36.44,36.44,0,0,1-9,25.77C461,581.79,458.51,570,458.51,570Zm-14.86,2,8.55,25.26a66.25,66.25,0,0,1-31.45,22.86l-21.4-15.94L378,620.1a66.22,66.22,0,0,1-31.44-22.86L355.06,572l-21.77-15.42a65.81,65.81,0,0,1,12-37l26.68.32,7.93-25.49a66.61,66.61,0,0,1,38.88,0l7.94,25.49,26.67-.32a65.74,65.74,0,0,1,12,37ZM320.26,444.57c28.23,0,43-14.42,43-35.57,0-41.12-113.16-39.39-113.16-91.62,0-24.54,22.95-38.46,47-44.07v13.31c-10.17,4.95-17.51,12.85-17.51,22.53,0,37.08,116.76,35.93,116.76,92.29,0,26.3-22.35,54.13-76.06,54.13-42.76,0-73.14-14.41-73.14-30.36,0-17.36,20.76-22.18,20.76-22.18C261.17,427.92,288.28,444.57,320.26,444.57Zm37.21-29H293.16S304,409.84,304,403.09V373.74c16.26,6.58,32.06,12.35,42,19.41v9.94C346,409.84,357.47,415.57,357.47,415.57ZM511,213.76c-23.92-12.67-65-21-111.65-21s-87.72,8.36-111.66,21a7.94,7.94,0,0,1-.81-3.42c0-15.78,50.37-28.56,112.47-28.56s112.47,12.78,112.47,28.56A7.81,7.81,0,0,1,511,213.76Zm-62.31,300.3c-7.26-7.61-19.27-8.92-19.27-8.92L427,497.56A36.4,36.4,0,0,1,448.69,514.06Zm-75.48-16.85c-9.48,4.56-14.43,15.57-14.43,15.57h-8A36.44,36.44,0,0,1,373.21,497.21Zm22.81-44s10.06-2.58,10.06-12V351.8l35.41,33v56.78h67.15c28.22,0,37.53-16.28,37.53-16.28s16.37,28-31.28,28Zm123.33-30.73c-17.56,0-37.74-10.6-47.91-19.31l-72.67-67.66c-6.92-5.81-14.51-8.83-27.78-8.79H346v17.12c-15.29-6.21-30.69-11.31-42-16.83V238.77c0-5.76-12.13-12.53-12.13-12.53H383c77.56,0,102.45,26.91,102.45,46.81,0,41.38-71.24,46.84-71.24,46.84q23.88,3.06,43.66,20.83l67.44,63.88c11.06,9.47,25.61,10.38,25.61,10.38S541.91,422.51,519.35,422.51Zm2.2-221.38,2.35-5a198.56,198.56,0,0,1,56.25,115.54A193.07,193.07,0,0,0,521.55,201.13Zm-.26-33.06L512,188.14s-43.85-19.76-112.63-19.76-112.63,19.76-112.63,19.76l-9.31-20.07-15-6.6,3.87-14.18s-2-4-6.84-15.34-28.09-23.6-28.09-23.6c19.68-20.23,36,20.23,56.75.57,7.17,10.7-7.85,23.6-7.85,23.6A23.7,23.7,0,0,0,297.79,146c15.78,2.66,32.27,1.67,35.46-27.41,0,0,10.7,29.4,35.44,23,16.11-4.18,22.55-17,24.83-23.53-16-1.94-28.25-11.73-28.25-23.5h23.34c.9-12,10.74-21.91,10.74-21.91s9.84,9.89,10.74,21.91h23.34c0,11.77-12.21,21.56-28.25,23.5,2.27,6.5,8.71,19.35,24.83,23.53,24.74,6.44,35.45-23,35.45-23,3.18,29.08,19.67,30.07,35.46,27.41a23.73,23.73,0,0,0,17.58-13.43s-15-12.9-7.86-23.6c20.77,19.66,37.08-20.8,56.75-.57,0,0-23.31,12.25-28.1,23.6s-6.83,15.34-6.83,15.34l3.87,14.18Zm-255.54,8.71,6.11,13.12A193.57,193.57,0,0,0,325,524.09c-.27.64-.56,1.24-.83,1.86a199.11,199.11,0,0,1-58.4-349.17ZM200.81,444.41A215,215,0,0,0,319,543.93c-.4,2.4-.7,4.82-.88,7.28A218.51,218.51,0,0,1,200.81,444.41ZM480.36,548.25a80.29,80.29,0,0,0-2.45-12.57,215.36,215.36,0,0,0,52.18-356l3.26-1.41a218.85,218.85,0,0,1-53,370Z"/><path class="cls-4" d="M439.81,276.71c0-26-25.44-39-63.54-39H346v78.06h30.29C413.4,315.74,439.81,297.8,439.81,276.71Zm-69.6,33c-.71-9.88-6.14-18.18-17.3-23.28V272.91c16.06,2.94,29.56,8.8,29.56,19.61C382.47,303.65,370.21,309.74,370.21,309.74Zm35.87-5.67V284.65c0-9.38-10.06-11.95-10.06-11.95h36.56a28.74,28.74,0,0,1,.3,4C432.88,287.09,423.09,298,406.08,304.07Z"/></g></svg>