<svg width="480" height="480" viewBox="0 0 480 480" fill="none" xmlns="http://www.w3.org/2000/svg">
<path d="M407.56 286.395V68.4541C407.56 54.7492 398.768 42.82 385.688 38.7602C338.856 24.2418 290.02 16.8809 240.535 16.8809C191.051 16.8809 142.215 24.2418 95.3824 38.7602C82.2955 42.8122 73.5109 54.7492 73.5109 68.4541V286.395C73.5109 331.006 90.8845 372.958 122.432 404.506C129.214 411.288 136.583 417.507 144.351 422.998C176.079 445.761 240.543 462.415 240.543 462.415C240.543 462.415 305.008 445.761 336.736 422.998C344.503 417.507 351.88 411.28 358.654 404.506C390.186 372.958 407.56 331.014 407.56 286.395Z" fill="#02152B"/>
<path d="M388.755 28.8648C340.936 14.0413 291.06 6.52393 240.535 6.52393C190.002 6.52393 140.134 14.0413 92.3081 28.8726C74.8641 34.2701 63.1461 50.1809 63.1461 68.4541V286.395C63.1461 333.775 81.5992 378.324 115.103 411.827C120.758 417.483 126.844 422.802 133.227 427.676C133.227 427.676 137.631 430.93 138.148 431.298L138.304 431.407C170.775 454.702 236.906 472.506 239.706 473.249L240.535 473.468L241.365 473.249C244.165 472.506 310.296 454.702 342.775 431.399L342.915 431.298C343.416 430.938 347.836 427.676 347.875 427.644C354.219 422.802 360.305 417.475 365.968 411.82C399.472 378.316 417.925 333.767 417.925 286.387V68.4541C417.925 50.1809 406.207 34.2701 388.755 28.8648ZM407.56 286.395C407.56 331.014 390.186 372.958 358.638 404.506C351.864 411.28 344.488 417.499 336.72 422.998C304.992 445.761 240.528 462.415 240.528 462.415C240.528 462.415 176.063 445.761 144.335 422.998C136.567 417.507 129.199 411.288 122.417 404.506C90.8688 372.958 73.4952 331.014 73.4952 286.395V68.4541C73.4952 54.7492 82.2876 42.82 95.3667 38.7602C142.2 24.2417 191.035 16.8808 240.52 16.8808C290.004 16.8808 338.84 24.2417 385.673 38.7602C398.76 42.8122 407.544 54.7492 407.544 68.4541V286.395H407.56Z" fill="url(#paint0_linear_372_5312)"/>
<path d="M382.239 48.8355C336.525 34.6612 288.847 27.4802 240.528 27.4802C192.208 27.4802 144.539 34.6612 98.8243 48.8355C89.8832 51.6046 83.8756 59.7634 83.8756 69.1268V286.207C83.8756 328.049 100.17 367.388 129.762 396.981C136.2 403.418 143.099 409.23 150.39 414.378H150.382C181.445 436.664 240.528 451.002 240.528 451.002C240.528 451.002 299.61 436.664 330.673 414.378H330.665C337.956 409.23 344.855 403.418 351.293 396.981C380.878 367.388 397.18 328.049 397.18 286.207V69.1268C397.187 59.7634 391.18 51.6046 382.239 48.8355ZM101.898 58.7308C146.619 44.8695 193.264 37.8371 240.535 37.8371C287.814 37.8371 334.452 44.8695 379.172 58.7308C383.749 60.1467 386.831 64.3317 386.831 69.1268V151.364C339.708 136.228 290.529 128.554 240.535 128.554C190.534 128.554 141.363 136.228 94.2403 151.364V69.1268C94.2403 64.3317 97.3145 60.1545 101.898 58.7308ZM94.2403 162.91C120.281 154.337 146.979 148.11 174.107 144.253C157.837 151.88 142.841 162.355 129.762 175.441C113.992 191.212 102 209.751 94.2403 229.956V162.91ZM344.159 389.839C316.476 417.522 279.679 432.76 240.528 432.76C201.376 432.76 164.58 417.514 136.904 389.839C109.228 362.163 93.9822 325.358 93.9822 286.215C93.9822 247.072 109.228 210.267 136.904 182.583C164.58 154.908 201.384 139.662 240.528 139.662C279.671 139.662 316.476 154.908 344.159 182.583C371.835 210.267 387.081 247.064 387.081 286.215C387.081 325.366 371.843 362.163 344.159 389.839ZM351.309 175.441C338.222 162.355 323.234 151.88 306.956 144.253C334.084 148.11 360.782 154.344 386.831 162.918V229.956C379.063 209.743 367.071 191.204 351.309 175.441Z" fill="#697A7C"/>
<path d="M122.041 76.7855C122.064 80.8454 122.088 84.1934 122.111 88.2532C125.616 87.3145 129.128 86.4228 132.64 85.5623C132.64 80.6968 132.64 75.8312 132.64 70.9657C132.64 65.9749 128.424 62.9398 123.246 64.3166C120.156 65.1379 117.066 65.9906 113.984 66.8745C108.829 68.353 104.667 73.7113 104.667 78.6942C104.667 82.7697 104.667 86.8452 104.667 90.9207C104.667 93.6429 105.614 95.9818 107.35 97.5932C111.778 101.684 116.221 105.838 120.68 110.062C121.712 111.04 122.276 112.456 122.276 114.059C122.276 116.602 122.276 118.432 122.276 120.974C122.276 121.405 121.916 121.843 121.478 121.96C119.6 122.469 117.723 122.985 115.853 123.517C115.415 123.642 115.055 123.399 115.055 122.969C115.055 118.557 115.055 114.865 115.055 110.453C111.582 111.439 108.125 112.471 104.675 113.543C104.675 118.729 104.675 123.916 104.675 129.102C104.675 134.093 108.837 136.831 113.992 135.352C117.074 134.468 120.156 133.616 123.253 132.794C128.432 131.417 132.648 126.364 132.648 121.373C132.648 117.368 132.648 113.355 132.648 109.35C132.648 106.62 131.686 104.203 129.918 102.506C125.522 98.2894 121.141 94.1435 116.769 90.0602C115.728 89.0902 115.165 87.6822 115.165 86.0708C115.165 84.7097 115.165 84.0526 115.165 82.6837C115.165 79.2496 111.88 78.8976 111.66 78.9289C111.653 78.9289 111.645 78.9289 111.645 78.9289H111.653C114.844 77.9902 118.036 77.0906 121.243 76.2302C121.681 76.1128 122.033 76.3553 122.041 76.7855Z" fill="white"/>
<path d="M162.326 56.2406C157.351 57.1011 152.392 58.0476 147.44 59.0801C143.85 82.3362 140.267 105.631 136.692 128.966C140.463 128.09 144.233 127.26 148.019 126.478C148.488 122.911 148.966 119.696 149.435 116.129C153.041 115.394 156.655 114.705 160.277 114.064C160.754 117.451 161.223 120.486 161.701 123.873C165.463 123.216 169.234 122.606 173.004 122.043C169.445 100.062 165.886 78.1356 162.326 56.2406ZM150.749 105.021C152.095 94.6409 153.448 79.2933 154.801 68.9286C156.154 78.777 157.508 93.6084 158.853 103.472C156.154 103.965 153.448 104.482 150.749 105.021Z" fill="white"/>
<path d="M177.933 53.8105C181.844 53.2707 185.755 52.7779 189.674 52.3399C192.514 63.2991 195.353 74.2896 198.201 85.3036C198.201 74.0237 198.201 62.7515 198.201 51.4716C201.838 51.1352 205.483 50.838 209.128 50.5876C209.128 73.0928 209.128 95.5979 209.128 118.103C205.202 118.377 201.275 118.698 197.348 119.065C194.446 107.824 191.551 96.607 188.657 85.4209C188.657 96.9356 188.657 108.458 188.657 119.973C185.082 120.379 181.507 120.833 177.94 121.326C177.933 98.8208 177.933 76.3156 177.933 53.8105Z" fill="white"/>
<path d="M246.293 49.5394C239.784 49.4612 233.276 49.516 226.768 49.7115C226.768 72.2167 226.768 94.7218 226.768 117.227C233.276 117.031 239.784 116.977 246.293 117.055C251.385 117.117 255.515 113.386 255.515 108.599C255.515 91.8666 255.515 75.1344 255.515 58.4101C255.507 53.6306 251.385 49.602 246.293 49.5394ZM244.728 104.68C244.728 105.126 244.337 105.485 243.86 105.485C241.756 105.47 239.644 105.47 237.539 105.485C237.539 91.3034 237.539 79.781 237.539 65.5989C237.5 62.1023 233.941 60.9211 233.941 60.9211C233.949 60.9211 233.957 60.9211 233.964 60.9211C233.933 60.9133 233.918 60.9133 233.918 60.9133C237.234 60.8663 240.551 60.8507 243.868 60.8741C244.345 60.8741 244.736 61.2418 244.736 61.6955C244.728 76.9179 244.728 89.4651 244.728 104.68Z" fill="white"/>
<path d="M263.072 117.578C266.663 117.758 270.253 117.977 273.836 118.235C273.836 95.7298 273.836 73.2247 273.836 50.7196C270.245 50.4614 266.663 50.2346 263.072 50.0625C263.072 72.5598 263.072 95.0649 263.072 117.578Z" fill="white"/>
<path d="M307.411 54.4274C298.752 53.1445 290.069 52.1198 281.363 51.3375C281.363 60.5758 281.363 69.8219 281.363 79.0602C281.363 88.9478 281.363 98.8432 281.363 108.731C281.363 112.11 281.363 115.481 281.363 118.861C290.061 119.643 298.752 120.668 307.411 121.951C307.411 118.571 307.411 114.488 307.411 111.109C302.319 110.358 297.219 109.693 292.103 109.114C292.103 102.598 292.103 96.7937 292.103 90.2854C296.71 90.8095 301.302 91.404 305.894 92.0611C305.894 88.6818 305.894 85.3103 305.894 81.9311C301.302 81.2661 296.702 80.6795 292.103 80.1554C292.103 75.853 292.103 72.2625 292.103 67.968C292.048 64.487 288.52 62.8834 288.52 62.8913C288.583 62.9069 288.645 62.9225 288.708 62.9382C288.598 62.9069 288.528 62.8913 288.528 62.8913C294.833 63.5562 301.13 64.354 307.403 65.2771C307.411 61.89 307.411 57.7989 307.411 54.4274Z" fill="white"/>
<path d="M330.775 70.1359C330.798 74.446 330.822 78.0443 330.845 82.3545C334.389 83.0663 337.925 83.8251 341.453 84.623C341.453 79.5149 341.453 74.4147 341.453 69.3067C341.453 64.3238 337.236 59.3174 332.011 58.2536C328.874 57.6121 325.737 57.0098 322.593 56.431C317.352 55.4766 313.096 58.8403 313.096 63.8232C313.096 80.6414 313.096 97.4518 313.096 114.27C313.096 119.253 317.359 123.962 322.593 124.916C325.737 125.487 328.874 126.098 332.011 126.739C337.236 127.803 341.453 124.736 341.453 119.746C341.453 111.086 341.453 102.435 341.453 93.7752C336.751 92.7114 332.034 91.7258 327.302 90.8105C329.555 93.1182 330.845 96.0985 330.845 98.9459C330.845 104.328 330.845 108.998 330.845 114.38C330.845 114.825 330.462 115.115 329.993 115.021C328.154 114.653 326.308 114.301 324.462 113.957C323.993 113.871 323.61 113.433 323.61 112.987C323.61 99.0867 323.61 86.6099 323.61 72.7094C323.61 69.1581 320.05 67.2885 320.05 67.2963C320.058 67.2963 320.074 67.3041 320.082 67.3041C320.066 67.2963 320.05 67.2963 320.05 67.2963C323.344 67.8752 326.629 68.4931 329.914 69.1502C330.392 69.2519 330.775 69.69 330.775 70.1359Z" fill="white"/>
<path d="M367.048 66.8583C363.989 65.9821 360.93 65.1295 357.856 64.316C352.654 62.9392 348.422 65.9821 348.422 70.9885C348.422 87.7676 348.422 104.555 348.422 121.334C348.422 126.348 352.654 131.417 357.856 132.794C360.923 133.607 363.989 134.452 367.048 135.336C372.226 136.822 376.403 134.076 376.403 129.062C376.403 112.283 376.403 95.4962 376.403 78.7171C376.403 73.7185 372.226 68.3445 367.048 66.8583ZM365.952 123.07C365.952 123.43 365.647 123.633 365.28 123.532C363.402 123 361.525 122.484 359.64 121.975C359.264 121.873 358.959 121.498 358.959 121.138C358.959 107.183 358.959 94.6514 358.959 80.704C358.959 77.1526 355.447 75.0014 355.447 75.0092C358.732 75.854 362.01 76.738 365.28 77.661C365.655 77.7705 365.952 78.146 365.952 78.5059C365.952 93.83 365.952 107.738 365.952 123.07Z" fill="white"/>
<path d="M365.976 282.601C365.726 272.925 364.325 263.256 361.83 253.846C361.603 253.197 361.345 252.492 361.071 251.788C360.234 249.622 359.288 247.627 358.271 245.867C353.679 237.911 346.991 233.609 337.221 232.334C334.178 231.935 330.431 231.708 326.934 231.708L240.629 231.826C233.276 231.833 226.134 233.288 219.391 236.144L218.265 236.621L225.36 224.332C227.026 221.664 229.889 220.068 233.049 220.068H335.562C340.592 220.17 344.965 221.203 348.555 223.151L349.369 223.589L348.9 222.791C347.147 219.787 345.246 216.814 343.252 213.975C341.288 211.174 338.073 209.5 334.655 209.5H233.925L238.447 201.67C240.129 199.089 242.96 197.54 246.027 197.54H246.128C246.167 197.54 246.199 197.532 246.238 197.54H329.523L329.077 197.094C325.503 193.535 321.654 190.14 317.618 187.003L317.422 186.878C312.916 183.389 308.152 180.198 303.263 177.374C302.411 176.881 301.566 176.404 300.721 175.919C292.007 171.163 282.714 167.447 273.085 164.858C272.482 164.748 271.833 164.631 271.168 164.529C258.558 162.566 249.688 165.937 242.389 175.457C240.528 177.882 238.455 181.019 236.702 184.054L193.648 258.852C189.979 265.22 187.664 272.135 186.772 279.402L186.623 280.614L179.536 268.325C178.05 265.548 178.105 262.263 179.685 259.54L230.953 170.74C233.558 166.422 236.648 163.152 240.129 161.025L240.919 160.54H239.996C236.507 160.555 232.979 160.712 229.521 161.017C226.111 161.314 223.06 163.262 221.347 166.219L170.97 253.478L166.457 245.648C165.08 242.949 165.127 239.804 166.582 237.168L166.848 236.707L208.416 164.701L207.814 164.866C202.925 166.188 198.06 167.838 193.35 169.755L193.147 169.841C189.252 171.436 185.379 173.251 181.64 175.246L181.578 175.277C180.287 175.966 179.067 176.646 177.831 177.35L177.307 177.655C168.084 183.037 159.597 189.553 152.071 197.024C151.618 197.548 151.133 198.127 150.656 198.721C142.653 208.656 141.136 218.035 145.728 229.103C146.901 231.927 148.575 235.291 150.327 238.326L193.546 313.03C195.924 317.145 198.834 320.931 202.182 324.279C203.934 326.031 205.859 327.705 207.892 329.246L208.862 329.981L194.86 329.974C191.692 329.919 188.751 328.182 187.179 325.437L135.934 236.676C133.493 232.256 132.203 227.938 132.093 223.855L132.07 222.924L131.608 223.729C129.879 226.772 128.252 229.909 126.789 233.069C125.35 236.167 125.514 239.781 127.22 242.738L177.588 329.974H168.765C165.612 329.888 162.687 328.135 161.138 325.398L119.452 253.204L119.288 253.814C117.95 258.844 116.917 263.999 116.221 269.131C115.47 274.732 115.087 280.403 115.087 285.988C115.087 287.13 115.095 288.264 115.103 289.391C115.353 299.067 116.745 308.736 119.249 318.146C119.475 318.795 119.734 319.499 120.007 320.211C124.615 332.109 131.968 338.109 143.858 339.673C146.893 340.072 150.64 340.299 154.144 340.299L240.449 340.221C245.198 340.221 249.93 339.595 254.514 338.367C256.908 337.726 259.317 336.897 261.672 335.903L262.79 335.426L255.719 347.676C254.06 350.343 251.19 351.939 248.045 351.939H145.501C140.471 351.837 136.098 350.805 132.515 348.857L131.702 348.419L132.171 349.217C133.923 352.213 135.824 355.185 137.819 358.033C139.782 360.833 142.997 362.507 146.416 362.507H247.145L242.624 370.337C240.95 372.927 238.11 374.468 235.044 374.468H234.95C234.903 374.468 234.872 374.468 234.833 374.468H151.547L151.993 374.914C155.568 378.473 159.417 381.868 163.453 385.004L163.649 385.13C168.154 388.611 172.918 391.81 177.815 394.634C178.66 395.119 179.497 395.596 180.334 396.073C189.056 400.837 198.357 404.561 208.002 407.15C208.596 407.259 209.253 407.377 209.918 407.478C222.528 409.442 231.399 406.07 238.697 396.55C240.559 394.118 242.632 390.989 244.384 387.954L287.439 313.155C291.107 306.788 293.423 299.873 294.315 292.606L294.463 291.393L301.558 303.69C303.037 306.467 302.982 309.745 301.41 312.459L250.141 401.252C247.529 405.57 244.439 408.847 240.958 410.975L240.168 411.46H241.099C244.58 411.444 248.1 411.288 251.573 410.983C254.983 410.686 258.034 408.738 259.747 405.773L310.124 318.514L314.645 326.344C316.061 329.113 315.967 332.367 314.387 335.05C314.363 335.097 314.348 335.129 314.324 335.16L272.686 407.283L273.296 407.119C278.185 405.789 283.058 404.146 287.783 402.214L287.963 402.136C291.858 400.54 295.715 398.725 299.438 396.746L299.61 396.66C300.862 395.995 302.098 395.307 303.279 394.626L303.772 394.344C313.01 388.955 321.505 382.439 329.046 374.953C329.5 374.429 329.977 373.85 330.462 373.255C338.464 363.313 339.99 353.942 335.39 342.873C334.217 340.049 332.543 336.685 330.791 333.65C316.921 309.62 290.536 264.117 287.548 258.962C283.879 252.625 279.045 247.165 273.171 242.738L272.193 242.003H286.242C289.402 242.057 292.351 243.794 293.923 246.532L345.176 335.301C347.617 339.72 348.907 344.038 349.017 348.122L349.04 349.053L349.502 348.247C351.238 345.212 352.858 342.067 354.32 338.907C355.76 335.809 355.595 332.195 353.89 329.238L303.498 242.026H312.322C315.474 242.112 318.4 243.857 319.949 246.602L361.634 318.795L361.791 318.185C363.128 313.148 364.161 307.977 364.865 302.838C365.616 297.245 365.992 291.581 365.992 286.004C365.992 284.862 365.984 283.735 365.976 282.601ZM356.667 289.047L329.547 242.081L330.29 242.112C332.316 242.198 334.248 242.362 335.867 242.574C343.971 243.637 348.188 247.142 351.426 255.52C354.891 264.476 356.652 275.248 356.659 287.521L356.667 289.047ZM262.321 248.284C272.396 254.104 279.608 263.522 282.636 274.802C283.613 278.455 284.114 282.233 284.13 286.019C284.13 297.636 279.569 308.595 271.293 316.871C268.618 319.546 265.598 321.87 262.329 323.778C255.773 327.564 248.272 329.559 240.621 329.559C232.948 329.559 225.383 327.549 218.75 323.747C208.675 317.927 201.462 308.517 198.435 297.237C197.457 293.584 196.957 289.805 196.941 286.019C196.941 274.403 201.501 263.444 209.778 255.168C212.453 252.492 215.472 250.169 218.742 248.268C225.422 244.412 232.924 242.488 240.449 242.488C247.99 242.472 255.562 244.412 262.321 248.284ZM269.572 174.722C278.709 176.146 288.135 179.791 299.235 186.19L300.557 186.948H246.997L247.396 186.323C248.483 184.617 249.586 183.021 250.587 181.723C255.554 175.238 260.702 173.337 269.572 174.722ZM155.247 225.161C152.118 217.612 153.041 212.207 158.681 205.214C164.478 198.017 172.347 191.673 183.447 185.259L184.769 184.492L157.985 230.879L157.641 230.214C156.695 228.423 155.873 226.671 155.247 225.161ZM151.516 329.942L150.773 329.911C148.747 329.825 146.815 329.661 145.196 329.45C137.092 328.386 132.875 324.881 129.637 316.503C126.171 307.539 124.411 296.775 124.404 284.502V282.976L151.516 329.942ZM234.074 385.067L233.675 385.693C232.58 387.406 231.477 389.002 230.484 390.292C226.439 395.573 222.38 397.724 216.474 397.724C214.964 397.724 213.337 397.583 211.491 397.294C202.354 395.87 192.928 392.225 181.828 385.826L180.506 385.067H234.074ZM296.309 387.523L323.093 341.136L323.437 341.801C324.376 343.608 325.205 345.36 325.831 346.862C328.968 354.411 328.037 359.816 322.397 366.809C316.601 374.014 308.731 380.35 297.631 386.765L296.309 387.523Z" fill="white"/>
<path d="M215.269 272.44V303.768C215.269 306.749 217.686 309.166 220.667 309.166H224.124C224.413 309.166 224.648 308.931 224.648 308.642V294.194H235.154C235.443 294.194 235.678 293.959 235.678 293.67V284.838C235.678 284.549 235.443 284.314 235.154 284.314H224.648V272.44C224.648 271.61 225.321 270.93 226.158 270.93H248.022C248.178 270.93 248.248 271.133 248.123 271.227L243.664 274.583C242.272 275.631 241.427 277.25 241.357 278.987V296.22C241.357 303.33 246.879 309.401 253.982 309.667C261.453 309.948 267.625 303.956 267.625 296.541V291.206C267.625 290.916 267.39 290.682 267.1 290.682H258.762C258.472 290.682 258.238 290.916 258.238 291.206V296.541C258.238 298.778 256.274 300.561 253.99 300.264C252.097 300.022 250.728 298.316 250.728 296.408V274.841C250.728 272.878 252.16 271.125 254.115 270.938C256.352 270.726 258.238 272.479 258.238 274.677V280.465C258.238 280.755 258.472 280.99 258.762 280.99H267.1C267.39 280.99 267.625 280.755 267.625 280.465V274.677C267.625 267.425 261.742 261.543 254.491 261.543H226.166C220.142 261.559 215.269 266.432 215.269 272.44Z" fill="white"/>
<defs>
<linearGradient id="paint0_linear_372_5312" x1="240.534" y1="3.31782" x2="240.534" y2="468.389" gradientUnits="userSpaceOnUse">
<stop stop-color="#F9A51A"/>
<stop offset="0.00578541" stop-color="#F9A31A"/>
<stop offset="0.1127" stop-color="#F47B1E"/>
<stop offset="0.1978" stop-color="#F16321"/>
<stop offset="0.25" stop-color="#F05A22"/>
<stop offset="0.55" stop-color="#EC1C24"/>
<stop offset="0.5828" stop-color="#DA2E33"/>
<stop offset="0.6488" stop-color="#AB5E58"/>
<stop offset="0.65" stop-color="#AA5F59"/>
<stop offset="0.8327" stop-color="#0F8AC8"/>
<stop offset="0.85" stop-color="#008ED3"/>
<stop offset="0.8631" stop-color="#007BC4"/>
<stop offset="0.8809" stop-color="#006AB6"/>
<stop offset="0.9025" stop-color="#005DAC"/>
<stop offset="0.9316" stop-color="#0056A7"/>
<stop offset="1" stop-color="#0054A5"/>
</linearGradient>
</defs>
</svg>
