<svg width="480" height="480" viewBox="0 0 480 480" fill="none" xmlns="http://www.w3.org/2000/svg">
<g clip-path="url(#clip0_593_637)">
<path d="M240.414 0L439.827 95.9979L423.805 235.56C417.711 288.926 405.535 326.132 384.342 356.058C363.285 385.846 333.36 407.697 306.221 428.361C284.9 444.384 261.205 463.183 240.414 480C219.622 463.183 195.928 444.384 174.606 428.223C147.457 407.697 117.531 385.846 96.4857 356.058C75.3024 326.132 63.1159 288.926 57.0226 235.56L41 95.9979L240.414 0Z" fill="#78DED4"/>
<path d="M250.354 216.75V327.774C254.063 313.066 258.037 296.111 259.499 289.35C263.208 272.395 270.361 239.004 274.865 215.69C265.592 216.22 257.772 216.623 250.354 216.75Z" fill="#4FB84F"/>
<path d="M158.35 279.336C161.074 279.336 163.151 277.153 163.151 274.43C163.151 271.706 161.074 269.576 158.35 269.576C155.627 269.576 153.497 271.653 153.497 274.43C153.497 277.206 155.521 279.336 158.35 279.336Z" fill="#4FB84F"/>
<path d="M397.81 232.519L411.459 111.554L242.003 29.9473L247.704 104.804C264.13 105.472 278.308 107.983 285.991 110.633V110.897C285.991 110.897 277.641 113.812 277.641 119.64C277.641 129.05 305.733 135.006 333.953 146.005V146.27C333.953 146.27 296.196 138.979 240.414 138.979C184.631 138.979 146.874 146.27 146.874 146.27V146.005C175.094 135.006 203.187 129.05 203.187 119.64C203.187 113.812 194.836 110.897 194.836 110.897V110.633C202.519 107.983 216.698 105.461 233.123 104.804L238.824 29.9473L69.3682 111.554L83.0171 232.519C94.8115 336.655 129.252 361.293 194.169 410.315C205.295 418.665 217.355 427.8 230.474 438.269V216.751C223.321 216.613 215.765 216.221 206.896 215.691C209.545 249.877 213.391 311.742 213.391 348.704C213.391 369.898 212.724 385.666 212.724 385.666C203.844 317.305 193.649 249.209 188.616 214.228C153.37 210.519 140.919 202.307 139.202 201.109C155.098 195.016 198.821 192.494 240.424 192.494C282.028 192.494 325.751 195.281 341.647 201.109C339.919 202.434 326.811 210.784 289.849 214.493C277.397 279.41 265.338 344.73 265.338 386.334C265.338 404.486 266.005 417.87 266.535 425.553C273.561 420.255 280.311 415.083 286.669 410.315C351.586 361.293 386.037 336.655 397.821 232.519H397.81ZM158.351 261.989C165.663 261.989 171.12 267.287 171.12 274.43C171.12 277.27 170.251 279.887 167.899 283.872L160.862 296.037H151.526L157.259 285.938C157.037 285.991 156.719 286.044 156.443 286.044C149.894 285.557 145.582 280.587 145.582 274.419C145.582 267.266 150.986 261.978 158.351 261.978V261.989ZM139.637 262.529V296.037H131.127V272.024L123.328 275.786V267.489L133.755 262.519H139.647L139.637 262.529ZM333.953 183.232C330.901 180.318 305.066 174.352 240.414 174.352C175.762 174.352 149.926 180.18 146.874 183.232C144.882 183.095 111.502 180.71 111.502 173.96C111.502 167.867 161.318 157.132 240.414 157.132C319.509 157.132 369.326 167.867 369.326 173.96C369.326 180.721 335.935 183.105 333.953 183.232ZM308.817 296.037L320.823 270.064H307.567V262.529H333.158V262.688L317.984 296.026H308.817V296.037ZM330.647 289.711L342.876 262.54H351.714L342.6 282.844H347.782V276.846H355.317V282.844H359.131V289.933H355.317V296.048H347.782V289.933H330.647V289.711Z" fill="#4FB84F"/>
<path d="M333.148 262.529H307.556V270.064H320.813L308.806 296.037H317.973L333.148 262.699V262.529Z" fill="#0033A1"/>
<path d="M347.771 296.037H355.306V289.922H359.121V282.833H355.306V276.825H347.771V282.833H342.59L351.703 262.529H342.865L330.636 289.71V289.922H347.771V296.037Z" fill="#0033A1"/>
<path d="M123.317 267.499V275.786L131.117 272.024V296.037H139.636V262.529H133.734L123.317 267.499Z" fill="#0033A1"/>
<path d="M156.443 286.054C156.719 286.054 157.047 286.001 157.259 285.948L151.526 296.047H160.862L167.899 283.882C170.24 279.897 171.12 277.28 171.12 274.44C171.12 267.287 165.663 261.999 158.351 261.999C151.039 261.999 145.581 267.297 145.581 274.44C145.581 280.607 149.894 285.567 156.443 286.065V286.054ZM158.351 269.576C161.074 269.576 163.151 271.653 163.151 274.429C163.151 277.206 161.074 279.336 158.351 279.336C155.627 279.336 153.497 277.153 153.497 274.429C153.497 271.706 155.521 269.576 158.351 269.576Z" fill="#0033A1"/>
<path d="M240.413 12.4512L53.0803 102.674L68.181 234.362C80.8973 345.387 119.184 372.409 185.034 422.225C200.007 433.617 216.962 446.598 240.413 465.683C263.864 446.609 280.82 433.617 295.793 422.225C361.643 372.409 399.929 345.387 412.646 234.362L427.747 102.674L240.413 12.4512ZM250.353 327.774V216.75C257.771 216.612 265.592 216.22 274.864 215.69C270.36 239.004 263.207 272.395 259.499 289.35C258.036 296.111 254.062 313.066 250.353 327.774ZM266.514 425.553C265.984 417.87 265.316 404.486 265.316 386.333C265.316 344.73 277.376 279.42 289.827 214.493C326.789 210.784 339.908 202.434 341.625 201.109C325.73 195.281 282.006 192.494 240.403 192.494C198.799 192.494 155.076 195.016 139.181 201.109C140.908 202.306 153.359 210.519 188.594 214.228C193.628 249.208 203.833 317.305 212.702 385.666C212.702 385.666 213.37 369.897 213.37 348.703C213.37 311.741 209.523 249.866 206.874 215.69C215.754 216.22 223.299 216.623 230.452 216.75V438.269C217.333 427.799 205.284 418.665 194.147 410.314C129.23 361.293 94.7794 336.655 82.9955 232.518L69.3467 111.554L238.824 29.9468L233.123 104.804C216.697 105.471 202.519 107.983 194.836 110.632V110.897C194.836 110.897 203.186 113.811 203.186 119.639C203.186 129.05 175.094 135.005 146.874 146.005V146.27C146.874 146.27 184.631 138.979 240.413 138.979C296.196 138.979 333.953 146.27 333.953 146.27V146.005C305.733 135.005 277.641 129.05 277.641 119.639C277.641 113.811 285.991 110.897 285.991 110.897V110.632C278.308 107.983 264.129 105.461 247.704 104.804L242.003 29.9468L411.459 111.554L397.81 232.518C386.016 336.655 351.576 361.293 286.659 410.314C280.3 415.083 273.54 420.254 266.524 425.553H266.514Z" fill="#0033A1"/>
<path d="M369.326 173.96C369.326 167.867 319.509 157.132 240.414 157.132C161.318 157.132 111.501 167.867 111.501 173.96C111.501 180.721 144.892 183.105 146.874 183.232C149.926 180.18 175.761 174.352 240.414 174.352C305.066 174.352 330.901 180.318 333.953 183.232C335.945 183.094 369.326 180.71 369.326 173.96Z" fill="#0033A1"/>
</g>
<defs>
<clipPath id="clip0_593_637">
<rect width="480" height="480" fill="white"/>
</clipPath>
</defs>
</svg>
